G04 #@! TF.FileFunction,Legend,Top*
%FSLAX46Y46*%
G04 Gerber Fmt 4.6, Leading zero omitted, Abs format (unit mm)*
G04 Created by KiCad (PCBNEW 4.0.7-e2-6376~58~ubuntu14.04.1) date Thu May 10 06:19:56 2018*
%MOMM*%
%LPD*%
G01*
G04 APERTURE LIST*
%ADD10C,0.100000*%
%ADD11C,0.150000*%
%ADD12C,0.120000*%
G04 APERTURE END LIST*
D10*
D11*
X65200000Y-116000000D02*
X60000000Y-116000000D01*
X60000000Y-116000000D02*
X60000000Y-103600000D01*
X60000000Y-103600000D02*
X65200000Y-103600000D01*
X133050000Y-102700000D02*
X133550000Y-102700000D01*
X133550000Y-103900000D02*
X133050000Y-103900000D01*
X108550000Y-88900000D02*
X108550000Y-89400000D01*
X107350000Y-89400000D02*
X107350000Y-88900000D01*
X85350000Y-110500000D02*
X85850000Y-110500000D01*
X85850000Y-111700000D02*
X85350000Y-111700000D01*
X142500000Y-113750000D02*
X142500000Y-113250000D01*
X143700000Y-113250000D02*
X143700000Y-113750000D01*
X128050000Y-118400000D02*
X127550000Y-118400000D01*
X127550000Y-117200000D02*
X128050000Y-117200000D01*
D12*
X150460000Y-119780000D02*
X150460000Y-118850000D01*
X150460000Y-116620000D02*
X150460000Y-117550000D01*
X150460000Y-116620000D02*
X147300000Y-116620000D01*
X150460000Y-119780000D02*
X149000000Y-119780000D01*
X75750000Y-114600000D02*
X68450000Y-114600000D01*
X68450000Y-114600000D02*
X68450000Y-116600000D01*
X68450000Y-116600000D02*
X75750000Y-116600000D01*
X136280000Y-112640000D02*
X135350000Y-112640000D01*
X133120000Y-112640000D02*
X134050000Y-112640000D01*
X133120000Y-112640000D02*
X133120000Y-115800000D01*
X136280000Y-112640000D02*
X136280000Y-114100000D01*
D11*
X114175000Y-88775000D02*
X114175000Y-89575000D01*
X112825000Y-89575000D02*
X112825000Y-88775000D01*
X75250000Y-111600000D02*
X74750000Y-111600000D01*
X74750000Y-110400000D02*
X75250000Y-110400000D01*
X86225000Y-107900000D02*
X86225000Y-107100000D01*
X87575000Y-107100000D02*
X87575000Y-107900000D01*
X123000000Y-113250000D02*
X123000000Y-113750000D01*
X121800000Y-113750000D02*
X121800000Y-113250000D01*
D12*
X100800000Y-114600000D02*
X93500000Y-114600000D01*
X93500000Y-114600000D02*
X93500000Y-116600000D01*
X93500000Y-116600000D02*
X100800000Y-116600000D01*
D11*
X86225000Y-94750000D02*
X86225000Y-93950000D01*
X87575000Y-93950000D02*
X87575000Y-94750000D01*
X83525000Y-94750000D02*
X83525000Y-93950000D01*
X84875000Y-93950000D02*
X84875000Y-94750000D01*
X126500000Y-112975000D02*
X125700000Y-112975000D01*
X125700000Y-111625000D02*
X126500000Y-111625000D01*
D12*
X84840000Y-97720000D02*
X84840000Y-98650000D01*
X84840000Y-100880000D02*
X84840000Y-99950000D01*
X84840000Y-100880000D02*
X88000000Y-100880000D01*
X84840000Y-97720000D02*
X86300000Y-97720000D01*
D11*
X126500000Y-115675000D02*
X125700000Y-115675000D01*
X125700000Y-114325000D02*
X126500000Y-114325000D01*
D12*
X86360000Y-104780000D02*
X86360000Y-103850000D01*
X86360000Y-101620000D02*
X86360000Y-102550000D01*
X86360000Y-101620000D02*
X83200000Y-101620000D01*
X86360000Y-104780000D02*
X84900000Y-104780000D01*
D11*
X79475000Y-111600000D02*
X79475000Y-110800000D01*
X80825000Y-110800000D02*
X80825000Y-111600000D01*
X133050000Y-82300000D02*
X133550000Y-82300000D01*
X133550000Y-83500000D02*
X133050000Y-83500000D01*
X70150000Y-80700000D02*
X69650000Y-80700000D01*
X69650000Y-79500000D02*
X70150000Y-79500000D01*
X85850000Y-91000000D02*
X85350000Y-91000000D01*
X85350000Y-89800000D02*
X85850000Y-89800000D01*
X89650000Y-97700000D02*
X89650000Y-97200000D01*
X90850000Y-97200000D02*
X90850000Y-97700000D01*
X96400000Y-97050000D02*
X96400000Y-97550000D01*
X95200000Y-97550000D02*
X95200000Y-97050000D01*
X106600000Y-97050000D02*
X106600000Y-97550000D01*
X105400000Y-97550000D02*
X105400000Y-97050000D01*
X111700000Y-97050000D02*
X111700000Y-97550000D01*
X110500000Y-97550000D02*
X110500000Y-97050000D01*
D12*
X150460000Y-110680000D02*
X150460000Y-109750000D01*
X150460000Y-107520000D02*
X150460000Y-108450000D01*
X150460000Y-107520000D02*
X147300000Y-107520000D01*
X150460000Y-110680000D02*
X149000000Y-110680000D01*
X129320000Y-114160000D02*
X130250000Y-114160000D01*
X132480000Y-114160000D02*
X131550000Y-114160000D01*
X132480000Y-114160000D02*
X132480000Y-111000000D01*
X129320000Y-114160000D02*
X129320000Y-112700000D01*
D11*
X90925000Y-110800000D02*
X90925000Y-111600000D01*
X89575000Y-111600000D02*
X89575000Y-110800000D01*
X146025000Y-113900000D02*
X146025000Y-112900000D01*
X147375000Y-112900000D02*
X147375000Y-113900000D01*
X85100000Y-114075000D02*
X86100000Y-114075000D01*
X86100000Y-115425000D02*
X85100000Y-115425000D01*
X144300000Y-118475000D02*
X143500000Y-118475000D01*
X143500000Y-117125000D02*
X144300000Y-117125000D01*
X83525000Y-107900000D02*
X83525000Y-107100000D01*
X84875000Y-107100000D02*
X84875000Y-107900000D01*
X132850000Y-107200000D02*
X133350000Y-107200000D01*
X133350000Y-108400000D02*
X132850000Y-108400000D01*
X68650000Y-111500000D02*
X68150000Y-111500000D01*
X68150000Y-110300000D02*
X68650000Y-110300000D01*
X133050000Y-87400000D02*
X133550000Y-87400000D01*
X133550000Y-88600000D02*
X133050000Y-88600000D01*
X101500000Y-97050000D02*
X101500000Y-97550000D01*
X100300000Y-97550000D02*
X100300000Y-97050000D01*
X143500000Y-108625000D02*
X144300000Y-108625000D01*
X144300000Y-109975000D02*
X143500000Y-109975000D01*
X139800000Y-115675000D02*
X139000000Y-115675000D01*
X139000000Y-114325000D02*
X139800000Y-114325000D01*
X139800000Y-112975000D02*
X139000000Y-112975000D01*
X139000000Y-111625000D02*
X139800000Y-111625000D01*
X133050000Y-97600000D02*
X133550000Y-97600000D01*
X133550000Y-98800000D02*
X133050000Y-98800000D01*
X133050000Y-92500000D02*
X133550000Y-92500000D01*
X133550000Y-93700000D02*
X133050000Y-93700000D01*
D12*
X89270000Y-117810000D02*
X90200000Y-117810000D01*
X92430000Y-117810000D02*
X91500000Y-117810000D01*
X92430000Y-117810000D02*
X92430000Y-114650000D01*
X89270000Y-117810000D02*
X89270000Y-116350000D01*
X79170000Y-117810000D02*
X80100000Y-117810000D01*
X82330000Y-117810000D02*
X81400000Y-117810000D01*
X82330000Y-117810000D02*
X82330000Y-114650000D01*
X79170000Y-117810000D02*
X79170000Y-116350000D01*
D11*
X124400000Y-85175000D02*
X124400000Y-84675000D01*
X125600000Y-84675000D02*
X125600000Y-85175000D01*
X65200000Y-87000000D02*
X60000000Y-87000000D01*
X60000000Y-87000000D02*
X60000000Y-74600000D01*
X60000000Y-74600000D02*
X65200000Y-74600000D01*
X116800000Y-97050000D02*
X116800000Y-97550000D01*
X115600000Y-97550000D02*
X115600000Y-97050000D01*
D12*
X102760000Y-68480000D02*
X102760000Y-67550000D01*
X102760000Y-65320000D02*
X102760000Y-66250000D01*
X102760000Y-65320000D02*
X99600000Y-65320000D01*
X102760000Y-68480000D02*
X101300000Y-68480000D01*
D11*
X68250000Y-66075000D02*
X67450000Y-66075000D01*
X67450000Y-64725000D02*
X68250000Y-64725000D01*
D12*
X125000000Y-97950000D02*
X125000000Y-90650000D01*
X125000000Y-90650000D02*
X123000000Y-90650000D01*
X123000000Y-90650000D02*
X123000000Y-97950000D01*
D11*
X119800000Y-91475000D02*
X118600000Y-91475000D01*
X118600000Y-89725000D02*
X119800000Y-89725000D01*
X110930000Y-66050000D02*
X110930000Y-65550000D01*
X112130000Y-65550000D02*
X112130000Y-66050000D01*
D12*
X87960000Y-60080000D02*
X87960000Y-59150000D01*
X87960000Y-56920000D02*
X87960000Y-57850000D01*
X87960000Y-56920000D02*
X84800000Y-56920000D01*
X87960000Y-60080000D02*
X86500000Y-60080000D01*
D11*
X127200000Y-71250000D02*
X127200000Y-70750000D01*
X128400000Y-70750000D02*
X128400000Y-71250000D01*
X137950000Y-66350000D02*
X137450000Y-66350000D01*
X137450000Y-65150000D02*
X137950000Y-65150000D01*
X121175000Y-124750000D02*
X121175000Y-125250000D01*
X119975000Y-125250000D02*
X119975000Y-124750000D01*
X107010000Y-66050000D02*
X107010000Y-65550000D01*
X108210000Y-65550000D02*
X108210000Y-66050000D01*
X140700000Y-76350000D02*
X141200000Y-76350000D01*
X141200000Y-77550000D02*
X140700000Y-77550000D01*
X151500000Y-70750000D02*
X151500000Y-71250000D01*
X150300000Y-71250000D02*
X150300000Y-70750000D01*
D12*
X118000000Y-129000000D02*
X112500000Y-129000000D01*
X118000000Y-126900000D02*
X112500000Y-126900000D01*
X118000000Y-129000000D02*
X118000000Y-126900000D01*
D11*
X130975000Y-122875000D02*
X131475000Y-122875000D01*
X131475000Y-124075000D02*
X130975000Y-124075000D01*
D12*
X125260000Y-64880000D02*
X125260000Y-63950000D01*
X125260000Y-61720000D02*
X125260000Y-62650000D01*
X125260000Y-61720000D02*
X122100000Y-61720000D01*
X125260000Y-64880000D02*
X123800000Y-64880000D01*
X125460000Y-78580000D02*
X125460000Y-77650000D01*
X125460000Y-75420000D02*
X125460000Y-76350000D01*
X125460000Y-75420000D02*
X122300000Y-75420000D01*
X125460000Y-78580000D02*
X124000000Y-78580000D01*
X135570000Y-72110000D02*
X136500000Y-72110000D01*
X138730000Y-72110000D02*
X137800000Y-72110000D01*
X138730000Y-72110000D02*
X138730000Y-68950000D01*
X135570000Y-72110000D02*
X135570000Y-70650000D01*
X143180000Y-70590000D02*
X142250000Y-70590000D01*
X140020000Y-70590000D02*
X140950000Y-70590000D01*
X140020000Y-70590000D02*
X140020000Y-73750000D01*
X143180000Y-70590000D02*
X143180000Y-72050000D01*
X95045000Y-127735000D02*
X95975000Y-127735000D01*
X98205000Y-127735000D02*
X97275000Y-127735000D01*
X98205000Y-127735000D02*
X98205000Y-124575000D01*
X95045000Y-127735000D02*
X95045000Y-126275000D01*
X106340000Y-120245000D02*
X106340000Y-121175000D01*
X106340000Y-123405000D02*
X106340000Y-122475000D01*
X106340000Y-123405000D02*
X109500000Y-123405000D01*
X106340000Y-120245000D02*
X107800000Y-120245000D01*
D11*
X132100000Y-73325000D02*
X131300000Y-73325000D01*
X131300000Y-71975000D02*
X132100000Y-71975000D01*
X132100000Y-70475000D02*
X131300000Y-70475000D01*
X131300000Y-69125000D02*
X132100000Y-69125000D01*
X132100000Y-66425000D02*
X131300000Y-66425000D01*
X131300000Y-65075000D02*
X132100000Y-65075000D01*
X131300000Y-75875000D02*
X132100000Y-75875000D01*
X132100000Y-77225000D02*
X131300000Y-77225000D01*
X123375000Y-71300000D02*
X123375000Y-70300000D01*
X124725000Y-70300000D02*
X124725000Y-71300000D01*
X147450000Y-70475000D02*
X146650000Y-70475000D01*
X146650000Y-69125000D02*
X147450000Y-69125000D01*
X147450000Y-73325000D02*
X146650000Y-73325000D01*
X146650000Y-71975000D02*
X147450000Y-71975000D01*
X107625000Y-126300000D02*
X106825000Y-126300000D01*
X106825000Y-124950000D02*
X107625000Y-124950000D01*
X102225000Y-126450000D02*
X102225000Y-127250000D01*
X100875000Y-127250000D02*
X100875000Y-126450000D01*
X126050000Y-124675000D02*
X126050000Y-125475000D01*
X124700000Y-125475000D02*
X124700000Y-124675000D01*
X131575000Y-126975000D02*
X130775000Y-126975000D01*
X130775000Y-125625000D02*
X131575000Y-125625000D01*
X95675000Y-120700000D02*
X95675000Y-121500000D01*
X94325000Y-121500000D02*
X94325000Y-120700000D01*
X102850000Y-76400000D02*
X102850000Y-76900000D01*
X101650000Y-76900000D02*
X101650000Y-76400000D01*
D12*
X93350000Y-68450000D02*
X93350000Y-62950000D01*
X95450000Y-68450000D02*
X95450000Y-62950000D01*
X93350000Y-68450000D02*
X95450000Y-68450000D01*
X107180000Y-70920000D02*
X114480000Y-70920000D01*
X114480000Y-70920000D02*
X114480000Y-68920000D01*
X114480000Y-68920000D02*
X107180000Y-68920000D01*
D11*
X98600000Y-78475000D02*
X97800000Y-78475000D01*
X97800000Y-77125000D02*
X98600000Y-77125000D01*
X87225000Y-70080000D02*
X87225000Y-69280000D01*
X88575000Y-69280000D02*
X88575000Y-70080000D01*
X103450000Y-45900000D02*
X102950000Y-45900000D01*
X102950000Y-44700000D02*
X103450000Y-44700000D01*
X109100000Y-45150000D02*
X109100000Y-45650000D01*
X107900000Y-45650000D02*
X107900000Y-45150000D01*
X114700000Y-50050000D02*
X114700000Y-50550000D01*
X113500000Y-50550000D02*
X113500000Y-50050000D01*
X119050000Y-52900000D02*
X118550000Y-52900000D01*
X118550000Y-51700000D02*
X119050000Y-51700000D01*
X114700000Y-45250000D02*
X114700000Y-45750000D01*
X113500000Y-45750000D02*
X113500000Y-45250000D01*
X77300000Y-76150000D02*
X77300000Y-75650000D01*
X78500000Y-75650000D02*
X78500000Y-76150000D01*
D12*
X88750000Y-79800000D02*
X88750000Y-85300000D01*
X86650000Y-79800000D02*
X86650000Y-85300000D01*
X88750000Y-79800000D02*
X86650000Y-79800000D01*
D11*
X80400000Y-70050000D02*
X80900000Y-70050000D01*
X80900000Y-71250000D02*
X80400000Y-71250000D01*
D12*
X80140000Y-65820000D02*
X80140000Y-66750000D01*
X80140000Y-68980000D02*
X80140000Y-68050000D01*
X80140000Y-68980000D02*
X83300000Y-68980000D01*
X80140000Y-65820000D02*
X81600000Y-65820000D01*
X89870000Y-72960000D02*
X90800000Y-72960000D01*
X93030000Y-72960000D02*
X92100000Y-72960000D01*
X93030000Y-72960000D02*
X93030000Y-69800000D01*
X89870000Y-72960000D02*
X89870000Y-71500000D01*
X95270000Y-72960000D02*
X96200000Y-72960000D01*
X98430000Y-72960000D02*
X97500000Y-72960000D01*
X98430000Y-72960000D02*
X98430000Y-69800000D01*
X95270000Y-72960000D02*
X95270000Y-71500000D01*
X109240000Y-48720000D02*
X109240000Y-49650000D01*
X109240000Y-51880000D02*
X109240000Y-50950000D01*
X109240000Y-51880000D02*
X112400000Y-51880000D01*
X109240000Y-48720000D02*
X110700000Y-48720000D01*
D11*
X96200000Y-47125000D02*
X97000000Y-47125000D01*
X97000000Y-48475000D02*
X96200000Y-48475000D01*
X103600000Y-50475000D02*
X102800000Y-50475000D01*
X102800000Y-49125000D02*
X103600000Y-49125000D01*
X107700000Y-55725000D02*
X106900000Y-55725000D01*
X106900000Y-54375000D02*
X107700000Y-54375000D01*
X115700000Y-56075000D02*
X114900000Y-56075000D01*
X114900000Y-54725000D02*
X115700000Y-54725000D01*
X66000000Y-71625000D02*
X65200000Y-71625000D01*
X65200000Y-70275000D02*
X66000000Y-70275000D01*
X82200000Y-79225000D02*
X83000000Y-79225000D01*
X83000000Y-80575000D02*
X82200000Y-80575000D01*
X99050000Y-51875000D02*
X99850000Y-51875000D01*
X99850000Y-53225000D02*
X99050000Y-53225000D01*
X75730000Y-65915000D02*
X74930000Y-65915000D01*
X74930000Y-64565000D02*
X75730000Y-64565000D01*
X91425000Y-62550000D02*
X91425000Y-63350000D01*
X90075000Y-63350000D02*
X90075000Y-62550000D01*
X77600000Y-53225000D02*
X78400000Y-53225000D01*
X78400000Y-54575000D02*
X77600000Y-54575000D01*
X82500000Y-53225000D02*
X83300000Y-53225000D01*
X83300000Y-54575000D02*
X82500000Y-54575000D01*
X87075000Y-77575000D02*
X87075000Y-77525000D01*
X82925000Y-77575000D02*
X82925000Y-77430000D01*
X82925000Y-72425000D02*
X82925000Y-72570000D01*
X87075000Y-72425000D02*
X87075000Y-72570000D01*
X87075000Y-77575000D02*
X82925000Y-77575000D01*
X87075000Y-72425000D02*
X82925000Y-72425000D01*
X87075000Y-77525000D02*
X88475000Y-77525000D01*
D12*
X67350000Y-52750000D02*
X72850000Y-52750000D01*
X67350000Y-54850000D02*
X72850000Y-54850000D01*
X67350000Y-52750000D02*
X67350000Y-54850000D01*
X72510000Y-51630000D02*
X72510000Y-50700000D01*
X72510000Y-48470000D02*
X72510000Y-49400000D01*
X72510000Y-48470000D02*
X69350000Y-48470000D01*
X72510000Y-51630000D02*
X71050000Y-51630000D01*
X69990000Y-56720000D02*
X69990000Y-57650000D01*
X69990000Y-59880000D02*
X69990000Y-58950000D01*
X69990000Y-59880000D02*
X73150000Y-59880000D01*
X69990000Y-56720000D02*
X71450000Y-56720000D01*
D11*
X76925000Y-59100000D02*
X76925000Y-59900000D01*
X75575000Y-59900000D02*
X75575000Y-59100000D01*
X64900000Y-58975000D02*
X64100000Y-58975000D01*
X64100000Y-57625000D02*
X64900000Y-57625000D01*
X70400000Y-60875000D02*
X71200000Y-60875000D01*
X71200000Y-62225000D02*
X70400000Y-62225000D01*
X127215000Y-85380000D02*
X127215000Y-84580000D01*
X128565000Y-84580000D02*
X128565000Y-85380000D01*
X147590000Y-94615000D02*
X146790000Y-94615000D01*
X146790000Y-93265000D02*
X147590000Y-93265000D01*
X100185000Y-82520000D02*
X100185000Y-81720000D01*
X101535000Y-81720000D02*
X101535000Y-82520000D01*
X147590000Y-102355000D02*
X146790000Y-102355000D01*
X146790000Y-101005000D02*
X147590000Y-101005000D01*
D12*
X71300000Y-68900000D02*
X72000000Y-68900000D01*
X72000000Y-70100000D02*
X71300000Y-70100000D01*
X80100000Y-58200000D02*
X80100000Y-57500000D01*
X81300000Y-57500000D02*
X81300000Y-58200000D01*
X79850000Y-61750000D02*
X80550000Y-61750000D01*
X80550000Y-62950000D02*
X79850000Y-62950000D01*
D11*
X62526667Y-116237381D02*
X62526667Y-116951667D01*
X62479047Y-117094524D01*
X62383809Y-117189762D01*
X62240952Y-117237381D01*
X62145714Y-117237381D01*
X63431429Y-116570714D02*
X63431429Y-117237381D01*
X63193333Y-116189762D02*
X62955238Y-116904048D01*
X63574286Y-116904048D01*
X132657143Y-101757143D02*
X132609524Y-101804762D01*
X132466667Y-101852381D01*
X132371429Y-101852381D01*
X132228571Y-101804762D01*
X132133333Y-101709524D01*
X132085714Y-101614286D01*
X132038095Y-101423810D01*
X132038095Y-101280952D01*
X132085714Y-101090476D01*
X132133333Y-100995238D01*
X132228571Y-100900000D01*
X132371429Y-100852381D01*
X132466667Y-100852381D01*
X132609524Y-100900000D01*
X132657143Y-100947619D01*
X133038095Y-100947619D02*
X133085714Y-100900000D01*
X133180952Y-100852381D01*
X133419048Y-100852381D01*
X133514286Y-100900000D01*
X133561905Y-100947619D01*
X133609524Y-101042857D01*
X133609524Y-101138095D01*
X133561905Y-101280952D01*
X132990476Y-101852381D01*
X133609524Y-101852381D01*
X134085714Y-101852381D02*
X134276190Y-101852381D01*
X134371429Y-101804762D01*
X134419048Y-101757143D01*
X134514286Y-101614286D01*
X134561905Y-101423810D01*
X134561905Y-101042857D01*
X134514286Y-100947619D01*
X134466667Y-100900000D01*
X134371429Y-100852381D01*
X134180952Y-100852381D01*
X134085714Y-100900000D01*
X134038095Y-100947619D01*
X133990476Y-101042857D01*
X133990476Y-101280952D01*
X134038095Y-101376190D01*
X134085714Y-101423810D01*
X134180952Y-101471429D01*
X134371429Y-101471429D01*
X134466667Y-101423810D01*
X134514286Y-101376190D01*
X134561905Y-101280952D01*
X110082143Y-90217857D02*
X110129762Y-90265476D01*
X110177381Y-90408333D01*
X110177381Y-90503571D01*
X110129762Y-90646429D01*
X110034524Y-90741667D01*
X109939286Y-90789286D01*
X109748810Y-90836905D01*
X109605952Y-90836905D01*
X109415476Y-90789286D01*
X109320238Y-90741667D01*
X109225000Y-90646429D01*
X109177381Y-90503571D01*
X109177381Y-90408333D01*
X109225000Y-90265476D01*
X109272619Y-90217857D01*
X109510714Y-89360714D02*
X110177381Y-89360714D01*
X109129762Y-89598810D02*
X109844048Y-89836905D01*
X109844048Y-89217857D01*
X110177381Y-88313095D02*
X110177381Y-88884524D01*
X110177381Y-88598810D02*
X109177381Y-88598810D01*
X109320238Y-88694048D01*
X109415476Y-88789286D01*
X109463095Y-88884524D01*
X84957143Y-113457143D02*
X84909524Y-113504762D01*
X84766667Y-113552381D01*
X84671429Y-113552381D01*
X84528571Y-113504762D01*
X84433333Y-113409524D01*
X84385714Y-113314286D01*
X84338095Y-113123810D01*
X84338095Y-112980952D01*
X84385714Y-112790476D01*
X84433333Y-112695238D01*
X84528571Y-112600000D01*
X84671429Y-112552381D01*
X84766667Y-112552381D01*
X84909524Y-112600000D01*
X84957143Y-112647619D01*
X85814286Y-112885714D02*
X85814286Y-113552381D01*
X85576190Y-112504762D02*
X85338095Y-113219048D01*
X85957143Y-113219048D01*
X86242857Y-112552381D02*
X86861905Y-112552381D01*
X86528571Y-112933333D01*
X86671429Y-112933333D01*
X86766667Y-112980952D01*
X86814286Y-113028571D01*
X86861905Y-113123810D01*
X86861905Y-113361905D01*
X86814286Y-113457143D01*
X86766667Y-113504762D01*
X86671429Y-113552381D01*
X86385714Y-113552381D01*
X86290476Y-113504762D01*
X86242857Y-113457143D01*
X145207143Y-114142857D02*
X145254762Y-114190476D01*
X145302381Y-114333333D01*
X145302381Y-114428571D01*
X145254762Y-114571429D01*
X145159524Y-114666667D01*
X145064286Y-114714286D01*
X144873810Y-114761905D01*
X144730952Y-114761905D01*
X144540476Y-114714286D01*
X144445238Y-114666667D01*
X144350000Y-114571429D01*
X144302381Y-114428571D01*
X144302381Y-114333333D01*
X144350000Y-114190476D01*
X144397619Y-114142857D01*
X144635714Y-113285714D02*
X145302381Y-113285714D01*
X144254762Y-113523810D02*
X144969048Y-113761905D01*
X144969048Y-113142857D01*
X144635714Y-112333333D02*
X145302381Y-112333333D01*
X144254762Y-112571429D02*
X144969048Y-112809524D01*
X144969048Y-112190476D01*
X127157143Y-120057143D02*
X127109524Y-120104762D01*
X126966667Y-120152381D01*
X126871429Y-120152381D01*
X126728571Y-120104762D01*
X126633333Y-120009524D01*
X126585714Y-119914286D01*
X126538095Y-119723810D01*
X126538095Y-119580952D01*
X126585714Y-119390476D01*
X126633333Y-119295238D01*
X126728571Y-119200000D01*
X126871429Y-119152381D01*
X126966667Y-119152381D01*
X127109524Y-119200000D01*
X127157143Y-119247619D01*
X128061905Y-119152381D02*
X127585714Y-119152381D01*
X127538095Y-119628571D01*
X127585714Y-119580952D01*
X127680952Y-119533333D01*
X127919048Y-119533333D01*
X128014286Y-119580952D01*
X128061905Y-119628571D01*
X128109524Y-119723810D01*
X128109524Y-119961905D01*
X128061905Y-120057143D01*
X128014286Y-120104762D01*
X127919048Y-120152381D01*
X127680952Y-120152381D01*
X127585714Y-120104762D01*
X127538095Y-120057143D01*
X128442857Y-119152381D02*
X129061905Y-119152381D01*
X128728571Y-119533333D01*
X128871429Y-119533333D01*
X128966667Y-119580952D01*
X129014286Y-119628571D01*
X129061905Y-119723810D01*
X129061905Y-119961905D01*
X129014286Y-120057143D01*
X128966667Y-120104762D01*
X128871429Y-120152381D01*
X128585714Y-120152381D01*
X128490476Y-120104762D01*
X128442857Y-120057143D01*
X149961905Y-116052381D02*
X149961905Y-115052381D01*
X150200000Y-115052381D01*
X150342858Y-115100000D01*
X150438096Y-115195238D01*
X150485715Y-115290476D01*
X150533334Y-115480952D01*
X150533334Y-115623810D01*
X150485715Y-115814286D01*
X150438096Y-115909524D01*
X150342858Y-116004762D01*
X150200000Y-116052381D01*
X149961905Y-116052381D01*
X151104762Y-115480952D02*
X151009524Y-115433333D01*
X150961905Y-115385714D01*
X150914286Y-115290476D01*
X150914286Y-115242857D01*
X150961905Y-115147619D01*
X151009524Y-115100000D01*
X151104762Y-115052381D01*
X151295239Y-115052381D01*
X151390477Y-115100000D01*
X151438096Y-115147619D01*
X151485715Y-115242857D01*
X151485715Y-115290476D01*
X151438096Y-115385714D01*
X151390477Y-115433333D01*
X151295239Y-115480952D01*
X151104762Y-115480952D01*
X151009524Y-115528571D01*
X150961905Y-115576190D01*
X150914286Y-115671429D01*
X150914286Y-115861905D01*
X150961905Y-115957143D01*
X151009524Y-116004762D01*
X151104762Y-116052381D01*
X151295239Y-116052381D01*
X151390477Y-116004762D01*
X151438096Y-115957143D01*
X151485715Y-115861905D01*
X151485715Y-115671429D01*
X151438096Y-115576190D01*
X151390477Y-115528571D01*
X151295239Y-115480952D01*
X71585714Y-118352381D02*
X71585714Y-117352381D01*
X71823809Y-117352381D01*
X71966667Y-117400000D01*
X72061905Y-117495238D01*
X72109524Y-117590476D01*
X72157143Y-117780952D01*
X72157143Y-117923810D01*
X72109524Y-118114286D01*
X72061905Y-118209524D01*
X71966667Y-118304762D01*
X71823809Y-118352381D01*
X71585714Y-118352381D01*
X73109524Y-118352381D02*
X72538095Y-118352381D01*
X72823809Y-118352381D02*
X72823809Y-117352381D01*
X72728571Y-117495238D01*
X72633333Y-117590476D01*
X72538095Y-117638095D01*
X74061905Y-118352381D02*
X73490476Y-118352381D01*
X73776190Y-118352381D02*
X73776190Y-117352381D01*
X73680952Y-117495238D01*
X73585714Y-117590476D01*
X73490476Y-117638095D01*
X134604762Y-110447619D02*
X134509524Y-110400000D01*
X134414286Y-110304762D01*
X134271429Y-110161905D01*
X134176190Y-110114286D01*
X134080952Y-110114286D01*
X134128571Y-110352381D02*
X134033333Y-110304762D01*
X133938095Y-110209524D01*
X133890476Y-110019048D01*
X133890476Y-109685714D01*
X133938095Y-109495238D01*
X134033333Y-109400000D01*
X134128571Y-109352381D01*
X134319048Y-109352381D01*
X134414286Y-109400000D01*
X134509524Y-109495238D01*
X134557143Y-109685714D01*
X134557143Y-110019048D01*
X134509524Y-110209524D01*
X134414286Y-110304762D01*
X134319048Y-110352381D01*
X134128571Y-110352381D01*
X135414286Y-109352381D02*
X135223809Y-109352381D01*
X135128571Y-109400000D01*
X135080952Y-109447619D01*
X134985714Y-109590476D01*
X134938095Y-109780952D01*
X134938095Y-110161905D01*
X134985714Y-110257143D01*
X135033333Y-110304762D01*
X135128571Y-110352381D01*
X135319048Y-110352381D01*
X135414286Y-110304762D01*
X135461905Y-110257143D01*
X135509524Y-110161905D01*
X135509524Y-109923810D01*
X135461905Y-109828571D01*
X135414286Y-109780952D01*
X135319048Y-109733333D01*
X135128571Y-109733333D01*
X135033333Y-109780952D01*
X134985714Y-109828571D01*
X134938095Y-109923810D01*
X116052381Y-89792857D02*
X115576190Y-90126191D01*
X116052381Y-90364286D02*
X115052381Y-90364286D01*
X115052381Y-89983333D01*
X115100000Y-89888095D01*
X115147619Y-89840476D01*
X115242857Y-89792857D01*
X115385714Y-89792857D01*
X115480952Y-89840476D01*
X115528571Y-89888095D01*
X115576190Y-89983333D01*
X115576190Y-90364286D01*
X115052381Y-89459524D02*
X115052381Y-88840476D01*
X115433333Y-89173810D01*
X115433333Y-89030952D01*
X115480952Y-88935714D01*
X115528571Y-88888095D01*
X115623810Y-88840476D01*
X115861905Y-88840476D01*
X115957143Y-88888095D01*
X116004762Y-88935714D01*
X116052381Y-89030952D01*
X116052381Y-89316667D01*
X116004762Y-89411905D01*
X115957143Y-89459524D01*
X115052381Y-88507143D02*
X115052381Y-87840476D01*
X116052381Y-88269048D01*
X74357143Y-113107143D02*
X74309524Y-113154762D01*
X74166667Y-113202381D01*
X74071429Y-113202381D01*
X73928571Y-113154762D01*
X73833333Y-113059524D01*
X73785714Y-112964286D01*
X73738095Y-112773810D01*
X73738095Y-112630952D01*
X73785714Y-112440476D01*
X73833333Y-112345238D01*
X73928571Y-112250000D01*
X74071429Y-112202381D01*
X74166667Y-112202381D01*
X74309524Y-112250000D01*
X74357143Y-112297619D01*
X75309524Y-113202381D02*
X74738095Y-113202381D01*
X75023809Y-113202381D02*
X75023809Y-112202381D01*
X74928571Y-112345238D01*
X74833333Y-112440476D01*
X74738095Y-112488095D01*
X76214286Y-112202381D02*
X75738095Y-112202381D01*
X75690476Y-112678571D01*
X75738095Y-112630952D01*
X75833333Y-112583333D01*
X76071429Y-112583333D01*
X76166667Y-112630952D01*
X76214286Y-112678571D01*
X76261905Y-112773810D01*
X76261905Y-113011905D01*
X76214286Y-113107143D01*
X76166667Y-113154762D01*
X76071429Y-113202381D01*
X75833333Y-113202381D01*
X75738095Y-113154762D01*
X75690476Y-113107143D01*
X89252381Y-108142857D02*
X88776190Y-108476191D01*
X89252381Y-108714286D02*
X88252381Y-108714286D01*
X88252381Y-108333333D01*
X88300000Y-108238095D01*
X88347619Y-108190476D01*
X88442857Y-108142857D01*
X88585714Y-108142857D01*
X88680952Y-108190476D01*
X88728571Y-108238095D01*
X88776190Y-108333333D01*
X88776190Y-108714286D01*
X88347619Y-107761905D02*
X88300000Y-107714286D01*
X88252381Y-107619048D01*
X88252381Y-107380952D01*
X88300000Y-107285714D01*
X88347619Y-107238095D01*
X88442857Y-107190476D01*
X88538095Y-107190476D01*
X88680952Y-107238095D01*
X89252381Y-107809524D01*
X89252381Y-107190476D01*
X88252381Y-106285714D02*
X88252381Y-106761905D01*
X88728571Y-106809524D01*
X88680952Y-106761905D01*
X88633333Y-106666667D01*
X88633333Y-106428571D01*
X88680952Y-106333333D01*
X88728571Y-106285714D01*
X88823810Y-106238095D01*
X89061905Y-106238095D01*
X89157143Y-106285714D01*
X89204762Y-106333333D01*
X89252381Y-106428571D01*
X89252381Y-106666667D01*
X89204762Y-106761905D01*
X89157143Y-106809524D01*
X121057143Y-114142857D02*
X121104762Y-114190476D01*
X121152381Y-114333333D01*
X121152381Y-114428571D01*
X121104762Y-114571429D01*
X121009524Y-114666667D01*
X120914286Y-114714286D01*
X120723810Y-114761905D01*
X120580952Y-114761905D01*
X120390476Y-114714286D01*
X120295238Y-114666667D01*
X120200000Y-114571429D01*
X120152381Y-114428571D01*
X120152381Y-114333333D01*
X120200000Y-114190476D01*
X120247619Y-114142857D01*
X121152381Y-113190476D02*
X121152381Y-113761905D01*
X121152381Y-113476191D02*
X120152381Y-113476191D01*
X120295238Y-113571429D01*
X120390476Y-113666667D01*
X120438095Y-113761905D01*
X120152381Y-112571429D02*
X120152381Y-112476190D01*
X120200000Y-112380952D01*
X120247619Y-112333333D01*
X120342857Y-112285714D01*
X120533333Y-112238095D01*
X120771429Y-112238095D01*
X120961905Y-112285714D01*
X121057143Y-112333333D01*
X121104762Y-112380952D01*
X121152381Y-112476190D01*
X121152381Y-112571429D01*
X121104762Y-112666667D01*
X121057143Y-112714286D01*
X120961905Y-112761905D01*
X120771429Y-112809524D01*
X120533333Y-112809524D01*
X120342857Y-112761905D01*
X120247619Y-112714286D01*
X120200000Y-112666667D01*
X120152381Y-112571429D01*
X97361905Y-118002381D02*
X97361905Y-117002381D01*
X97600000Y-117002381D01*
X97742858Y-117050000D01*
X97838096Y-117145238D01*
X97885715Y-117240476D01*
X97933334Y-117430952D01*
X97933334Y-117573810D01*
X97885715Y-117764286D01*
X97838096Y-117859524D01*
X97742858Y-117954762D01*
X97600000Y-118002381D01*
X97361905Y-118002381D01*
X98885715Y-118002381D02*
X98314286Y-118002381D01*
X98600000Y-118002381D02*
X98600000Y-117002381D01*
X98504762Y-117145238D01*
X98409524Y-117240476D01*
X98314286Y-117288095D01*
X89152381Y-94416666D02*
X88676190Y-94750000D01*
X89152381Y-94988095D02*
X88152381Y-94988095D01*
X88152381Y-94607142D01*
X88200000Y-94511904D01*
X88247619Y-94464285D01*
X88342857Y-94416666D01*
X88485714Y-94416666D01*
X88580952Y-94464285D01*
X88628571Y-94511904D01*
X88676190Y-94607142D01*
X88676190Y-94988095D01*
X88485714Y-93559523D02*
X89152381Y-93559523D01*
X88104762Y-93797619D02*
X88819048Y-94035714D01*
X88819048Y-93416666D01*
X82752381Y-94516666D02*
X82276190Y-94850000D01*
X82752381Y-95088095D02*
X81752381Y-95088095D01*
X81752381Y-94707142D01*
X81800000Y-94611904D01*
X81847619Y-94564285D01*
X81942857Y-94516666D01*
X82085714Y-94516666D01*
X82180952Y-94564285D01*
X82228571Y-94611904D01*
X82276190Y-94707142D01*
X82276190Y-95088095D01*
X81752381Y-93611904D02*
X81752381Y-94088095D01*
X82228571Y-94135714D01*
X82180952Y-94088095D01*
X82133333Y-93992857D01*
X82133333Y-93754761D01*
X82180952Y-93659523D01*
X82228571Y-93611904D01*
X82323810Y-93564285D01*
X82561905Y-93564285D01*
X82657143Y-93611904D01*
X82704762Y-93659523D01*
X82752381Y-93754761D01*
X82752381Y-93992857D01*
X82704762Y-94088095D01*
X82657143Y-94135714D01*
X125933334Y-110752381D02*
X125600000Y-110276190D01*
X125361905Y-110752381D02*
X125361905Y-109752381D01*
X125742858Y-109752381D01*
X125838096Y-109800000D01*
X125885715Y-109847619D01*
X125933334Y-109942857D01*
X125933334Y-110085714D01*
X125885715Y-110180952D01*
X125838096Y-110228571D01*
X125742858Y-110276190D01*
X125361905Y-110276190D01*
X126790477Y-109752381D02*
X126600000Y-109752381D01*
X126504762Y-109800000D01*
X126457143Y-109847619D01*
X126361905Y-109990476D01*
X126314286Y-110180952D01*
X126314286Y-110561905D01*
X126361905Y-110657143D01*
X126409524Y-110704762D01*
X126504762Y-110752381D01*
X126695239Y-110752381D01*
X126790477Y-110704762D01*
X126838096Y-110657143D01*
X126885715Y-110561905D01*
X126885715Y-110323810D01*
X126838096Y-110228571D01*
X126790477Y-110180952D01*
X126695239Y-110133333D01*
X126504762Y-110133333D01*
X126409524Y-110180952D01*
X126361905Y-110228571D01*
X126314286Y-110323810D01*
X82447619Y-99395238D02*
X82400000Y-99490476D01*
X82304762Y-99585714D01*
X82161905Y-99728571D01*
X82114286Y-99823810D01*
X82114286Y-99919048D01*
X82352381Y-99871429D02*
X82304762Y-99966667D01*
X82209524Y-100061905D01*
X82019048Y-100109524D01*
X81685714Y-100109524D01*
X81495238Y-100061905D01*
X81400000Y-99966667D01*
X81352381Y-99871429D01*
X81352381Y-99680952D01*
X81400000Y-99585714D01*
X81495238Y-99490476D01*
X81685714Y-99442857D01*
X82019048Y-99442857D01*
X82209524Y-99490476D01*
X82304762Y-99585714D01*
X82352381Y-99680952D01*
X82352381Y-99871429D01*
X81447619Y-99061905D02*
X81400000Y-99014286D01*
X81352381Y-98919048D01*
X81352381Y-98680952D01*
X81400000Y-98585714D01*
X81447619Y-98538095D01*
X81542857Y-98490476D01*
X81638095Y-98490476D01*
X81780952Y-98538095D01*
X82352381Y-99109524D01*
X82352381Y-98490476D01*
X123733334Y-117252381D02*
X123400000Y-116776190D01*
X123161905Y-117252381D02*
X123161905Y-116252381D01*
X123542858Y-116252381D01*
X123638096Y-116300000D01*
X123685715Y-116347619D01*
X123733334Y-116442857D01*
X123733334Y-116585714D01*
X123685715Y-116680952D01*
X123638096Y-116728571D01*
X123542858Y-116776190D01*
X123161905Y-116776190D01*
X124066667Y-116252381D02*
X124733334Y-116252381D01*
X124304762Y-117252381D01*
X82447619Y-103295238D02*
X82400000Y-103390476D01*
X82304762Y-103485714D01*
X82161905Y-103628571D01*
X82114286Y-103723810D01*
X82114286Y-103819048D01*
X82352381Y-103771429D02*
X82304762Y-103866667D01*
X82209524Y-103961905D01*
X82019048Y-104009524D01*
X81685714Y-104009524D01*
X81495238Y-103961905D01*
X81400000Y-103866667D01*
X81352381Y-103771429D01*
X81352381Y-103580952D01*
X81400000Y-103485714D01*
X81495238Y-103390476D01*
X81685714Y-103342857D01*
X82019048Y-103342857D01*
X82209524Y-103390476D01*
X82304762Y-103485714D01*
X82352381Y-103580952D01*
X82352381Y-103771429D01*
X81352381Y-102438095D02*
X81352381Y-102914286D01*
X81828571Y-102961905D01*
X81780952Y-102914286D01*
X81733333Y-102819048D01*
X81733333Y-102580952D01*
X81780952Y-102485714D01*
X81828571Y-102438095D01*
X81923810Y-102390476D01*
X82161905Y-102390476D01*
X82257143Y-102438095D01*
X82304762Y-102485714D01*
X82352381Y-102580952D01*
X82352381Y-102819048D01*
X82304762Y-102914286D01*
X82257143Y-102961905D01*
X78852381Y-111842857D02*
X78376190Y-112176191D01*
X78852381Y-112414286D02*
X77852381Y-112414286D01*
X77852381Y-112033333D01*
X77900000Y-111938095D01*
X77947619Y-111890476D01*
X78042857Y-111842857D01*
X78185714Y-111842857D01*
X78280952Y-111890476D01*
X78328571Y-111938095D01*
X78376190Y-112033333D01*
X78376190Y-112414286D01*
X78852381Y-110890476D02*
X78852381Y-111461905D01*
X78852381Y-111176191D02*
X77852381Y-111176191D01*
X77995238Y-111271429D01*
X78090476Y-111366667D01*
X78138095Y-111461905D01*
X78280952Y-110319048D02*
X78233333Y-110414286D01*
X78185714Y-110461905D01*
X78090476Y-110509524D01*
X78042857Y-110509524D01*
X77947619Y-110461905D01*
X77900000Y-110414286D01*
X77852381Y-110319048D01*
X77852381Y-110128571D01*
X77900000Y-110033333D01*
X77947619Y-109985714D01*
X78042857Y-109938095D01*
X78090476Y-109938095D01*
X78185714Y-109985714D01*
X78233333Y-110033333D01*
X78280952Y-110128571D01*
X78280952Y-110319048D01*
X78328571Y-110414286D01*
X78376190Y-110461905D01*
X78471429Y-110509524D01*
X78661905Y-110509524D01*
X78757143Y-110461905D01*
X78804762Y-110414286D01*
X78852381Y-110319048D01*
X78852381Y-110128571D01*
X78804762Y-110033333D01*
X78757143Y-109985714D01*
X78661905Y-109938095D01*
X78471429Y-109938095D01*
X78376190Y-109985714D01*
X78328571Y-110033333D01*
X78280952Y-110128571D01*
X133133334Y-81357143D02*
X133085715Y-81404762D01*
X132942858Y-81452381D01*
X132847620Y-81452381D01*
X132704762Y-81404762D01*
X132609524Y-81309524D01*
X132561905Y-81214286D01*
X132514286Y-81023810D01*
X132514286Y-80880952D01*
X132561905Y-80690476D01*
X132609524Y-80595238D01*
X132704762Y-80500000D01*
X132847620Y-80452381D01*
X132942858Y-80452381D01*
X133085715Y-80500000D01*
X133133334Y-80547619D01*
X134038096Y-80452381D02*
X133561905Y-80452381D01*
X133514286Y-80928571D01*
X133561905Y-80880952D01*
X133657143Y-80833333D01*
X133895239Y-80833333D01*
X133990477Y-80880952D01*
X134038096Y-80928571D01*
X134085715Y-81023810D01*
X134085715Y-81261905D01*
X134038096Y-81357143D01*
X133990477Y-81404762D01*
X133895239Y-81452381D01*
X133657143Y-81452381D01*
X133561905Y-81404762D01*
X133514286Y-81357143D01*
X69733334Y-82357143D02*
X69685715Y-82404762D01*
X69542858Y-82452381D01*
X69447620Y-82452381D01*
X69304762Y-82404762D01*
X69209524Y-82309524D01*
X69161905Y-82214286D01*
X69114286Y-82023810D01*
X69114286Y-81880952D01*
X69161905Y-81690476D01*
X69209524Y-81595238D01*
X69304762Y-81500000D01*
X69447620Y-81452381D01*
X69542858Y-81452381D01*
X69685715Y-81500000D01*
X69733334Y-81547619D01*
X70066667Y-81452381D02*
X70733334Y-81452381D01*
X70304762Y-82452381D01*
X85333334Y-89057143D02*
X85285715Y-89104762D01*
X85142858Y-89152381D01*
X85047620Y-89152381D01*
X84904762Y-89104762D01*
X84809524Y-89009524D01*
X84761905Y-88914286D01*
X84714286Y-88723810D01*
X84714286Y-88580952D01*
X84761905Y-88390476D01*
X84809524Y-88295238D01*
X84904762Y-88200000D01*
X85047620Y-88152381D01*
X85142858Y-88152381D01*
X85285715Y-88200000D01*
X85333334Y-88247619D01*
X85809524Y-89152381D02*
X86000000Y-89152381D01*
X86095239Y-89104762D01*
X86142858Y-89057143D01*
X86238096Y-88914286D01*
X86285715Y-88723810D01*
X86285715Y-88342857D01*
X86238096Y-88247619D01*
X86190477Y-88200000D01*
X86095239Y-88152381D01*
X85904762Y-88152381D01*
X85809524Y-88200000D01*
X85761905Y-88247619D01*
X85714286Y-88342857D01*
X85714286Y-88580952D01*
X85761905Y-88676190D01*
X85809524Y-88723810D01*
X85904762Y-88771429D01*
X86095239Y-88771429D01*
X86190477Y-88723810D01*
X86238096Y-88676190D01*
X86285715Y-88580952D01*
X92307143Y-98092857D02*
X92354762Y-98140476D01*
X92402381Y-98283333D01*
X92402381Y-98378571D01*
X92354762Y-98521429D01*
X92259524Y-98616667D01*
X92164286Y-98664286D01*
X91973810Y-98711905D01*
X91830952Y-98711905D01*
X91640476Y-98664286D01*
X91545238Y-98616667D01*
X91450000Y-98521429D01*
X91402381Y-98378571D01*
X91402381Y-98283333D01*
X91450000Y-98140476D01*
X91497619Y-98092857D01*
X92402381Y-97140476D02*
X92402381Y-97711905D01*
X92402381Y-97426191D02*
X91402381Y-97426191D01*
X91545238Y-97521429D01*
X91640476Y-97616667D01*
X91688095Y-97711905D01*
X91735714Y-96283333D02*
X92402381Y-96283333D01*
X91354762Y-96521429D02*
X92069048Y-96759524D01*
X92069048Y-96140476D01*
X98057143Y-97942857D02*
X98104762Y-97990476D01*
X98152381Y-98133333D01*
X98152381Y-98228571D01*
X98104762Y-98371429D01*
X98009524Y-98466667D01*
X97914286Y-98514286D01*
X97723810Y-98561905D01*
X97580952Y-98561905D01*
X97390476Y-98514286D01*
X97295238Y-98466667D01*
X97200000Y-98371429D01*
X97152381Y-98228571D01*
X97152381Y-98133333D01*
X97200000Y-97990476D01*
X97247619Y-97942857D01*
X97247619Y-97561905D02*
X97200000Y-97514286D01*
X97152381Y-97419048D01*
X97152381Y-97180952D01*
X97200000Y-97085714D01*
X97247619Y-97038095D01*
X97342857Y-96990476D01*
X97438095Y-96990476D01*
X97580952Y-97038095D01*
X98152381Y-97609524D01*
X98152381Y-96990476D01*
X97152381Y-96657143D02*
X97152381Y-96038095D01*
X97533333Y-96371429D01*
X97533333Y-96228571D01*
X97580952Y-96133333D01*
X97628571Y-96085714D01*
X97723810Y-96038095D01*
X97961905Y-96038095D01*
X98057143Y-96085714D01*
X98104762Y-96133333D01*
X98152381Y-96228571D01*
X98152381Y-96514286D01*
X98104762Y-96609524D01*
X98057143Y-96657143D01*
X108257143Y-97942857D02*
X108304762Y-97990476D01*
X108352381Y-98133333D01*
X108352381Y-98228571D01*
X108304762Y-98371429D01*
X108209524Y-98466667D01*
X108114286Y-98514286D01*
X107923810Y-98561905D01*
X107780952Y-98561905D01*
X107590476Y-98514286D01*
X107495238Y-98466667D01*
X107400000Y-98371429D01*
X107352381Y-98228571D01*
X107352381Y-98133333D01*
X107400000Y-97990476D01*
X107447619Y-97942857D01*
X107447619Y-97561905D02*
X107400000Y-97514286D01*
X107352381Y-97419048D01*
X107352381Y-97180952D01*
X107400000Y-97085714D01*
X107447619Y-97038095D01*
X107542857Y-96990476D01*
X107638095Y-96990476D01*
X107780952Y-97038095D01*
X108352381Y-97609524D01*
X108352381Y-96990476D01*
X107352381Y-96085714D02*
X107352381Y-96561905D01*
X107828571Y-96609524D01*
X107780952Y-96561905D01*
X107733333Y-96466667D01*
X107733333Y-96228571D01*
X107780952Y-96133333D01*
X107828571Y-96085714D01*
X107923810Y-96038095D01*
X108161905Y-96038095D01*
X108257143Y-96085714D01*
X108304762Y-96133333D01*
X108352381Y-96228571D01*
X108352381Y-96466667D01*
X108304762Y-96561905D01*
X108257143Y-96609524D01*
X113357143Y-97942857D02*
X113404762Y-97990476D01*
X113452381Y-98133333D01*
X113452381Y-98228571D01*
X113404762Y-98371429D01*
X113309524Y-98466667D01*
X113214286Y-98514286D01*
X113023810Y-98561905D01*
X112880952Y-98561905D01*
X112690476Y-98514286D01*
X112595238Y-98466667D01*
X112500000Y-98371429D01*
X112452381Y-98228571D01*
X112452381Y-98133333D01*
X112500000Y-97990476D01*
X112547619Y-97942857D01*
X112547619Y-97561905D02*
X112500000Y-97514286D01*
X112452381Y-97419048D01*
X112452381Y-97180952D01*
X112500000Y-97085714D01*
X112547619Y-97038095D01*
X112642857Y-96990476D01*
X112738095Y-96990476D01*
X112880952Y-97038095D01*
X113452381Y-97609524D01*
X113452381Y-96990476D01*
X112452381Y-96133333D02*
X112452381Y-96323810D01*
X112500000Y-96419048D01*
X112547619Y-96466667D01*
X112690476Y-96561905D01*
X112880952Y-96609524D01*
X113261905Y-96609524D01*
X113357143Y-96561905D01*
X113404762Y-96514286D01*
X113452381Y-96419048D01*
X113452381Y-96228571D01*
X113404762Y-96133333D01*
X113357143Y-96085714D01*
X113261905Y-96038095D01*
X113023810Y-96038095D01*
X112928571Y-96085714D01*
X112880952Y-96133333D01*
X112833333Y-96228571D01*
X112833333Y-96419048D01*
X112880952Y-96514286D01*
X112928571Y-96561905D01*
X113023810Y-96609524D01*
X149961905Y-112152381D02*
X149961905Y-111152381D01*
X150200000Y-111152381D01*
X150342858Y-111200000D01*
X150438096Y-111295238D01*
X150485715Y-111390476D01*
X150533334Y-111580952D01*
X150533334Y-111723810D01*
X150485715Y-111914286D01*
X150438096Y-112009524D01*
X150342858Y-112104762D01*
X150200000Y-112152381D01*
X149961905Y-112152381D01*
X150866667Y-111152381D02*
X151485715Y-111152381D01*
X151152381Y-111533333D01*
X151295239Y-111533333D01*
X151390477Y-111580952D01*
X151438096Y-111628571D01*
X151485715Y-111723810D01*
X151485715Y-111961905D01*
X151438096Y-112057143D01*
X151390477Y-112104762D01*
X151295239Y-112152381D01*
X151009524Y-112152381D01*
X150914286Y-112104762D01*
X150866667Y-112057143D01*
X130804762Y-110447619D02*
X130709524Y-110400000D01*
X130614286Y-110304762D01*
X130471429Y-110161905D01*
X130376190Y-110114286D01*
X130280952Y-110114286D01*
X130328571Y-110352381D02*
X130233333Y-110304762D01*
X130138095Y-110209524D01*
X130090476Y-110019048D01*
X130090476Y-109685714D01*
X130138095Y-109495238D01*
X130233333Y-109400000D01*
X130328571Y-109352381D01*
X130519048Y-109352381D01*
X130614286Y-109400000D01*
X130709524Y-109495238D01*
X130757143Y-109685714D01*
X130757143Y-110019048D01*
X130709524Y-110209524D01*
X130614286Y-110304762D01*
X130519048Y-110352381D01*
X130328571Y-110352381D01*
X131090476Y-109352381D02*
X131709524Y-109352381D01*
X131376190Y-109733333D01*
X131519048Y-109733333D01*
X131614286Y-109780952D01*
X131661905Y-109828571D01*
X131709524Y-109923810D01*
X131709524Y-110161905D01*
X131661905Y-110257143D01*
X131614286Y-110304762D01*
X131519048Y-110352381D01*
X131233333Y-110352381D01*
X131138095Y-110304762D01*
X131090476Y-110257143D01*
X92552381Y-111842857D02*
X92076190Y-112176191D01*
X92552381Y-112414286D02*
X91552381Y-112414286D01*
X91552381Y-112033333D01*
X91600000Y-111938095D01*
X91647619Y-111890476D01*
X91742857Y-111842857D01*
X91885714Y-111842857D01*
X91980952Y-111890476D01*
X92028571Y-111938095D01*
X92076190Y-112033333D01*
X92076190Y-112414286D01*
X92552381Y-110890476D02*
X92552381Y-111461905D01*
X92552381Y-111176191D02*
X91552381Y-111176191D01*
X91695238Y-111271429D01*
X91790476Y-111366667D01*
X91838095Y-111461905D01*
X92552381Y-109938095D02*
X92552381Y-110509524D01*
X92552381Y-110223810D02*
X91552381Y-110223810D01*
X91695238Y-110319048D01*
X91790476Y-110414286D01*
X91838095Y-110509524D01*
X148852381Y-114042857D02*
X148376190Y-114376191D01*
X148852381Y-114614286D02*
X147852381Y-114614286D01*
X147852381Y-114233333D01*
X147900000Y-114138095D01*
X147947619Y-114090476D01*
X148042857Y-114042857D01*
X148185714Y-114042857D01*
X148280952Y-114090476D01*
X148328571Y-114138095D01*
X148376190Y-114233333D01*
X148376190Y-114614286D01*
X148852381Y-113090476D02*
X148852381Y-113661905D01*
X148852381Y-113376191D02*
X147852381Y-113376191D01*
X147995238Y-113471429D01*
X148090476Y-113566667D01*
X148138095Y-113661905D01*
X147947619Y-112709524D02*
X147900000Y-112661905D01*
X147852381Y-112566667D01*
X147852381Y-112328571D01*
X147900000Y-112233333D01*
X147947619Y-112185714D01*
X148042857Y-112138095D01*
X148138095Y-112138095D01*
X148280952Y-112185714D01*
X148852381Y-112757143D01*
X148852381Y-112138095D01*
X84957143Y-116902381D02*
X84623809Y-116426190D01*
X84385714Y-116902381D02*
X84385714Y-115902381D01*
X84766667Y-115902381D01*
X84861905Y-115950000D01*
X84909524Y-115997619D01*
X84957143Y-116092857D01*
X84957143Y-116235714D01*
X84909524Y-116330952D01*
X84861905Y-116378571D01*
X84766667Y-116426190D01*
X84385714Y-116426190D01*
X85909524Y-116902381D02*
X85338095Y-116902381D01*
X85623809Y-116902381D02*
X85623809Y-115902381D01*
X85528571Y-116045238D01*
X85433333Y-116140476D01*
X85338095Y-116188095D01*
X86385714Y-116902381D02*
X86576190Y-116902381D01*
X86671429Y-116854762D01*
X86719048Y-116807143D01*
X86814286Y-116664286D01*
X86861905Y-116473810D01*
X86861905Y-116092857D01*
X86814286Y-115997619D01*
X86766667Y-115950000D01*
X86671429Y-115902381D01*
X86480952Y-115902381D01*
X86385714Y-115950000D01*
X86338095Y-115997619D01*
X86290476Y-116092857D01*
X86290476Y-116330952D01*
X86338095Y-116426190D01*
X86385714Y-116473810D01*
X86480952Y-116521429D01*
X86671429Y-116521429D01*
X86766667Y-116473810D01*
X86814286Y-116426190D01*
X86861905Y-116330952D01*
X143257143Y-120052381D02*
X142923809Y-119576190D01*
X142685714Y-120052381D02*
X142685714Y-119052381D01*
X143066667Y-119052381D01*
X143161905Y-119100000D01*
X143209524Y-119147619D01*
X143257143Y-119242857D01*
X143257143Y-119385714D01*
X143209524Y-119480952D01*
X143161905Y-119528571D01*
X143066667Y-119576190D01*
X142685714Y-119576190D01*
X143638095Y-119147619D02*
X143685714Y-119100000D01*
X143780952Y-119052381D01*
X144019048Y-119052381D01*
X144114286Y-119100000D01*
X144161905Y-119147619D01*
X144209524Y-119242857D01*
X144209524Y-119338095D01*
X144161905Y-119480952D01*
X143590476Y-120052381D01*
X144209524Y-120052381D01*
X144828571Y-119052381D02*
X144923810Y-119052381D01*
X145019048Y-119100000D01*
X145066667Y-119147619D01*
X145114286Y-119242857D01*
X145161905Y-119433333D01*
X145161905Y-119671429D01*
X145114286Y-119861905D01*
X145066667Y-119957143D01*
X145019048Y-120004762D01*
X144923810Y-120052381D01*
X144828571Y-120052381D01*
X144733333Y-120004762D01*
X144685714Y-119957143D01*
X144638095Y-119861905D01*
X144590476Y-119671429D01*
X144590476Y-119433333D01*
X144638095Y-119242857D01*
X144685714Y-119147619D01*
X144733333Y-119100000D01*
X144828571Y-119052381D01*
X82852381Y-108142857D02*
X82376190Y-108476191D01*
X82852381Y-108714286D02*
X81852381Y-108714286D01*
X81852381Y-108333333D01*
X81900000Y-108238095D01*
X81947619Y-108190476D01*
X82042857Y-108142857D01*
X82185714Y-108142857D01*
X82280952Y-108190476D01*
X82328571Y-108238095D01*
X82376190Y-108333333D01*
X82376190Y-108714286D01*
X81947619Y-107761905D02*
X81900000Y-107714286D01*
X81852381Y-107619048D01*
X81852381Y-107380952D01*
X81900000Y-107285714D01*
X81947619Y-107238095D01*
X82042857Y-107190476D01*
X82138095Y-107190476D01*
X82280952Y-107238095D01*
X82852381Y-107809524D01*
X82852381Y-107190476D01*
X82185714Y-106333333D02*
X82852381Y-106333333D01*
X81804762Y-106571429D02*
X82519048Y-106809524D01*
X82519048Y-106190476D01*
X132357143Y-106257143D02*
X132309524Y-106304762D01*
X132166667Y-106352381D01*
X132071429Y-106352381D01*
X131928571Y-106304762D01*
X131833333Y-106209524D01*
X131785714Y-106114286D01*
X131738095Y-105923810D01*
X131738095Y-105780952D01*
X131785714Y-105590476D01*
X131833333Y-105495238D01*
X131928571Y-105400000D01*
X132071429Y-105352381D01*
X132166667Y-105352381D01*
X132309524Y-105400000D01*
X132357143Y-105447619D01*
X133309524Y-106352381D02*
X132738095Y-106352381D01*
X133023809Y-106352381D02*
X133023809Y-105352381D01*
X132928571Y-105495238D01*
X132833333Y-105590476D01*
X132738095Y-105638095D01*
X133642857Y-105352381D02*
X134309524Y-105352381D01*
X133880952Y-106352381D01*
X68233334Y-113157143D02*
X68185715Y-113204762D01*
X68042858Y-113252381D01*
X67947620Y-113252381D01*
X67804762Y-113204762D01*
X67709524Y-113109524D01*
X67661905Y-113014286D01*
X67614286Y-112823810D01*
X67614286Y-112680952D01*
X67661905Y-112490476D01*
X67709524Y-112395238D01*
X67804762Y-112300000D01*
X67947620Y-112252381D01*
X68042858Y-112252381D01*
X68185715Y-112300000D01*
X68233334Y-112347619D01*
X69090477Y-112585714D02*
X69090477Y-113252381D01*
X68852381Y-112204762D02*
X68614286Y-112919048D01*
X69233334Y-112919048D01*
X133133334Y-86457143D02*
X133085715Y-86504762D01*
X132942858Y-86552381D01*
X132847620Y-86552381D01*
X132704762Y-86504762D01*
X132609524Y-86409524D01*
X132561905Y-86314286D01*
X132514286Y-86123810D01*
X132514286Y-85980952D01*
X132561905Y-85790476D01*
X132609524Y-85695238D01*
X132704762Y-85600000D01*
X132847620Y-85552381D01*
X132942858Y-85552381D01*
X133085715Y-85600000D01*
X133133334Y-85647619D01*
X133466667Y-85552381D02*
X134085715Y-85552381D01*
X133752381Y-85933333D01*
X133895239Y-85933333D01*
X133990477Y-85980952D01*
X134038096Y-86028571D01*
X134085715Y-86123810D01*
X134085715Y-86361905D01*
X134038096Y-86457143D01*
X133990477Y-86504762D01*
X133895239Y-86552381D01*
X133609524Y-86552381D01*
X133514286Y-86504762D01*
X133466667Y-86457143D01*
X103157143Y-97942857D02*
X103204762Y-97990476D01*
X103252381Y-98133333D01*
X103252381Y-98228571D01*
X103204762Y-98371429D01*
X103109524Y-98466667D01*
X103014286Y-98514286D01*
X102823810Y-98561905D01*
X102680952Y-98561905D01*
X102490476Y-98514286D01*
X102395238Y-98466667D01*
X102300000Y-98371429D01*
X102252381Y-98228571D01*
X102252381Y-98133333D01*
X102300000Y-97990476D01*
X102347619Y-97942857D01*
X102347619Y-97561905D02*
X102300000Y-97514286D01*
X102252381Y-97419048D01*
X102252381Y-97180952D01*
X102300000Y-97085714D01*
X102347619Y-97038095D01*
X102442857Y-96990476D01*
X102538095Y-96990476D01*
X102680952Y-97038095D01*
X103252381Y-97609524D01*
X103252381Y-96990476D01*
X102585714Y-96133333D02*
X103252381Y-96133333D01*
X102204762Y-96371429D02*
X102919048Y-96609524D01*
X102919048Y-95990476D01*
X143257143Y-107952381D02*
X142923809Y-107476190D01*
X142685714Y-107952381D02*
X142685714Y-106952381D01*
X143066667Y-106952381D01*
X143161905Y-107000000D01*
X143209524Y-107047619D01*
X143257143Y-107142857D01*
X143257143Y-107285714D01*
X143209524Y-107380952D01*
X143161905Y-107428571D01*
X143066667Y-107476190D01*
X142685714Y-107476190D01*
X144209524Y-107952381D02*
X143638095Y-107952381D01*
X143923809Y-107952381D02*
X143923809Y-106952381D01*
X143828571Y-107095238D01*
X143733333Y-107190476D01*
X143638095Y-107238095D01*
X144542857Y-106952381D02*
X145161905Y-106952381D01*
X144828571Y-107333333D01*
X144971429Y-107333333D01*
X145066667Y-107380952D01*
X145114286Y-107428571D01*
X145161905Y-107523810D01*
X145161905Y-107761905D01*
X145114286Y-107857143D01*
X145066667Y-107904762D01*
X144971429Y-107952381D01*
X144685714Y-107952381D01*
X144590476Y-107904762D01*
X144542857Y-107857143D01*
X139157143Y-117252381D02*
X138823809Y-116776190D01*
X138585714Y-117252381D02*
X138585714Y-116252381D01*
X138966667Y-116252381D01*
X139061905Y-116300000D01*
X139109524Y-116347619D01*
X139157143Y-116442857D01*
X139157143Y-116585714D01*
X139109524Y-116680952D01*
X139061905Y-116728571D01*
X138966667Y-116776190D01*
X138585714Y-116776190D01*
X139538095Y-116347619D02*
X139585714Y-116300000D01*
X139680952Y-116252381D01*
X139919048Y-116252381D01*
X140014286Y-116300000D01*
X140061905Y-116347619D01*
X140109524Y-116442857D01*
X140109524Y-116538095D01*
X140061905Y-116680952D01*
X139490476Y-117252381D01*
X140109524Y-117252381D01*
X140966667Y-116252381D02*
X140776190Y-116252381D01*
X140680952Y-116300000D01*
X140633333Y-116347619D01*
X140538095Y-116490476D01*
X140490476Y-116680952D01*
X140490476Y-117061905D01*
X140538095Y-117157143D01*
X140585714Y-117204762D01*
X140680952Y-117252381D01*
X140871429Y-117252381D01*
X140966667Y-117204762D01*
X141014286Y-117157143D01*
X141061905Y-117061905D01*
X141061905Y-116823810D01*
X141014286Y-116728571D01*
X140966667Y-116680952D01*
X140871429Y-116633333D01*
X140680952Y-116633333D01*
X140585714Y-116680952D01*
X140538095Y-116728571D01*
X140490476Y-116823810D01*
X138757143Y-110852381D02*
X138423809Y-110376190D01*
X138185714Y-110852381D02*
X138185714Y-109852381D01*
X138566667Y-109852381D01*
X138661905Y-109900000D01*
X138709524Y-109947619D01*
X138757143Y-110042857D01*
X138757143Y-110185714D01*
X138709524Y-110280952D01*
X138661905Y-110328571D01*
X138566667Y-110376190D01*
X138185714Y-110376190D01*
X139138095Y-109947619D02*
X139185714Y-109900000D01*
X139280952Y-109852381D01*
X139519048Y-109852381D01*
X139614286Y-109900000D01*
X139661905Y-109947619D01*
X139709524Y-110042857D01*
X139709524Y-110138095D01*
X139661905Y-110280952D01*
X139090476Y-110852381D01*
X139709524Y-110852381D01*
X140042857Y-109852381D02*
X140709524Y-109852381D01*
X140280952Y-110852381D01*
X133133334Y-96657143D02*
X133085715Y-96704762D01*
X132942858Y-96752381D01*
X132847620Y-96752381D01*
X132704762Y-96704762D01*
X132609524Y-96609524D01*
X132561905Y-96514286D01*
X132514286Y-96323810D01*
X132514286Y-96180952D01*
X132561905Y-95990476D01*
X132609524Y-95895238D01*
X132704762Y-95800000D01*
X132847620Y-95752381D01*
X132942858Y-95752381D01*
X133085715Y-95800000D01*
X133133334Y-95847619D01*
X134085715Y-96752381D02*
X133514286Y-96752381D01*
X133800000Y-96752381D02*
X133800000Y-95752381D01*
X133704762Y-95895238D01*
X133609524Y-95990476D01*
X133514286Y-96038095D01*
X133133334Y-91557143D02*
X133085715Y-91604762D01*
X132942858Y-91652381D01*
X132847620Y-91652381D01*
X132704762Y-91604762D01*
X132609524Y-91509524D01*
X132561905Y-91414286D01*
X132514286Y-91223810D01*
X132514286Y-91080952D01*
X132561905Y-90890476D01*
X132609524Y-90795238D01*
X132704762Y-90700000D01*
X132847620Y-90652381D01*
X132942858Y-90652381D01*
X133085715Y-90700000D01*
X133133334Y-90747619D01*
X133514286Y-90747619D02*
X133561905Y-90700000D01*
X133657143Y-90652381D01*
X133895239Y-90652381D01*
X133990477Y-90700000D01*
X134038096Y-90747619D01*
X134085715Y-90842857D01*
X134085715Y-90938095D01*
X134038096Y-91080952D01*
X133466667Y-91652381D01*
X134085715Y-91652381D01*
X88802381Y-118788095D02*
X87802381Y-118788095D01*
X87802381Y-118550000D01*
X87850000Y-118407142D01*
X87945238Y-118311904D01*
X88040476Y-118264285D01*
X88230952Y-118216666D01*
X88373810Y-118216666D01*
X88564286Y-118264285D01*
X88659524Y-118311904D01*
X88754762Y-118407142D01*
X88802381Y-118550000D01*
X88802381Y-118788095D01*
X87897619Y-117835714D02*
X87850000Y-117788095D01*
X87802381Y-117692857D01*
X87802381Y-117454761D01*
X87850000Y-117359523D01*
X87897619Y-117311904D01*
X87992857Y-117264285D01*
X88088095Y-117264285D01*
X88230952Y-117311904D01*
X88802381Y-117883333D01*
X88802381Y-117264285D01*
X83752381Y-118738095D02*
X82752381Y-118738095D01*
X82752381Y-118500000D01*
X82800000Y-118357142D01*
X82895238Y-118261904D01*
X82990476Y-118214285D01*
X83180952Y-118166666D01*
X83323810Y-118166666D01*
X83514286Y-118214285D01*
X83609524Y-118261904D01*
X83704762Y-118357142D01*
X83752381Y-118500000D01*
X83752381Y-118738095D01*
X82752381Y-117261904D02*
X82752381Y-117738095D01*
X83228571Y-117785714D01*
X83180952Y-117738095D01*
X83133333Y-117642857D01*
X83133333Y-117404761D01*
X83180952Y-117309523D01*
X83228571Y-117261904D01*
X83323810Y-117214285D01*
X83561905Y-117214285D01*
X83657143Y-117261904D01*
X83704762Y-117309523D01*
X83752381Y-117404761D01*
X83752381Y-117642857D01*
X83704762Y-117738095D01*
X83657143Y-117785714D01*
X123457143Y-85567857D02*
X123504762Y-85615476D01*
X123552381Y-85758333D01*
X123552381Y-85853571D01*
X123504762Y-85996429D01*
X123409524Y-86091667D01*
X123314286Y-86139286D01*
X123123810Y-86186905D01*
X122980952Y-86186905D01*
X122790476Y-86139286D01*
X122695238Y-86091667D01*
X122600000Y-85996429D01*
X122552381Y-85853571D01*
X122552381Y-85758333D01*
X122600000Y-85615476D01*
X122647619Y-85567857D01*
X122885714Y-84710714D02*
X123552381Y-84710714D01*
X122504762Y-84948810D02*
X123219048Y-85186905D01*
X123219048Y-84567857D01*
X122552381Y-83710714D02*
X122552381Y-84186905D01*
X123028571Y-84234524D01*
X122980952Y-84186905D01*
X122933333Y-84091667D01*
X122933333Y-83853571D01*
X122980952Y-83758333D01*
X123028571Y-83710714D01*
X123123810Y-83663095D01*
X123361905Y-83663095D01*
X123457143Y-83710714D01*
X123504762Y-83758333D01*
X123552381Y-83853571D01*
X123552381Y-84091667D01*
X123504762Y-84186905D01*
X123457143Y-84234524D01*
X62190477Y-87452381D02*
X62190477Y-88166667D01*
X62142857Y-88309524D01*
X62047619Y-88404762D01*
X61904762Y-88452381D01*
X61809524Y-88452381D01*
X63190477Y-88452381D02*
X62619048Y-88452381D01*
X62904762Y-88452381D02*
X62904762Y-87452381D01*
X62809524Y-87595238D01*
X62714286Y-87690476D01*
X62619048Y-87738095D01*
X63571429Y-87547619D02*
X63619048Y-87500000D01*
X63714286Y-87452381D01*
X63952382Y-87452381D01*
X64047620Y-87500000D01*
X64095239Y-87547619D01*
X64142858Y-87642857D01*
X64142858Y-87738095D01*
X64095239Y-87880952D01*
X63523810Y-88452381D01*
X64142858Y-88452381D01*
X118457143Y-97942857D02*
X118504762Y-97990476D01*
X118552381Y-98133333D01*
X118552381Y-98228571D01*
X118504762Y-98371429D01*
X118409524Y-98466667D01*
X118314286Y-98514286D01*
X118123810Y-98561905D01*
X117980952Y-98561905D01*
X117790476Y-98514286D01*
X117695238Y-98466667D01*
X117600000Y-98371429D01*
X117552381Y-98228571D01*
X117552381Y-98133333D01*
X117600000Y-97990476D01*
X117647619Y-97942857D01*
X117647619Y-97561905D02*
X117600000Y-97514286D01*
X117552381Y-97419048D01*
X117552381Y-97180952D01*
X117600000Y-97085714D01*
X117647619Y-97038095D01*
X117742857Y-96990476D01*
X117838095Y-96990476D01*
X117980952Y-97038095D01*
X118552381Y-97609524D01*
X118552381Y-96990476D01*
X117552381Y-96657143D02*
X117552381Y-95990476D01*
X118552381Y-96419048D01*
X101904762Y-64947619D02*
X101809524Y-64900000D01*
X101714286Y-64804762D01*
X101571429Y-64661905D01*
X101476190Y-64614286D01*
X101380952Y-64614286D01*
X101428571Y-64852381D02*
X101333333Y-64804762D01*
X101238095Y-64709524D01*
X101190476Y-64519048D01*
X101190476Y-64185714D01*
X101238095Y-63995238D01*
X101333333Y-63900000D01*
X101428571Y-63852381D01*
X101619048Y-63852381D01*
X101714286Y-63900000D01*
X101809524Y-63995238D01*
X101857143Y-64185714D01*
X101857143Y-64519048D01*
X101809524Y-64709524D01*
X101714286Y-64804762D01*
X101619048Y-64852381D01*
X101428571Y-64852381D01*
X102809524Y-64852381D02*
X102238095Y-64852381D01*
X102523809Y-64852381D02*
X102523809Y-63852381D01*
X102428571Y-63995238D01*
X102333333Y-64090476D01*
X102238095Y-64138095D01*
X67683334Y-63952381D02*
X67350000Y-63476190D01*
X67111905Y-63952381D02*
X67111905Y-62952381D01*
X67492858Y-62952381D01*
X67588096Y-63000000D01*
X67635715Y-63047619D01*
X67683334Y-63142857D01*
X67683334Y-63285714D01*
X67635715Y-63380952D01*
X67588096Y-63428571D01*
X67492858Y-63476190D01*
X67111905Y-63476190D01*
X68254762Y-63380952D02*
X68159524Y-63333333D01*
X68111905Y-63285714D01*
X68064286Y-63190476D01*
X68064286Y-63142857D01*
X68111905Y-63047619D01*
X68159524Y-63000000D01*
X68254762Y-62952381D01*
X68445239Y-62952381D01*
X68540477Y-63000000D01*
X68588096Y-63047619D01*
X68635715Y-63142857D01*
X68635715Y-63190476D01*
X68588096Y-63285714D01*
X68540477Y-63333333D01*
X68445239Y-63380952D01*
X68254762Y-63380952D01*
X68159524Y-63428571D01*
X68111905Y-63476190D01*
X68064286Y-63571429D01*
X68064286Y-63761905D01*
X68111905Y-63857143D01*
X68159524Y-63904762D01*
X68254762Y-63952381D01*
X68445239Y-63952381D01*
X68540477Y-63904762D01*
X68588096Y-63857143D01*
X68635715Y-63761905D01*
X68635715Y-63571429D01*
X68588096Y-63476190D01*
X68540477Y-63428571D01*
X68445239Y-63380952D01*
X126202381Y-96414286D02*
X125202381Y-96414286D01*
X125202381Y-96176191D01*
X125250000Y-96033333D01*
X125345238Y-95938095D01*
X125440476Y-95890476D01*
X125630952Y-95842857D01*
X125773810Y-95842857D01*
X125964286Y-95890476D01*
X126059524Y-95938095D01*
X126154762Y-96033333D01*
X126202381Y-96176191D01*
X126202381Y-96414286D01*
X126202381Y-94890476D02*
X126202381Y-95461905D01*
X126202381Y-95176191D02*
X125202381Y-95176191D01*
X125345238Y-95271429D01*
X125440476Y-95366667D01*
X125488095Y-95461905D01*
X125297619Y-94509524D02*
X125250000Y-94461905D01*
X125202381Y-94366667D01*
X125202381Y-94128571D01*
X125250000Y-94033333D01*
X125297619Y-93985714D01*
X125392857Y-93938095D01*
X125488095Y-93938095D01*
X125630952Y-93985714D01*
X126202381Y-94557143D01*
X126202381Y-93938095D01*
X118633343Y-92804981D02*
X118300009Y-92328790D01*
X118061914Y-92804981D02*
X118061914Y-91804981D01*
X118442867Y-91804981D01*
X118538105Y-91852600D01*
X118585724Y-91900219D01*
X118633343Y-91995457D01*
X118633343Y-92138314D01*
X118585724Y-92233552D01*
X118538105Y-92281171D01*
X118442867Y-92328790D01*
X118061914Y-92328790D01*
X118966676Y-91804981D02*
X119585724Y-91804981D01*
X119252390Y-92185933D01*
X119395248Y-92185933D01*
X119490486Y-92233552D01*
X119538105Y-92281171D01*
X119585724Y-92376410D01*
X119585724Y-92614505D01*
X119538105Y-92709743D01*
X119490486Y-92757362D01*
X119395248Y-92804981D01*
X119109533Y-92804981D01*
X119014295Y-92757362D01*
X118966676Y-92709743D01*
X120442867Y-91804981D02*
X120252390Y-91804981D01*
X120157152Y-91852600D01*
X120109533Y-91900219D01*
X120014295Y-92043076D01*
X119966676Y-92233552D01*
X119966676Y-92614505D01*
X120014295Y-92709743D01*
X120061914Y-92757362D01*
X120157152Y-92804981D01*
X120347629Y-92804981D01*
X120442867Y-92757362D01*
X120490486Y-92709743D01*
X120538105Y-92614505D01*
X120538105Y-92376410D01*
X120490486Y-92281171D01*
X120442867Y-92233552D01*
X120347629Y-92185933D01*
X120157152Y-92185933D01*
X120061914Y-92233552D01*
X120014295Y-92281171D01*
X119966676Y-92376410D01*
X109987143Y-65966666D02*
X110034762Y-66014285D01*
X110082381Y-66157142D01*
X110082381Y-66252380D01*
X110034762Y-66395238D01*
X109939524Y-66490476D01*
X109844286Y-66538095D01*
X109653810Y-66585714D01*
X109510952Y-66585714D01*
X109320476Y-66538095D01*
X109225238Y-66490476D01*
X109130000Y-66395238D01*
X109082381Y-66252380D01*
X109082381Y-66157142D01*
X109130000Y-66014285D01*
X109177619Y-65966666D01*
X109082381Y-65109523D02*
X109082381Y-65300000D01*
X109130000Y-65395238D01*
X109177619Y-65442857D01*
X109320476Y-65538095D01*
X109510952Y-65585714D01*
X109891905Y-65585714D01*
X109987143Y-65538095D01*
X110034762Y-65490476D01*
X110082381Y-65395238D01*
X110082381Y-65204761D01*
X110034762Y-65109523D01*
X109987143Y-65061904D01*
X109891905Y-65014285D01*
X109653810Y-65014285D01*
X109558571Y-65061904D01*
X109510952Y-65109523D01*
X109463333Y-65204761D01*
X109463333Y-65395238D01*
X109510952Y-65490476D01*
X109558571Y-65538095D01*
X109653810Y-65585714D01*
X86628572Y-56547619D02*
X86533334Y-56500000D01*
X86438096Y-56404762D01*
X86295239Y-56261905D01*
X86200000Y-56214286D01*
X86104762Y-56214286D01*
X86152381Y-56452381D02*
X86057143Y-56404762D01*
X85961905Y-56309524D01*
X85914286Y-56119048D01*
X85914286Y-55785714D01*
X85961905Y-55595238D01*
X86057143Y-55500000D01*
X86152381Y-55452381D01*
X86342858Y-55452381D01*
X86438096Y-55500000D01*
X86533334Y-55595238D01*
X86580953Y-55785714D01*
X86580953Y-56119048D01*
X86533334Y-56309524D01*
X86438096Y-56404762D01*
X86342858Y-56452381D01*
X86152381Y-56452381D01*
X87533334Y-56452381D02*
X86961905Y-56452381D01*
X87247619Y-56452381D02*
X87247619Y-55452381D01*
X87152381Y-55595238D01*
X87057143Y-55690476D01*
X86961905Y-55738095D01*
X88390477Y-55785714D02*
X88390477Y-56452381D01*
X88152381Y-55404762D02*
X87914286Y-56119048D01*
X88533334Y-56119048D01*
X126257143Y-71642857D02*
X126304762Y-71690476D01*
X126352381Y-71833333D01*
X126352381Y-71928571D01*
X126304762Y-72071429D01*
X126209524Y-72166667D01*
X126114286Y-72214286D01*
X125923810Y-72261905D01*
X125780952Y-72261905D01*
X125590476Y-72214286D01*
X125495238Y-72166667D01*
X125400000Y-72071429D01*
X125352381Y-71928571D01*
X125352381Y-71833333D01*
X125400000Y-71690476D01*
X125447619Y-71642857D01*
X126352381Y-70690476D02*
X126352381Y-71261905D01*
X126352381Y-70976191D02*
X125352381Y-70976191D01*
X125495238Y-71071429D01*
X125590476Y-71166667D01*
X125638095Y-71261905D01*
X126352381Y-69738095D02*
X126352381Y-70309524D01*
X126352381Y-70023810D02*
X125352381Y-70023810D01*
X125495238Y-70119048D01*
X125590476Y-70214286D01*
X125638095Y-70309524D01*
X137057143Y-64357143D02*
X137009524Y-64404762D01*
X136866667Y-64452381D01*
X136771429Y-64452381D01*
X136628571Y-64404762D01*
X136533333Y-64309524D01*
X136485714Y-64214286D01*
X136438095Y-64023810D01*
X136438095Y-63880952D01*
X136485714Y-63690476D01*
X136533333Y-63595238D01*
X136628571Y-63500000D01*
X136771429Y-63452381D01*
X136866667Y-63452381D01*
X137009524Y-63500000D01*
X137057143Y-63547619D01*
X138009524Y-64452381D02*
X137438095Y-64452381D01*
X137723809Y-64452381D02*
X137723809Y-63452381D01*
X137628571Y-63595238D01*
X137533333Y-63690476D01*
X137438095Y-63738095D01*
X138866667Y-63452381D02*
X138676190Y-63452381D01*
X138580952Y-63500000D01*
X138533333Y-63547619D01*
X138438095Y-63690476D01*
X138390476Y-63880952D01*
X138390476Y-64261905D01*
X138438095Y-64357143D01*
X138485714Y-64404762D01*
X138580952Y-64452381D01*
X138771429Y-64452381D01*
X138866667Y-64404762D01*
X138914286Y-64357143D01*
X138961905Y-64261905D01*
X138961905Y-64023810D01*
X138914286Y-63928571D01*
X138866667Y-63880952D01*
X138771429Y-63833333D01*
X138580952Y-63833333D01*
X138485714Y-63880952D01*
X138438095Y-63928571D01*
X138390476Y-64023810D01*
X122832143Y-125642857D02*
X122879762Y-125690476D01*
X122927381Y-125833333D01*
X122927381Y-125928571D01*
X122879762Y-126071429D01*
X122784524Y-126166667D01*
X122689286Y-126214286D01*
X122498810Y-126261905D01*
X122355952Y-126261905D01*
X122165476Y-126214286D01*
X122070238Y-126166667D01*
X121975000Y-126071429D01*
X121927381Y-125928571D01*
X121927381Y-125833333D01*
X121975000Y-125690476D01*
X122022619Y-125642857D01*
X122022619Y-125261905D02*
X121975000Y-125214286D01*
X121927381Y-125119048D01*
X121927381Y-124880952D01*
X121975000Y-124785714D01*
X122022619Y-124738095D01*
X122117857Y-124690476D01*
X122213095Y-124690476D01*
X122355952Y-124738095D01*
X122927381Y-125309524D01*
X122927381Y-124690476D01*
X122022619Y-124309524D02*
X121975000Y-124261905D01*
X121927381Y-124166667D01*
X121927381Y-123928571D01*
X121975000Y-123833333D01*
X122022619Y-123785714D01*
X122117857Y-123738095D01*
X122213095Y-123738095D01*
X122355952Y-123785714D01*
X122927381Y-124357143D01*
X122927381Y-123738095D01*
X106067143Y-66442857D02*
X106114762Y-66490476D01*
X106162381Y-66633333D01*
X106162381Y-66728571D01*
X106114762Y-66871429D01*
X106019524Y-66966667D01*
X105924286Y-67014286D01*
X105733810Y-67061905D01*
X105590952Y-67061905D01*
X105400476Y-67014286D01*
X105305238Y-66966667D01*
X105210000Y-66871429D01*
X105162381Y-66728571D01*
X105162381Y-66633333D01*
X105210000Y-66490476D01*
X105257619Y-66442857D01*
X105162381Y-66109524D02*
X105162381Y-65490476D01*
X105543333Y-65823810D01*
X105543333Y-65680952D01*
X105590952Y-65585714D01*
X105638571Y-65538095D01*
X105733810Y-65490476D01*
X105971905Y-65490476D01*
X106067143Y-65538095D01*
X106114762Y-65585714D01*
X106162381Y-65680952D01*
X106162381Y-65966667D01*
X106114762Y-66061905D01*
X106067143Y-66109524D01*
X105162381Y-64871429D02*
X105162381Y-64776190D01*
X105210000Y-64680952D01*
X105257619Y-64633333D01*
X105352857Y-64585714D01*
X105543333Y-64538095D01*
X105781429Y-64538095D01*
X105971905Y-64585714D01*
X106067143Y-64633333D01*
X106114762Y-64680952D01*
X106162381Y-64776190D01*
X106162381Y-64871429D01*
X106114762Y-64966667D01*
X106067143Y-65014286D01*
X105971905Y-65061905D01*
X105781429Y-65109524D01*
X105543333Y-65109524D01*
X105352857Y-65061905D01*
X105257619Y-65014286D01*
X105210000Y-64966667D01*
X105162381Y-64871429D01*
X140307143Y-75407143D02*
X140259524Y-75454762D01*
X140116667Y-75502381D01*
X140021429Y-75502381D01*
X139878571Y-75454762D01*
X139783333Y-75359524D01*
X139735714Y-75264286D01*
X139688095Y-75073810D01*
X139688095Y-74930952D01*
X139735714Y-74740476D01*
X139783333Y-74645238D01*
X139878571Y-74550000D01*
X140021429Y-74502381D01*
X140116667Y-74502381D01*
X140259524Y-74550000D01*
X140307143Y-74597619D01*
X140640476Y-74502381D02*
X141259524Y-74502381D01*
X140926190Y-74883333D01*
X141069048Y-74883333D01*
X141164286Y-74930952D01*
X141211905Y-74978571D01*
X141259524Y-75073810D01*
X141259524Y-75311905D01*
X141211905Y-75407143D01*
X141164286Y-75454762D01*
X141069048Y-75502381D01*
X140783333Y-75502381D01*
X140688095Y-75454762D01*
X140640476Y-75407143D01*
X141640476Y-74597619D02*
X141688095Y-74550000D01*
X141783333Y-74502381D01*
X142021429Y-74502381D01*
X142116667Y-74550000D01*
X142164286Y-74597619D01*
X142211905Y-74692857D01*
X142211905Y-74788095D01*
X142164286Y-74930952D01*
X141592857Y-75502381D01*
X142211905Y-75502381D01*
X153157143Y-71642857D02*
X153204762Y-71690476D01*
X153252381Y-71833333D01*
X153252381Y-71928571D01*
X153204762Y-72071429D01*
X153109524Y-72166667D01*
X153014286Y-72214286D01*
X152823810Y-72261905D01*
X152680952Y-72261905D01*
X152490476Y-72214286D01*
X152395238Y-72166667D01*
X152300000Y-72071429D01*
X152252381Y-71928571D01*
X152252381Y-71833333D01*
X152300000Y-71690476D01*
X152347619Y-71642857D01*
X152252381Y-71309524D02*
X152252381Y-70690476D01*
X152633333Y-71023810D01*
X152633333Y-70880952D01*
X152680952Y-70785714D01*
X152728571Y-70738095D01*
X152823810Y-70690476D01*
X153061905Y-70690476D01*
X153157143Y-70738095D01*
X153204762Y-70785714D01*
X153252381Y-70880952D01*
X153252381Y-71166667D01*
X153204762Y-71261905D01*
X153157143Y-71309524D01*
X152680952Y-70119048D02*
X152633333Y-70214286D01*
X152585714Y-70261905D01*
X152490476Y-70309524D01*
X152442857Y-70309524D01*
X152347619Y-70261905D01*
X152300000Y-70214286D01*
X152252381Y-70119048D01*
X152252381Y-69928571D01*
X152300000Y-69833333D01*
X152347619Y-69785714D01*
X152442857Y-69738095D01*
X152490476Y-69738095D01*
X152585714Y-69785714D01*
X152633333Y-69833333D01*
X152680952Y-69928571D01*
X152680952Y-70119048D01*
X152728571Y-70214286D01*
X152776190Y-70261905D01*
X152871429Y-70309524D01*
X153061905Y-70309524D01*
X153157143Y-70261905D01*
X153204762Y-70214286D01*
X153252381Y-70119048D01*
X153252381Y-69928571D01*
X153204762Y-69833333D01*
X153157143Y-69785714D01*
X153061905Y-69738095D01*
X152871429Y-69738095D01*
X152776190Y-69785714D01*
X152728571Y-69833333D01*
X152680952Y-69928571D01*
X113457143Y-130407143D02*
X113409524Y-130454762D01*
X113266667Y-130502381D01*
X113171429Y-130502381D01*
X113028571Y-130454762D01*
X112933333Y-130359524D01*
X112885714Y-130264286D01*
X112838095Y-130073810D01*
X112838095Y-129930952D01*
X112885714Y-129740476D01*
X112933333Y-129645238D01*
X113028571Y-129550000D01*
X113171429Y-129502381D01*
X113266667Y-129502381D01*
X113409524Y-129550000D01*
X113457143Y-129597619D01*
X114314286Y-129835714D02*
X114314286Y-130502381D01*
X114076190Y-129454762D02*
X113838095Y-130169048D01*
X114457143Y-130169048D01*
X115266667Y-129502381D02*
X115076190Y-129502381D01*
X114980952Y-129550000D01*
X114933333Y-129597619D01*
X114838095Y-129740476D01*
X114790476Y-129930952D01*
X114790476Y-130311905D01*
X114838095Y-130407143D01*
X114885714Y-130454762D01*
X114980952Y-130502381D01*
X115171429Y-130502381D01*
X115266667Y-130454762D01*
X115314286Y-130407143D01*
X115361905Y-130311905D01*
X115361905Y-130073810D01*
X115314286Y-129978571D01*
X115266667Y-129930952D01*
X115171429Y-129883333D01*
X114980952Y-129883333D01*
X114885714Y-129930952D01*
X114838095Y-129978571D01*
X114790476Y-130073810D01*
X130582143Y-121932143D02*
X130534524Y-121979762D01*
X130391667Y-122027381D01*
X130296429Y-122027381D01*
X130153571Y-121979762D01*
X130058333Y-121884524D01*
X130010714Y-121789286D01*
X129963095Y-121598810D01*
X129963095Y-121455952D01*
X130010714Y-121265476D01*
X130058333Y-121170238D01*
X130153571Y-121075000D01*
X130296429Y-121027381D01*
X130391667Y-121027381D01*
X130534524Y-121075000D01*
X130582143Y-121122619D01*
X131439286Y-121360714D02*
X131439286Y-122027381D01*
X131201190Y-120979762D02*
X130963095Y-121694048D01*
X131582143Y-121694048D01*
X131867857Y-121027381D02*
X132534524Y-121027381D01*
X132105952Y-122027381D01*
X123761905Y-61252381D02*
X123761905Y-60252381D01*
X124000000Y-60252381D01*
X124142858Y-60300000D01*
X124238096Y-60395238D01*
X124285715Y-60490476D01*
X124333334Y-60680952D01*
X124333334Y-60823810D01*
X124285715Y-61014286D01*
X124238096Y-61109524D01*
X124142858Y-61204762D01*
X124000000Y-61252381D01*
X123761905Y-61252381D01*
X125190477Y-60252381D02*
X125000000Y-60252381D01*
X124904762Y-60300000D01*
X124857143Y-60347619D01*
X124761905Y-60490476D01*
X124714286Y-60680952D01*
X124714286Y-61061905D01*
X124761905Y-61157143D01*
X124809524Y-61204762D01*
X124904762Y-61252381D01*
X125095239Y-61252381D01*
X125190477Y-61204762D01*
X125238096Y-61157143D01*
X125285715Y-61061905D01*
X125285715Y-60823810D01*
X125238096Y-60728571D01*
X125190477Y-60680952D01*
X125095239Y-60633333D01*
X124904762Y-60633333D01*
X124809524Y-60680952D01*
X124761905Y-60728571D01*
X124714286Y-60823810D01*
X123485714Y-80002381D02*
X123485714Y-79002381D01*
X123723809Y-79002381D01*
X123866667Y-79050000D01*
X123961905Y-79145238D01*
X124009524Y-79240476D01*
X124057143Y-79430952D01*
X124057143Y-79573810D01*
X124009524Y-79764286D01*
X123961905Y-79859524D01*
X123866667Y-79954762D01*
X123723809Y-80002381D01*
X123485714Y-80002381D01*
X125009524Y-80002381D02*
X124438095Y-80002381D01*
X124723809Y-80002381D02*
X124723809Y-79002381D01*
X124628571Y-79145238D01*
X124533333Y-79240476D01*
X124438095Y-79288095D01*
X125628571Y-79002381D02*
X125723810Y-79002381D01*
X125819048Y-79050000D01*
X125866667Y-79097619D01*
X125914286Y-79192857D01*
X125961905Y-79383333D01*
X125961905Y-79621429D01*
X125914286Y-79811905D01*
X125866667Y-79907143D01*
X125819048Y-79954762D01*
X125723810Y-80002381D01*
X125628571Y-80002381D01*
X125533333Y-79954762D01*
X125485714Y-79907143D01*
X125438095Y-79811905D01*
X125390476Y-79621429D01*
X125390476Y-79383333D01*
X125438095Y-79192857D01*
X125485714Y-79097619D01*
X125533333Y-79050000D01*
X125628571Y-79002381D01*
X135197619Y-71445238D02*
X135150000Y-71540476D01*
X135054762Y-71635714D01*
X134911905Y-71778571D01*
X134864286Y-71873810D01*
X134864286Y-71969048D01*
X135102381Y-71921429D02*
X135054762Y-72016667D01*
X134959524Y-72111905D01*
X134769048Y-72159524D01*
X134435714Y-72159524D01*
X134245238Y-72111905D01*
X134150000Y-72016667D01*
X134102381Y-71921429D01*
X134102381Y-71730952D01*
X134150000Y-71635714D01*
X134245238Y-71540476D01*
X134435714Y-71492857D01*
X134769048Y-71492857D01*
X134959524Y-71540476D01*
X135054762Y-71635714D01*
X135102381Y-71730952D01*
X135102381Y-71921429D01*
X134435714Y-70635714D02*
X135102381Y-70635714D01*
X134054762Y-70873810D02*
X134769048Y-71111905D01*
X134769048Y-70492857D01*
X144697619Y-71445238D02*
X144650000Y-71540476D01*
X144554762Y-71635714D01*
X144411905Y-71778571D01*
X144364286Y-71873810D01*
X144364286Y-71969048D01*
X144602381Y-71921429D02*
X144554762Y-72016667D01*
X144459524Y-72111905D01*
X144269048Y-72159524D01*
X143935714Y-72159524D01*
X143745238Y-72111905D01*
X143650000Y-72016667D01*
X143602381Y-71921429D01*
X143602381Y-71730952D01*
X143650000Y-71635714D01*
X143745238Y-71540476D01*
X143935714Y-71492857D01*
X144269048Y-71492857D01*
X144459524Y-71540476D01*
X144554762Y-71635714D01*
X144602381Y-71730952D01*
X144602381Y-71921429D01*
X143602381Y-71159524D02*
X143602381Y-70492857D01*
X144602381Y-70921429D01*
X99672619Y-127546428D02*
X99625000Y-127641666D01*
X99529762Y-127736904D01*
X99386905Y-127879761D01*
X99339286Y-127975000D01*
X99339286Y-128070238D01*
X99577381Y-128022619D02*
X99529762Y-128117857D01*
X99434524Y-128213095D01*
X99244048Y-128260714D01*
X98910714Y-128260714D01*
X98720238Y-128213095D01*
X98625000Y-128117857D01*
X98577381Y-128022619D01*
X98577381Y-127832142D01*
X98625000Y-127736904D01*
X98720238Y-127641666D01*
X98910714Y-127594047D01*
X99244048Y-127594047D01*
X99434524Y-127641666D01*
X99529762Y-127736904D01*
X99577381Y-127832142D01*
X99577381Y-128022619D01*
X99577381Y-126641666D02*
X99577381Y-127213095D01*
X99577381Y-126927381D02*
X98577381Y-126927381D01*
X98720238Y-127022619D01*
X98815476Y-127117857D01*
X98863095Y-127213095D01*
X98672619Y-126260714D02*
X98625000Y-126213095D01*
X98577381Y-126117857D01*
X98577381Y-125879761D01*
X98625000Y-125784523D01*
X98672619Y-125736904D01*
X98767857Y-125689285D01*
X98863095Y-125689285D01*
X99005952Y-125736904D01*
X99577381Y-126308333D01*
X99577381Y-125689285D01*
X106528572Y-124872619D02*
X106433334Y-124825000D01*
X106338096Y-124729762D01*
X106195239Y-124586905D01*
X106100000Y-124539286D01*
X106004762Y-124539286D01*
X106052381Y-124777381D02*
X105957143Y-124729762D01*
X105861905Y-124634524D01*
X105814286Y-124444048D01*
X105814286Y-124110714D01*
X105861905Y-123920238D01*
X105957143Y-123825000D01*
X106052381Y-123777381D01*
X106242858Y-123777381D01*
X106338096Y-123825000D01*
X106433334Y-123920238D01*
X106480953Y-124110714D01*
X106480953Y-124444048D01*
X106433334Y-124634524D01*
X106338096Y-124729762D01*
X106242858Y-124777381D01*
X106052381Y-124777381D01*
X107433334Y-124777381D02*
X106861905Y-124777381D01*
X107147619Y-124777381D02*
X107147619Y-123777381D01*
X107052381Y-123920238D01*
X106957143Y-124015476D01*
X106861905Y-124063095D01*
X107766667Y-123777381D02*
X108385715Y-123777381D01*
X108052381Y-124158333D01*
X108195239Y-124158333D01*
X108290477Y-124205952D01*
X108338096Y-124253571D01*
X108385715Y-124348810D01*
X108385715Y-124586905D01*
X108338096Y-124682143D01*
X108290477Y-124729762D01*
X108195239Y-124777381D01*
X107909524Y-124777381D01*
X107814286Y-124729762D01*
X107766667Y-124682143D01*
X131057143Y-74952381D02*
X130723809Y-74476190D01*
X130485714Y-74952381D02*
X130485714Y-73952381D01*
X130866667Y-73952381D01*
X130961905Y-74000000D01*
X131009524Y-74047619D01*
X131057143Y-74142857D01*
X131057143Y-74285714D01*
X131009524Y-74380952D01*
X130961905Y-74428571D01*
X130866667Y-74476190D01*
X130485714Y-74476190D01*
X132009524Y-74952381D02*
X131438095Y-74952381D01*
X131723809Y-74952381D02*
X131723809Y-73952381D01*
X131628571Y-74095238D01*
X131533333Y-74190476D01*
X131438095Y-74238095D01*
X132628571Y-73952381D02*
X132723810Y-73952381D01*
X132819048Y-74000000D01*
X132866667Y-74047619D01*
X132914286Y-74142857D01*
X132961905Y-74333333D01*
X132961905Y-74571429D01*
X132914286Y-74761905D01*
X132866667Y-74857143D01*
X132819048Y-74904762D01*
X132723810Y-74952381D01*
X132628571Y-74952381D01*
X132533333Y-74904762D01*
X132485714Y-74857143D01*
X132438095Y-74761905D01*
X132390476Y-74571429D01*
X132390476Y-74333333D01*
X132438095Y-74142857D01*
X132485714Y-74047619D01*
X132533333Y-74000000D01*
X132628571Y-73952381D01*
X131057143Y-68452381D02*
X130723809Y-67976190D01*
X130485714Y-68452381D02*
X130485714Y-67452381D01*
X130866667Y-67452381D01*
X130961905Y-67500000D01*
X131009524Y-67547619D01*
X131057143Y-67642857D01*
X131057143Y-67785714D01*
X131009524Y-67880952D01*
X130961905Y-67928571D01*
X130866667Y-67976190D01*
X130485714Y-67976190D01*
X132009524Y-68452381D02*
X131438095Y-68452381D01*
X131723809Y-68452381D02*
X131723809Y-67452381D01*
X131628571Y-67595238D01*
X131533333Y-67690476D01*
X131438095Y-67738095D01*
X132866667Y-67785714D02*
X132866667Y-68452381D01*
X132628571Y-67404762D02*
X132390476Y-68119048D01*
X133009524Y-68119048D01*
X129057143Y-64352381D02*
X128723809Y-63876190D01*
X128485714Y-64352381D02*
X128485714Y-63352381D01*
X128866667Y-63352381D01*
X128961905Y-63400000D01*
X129009524Y-63447619D01*
X129057143Y-63542857D01*
X129057143Y-63685714D01*
X129009524Y-63780952D01*
X128961905Y-63828571D01*
X128866667Y-63876190D01*
X128485714Y-63876190D01*
X130009524Y-64352381D02*
X129438095Y-64352381D01*
X129723809Y-64352381D02*
X129723809Y-63352381D01*
X129628571Y-63495238D01*
X129533333Y-63590476D01*
X129438095Y-63638095D01*
X130342857Y-63352381D02*
X131009524Y-63352381D01*
X130580952Y-64352381D01*
X131057143Y-78902381D02*
X130723809Y-78426190D01*
X130485714Y-78902381D02*
X130485714Y-77902381D01*
X130866667Y-77902381D01*
X130961905Y-77950000D01*
X131009524Y-77997619D01*
X131057143Y-78092857D01*
X131057143Y-78235714D01*
X131009524Y-78330952D01*
X130961905Y-78378571D01*
X130866667Y-78426190D01*
X130485714Y-78426190D01*
X131438095Y-77997619D02*
X131485714Y-77950000D01*
X131580952Y-77902381D01*
X131819048Y-77902381D01*
X131914286Y-77950000D01*
X131961905Y-77997619D01*
X132009524Y-78092857D01*
X132009524Y-78188095D01*
X131961905Y-78330952D01*
X131390476Y-78902381D01*
X132009524Y-78902381D01*
X132961905Y-78902381D02*
X132390476Y-78902381D01*
X132676190Y-78902381D02*
X132676190Y-77902381D01*
X132580952Y-78045238D01*
X132485714Y-78140476D01*
X132390476Y-78188095D01*
X122702381Y-71442857D02*
X122226190Y-71776191D01*
X122702381Y-72014286D02*
X121702381Y-72014286D01*
X121702381Y-71633333D01*
X121750000Y-71538095D01*
X121797619Y-71490476D01*
X121892857Y-71442857D01*
X122035714Y-71442857D01*
X122130952Y-71490476D01*
X122178571Y-71538095D01*
X122226190Y-71633333D01*
X122226190Y-72014286D01*
X121797619Y-71061905D02*
X121750000Y-71014286D01*
X121702381Y-70919048D01*
X121702381Y-70680952D01*
X121750000Y-70585714D01*
X121797619Y-70538095D01*
X121892857Y-70490476D01*
X121988095Y-70490476D01*
X122130952Y-70538095D01*
X122702381Y-71109524D01*
X122702381Y-70490476D01*
X121797619Y-70109524D02*
X121750000Y-70061905D01*
X121702381Y-69966667D01*
X121702381Y-69728571D01*
X121750000Y-69633333D01*
X121797619Y-69585714D01*
X121892857Y-69538095D01*
X121988095Y-69538095D01*
X122130952Y-69585714D01*
X122702381Y-70157143D01*
X122702381Y-69538095D01*
X150057143Y-67752381D02*
X149723809Y-67276190D01*
X149485714Y-67752381D02*
X149485714Y-66752381D01*
X149866667Y-66752381D01*
X149961905Y-66800000D01*
X150009524Y-66847619D01*
X150057143Y-66942857D01*
X150057143Y-67085714D01*
X150009524Y-67180952D01*
X149961905Y-67228571D01*
X149866667Y-67276190D01*
X149485714Y-67276190D01*
X150438095Y-66847619D02*
X150485714Y-66800000D01*
X150580952Y-66752381D01*
X150819048Y-66752381D01*
X150914286Y-66800000D01*
X150961905Y-66847619D01*
X151009524Y-66942857D01*
X151009524Y-67038095D01*
X150961905Y-67180952D01*
X150390476Y-67752381D01*
X151009524Y-67752381D01*
X151580952Y-67180952D02*
X151485714Y-67133333D01*
X151438095Y-67085714D01*
X151390476Y-66990476D01*
X151390476Y-66942857D01*
X151438095Y-66847619D01*
X151485714Y-66800000D01*
X151580952Y-66752381D01*
X151771429Y-66752381D01*
X151866667Y-66800000D01*
X151914286Y-66847619D01*
X151961905Y-66942857D01*
X151961905Y-66990476D01*
X151914286Y-67085714D01*
X151866667Y-67133333D01*
X151771429Y-67180952D01*
X151580952Y-67180952D01*
X151485714Y-67228571D01*
X151438095Y-67276190D01*
X151390476Y-67371429D01*
X151390476Y-67561905D01*
X151438095Y-67657143D01*
X151485714Y-67704762D01*
X151580952Y-67752381D01*
X151771429Y-67752381D01*
X151866667Y-67704762D01*
X151914286Y-67657143D01*
X151961905Y-67561905D01*
X151961905Y-67371429D01*
X151914286Y-67276190D01*
X151866667Y-67228571D01*
X151771429Y-67180952D01*
X146407143Y-74952381D02*
X146073809Y-74476190D01*
X145835714Y-74952381D02*
X145835714Y-73952381D01*
X146216667Y-73952381D01*
X146311905Y-74000000D01*
X146359524Y-74047619D01*
X146407143Y-74142857D01*
X146407143Y-74285714D01*
X146359524Y-74380952D01*
X146311905Y-74428571D01*
X146216667Y-74476190D01*
X145835714Y-74476190D01*
X146788095Y-74047619D02*
X146835714Y-74000000D01*
X146930952Y-73952381D01*
X147169048Y-73952381D01*
X147264286Y-74000000D01*
X147311905Y-74047619D01*
X147359524Y-74142857D01*
X147359524Y-74238095D01*
X147311905Y-74380952D01*
X146740476Y-74952381D01*
X147359524Y-74952381D01*
X147835714Y-74952381D02*
X148026190Y-74952381D01*
X148121429Y-74904762D01*
X148169048Y-74857143D01*
X148264286Y-74714286D01*
X148311905Y-74523810D01*
X148311905Y-74142857D01*
X148264286Y-74047619D01*
X148216667Y-74000000D01*
X148121429Y-73952381D01*
X147930952Y-73952381D01*
X147835714Y-74000000D01*
X147788095Y-74047619D01*
X147740476Y-74142857D01*
X147740476Y-74380952D01*
X147788095Y-74476190D01*
X147835714Y-74523810D01*
X147930952Y-74571429D01*
X148121429Y-74571429D01*
X148216667Y-74523810D01*
X148264286Y-74476190D01*
X148311905Y-74380952D01*
X106582143Y-127977381D02*
X106248809Y-127501190D01*
X106010714Y-127977381D02*
X106010714Y-126977381D01*
X106391667Y-126977381D01*
X106486905Y-127025000D01*
X106534524Y-127072619D01*
X106582143Y-127167857D01*
X106582143Y-127310714D01*
X106534524Y-127405952D01*
X106486905Y-127453571D01*
X106391667Y-127501190D01*
X106010714Y-127501190D01*
X106915476Y-126977381D02*
X107534524Y-126977381D01*
X107201190Y-127358333D01*
X107344048Y-127358333D01*
X107439286Y-127405952D01*
X107486905Y-127453571D01*
X107534524Y-127548810D01*
X107534524Y-127786905D01*
X107486905Y-127882143D01*
X107439286Y-127929762D01*
X107344048Y-127977381D01*
X107058333Y-127977381D01*
X106963095Y-127929762D01*
X106915476Y-127882143D01*
X107867857Y-126977381D02*
X108486905Y-126977381D01*
X108153571Y-127358333D01*
X108296429Y-127358333D01*
X108391667Y-127405952D01*
X108439286Y-127453571D01*
X108486905Y-127548810D01*
X108486905Y-127786905D01*
X108439286Y-127882143D01*
X108391667Y-127929762D01*
X108296429Y-127977381D01*
X108010714Y-127977381D01*
X107915476Y-127929762D01*
X107867857Y-127882143D01*
X103902381Y-127492857D02*
X103426190Y-127826191D01*
X103902381Y-128064286D02*
X102902381Y-128064286D01*
X102902381Y-127683333D01*
X102950000Y-127588095D01*
X102997619Y-127540476D01*
X103092857Y-127492857D01*
X103235714Y-127492857D01*
X103330952Y-127540476D01*
X103378571Y-127588095D01*
X103426190Y-127683333D01*
X103426190Y-128064286D01*
X102902381Y-127159524D02*
X102902381Y-126540476D01*
X103283333Y-126873810D01*
X103283333Y-126730952D01*
X103330952Y-126635714D01*
X103378571Y-126588095D01*
X103473810Y-126540476D01*
X103711905Y-126540476D01*
X103807143Y-126588095D01*
X103854762Y-126635714D01*
X103902381Y-126730952D01*
X103902381Y-127016667D01*
X103854762Y-127111905D01*
X103807143Y-127159524D01*
X103235714Y-125683333D02*
X103902381Y-125683333D01*
X102854762Y-125921429D02*
X103569048Y-126159524D01*
X103569048Y-125540476D01*
X127727381Y-125717857D02*
X127251190Y-126051191D01*
X127727381Y-126289286D02*
X126727381Y-126289286D01*
X126727381Y-125908333D01*
X126775000Y-125813095D01*
X126822619Y-125765476D01*
X126917857Y-125717857D01*
X127060714Y-125717857D01*
X127155952Y-125765476D01*
X127203571Y-125813095D01*
X127251190Y-125908333D01*
X127251190Y-126289286D01*
X127060714Y-124860714D02*
X127727381Y-124860714D01*
X126679762Y-125098810D02*
X127394048Y-125336905D01*
X127394048Y-124717857D01*
X127727381Y-123813095D02*
X127727381Y-124384524D01*
X127727381Y-124098810D02*
X126727381Y-124098810D01*
X126870238Y-124194048D01*
X126965476Y-124289286D01*
X127013095Y-124384524D01*
X130532143Y-128552381D02*
X130198809Y-128076190D01*
X129960714Y-128552381D02*
X129960714Y-127552381D01*
X130341667Y-127552381D01*
X130436905Y-127600000D01*
X130484524Y-127647619D01*
X130532143Y-127742857D01*
X130532143Y-127885714D01*
X130484524Y-127980952D01*
X130436905Y-128028571D01*
X130341667Y-128076190D01*
X129960714Y-128076190D01*
X131389286Y-127885714D02*
X131389286Y-128552381D01*
X131151190Y-127504762D02*
X130913095Y-128219048D01*
X131532143Y-128219048D01*
X131865476Y-127647619D02*
X131913095Y-127600000D01*
X132008333Y-127552381D01*
X132246429Y-127552381D01*
X132341667Y-127600000D01*
X132389286Y-127647619D01*
X132436905Y-127742857D01*
X132436905Y-127838095D01*
X132389286Y-127980952D01*
X131817857Y-128552381D01*
X132436905Y-128552381D01*
X93552381Y-121742857D02*
X93076190Y-122076191D01*
X93552381Y-122314286D02*
X92552381Y-122314286D01*
X92552381Y-121933333D01*
X92600000Y-121838095D01*
X92647619Y-121790476D01*
X92742857Y-121742857D01*
X92885714Y-121742857D01*
X92980952Y-121790476D01*
X93028571Y-121838095D01*
X93076190Y-121933333D01*
X93076190Y-122314286D01*
X92885714Y-120885714D02*
X93552381Y-120885714D01*
X92504762Y-121123810D02*
X93219048Y-121361905D01*
X93219048Y-120742857D01*
X92552381Y-120457143D02*
X92552381Y-119838095D01*
X92933333Y-120171429D01*
X92933333Y-120028571D01*
X92980952Y-119933333D01*
X93028571Y-119885714D01*
X93123810Y-119838095D01*
X93361905Y-119838095D01*
X93457143Y-119885714D01*
X93504762Y-119933333D01*
X93552381Y-120028571D01*
X93552381Y-120314286D01*
X93504762Y-120409524D01*
X93457143Y-120457143D01*
X102657143Y-73442857D02*
X102704762Y-73490476D01*
X102752381Y-73633333D01*
X102752381Y-73728571D01*
X102704762Y-73871429D01*
X102609524Y-73966667D01*
X102514286Y-74014286D01*
X102323810Y-74061905D01*
X102180952Y-74061905D01*
X101990476Y-74014286D01*
X101895238Y-73966667D01*
X101800000Y-73871429D01*
X101752381Y-73728571D01*
X101752381Y-73633333D01*
X101800000Y-73490476D01*
X101847619Y-73442857D01*
X101752381Y-73109524D02*
X101752381Y-72490476D01*
X102133333Y-72823810D01*
X102133333Y-72680952D01*
X102180952Y-72585714D01*
X102228571Y-72538095D01*
X102323810Y-72490476D01*
X102561905Y-72490476D01*
X102657143Y-72538095D01*
X102704762Y-72585714D01*
X102752381Y-72680952D01*
X102752381Y-72966667D01*
X102704762Y-73061905D01*
X102657143Y-73109524D01*
X101752381Y-71585714D02*
X101752381Y-72061905D01*
X102228571Y-72109524D01*
X102180952Y-72061905D01*
X102133333Y-71966667D01*
X102133333Y-71728571D01*
X102180952Y-71633333D01*
X102228571Y-71585714D01*
X102323810Y-71538095D01*
X102561905Y-71538095D01*
X102657143Y-71585714D01*
X102704762Y-71633333D01*
X102752381Y-71728571D01*
X102752381Y-71966667D01*
X102704762Y-72061905D01*
X102657143Y-72109524D01*
X96857143Y-65192857D02*
X96904762Y-65240476D01*
X96952381Y-65383333D01*
X96952381Y-65478571D01*
X96904762Y-65621429D01*
X96809524Y-65716667D01*
X96714286Y-65764286D01*
X96523810Y-65811905D01*
X96380952Y-65811905D01*
X96190476Y-65764286D01*
X96095238Y-65716667D01*
X96000000Y-65621429D01*
X95952381Y-65478571D01*
X95952381Y-65383333D01*
X96000000Y-65240476D01*
X96047619Y-65192857D01*
X96285714Y-64335714D02*
X96952381Y-64335714D01*
X95904762Y-64573810D02*
X96619048Y-64811905D01*
X96619048Y-64192857D01*
X96047619Y-63859524D02*
X96000000Y-63811905D01*
X95952381Y-63716667D01*
X95952381Y-63478571D01*
X96000000Y-63383333D01*
X96047619Y-63335714D01*
X96142857Y-63288095D01*
X96238095Y-63288095D01*
X96380952Y-63335714D01*
X96952381Y-63907143D01*
X96952381Y-63288095D01*
X108715714Y-72122381D02*
X108715714Y-71122381D01*
X108953809Y-71122381D01*
X109096667Y-71170000D01*
X109191905Y-71265238D01*
X109239524Y-71360476D01*
X109287143Y-71550952D01*
X109287143Y-71693810D01*
X109239524Y-71884286D01*
X109191905Y-71979524D01*
X109096667Y-72074762D01*
X108953809Y-72122381D01*
X108715714Y-72122381D01*
X110239524Y-72122381D02*
X109668095Y-72122381D01*
X109953809Y-72122381D02*
X109953809Y-71122381D01*
X109858571Y-71265238D01*
X109763333Y-71360476D01*
X109668095Y-71408095D01*
X110715714Y-72122381D02*
X110906190Y-72122381D01*
X111001429Y-72074762D01*
X111049048Y-72027143D01*
X111144286Y-71884286D01*
X111191905Y-71693810D01*
X111191905Y-71312857D01*
X111144286Y-71217619D01*
X111096667Y-71170000D01*
X111001429Y-71122381D01*
X110810952Y-71122381D01*
X110715714Y-71170000D01*
X110668095Y-71217619D01*
X110620476Y-71312857D01*
X110620476Y-71550952D01*
X110668095Y-71646190D01*
X110715714Y-71693810D01*
X110810952Y-71741429D01*
X111001429Y-71741429D01*
X111096667Y-71693810D01*
X111144286Y-71646190D01*
X111191905Y-71550952D01*
X97557143Y-80252381D02*
X97223809Y-79776190D01*
X96985714Y-80252381D02*
X96985714Y-79252381D01*
X97366667Y-79252381D01*
X97461905Y-79300000D01*
X97509524Y-79347619D01*
X97557143Y-79442857D01*
X97557143Y-79585714D01*
X97509524Y-79680952D01*
X97461905Y-79728571D01*
X97366667Y-79776190D01*
X96985714Y-79776190D01*
X97938095Y-79347619D02*
X97985714Y-79300000D01*
X98080952Y-79252381D01*
X98319048Y-79252381D01*
X98414286Y-79300000D01*
X98461905Y-79347619D01*
X98509524Y-79442857D01*
X98509524Y-79538095D01*
X98461905Y-79680952D01*
X97890476Y-80252381D01*
X98509524Y-80252381D01*
X98842857Y-79252381D02*
X99461905Y-79252381D01*
X99128571Y-79633333D01*
X99271429Y-79633333D01*
X99366667Y-79680952D01*
X99414286Y-79728571D01*
X99461905Y-79823810D01*
X99461905Y-80061905D01*
X99414286Y-80157143D01*
X99366667Y-80204762D01*
X99271429Y-80252381D01*
X98985714Y-80252381D01*
X98890476Y-80204762D01*
X98842857Y-80157143D01*
X86602381Y-70322857D02*
X86126190Y-70656191D01*
X86602381Y-70894286D02*
X85602381Y-70894286D01*
X85602381Y-70513333D01*
X85650000Y-70418095D01*
X85697619Y-70370476D01*
X85792857Y-70322857D01*
X85935714Y-70322857D01*
X86030952Y-70370476D01*
X86078571Y-70418095D01*
X86126190Y-70513333D01*
X86126190Y-70894286D01*
X85602381Y-69989524D02*
X85602381Y-69370476D01*
X85983333Y-69703810D01*
X85983333Y-69560952D01*
X86030952Y-69465714D01*
X86078571Y-69418095D01*
X86173810Y-69370476D01*
X86411905Y-69370476D01*
X86507143Y-69418095D01*
X86554762Y-69465714D01*
X86602381Y-69560952D01*
X86602381Y-69846667D01*
X86554762Y-69941905D01*
X86507143Y-69989524D01*
X86030952Y-68799048D02*
X85983333Y-68894286D01*
X85935714Y-68941905D01*
X85840476Y-68989524D01*
X85792857Y-68989524D01*
X85697619Y-68941905D01*
X85650000Y-68894286D01*
X85602381Y-68799048D01*
X85602381Y-68608571D01*
X85650000Y-68513333D01*
X85697619Y-68465714D01*
X85792857Y-68418095D01*
X85840476Y-68418095D01*
X85935714Y-68465714D01*
X85983333Y-68513333D01*
X86030952Y-68608571D01*
X86030952Y-68799048D01*
X86078571Y-68894286D01*
X86126190Y-68941905D01*
X86221429Y-68989524D01*
X86411905Y-68989524D01*
X86507143Y-68941905D01*
X86554762Y-68894286D01*
X86602381Y-68799048D01*
X86602381Y-68608571D01*
X86554762Y-68513333D01*
X86507143Y-68465714D01*
X86411905Y-68418095D01*
X86221429Y-68418095D01*
X86126190Y-68465714D01*
X86078571Y-68513333D01*
X86030952Y-68608571D01*
X102557143Y-43707143D02*
X102509524Y-43754762D01*
X102366667Y-43802381D01*
X102271429Y-43802381D01*
X102128571Y-43754762D01*
X102033333Y-43659524D01*
X101985714Y-43564286D01*
X101938095Y-43373810D01*
X101938095Y-43230952D01*
X101985714Y-43040476D01*
X102033333Y-42945238D01*
X102128571Y-42850000D01*
X102271429Y-42802381D01*
X102366667Y-42802381D01*
X102509524Y-42850000D01*
X102557143Y-42897619D01*
X103509524Y-43802381D02*
X102938095Y-43802381D01*
X103223809Y-43802381D02*
X103223809Y-42802381D01*
X103128571Y-42945238D01*
X103033333Y-43040476D01*
X102938095Y-43088095D01*
X103890476Y-42897619D02*
X103938095Y-42850000D01*
X104033333Y-42802381D01*
X104271429Y-42802381D01*
X104366667Y-42850000D01*
X104414286Y-42897619D01*
X104461905Y-42992857D01*
X104461905Y-43088095D01*
X104414286Y-43230952D01*
X103842857Y-43802381D01*
X104461905Y-43802381D01*
X110757143Y-46042857D02*
X110804762Y-46090476D01*
X110852381Y-46233333D01*
X110852381Y-46328571D01*
X110804762Y-46471429D01*
X110709524Y-46566667D01*
X110614286Y-46614286D01*
X110423810Y-46661905D01*
X110280952Y-46661905D01*
X110090476Y-46614286D01*
X109995238Y-46566667D01*
X109900000Y-46471429D01*
X109852381Y-46328571D01*
X109852381Y-46233333D01*
X109900000Y-46090476D01*
X109947619Y-46042857D01*
X110852381Y-45090476D02*
X110852381Y-45661905D01*
X110852381Y-45376191D02*
X109852381Y-45376191D01*
X109995238Y-45471429D01*
X110090476Y-45566667D01*
X110138095Y-45661905D01*
X109852381Y-44757143D02*
X109852381Y-44138095D01*
X110233333Y-44471429D01*
X110233333Y-44328571D01*
X110280952Y-44233333D01*
X110328571Y-44185714D01*
X110423810Y-44138095D01*
X110661905Y-44138095D01*
X110757143Y-44185714D01*
X110804762Y-44233333D01*
X110852381Y-44328571D01*
X110852381Y-44614286D01*
X110804762Y-44709524D01*
X110757143Y-44757143D01*
X116157143Y-50942857D02*
X116204762Y-50990476D01*
X116252381Y-51133333D01*
X116252381Y-51228571D01*
X116204762Y-51371429D01*
X116109524Y-51466667D01*
X116014286Y-51514286D01*
X115823810Y-51561905D01*
X115680952Y-51561905D01*
X115490476Y-51514286D01*
X115395238Y-51466667D01*
X115300000Y-51371429D01*
X115252381Y-51228571D01*
X115252381Y-51133333D01*
X115300000Y-50990476D01*
X115347619Y-50942857D01*
X116252381Y-49990476D02*
X116252381Y-50561905D01*
X116252381Y-50276191D02*
X115252381Y-50276191D01*
X115395238Y-50371429D01*
X115490476Y-50466667D01*
X115538095Y-50561905D01*
X116252381Y-49514286D02*
X116252381Y-49323810D01*
X116204762Y-49228571D01*
X116157143Y-49180952D01*
X116014286Y-49085714D01*
X115823810Y-49038095D01*
X115442857Y-49038095D01*
X115347619Y-49085714D01*
X115300000Y-49133333D01*
X115252381Y-49228571D01*
X115252381Y-49419048D01*
X115300000Y-49514286D01*
X115347619Y-49561905D01*
X115442857Y-49609524D01*
X115680952Y-49609524D01*
X115776190Y-49561905D01*
X115823810Y-49514286D01*
X115871429Y-49419048D01*
X115871429Y-49228571D01*
X115823810Y-49133333D01*
X115776190Y-49085714D01*
X115680952Y-49038095D01*
X118157143Y-54557143D02*
X118109524Y-54604762D01*
X117966667Y-54652381D01*
X117871429Y-54652381D01*
X117728571Y-54604762D01*
X117633333Y-54509524D01*
X117585714Y-54414286D01*
X117538095Y-54223810D01*
X117538095Y-54080952D01*
X117585714Y-53890476D01*
X117633333Y-53795238D01*
X117728571Y-53700000D01*
X117871429Y-53652381D01*
X117966667Y-53652381D01*
X118109524Y-53700000D01*
X118157143Y-53747619D01*
X118490476Y-53652381D02*
X119109524Y-53652381D01*
X118776190Y-54033333D01*
X118919048Y-54033333D01*
X119014286Y-54080952D01*
X119061905Y-54128571D01*
X119109524Y-54223810D01*
X119109524Y-54461905D01*
X119061905Y-54557143D01*
X119014286Y-54604762D01*
X118919048Y-54652381D01*
X118633333Y-54652381D01*
X118538095Y-54604762D01*
X118490476Y-54557143D01*
X120061905Y-54652381D02*
X119490476Y-54652381D01*
X119776190Y-54652381D02*
X119776190Y-53652381D01*
X119680952Y-53795238D01*
X119585714Y-53890476D01*
X119490476Y-53938095D01*
X116157143Y-46142857D02*
X116204762Y-46190476D01*
X116252381Y-46333333D01*
X116252381Y-46428571D01*
X116204762Y-46571429D01*
X116109524Y-46666667D01*
X116014286Y-46714286D01*
X115823810Y-46761905D01*
X115680952Y-46761905D01*
X115490476Y-46714286D01*
X115395238Y-46666667D01*
X115300000Y-46571429D01*
X115252381Y-46428571D01*
X115252381Y-46333333D01*
X115300000Y-46190476D01*
X115347619Y-46142857D01*
X115252381Y-45809524D02*
X115252381Y-45190476D01*
X115633333Y-45523810D01*
X115633333Y-45380952D01*
X115680952Y-45285714D01*
X115728571Y-45238095D01*
X115823810Y-45190476D01*
X116061905Y-45190476D01*
X116157143Y-45238095D01*
X116204762Y-45285714D01*
X116252381Y-45380952D01*
X116252381Y-45666667D01*
X116204762Y-45761905D01*
X116157143Y-45809524D01*
X115252381Y-44857143D02*
X115252381Y-44238095D01*
X115633333Y-44571429D01*
X115633333Y-44428571D01*
X115680952Y-44333333D01*
X115728571Y-44285714D01*
X115823810Y-44238095D01*
X116061905Y-44238095D01*
X116157143Y-44285714D01*
X116204762Y-44333333D01*
X116252381Y-44428571D01*
X116252381Y-44714286D01*
X116204762Y-44809524D01*
X116157143Y-44857143D01*
X76357143Y-76542857D02*
X76404762Y-76590476D01*
X76452381Y-76733333D01*
X76452381Y-76828571D01*
X76404762Y-76971429D01*
X76309524Y-77066667D01*
X76214286Y-77114286D01*
X76023810Y-77161905D01*
X75880952Y-77161905D01*
X75690476Y-77114286D01*
X75595238Y-77066667D01*
X75500000Y-76971429D01*
X75452381Y-76828571D01*
X75452381Y-76733333D01*
X75500000Y-76590476D01*
X75547619Y-76542857D01*
X75452381Y-76209524D02*
X75452381Y-75590476D01*
X75833333Y-75923810D01*
X75833333Y-75780952D01*
X75880952Y-75685714D01*
X75928571Y-75638095D01*
X76023810Y-75590476D01*
X76261905Y-75590476D01*
X76357143Y-75638095D01*
X76404762Y-75685714D01*
X76452381Y-75780952D01*
X76452381Y-76066667D01*
X76404762Y-76161905D01*
X76357143Y-76209524D01*
X75452381Y-74733333D02*
X75452381Y-74923810D01*
X75500000Y-75019048D01*
X75547619Y-75066667D01*
X75690476Y-75161905D01*
X75880952Y-75209524D01*
X76261905Y-75209524D01*
X76357143Y-75161905D01*
X76404762Y-75114286D01*
X76452381Y-75019048D01*
X76452381Y-74828571D01*
X76404762Y-74733333D01*
X76357143Y-74685714D01*
X76261905Y-74638095D01*
X76023810Y-74638095D01*
X75928571Y-74685714D01*
X75880952Y-74733333D01*
X75833333Y-74828571D01*
X75833333Y-75019048D01*
X75880952Y-75114286D01*
X75928571Y-75161905D01*
X76023810Y-75209524D01*
X86207143Y-82342857D02*
X86254762Y-82390476D01*
X86302381Y-82533333D01*
X86302381Y-82628571D01*
X86254762Y-82771429D01*
X86159524Y-82866667D01*
X86064286Y-82914286D01*
X85873810Y-82961905D01*
X85730952Y-82961905D01*
X85540476Y-82914286D01*
X85445238Y-82866667D01*
X85350000Y-82771429D01*
X85302381Y-82628571D01*
X85302381Y-82533333D01*
X85350000Y-82390476D01*
X85397619Y-82342857D01*
X85302381Y-82009524D02*
X85302381Y-81390476D01*
X85683333Y-81723810D01*
X85683333Y-81580952D01*
X85730952Y-81485714D01*
X85778571Y-81438095D01*
X85873810Y-81390476D01*
X86111905Y-81390476D01*
X86207143Y-81438095D01*
X86254762Y-81485714D01*
X86302381Y-81580952D01*
X86302381Y-81866667D01*
X86254762Y-81961905D01*
X86207143Y-82009524D01*
X86302381Y-80914286D02*
X86302381Y-80723810D01*
X86254762Y-80628571D01*
X86207143Y-80580952D01*
X86064286Y-80485714D01*
X85873810Y-80438095D01*
X85492857Y-80438095D01*
X85397619Y-80485714D01*
X85350000Y-80533333D01*
X85302381Y-80628571D01*
X85302381Y-80819048D01*
X85350000Y-80914286D01*
X85397619Y-80961905D01*
X85492857Y-81009524D01*
X85730952Y-81009524D01*
X85826190Y-80961905D01*
X85873810Y-80914286D01*
X85921429Y-80819048D01*
X85921429Y-80628571D01*
X85873810Y-80533333D01*
X85826190Y-80485714D01*
X85730952Y-80438095D01*
X78157143Y-71292857D02*
X78204762Y-71340476D01*
X78252381Y-71483333D01*
X78252381Y-71578571D01*
X78204762Y-71721429D01*
X78109524Y-71816667D01*
X78014286Y-71864286D01*
X77823810Y-71911905D01*
X77680952Y-71911905D01*
X77490476Y-71864286D01*
X77395238Y-71816667D01*
X77300000Y-71721429D01*
X77252381Y-71578571D01*
X77252381Y-71483333D01*
X77300000Y-71340476D01*
X77347619Y-71292857D01*
X77585714Y-70435714D02*
X78252381Y-70435714D01*
X77204762Y-70673810D02*
X77919048Y-70911905D01*
X77919048Y-70292857D01*
X77252381Y-69721429D02*
X77252381Y-69626190D01*
X77300000Y-69530952D01*
X77347619Y-69483333D01*
X77442857Y-69435714D01*
X77633333Y-69388095D01*
X77871429Y-69388095D01*
X78061905Y-69435714D01*
X78157143Y-69483333D01*
X78204762Y-69530952D01*
X78252381Y-69626190D01*
X78252381Y-69721429D01*
X78204762Y-69816667D01*
X78157143Y-69864286D01*
X78061905Y-69911905D01*
X77871429Y-69959524D01*
X77633333Y-69959524D01*
X77442857Y-69911905D01*
X77347619Y-69864286D01*
X77300000Y-69816667D01*
X77252381Y-69721429D01*
X79685714Y-65352381D02*
X79685714Y-64352381D01*
X79923809Y-64352381D01*
X80066667Y-64400000D01*
X80161905Y-64495238D01*
X80209524Y-64590476D01*
X80257143Y-64780952D01*
X80257143Y-64923810D01*
X80209524Y-65114286D01*
X80161905Y-65209524D01*
X80066667Y-65304762D01*
X79923809Y-65352381D01*
X79685714Y-65352381D01*
X81209524Y-65352381D02*
X80638095Y-65352381D01*
X80923809Y-65352381D02*
X80923809Y-64352381D01*
X80828571Y-64495238D01*
X80733333Y-64590476D01*
X80638095Y-64638095D01*
X81542857Y-64352381D02*
X82161905Y-64352381D01*
X81828571Y-64733333D01*
X81971429Y-64733333D01*
X82066667Y-64780952D01*
X82114286Y-64828571D01*
X82161905Y-64923810D01*
X82161905Y-65161905D01*
X82114286Y-65257143D01*
X82066667Y-65304762D01*
X81971429Y-65352381D01*
X81685714Y-65352381D01*
X81590476Y-65304762D01*
X81542857Y-65257143D01*
X94497619Y-72295238D02*
X94450000Y-72390476D01*
X94354762Y-72485714D01*
X94211905Y-72628571D01*
X94164286Y-72723810D01*
X94164286Y-72819048D01*
X94402381Y-72771429D02*
X94354762Y-72866667D01*
X94259524Y-72961905D01*
X94069048Y-73009524D01*
X93735714Y-73009524D01*
X93545238Y-72961905D01*
X93450000Y-72866667D01*
X93402381Y-72771429D01*
X93402381Y-72580952D01*
X93450000Y-72485714D01*
X93545238Y-72390476D01*
X93735714Y-72342857D01*
X94069048Y-72342857D01*
X94259524Y-72390476D01*
X94354762Y-72485714D01*
X94402381Y-72580952D01*
X94402381Y-72771429D01*
X93830952Y-71771429D02*
X93783333Y-71866667D01*
X93735714Y-71914286D01*
X93640476Y-71961905D01*
X93592857Y-71961905D01*
X93497619Y-71914286D01*
X93450000Y-71866667D01*
X93402381Y-71771429D01*
X93402381Y-71580952D01*
X93450000Y-71485714D01*
X93497619Y-71438095D01*
X93592857Y-71390476D01*
X93640476Y-71390476D01*
X93735714Y-71438095D01*
X93783333Y-71485714D01*
X93830952Y-71580952D01*
X93830952Y-71771429D01*
X93878571Y-71866667D01*
X93926190Y-71914286D01*
X94021429Y-71961905D01*
X94211905Y-71961905D01*
X94307143Y-71914286D01*
X94354762Y-71866667D01*
X94402381Y-71771429D01*
X94402381Y-71580952D01*
X94354762Y-71485714D01*
X94307143Y-71438095D01*
X94211905Y-71390476D01*
X94021429Y-71390476D01*
X93926190Y-71438095D01*
X93878571Y-71485714D01*
X93830952Y-71580952D01*
X99897619Y-72295238D02*
X99850000Y-72390476D01*
X99754762Y-72485714D01*
X99611905Y-72628571D01*
X99564286Y-72723810D01*
X99564286Y-72819048D01*
X99802381Y-72771429D02*
X99754762Y-72866667D01*
X99659524Y-72961905D01*
X99469048Y-73009524D01*
X99135714Y-73009524D01*
X98945238Y-72961905D01*
X98850000Y-72866667D01*
X98802381Y-72771429D01*
X98802381Y-72580952D01*
X98850000Y-72485714D01*
X98945238Y-72390476D01*
X99135714Y-72342857D01*
X99469048Y-72342857D01*
X99659524Y-72390476D01*
X99754762Y-72485714D01*
X99802381Y-72580952D01*
X99802381Y-72771429D01*
X99802381Y-71866667D02*
X99802381Y-71676191D01*
X99754762Y-71580952D01*
X99707143Y-71533333D01*
X99564286Y-71438095D01*
X99373810Y-71390476D01*
X98992857Y-71390476D01*
X98897619Y-71438095D01*
X98850000Y-71485714D01*
X98802381Y-71580952D01*
X98802381Y-71771429D01*
X98850000Y-71866667D01*
X98897619Y-71914286D01*
X98992857Y-71961905D01*
X99230952Y-71961905D01*
X99326190Y-71914286D01*
X99373810Y-71866667D01*
X99421429Y-71771429D01*
X99421429Y-71580952D01*
X99373810Y-71485714D01*
X99326190Y-71438095D01*
X99230952Y-71390476D01*
X109428572Y-48447619D02*
X109333334Y-48400000D01*
X109238096Y-48304762D01*
X109095239Y-48161905D01*
X109000000Y-48114286D01*
X108904762Y-48114286D01*
X108952381Y-48352381D02*
X108857143Y-48304762D01*
X108761905Y-48209524D01*
X108714286Y-48019048D01*
X108714286Y-47685714D01*
X108761905Y-47495238D01*
X108857143Y-47400000D01*
X108952381Y-47352381D01*
X109142858Y-47352381D01*
X109238096Y-47400000D01*
X109333334Y-47495238D01*
X109380953Y-47685714D01*
X109380953Y-48019048D01*
X109333334Y-48209524D01*
X109238096Y-48304762D01*
X109142858Y-48352381D01*
X108952381Y-48352381D01*
X110333334Y-48352381D02*
X109761905Y-48352381D01*
X110047619Y-48352381D02*
X110047619Y-47352381D01*
X109952381Y-47495238D01*
X109857143Y-47590476D01*
X109761905Y-47638095D01*
X111285715Y-48352381D02*
X110714286Y-48352381D01*
X111000000Y-48352381D02*
X111000000Y-47352381D01*
X110904762Y-47495238D01*
X110809524Y-47590476D01*
X110714286Y-47638095D01*
X96433334Y-46302381D02*
X96100000Y-45826190D01*
X95861905Y-46302381D02*
X95861905Y-45302381D01*
X96242858Y-45302381D01*
X96338096Y-45350000D01*
X96385715Y-45397619D01*
X96433334Y-45492857D01*
X96433334Y-45635714D01*
X96385715Y-45730952D01*
X96338096Y-45778571D01*
X96242858Y-45826190D01*
X95861905Y-45826190D01*
X97385715Y-46302381D02*
X96814286Y-46302381D01*
X97100000Y-46302381D02*
X97100000Y-45302381D01*
X97004762Y-45445238D01*
X96909524Y-45540476D01*
X96814286Y-45588095D01*
X103033334Y-48352381D02*
X102700000Y-47876190D01*
X102461905Y-48352381D02*
X102461905Y-47352381D01*
X102842858Y-47352381D01*
X102938096Y-47400000D01*
X102985715Y-47447619D01*
X103033334Y-47542857D01*
X103033334Y-47685714D01*
X102985715Y-47780952D01*
X102938096Y-47828571D01*
X102842858Y-47876190D01*
X102461905Y-47876190D01*
X103414286Y-47447619D02*
X103461905Y-47400000D01*
X103557143Y-47352381D01*
X103795239Y-47352381D01*
X103890477Y-47400000D01*
X103938096Y-47447619D01*
X103985715Y-47542857D01*
X103985715Y-47638095D01*
X103938096Y-47780952D01*
X103366667Y-48352381D01*
X103985715Y-48352381D01*
X107133334Y-53602381D02*
X106800000Y-53126190D01*
X106561905Y-53602381D02*
X106561905Y-52602381D01*
X106942858Y-52602381D01*
X107038096Y-52650000D01*
X107085715Y-52697619D01*
X107133334Y-52792857D01*
X107133334Y-52935714D01*
X107085715Y-53030952D01*
X107038096Y-53078571D01*
X106942858Y-53126190D01*
X106561905Y-53126190D01*
X107466667Y-52602381D02*
X108085715Y-52602381D01*
X107752381Y-52983333D01*
X107895239Y-52983333D01*
X107990477Y-53030952D01*
X108038096Y-53078571D01*
X108085715Y-53173810D01*
X108085715Y-53411905D01*
X108038096Y-53507143D01*
X107990477Y-53554762D01*
X107895239Y-53602381D01*
X107609524Y-53602381D01*
X107514286Y-53554762D01*
X107466667Y-53507143D01*
X115133334Y-57652381D02*
X114800000Y-57176190D01*
X114561905Y-57652381D02*
X114561905Y-56652381D01*
X114942858Y-56652381D01*
X115038096Y-56700000D01*
X115085715Y-56747619D01*
X115133334Y-56842857D01*
X115133334Y-56985714D01*
X115085715Y-57080952D01*
X115038096Y-57128571D01*
X114942858Y-57176190D01*
X114561905Y-57176190D01*
X115609524Y-57652381D02*
X115800000Y-57652381D01*
X115895239Y-57604762D01*
X115942858Y-57557143D01*
X116038096Y-57414286D01*
X116085715Y-57223810D01*
X116085715Y-56842857D01*
X116038096Y-56747619D01*
X115990477Y-56700000D01*
X115895239Y-56652381D01*
X115704762Y-56652381D01*
X115609524Y-56700000D01*
X115561905Y-56747619D01*
X115514286Y-56842857D01*
X115514286Y-57080952D01*
X115561905Y-57176190D01*
X115609524Y-57223810D01*
X115704762Y-57271429D01*
X115895239Y-57271429D01*
X115990477Y-57223810D01*
X116038096Y-57176190D01*
X116085715Y-57080952D01*
X64957143Y-69502381D02*
X64623809Y-69026190D01*
X64385714Y-69502381D02*
X64385714Y-68502381D01*
X64766667Y-68502381D01*
X64861905Y-68550000D01*
X64909524Y-68597619D01*
X64957143Y-68692857D01*
X64957143Y-68835714D01*
X64909524Y-68930952D01*
X64861905Y-68978571D01*
X64766667Y-69026190D01*
X64385714Y-69026190D01*
X65909524Y-69502381D02*
X65338095Y-69502381D01*
X65623809Y-69502381D02*
X65623809Y-68502381D01*
X65528571Y-68645238D01*
X65433333Y-68740476D01*
X65338095Y-68788095D01*
X66766667Y-68502381D02*
X66576190Y-68502381D01*
X66480952Y-68550000D01*
X66433333Y-68597619D01*
X66338095Y-68740476D01*
X66290476Y-68930952D01*
X66290476Y-69311905D01*
X66338095Y-69407143D01*
X66385714Y-69454762D01*
X66480952Y-69502381D01*
X66671429Y-69502381D01*
X66766667Y-69454762D01*
X66814286Y-69407143D01*
X66861905Y-69311905D01*
X66861905Y-69073810D01*
X66814286Y-68978571D01*
X66766667Y-68930952D01*
X66671429Y-68883333D01*
X66480952Y-68883333D01*
X66385714Y-68930952D01*
X66338095Y-68978571D01*
X66290476Y-69073810D01*
X81957143Y-82252381D02*
X81623809Y-81776190D01*
X81385714Y-82252381D02*
X81385714Y-81252381D01*
X81766667Y-81252381D01*
X81861905Y-81300000D01*
X81909524Y-81347619D01*
X81957143Y-81442857D01*
X81957143Y-81585714D01*
X81909524Y-81680952D01*
X81861905Y-81728571D01*
X81766667Y-81776190D01*
X81385714Y-81776190D01*
X82290476Y-81252381D02*
X82909524Y-81252381D01*
X82576190Y-81633333D01*
X82719048Y-81633333D01*
X82814286Y-81680952D01*
X82861905Y-81728571D01*
X82909524Y-81823810D01*
X82909524Y-82061905D01*
X82861905Y-82157143D01*
X82814286Y-82204762D01*
X82719048Y-82252381D01*
X82433333Y-82252381D01*
X82338095Y-82204762D01*
X82290476Y-82157143D01*
X83861905Y-82252381D02*
X83290476Y-82252381D01*
X83576190Y-82252381D02*
X83576190Y-81252381D01*
X83480952Y-81395238D01*
X83385714Y-81490476D01*
X83290476Y-81538095D01*
X98807143Y-54902381D02*
X98473809Y-54426190D01*
X98235714Y-54902381D02*
X98235714Y-53902381D01*
X98616667Y-53902381D01*
X98711905Y-53950000D01*
X98759524Y-53997619D01*
X98807143Y-54092857D01*
X98807143Y-54235714D01*
X98759524Y-54330952D01*
X98711905Y-54378571D01*
X98616667Y-54426190D01*
X98235714Y-54426190D01*
X99664286Y-54235714D02*
X99664286Y-54902381D01*
X99426190Y-53854762D02*
X99188095Y-54569048D01*
X99807143Y-54569048D01*
X100664286Y-53902381D02*
X100188095Y-53902381D01*
X100140476Y-54378571D01*
X100188095Y-54330952D01*
X100283333Y-54283333D01*
X100521429Y-54283333D01*
X100616667Y-54330952D01*
X100664286Y-54378571D01*
X100711905Y-54473810D01*
X100711905Y-54711905D01*
X100664286Y-54807143D01*
X100616667Y-54854762D01*
X100521429Y-54902381D01*
X100283333Y-54902381D01*
X100188095Y-54854762D01*
X100140476Y-54807143D01*
X74687143Y-63792381D02*
X74353809Y-63316190D01*
X74115714Y-63792381D02*
X74115714Y-62792381D01*
X74496667Y-62792381D01*
X74591905Y-62840000D01*
X74639524Y-62887619D01*
X74687143Y-62982857D01*
X74687143Y-63125714D01*
X74639524Y-63220952D01*
X74591905Y-63268571D01*
X74496667Y-63316190D01*
X74115714Y-63316190D01*
X75639524Y-63792381D02*
X75068095Y-63792381D01*
X75353809Y-63792381D02*
X75353809Y-62792381D01*
X75258571Y-62935238D01*
X75163333Y-63030476D01*
X75068095Y-63078095D01*
X76544286Y-62792381D02*
X76068095Y-62792381D01*
X76020476Y-63268571D01*
X76068095Y-63220952D01*
X76163333Y-63173333D01*
X76401429Y-63173333D01*
X76496667Y-63220952D01*
X76544286Y-63268571D01*
X76591905Y-63363810D01*
X76591905Y-63601905D01*
X76544286Y-63697143D01*
X76496667Y-63744762D01*
X76401429Y-63792381D01*
X76163333Y-63792381D01*
X76068095Y-63744762D01*
X76020476Y-63697143D01*
X92952381Y-63592857D02*
X92476190Y-63926191D01*
X92952381Y-64164286D02*
X91952381Y-64164286D01*
X91952381Y-63783333D01*
X92000000Y-63688095D01*
X92047619Y-63640476D01*
X92142857Y-63592857D01*
X92285714Y-63592857D01*
X92380952Y-63640476D01*
X92428571Y-63688095D01*
X92476190Y-63783333D01*
X92476190Y-64164286D01*
X91952381Y-63259524D02*
X91952381Y-62640476D01*
X92333333Y-62973810D01*
X92333333Y-62830952D01*
X92380952Y-62735714D01*
X92428571Y-62688095D01*
X92523810Y-62640476D01*
X92761905Y-62640476D01*
X92857143Y-62688095D01*
X92904762Y-62735714D01*
X92952381Y-62830952D01*
X92952381Y-63116667D01*
X92904762Y-63211905D01*
X92857143Y-63259524D01*
X91952381Y-62021429D02*
X91952381Y-61926190D01*
X92000000Y-61830952D01*
X92047619Y-61783333D01*
X92142857Y-61735714D01*
X92333333Y-61688095D01*
X92571429Y-61688095D01*
X92761905Y-61735714D01*
X92857143Y-61783333D01*
X92904762Y-61830952D01*
X92952381Y-61926190D01*
X92952381Y-62021429D01*
X92904762Y-62116667D01*
X92857143Y-62164286D01*
X92761905Y-62211905D01*
X92571429Y-62259524D01*
X92333333Y-62259524D01*
X92142857Y-62211905D01*
X92047619Y-62164286D01*
X92000000Y-62116667D01*
X91952381Y-62021429D01*
X77357143Y-56252381D02*
X77023809Y-55776190D01*
X76785714Y-56252381D02*
X76785714Y-55252381D01*
X77166667Y-55252381D01*
X77261905Y-55300000D01*
X77309524Y-55347619D01*
X77357143Y-55442857D01*
X77357143Y-55585714D01*
X77309524Y-55680952D01*
X77261905Y-55728571D01*
X77166667Y-55776190D01*
X76785714Y-55776190D01*
X77690476Y-55252381D02*
X78309524Y-55252381D01*
X77976190Y-55633333D01*
X78119048Y-55633333D01*
X78214286Y-55680952D01*
X78261905Y-55728571D01*
X78309524Y-55823810D01*
X78309524Y-56061905D01*
X78261905Y-56157143D01*
X78214286Y-56204762D01*
X78119048Y-56252381D01*
X77833333Y-56252381D01*
X77738095Y-56204762D01*
X77690476Y-56157143D01*
X79214286Y-55252381D02*
X78738095Y-55252381D01*
X78690476Y-55728571D01*
X78738095Y-55680952D01*
X78833333Y-55633333D01*
X79071429Y-55633333D01*
X79166667Y-55680952D01*
X79214286Y-55728571D01*
X79261905Y-55823810D01*
X79261905Y-56061905D01*
X79214286Y-56157143D01*
X79166667Y-56204762D01*
X79071429Y-56252381D01*
X78833333Y-56252381D01*
X78738095Y-56204762D01*
X78690476Y-56157143D01*
X85857143Y-54352381D02*
X85523809Y-53876190D01*
X85285714Y-54352381D02*
X85285714Y-53352381D01*
X85666667Y-53352381D01*
X85761905Y-53400000D01*
X85809524Y-53447619D01*
X85857143Y-53542857D01*
X85857143Y-53685714D01*
X85809524Y-53780952D01*
X85761905Y-53828571D01*
X85666667Y-53876190D01*
X85285714Y-53876190D01*
X86714286Y-53685714D02*
X86714286Y-54352381D01*
X86476190Y-53304762D02*
X86238095Y-54019048D01*
X86857143Y-54019048D01*
X87666667Y-53352381D02*
X87476190Y-53352381D01*
X87380952Y-53400000D01*
X87333333Y-53447619D01*
X87238095Y-53590476D01*
X87190476Y-53780952D01*
X87190476Y-54161905D01*
X87238095Y-54257143D01*
X87285714Y-54304762D01*
X87380952Y-54352381D01*
X87571429Y-54352381D01*
X87666667Y-54304762D01*
X87714286Y-54257143D01*
X87761905Y-54161905D01*
X87761905Y-53923810D01*
X87714286Y-53828571D01*
X87666667Y-53780952D01*
X87571429Y-53733333D01*
X87380952Y-53733333D01*
X87285714Y-53780952D01*
X87238095Y-53828571D01*
X87190476Y-53923810D01*
X86308095Y-78002381D02*
X86308095Y-78811905D01*
X86355714Y-78907143D01*
X86403333Y-78954762D01*
X86498571Y-79002381D01*
X86689048Y-79002381D01*
X86784286Y-78954762D01*
X86831905Y-78907143D01*
X86879524Y-78811905D01*
X86879524Y-78002381D01*
X87260476Y-78002381D02*
X87879524Y-78002381D01*
X87546190Y-78383333D01*
X87689048Y-78383333D01*
X87784286Y-78430952D01*
X87831905Y-78478571D01*
X87879524Y-78573810D01*
X87879524Y-78811905D01*
X87831905Y-78907143D01*
X87784286Y-78954762D01*
X87689048Y-79002381D01*
X87403333Y-79002381D01*
X87308095Y-78954762D01*
X87260476Y-78907143D01*
X73357143Y-56157143D02*
X73309524Y-56204762D01*
X73166667Y-56252381D01*
X73071429Y-56252381D01*
X72928571Y-56204762D01*
X72833333Y-56109524D01*
X72785714Y-56014286D01*
X72738095Y-55823810D01*
X72738095Y-55680952D01*
X72785714Y-55490476D01*
X72833333Y-55395238D01*
X72928571Y-55300000D01*
X73071429Y-55252381D01*
X73166667Y-55252381D01*
X73309524Y-55300000D01*
X73357143Y-55347619D01*
X74214286Y-55585714D02*
X74214286Y-56252381D01*
X73976190Y-55204762D02*
X73738095Y-55919048D01*
X74357143Y-55919048D01*
X74785714Y-56252381D02*
X74976190Y-56252381D01*
X75071429Y-56204762D01*
X75119048Y-56157143D01*
X75214286Y-56014286D01*
X75261905Y-55823810D01*
X75261905Y-55442857D01*
X75214286Y-55347619D01*
X75166667Y-55300000D01*
X75071429Y-55252381D01*
X74880952Y-55252381D01*
X74785714Y-55300000D01*
X74738095Y-55347619D01*
X74690476Y-55442857D01*
X74690476Y-55680952D01*
X74738095Y-55776190D01*
X74785714Y-55823810D01*
X74880952Y-55871429D01*
X75071429Y-55871429D01*
X75166667Y-55823810D01*
X75214286Y-55776190D01*
X75261905Y-55680952D01*
X70961905Y-48152381D02*
X70961905Y-47152381D01*
X71200000Y-47152381D01*
X71342858Y-47200000D01*
X71438096Y-47295238D01*
X71485715Y-47390476D01*
X71533334Y-47580952D01*
X71533334Y-47723810D01*
X71485715Y-47914286D01*
X71438096Y-48009524D01*
X71342858Y-48104762D01*
X71200000Y-48152381D01*
X70961905Y-48152381D01*
X71866667Y-47152381D02*
X72533334Y-47152381D01*
X72104762Y-48152381D01*
X70178572Y-56347619D02*
X70083334Y-56300000D01*
X69988096Y-56204762D01*
X69845239Y-56061905D01*
X69750000Y-56014286D01*
X69654762Y-56014286D01*
X69702381Y-56252381D02*
X69607143Y-56204762D01*
X69511905Y-56109524D01*
X69464286Y-55919048D01*
X69464286Y-55585714D01*
X69511905Y-55395238D01*
X69607143Y-55300000D01*
X69702381Y-55252381D01*
X69892858Y-55252381D01*
X69988096Y-55300000D01*
X70083334Y-55395238D01*
X70130953Y-55585714D01*
X70130953Y-55919048D01*
X70083334Y-56109524D01*
X69988096Y-56204762D01*
X69892858Y-56252381D01*
X69702381Y-56252381D01*
X71083334Y-56252381D02*
X70511905Y-56252381D01*
X70797619Y-56252381D02*
X70797619Y-55252381D01*
X70702381Y-55395238D01*
X70607143Y-55490476D01*
X70511905Y-55538095D01*
X71702381Y-55252381D02*
X71797620Y-55252381D01*
X71892858Y-55300000D01*
X71940477Y-55347619D01*
X71988096Y-55442857D01*
X72035715Y-55633333D01*
X72035715Y-55871429D01*
X71988096Y-56061905D01*
X71940477Y-56157143D01*
X71892858Y-56204762D01*
X71797620Y-56252381D01*
X71702381Y-56252381D01*
X71607143Y-56204762D01*
X71559524Y-56157143D01*
X71511905Y-56061905D01*
X71464286Y-55871429D01*
X71464286Y-55633333D01*
X71511905Y-55442857D01*
X71559524Y-55347619D01*
X71607143Y-55300000D01*
X71702381Y-55252381D01*
X74802381Y-60142857D02*
X74326190Y-60476191D01*
X74802381Y-60714286D02*
X73802381Y-60714286D01*
X73802381Y-60333333D01*
X73850000Y-60238095D01*
X73897619Y-60190476D01*
X73992857Y-60142857D01*
X74135714Y-60142857D01*
X74230952Y-60190476D01*
X74278571Y-60238095D01*
X74326190Y-60333333D01*
X74326190Y-60714286D01*
X73802381Y-59809524D02*
X73802381Y-59190476D01*
X74183333Y-59523810D01*
X74183333Y-59380952D01*
X74230952Y-59285714D01*
X74278571Y-59238095D01*
X74373810Y-59190476D01*
X74611905Y-59190476D01*
X74707143Y-59238095D01*
X74754762Y-59285714D01*
X74802381Y-59380952D01*
X74802381Y-59666667D01*
X74754762Y-59761905D01*
X74707143Y-59809524D01*
X73897619Y-58809524D02*
X73850000Y-58761905D01*
X73802381Y-58666667D01*
X73802381Y-58428571D01*
X73850000Y-58333333D01*
X73897619Y-58285714D01*
X73992857Y-58238095D01*
X74088095Y-58238095D01*
X74230952Y-58285714D01*
X74802381Y-58857143D01*
X74802381Y-58238095D01*
X63857143Y-56852381D02*
X63523809Y-56376190D01*
X63285714Y-56852381D02*
X63285714Y-55852381D01*
X63666667Y-55852381D01*
X63761905Y-55900000D01*
X63809524Y-55947619D01*
X63857143Y-56042857D01*
X63857143Y-56185714D01*
X63809524Y-56280952D01*
X63761905Y-56328571D01*
X63666667Y-56376190D01*
X63285714Y-56376190D01*
X64190476Y-55852381D02*
X64809524Y-55852381D01*
X64476190Y-56233333D01*
X64619048Y-56233333D01*
X64714286Y-56280952D01*
X64761905Y-56328571D01*
X64809524Y-56423810D01*
X64809524Y-56661905D01*
X64761905Y-56757143D01*
X64714286Y-56804762D01*
X64619048Y-56852381D01*
X64333333Y-56852381D01*
X64238095Y-56804762D01*
X64190476Y-56757143D01*
X65285714Y-56852381D02*
X65476190Y-56852381D01*
X65571429Y-56804762D01*
X65619048Y-56757143D01*
X65714286Y-56614286D01*
X65761905Y-56423810D01*
X65761905Y-56042857D01*
X65714286Y-55947619D01*
X65666667Y-55900000D01*
X65571429Y-55852381D01*
X65380952Y-55852381D01*
X65285714Y-55900000D01*
X65238095Y-55947619D01*
X65190476Y-56042857D01*
X65190476Y-56280952D01*
X65238095Y-56376190D01*
X65285714Y-56423810D01*
X65380952Y-56471429D01*
X65571429Y-56471429D01*
X65666667Y-56423810D01*
X65714286Y-56376190D01*
X65761905Y-56280952D01*
X70157143Y-63902381D02*
X69823809Y-63426190D01*
X69585714Y-63902381D02*
X69585714Y-62902381D01*
X69966667Y-62902381D01*
X70061905Y-62950000D01*
X70109524Y-62997619D01*
X70157143Y-63092857D01*
X70157143Y-63235714D01*
X70109524Y-63330952D01*
X70061905Y-63378571D01*
X69966667Y-63426190D01*
X69585714Y-63426190D01*
X71014286Y-63235714D02*
X71014286Y-63902381D01*
X70776190Y-62854762D02*
X70538095Y-63569048D01*
X71157143Y-63569048D01*
X71728571Y-62902381D02*
X71823810Y-62902381D01*
X71919048Y-62950000D01*
X71966667Y-62997619D01*
X72014286Y-63092857D01*
X72061905Y-63283333D01*
X72061905Y-63521429D01*
X72014286Y-63711905D01*
X71966667Y-63807143D01*
X71919048Y-63854762D01*
X71823810Y-63902381D01*
X71728571Y-63902381D01*
X71633333Y-63854762D01*
X71585714Y-63807143D01*
X71538095Y-63711905D01*
X71490476Y-63521429D01*
X71490476Y-63283333D01*
X71538095Y-63092857D01*
X71585714Y-62997619D01*
X71633333Y-62950000D01*
X71728571Y-62902381D01*
X130242381Y-85622857D02*
X129766190Y-85956191D01*
X130242381Y-86194286D02*
X129242381Y-86194286D01*
X129242381Y-85813333D01*
X129290000Y-85718095D01*
X129337619Y-85670476D01*
X129432857Y-85622857D01*
X129575714Y-85622857D01*
X129670952Y-85670476D01*
X129718571Y-85718095D01*
X129766190Y-85813333D01*
X129766190Y-86194286D01*
X129575714Y-84765714D02*
X130242381Y-84765714D01*
X129194762Y-85003810D02*
X129909048Y-85241905D01*
X129909048Y-84622857D01*
X129575714Y-83813333D02*
X130242381Y-83813333D01*
X129194762Y-84051429D02*
X129909048Y-84289524D01*
X129909048Y-83670476D01*
X146547143Y-92492381D02*
X146213809Y-92016190D01*
X145975714Y-92492381D02*
X145975714Y-91492381D01*
X146356667Y-91492381D01*
X146451905Y-91540000D01*
X146499524Y-91587619D01*
X146547143Y-91682857D01*
X146547143Y-91825714D01*
X146499524Y-91920952D01*
X146451905Y-91968571D01*
X146356667Y-92016190D01*
X145975714Y-92016190D01*
X147404286Y-91825714D02*
X147404286Y-92492381D01*
X147166190Y-91444762D02*
X146928095Y-92159048D01*
X147547143Y-92159048D01*
X147832857Y-91492381D02*
X148499524Y-91492381D01*
X148070952Y-92492381D01*
X99452381Y-82762857D02*
X98976190Y-83096191D01*
X99452381Y-83334286D02*
X98452381Y-83334286D01*
X98452381Y-82953333D01*
X98500000Y-82858095D01*
X98547619Y-82810476D01*
X98642857Y-82762857D01*
X98785714Y-82762857D01*
X98880952Y-82810476D01*
X98928571Y-82858095D01*
X98976190Y-82953333D01*
X98976190Y-83334286D01*
X98785714Y-81905714D02*
X99452381Y-81905714D01*
X98404762Y-82143810D02*
X99119048Y-82381905D01*
X99119048Y-81762857D01*
X99452381Y-81334286D02*
X99452381Y-81143810D01*
X99404762Y-81048571D01*
X99357143Y-81000952D01*
X99214286Y-80905714D01*
X99023810Y-80858095D01*
X98642857Y-80858095D01*
X98547619Y-80905714D01*
X98500000Y-80953333D01*
X98452381Y-81048571D01*
X98452381Y-81239048D01*
X98500000Y-81334286D01*
X98547619Y-81381905D01*
X98642857Y-81429524D01*
X98880952Y-81429524D01*
X98976190Y-81381905D01*
X99023810Y-81334286D01*
X99071429Y-81239048D01*
X99071429Y-81048571D01*
X99023810Y-80953333D01*
X98976190Y-80905714D01*
X98880952Y-80858095D01*
X146547143Y-100232381D02*
X146213809Y-99756190D01*
X145975714Y-100232381D02*
X145975714Y-99232381D01*
X146356667Y-99232381D01*
X146451905Y-99280000D01*
X146499524Y-99327619D01*
X146547143Y-99422857D01*
X146547143Y-99565714D01*
X146499524Y-99660952D01*
X146451905Y-99708571D01*
X146356667Y-99756190D01*
X145975714Y-99756190D01*
X147404286Y-99565714D02*
X147404286Y-100232381D01*
X147166190Y-99184762D02*
X146928095Y-99899048D01*
X147547143Y-99899048D01*
X148070952Y-99660952D02*
X147975714Y-99613333D01*
X147928095Y-99565714D01*
X147880476Y-99470476D01*
X147880476Y-99422857D01*
X147928095Y-99327619D01*
X147975714Y-99280000D01*
X148070952Y-99232381D01*
X148261429Y-99232381D01*
X148356667Y-99280000D01*
X148404286Y-99327619D01*
X148451905Y-99422857D01*
X148451905Y-99470476D01*
X148404286Y-99565714D01*
X148356667Y-99613333D01*
X148261429Y-99660952D01*
X148070952Y-99660952D01*
X147975714Y-99708571D01*
X147928095Y-99756190D01*
X147880476Y-99851429D01*
X147880476Y-100041905D01*
X147928095Y-100137143D01*
X147975714Y-100184762D01*
X148070952Y-100232381D01*
X148261429Y-100232381D01*
X148356667Y-100184762D01*
X148404286Y-100137143D01*
X148451905Y-100041905D01*
X148451905Y-99851429D01*
X148404286Y-99756190D01*
X148356667Y-99708571D01*
X148261429Y-99660952D01*
X71483334Y-68607143D02*
X71435715Y-68654762D01*
X71292858Y-68702381D01*
X71197620Y-68702381D01*
X71054762Y-68654762D01*
X70959524Y-68559524D01*
X70911905Y-68464286D01*
X70864286Y-68273810D01*
X70864286Y-68130952D01*
X70911905Y-67940476D01*
X70959524Y-67845238D01*
X71054762Y-67750000D01*
X71197620Y-67702381D01*
X71292858Y-67702381D01*
X71435715Y-67750000D01*
X71483334Y-67797619D01*
X72054762Y-68130952D02*
X71959524Y-68083333D01*
X71911905Y-68035714D01*
X71864286Y-67940476D01*
X71864286Y-67892857D01*
X71911905Y-67797619D01*
X71959524Y-67750000D01*
X72054762Y-67702381D01*
X72245239Y-67702381D01*
X72340477Y-67750000D01*
X72388096Y-67797619D01*
X72435715Y-67892857D01*
X72435715Y-67940476D01*
X72388096Y-68035714D01*
X72340477Y-68083333D01*
X72245239Y-68130952D01*
X72054762Y-68130952D01*
X71959524Y-68178571D01*
X71911905Y-68226190D01*
X71864286Y-68321429D01*
X71864286Y-68511905D01*
X71911905Y-68607143D01*
X71959524Y-68654762D01*
X72054762Y-68702381D01*
X72245239Y-68702381D01*
X72340477Y-68654762D01*
X72388096Y-68607143D01*
X72435715Y-68511905D01*
X72435715Y-68321429D01*
X72388096Y-68226190D01*
X72340477Y-68178571D01*
X72245239Y-68130952D01*
X79807143Y-58492857D02*
X79854762Y-58540476D01*
X79902381Y-58683333D01*
X79902381Y-58778571D01*
X79854762Y-58921429D01*
X79759524Y-59016667D01*
X79664286Y-59064286D01*
X79473810Y-59111905D01*
X79330952Y-59111905D01*
X79140476Y-59064286D01*
X79045238Y-59016667D01*
X78950000Y-58921429D01*
X78902381Y-58778571D01*
X78902381Y-58683333D01*
X78950000Y-58540476D01*
X78997619Y-58492857D01*
X79902381Y-57540476D02*
X79902381Y-58111905D01*
X79902381Y-57826191D02*
X78902381Y-57826191D01*
X79045238Y-57921429D01*
X79140476Y-58016667D01*
X79188095Y-58111905D01*
X79330952Y-56969048D02*
X79283333Y-57064286D01*
X79235714Y-57111905D01*
X79140476Y-57159524D01*
X79092857Y-57159524D01*
X78997619Y-57111905D01*
X78950000Y-57064286D01*
X78902381Y-56969048D01*
X78902381Y-56778571D01*
X78950000Y-56683333D01*
X78997619Y-56635714D01*
X79092857Y-56588095D01*
X79140476Y-56588095D01*
X79235714Y-56635714D01*
X79283333Y-56683333D01*
X79330952Y-56778571D01*
X79330952Y-56969048D01*
X79378571Y-57064286D01*
X79426190Y-57111905D01*
X79521429Y-57159524D01*
X79711905Y-57159524D01*
X79807143Y-57111905D01*
X79854762Y-57064286D01*
X79902381Y-56969048D01*
X79902381Y-56778571D01*
X79854762Y-56683333D01*
X79807143Y-56635714D01*
X79711905Y-56588095D01*
X79521429Y-56588095D01*
X79426190Y-56635714D01*
X79378571Y-56683333D01*
X79330952Y-56778571D01*
X79557143Y-61457143D02*
X79509524Y-61504762D01*
X79366667Y-61552381D01*
X79271429Y-61552381D01*
X79128571Y-61504762D01*
X79033333Y-61409524D01*
X78985714Y-61314286D01*
X78938095Y-61123810D01*
X78938095Y-60980952D01*
X78985714Y-60790476D01*
X79033333Y-60695238D01*
X79128571Y-60600000D01*
X79271429Y-60552381D01*
X79366667Y-60552381D01*
X79509524Y-60600000D01*
X79557143Y-60647619D01*
X79890476Y-60552381D02*
X80509524Y-60552381D01*
X80176190Y-60933333D01*
X80319048Y-60933333D01*
X80414286Y-60980952D01*
X80461905Y-61028571D01*
X80509524Y-61123810D01*
X80509524Y-61361905D01*
X80461905Y-61457143D01*
X80414286Y-61504762D01*
X80319048Y-61552381D01*
X80033333Y-61552381D01*
X79938095Y-61504762D01*
X79890476Y-61457143D01*
X80842857Y-60552381D02*
X81509524Y-60552381D01*
X81080952Y-61552381D01*
M02*
