M48
;DRILL file {KiCad 4.0.7-e2-6376~58~ubuntu14.04.1} date Sat May 19 07:38:17 2018
;FORMAT={-:-/ absolute / inch / decimal}
FMAT,2
INCH,TZ
T1C0.016
T2C0.031
T3C0.035
T4C0.039
T5C0.039
T6C0.043
T7C0.126
%
G90
G05
M72
T1
X2.5079Y-1.9724
X2.5295Y-1.1614
X2.5295Y-1.3386
X2.5492Y-2.4705
X2.5492Y-2.6181
X2.5492Y-2.9035
X2.5492Y-3.0906
X2.5492Y-3.3169
X2.5492Y-3.5433
X2.5492Y-3.7697
X2.5492Y-3.9764
X2.5492Y-4.1831
X2.5492Y-4.3996
X2.5827Y-2.1535
X2.5827Y-2.3071
X2.6339Y-1.9724
X2.7165Y-2.4705
X2.7165Y-2.6181
X2.7165Y-2.9035
X2.7165Y-3.0906
X2.7165Y-3.3169
X2.7165Y-3.5433
X2.7165Y-3.7697
X2.7165Y-3.9764
X2.7165Y-4.1831
X2.7165Y-4.3996
X2.7205Y-1.1614
X2.7205Y-1.3386
X2.7205Y-1.7008
X2.7205Y-1.8307
X2.7205Y-2.0472
X2.7205Y-2.1535
X2.7205Y-2.3071
X2.7953Y-1.2717
X2.7953Y-1.4961
X2.7953Y-1.9291
X2.7953Y-2.3622
X2.7953Y-2.7835
X2.7953Y-3.2165
X2.7953Y-3.6516
X2.7953Y-4.0846
X2.7953Y-4.5177
X2.8425Y-1.7244
X2.8504Y-2.1417
X2.8504Y-2.5748
X2.8504Y-2.9921
X2.8504Y-3.4252
X2.8504Y-3.8661
X2.8504Y-4.2913
X2.8583Y-1.2598
X2.8583Y-4.685
X2.8642Y-1.1122
X2.9134Y-1.0335
X2.9134Y-1.4764
X2.9134Y-1.5354
X2.9134Y-1.8898
X2.9134Y-1.9587
X2.9134Y-2.3327
X2.9134Y-2.7657
X2.9134Y-3.1988
X2.9134Y-3.6319
X2.9134Y-4.0748
X2.9134Y-4.498
X2.9213Y-2.4016
X2.9429Y-1.2697
X2.9724Y-1.0433
X3.0118Y-1.2697
X3.0118Y-1.4862
X3.0118Y-1.9193
X3.0118Y-2.1358
X3.0118Y-2.3524
X3.0118Y-2.5689
X3.0118Y-2.7854
X3.0118Y-3.002
X3.0118Y-3.2185
X3.0118Y-3.435
X3.0118Y-3.6516
X3.0118Y-3.8681
X3.0118Y-4.0945
X3.0118Y-4.3012
X3.0118Y-4.5276
X3.0315Y-1.7126
X3.0709Y-1.4272
X3.0709Y-1.8504
X3.1496Y-1.0433
X3.1496Y-1.4764
X3.1496Y-1.9094
X3.1496Y-2.3425
X3.1496Y-2.7756
X3.1496Y-3.2087
X3.1496Y-3.6417
X3.1496Y-4.0748
X3.1496Y-4.5079
X3.1693Y-1.2598
X3.1693Y-1.6929
X3.1693Y-2.126
X3.1693Y-2.5591
X3.1693Y-3.002
X3.1693Y-3.4252
X3.1693Y-3.8583
X3.1693Y-4.2913
X3.1693Y-4.7244
X3.189Y-2.2953
X3.189Y-2.4016
X3.1988Y-1.4272
X3.1988Y-1.5354
X3.1988Y-3.5925
X3.1988Y-3.7008
X3.2047Y-2.7283
X3.2047Y-2.8268
X3.2087Y-1.0925
X3.2087Y-1.8602
X3.2087Y-1.9685
X3.2087Y-3.1654
X3.2087Y-3.2717
X3.2087Y-4.0256
X3.2087Y-4.1339
X3.2087Y-4.4587
X3.2087Y-4.5669
X3.3858Y-1.4173
X3.3858Y-1.5256
X3.3898Y-2.7244
X3.3898Y-2.8386
X3.3898Y-2.9528
X3.3937Y-2.2913
X3.3937Y-2.4094
X3.3937Y-3.2638
X3.3957Y-0.9843
X3.3957Y-1.1122
X3.3957Y-1.8602
X3.3957Y-1.9587
X3.3957Y-2.0669
X3.3957Y-4.0157
X3.3957Y-4.1339
X3.3957Y-4.3504
X3.3957Y-4.439
X3.3957Y-4.5571
X3.3976Y-3.126
X3.3976Y-3.5866
X3.3976Y-3.7008
X3.3976Y-3.7992
X3.4055Y-3.4882
X3.4154Y-4.6555
X3.4252Y-2.2008
X3.4252Y-2.5
X3.4252Y-2.626
X3.435Y-3.9075
X3.4449Y-0.9154
X3.4449Y-1.2008
X3.4449Y-1.3091
X3.4449Y-1.6339
X3.4449Y-1.7815
X3.4744Y-4.2323
X3.4803Y-3.0551
X3.4882Y-3.3701
X3.4941Y-4.3504
X3.4961Y-3.7992
X3.5039Y-2.9094
X3.5157Y-3.5039
X3.563Y-1.2008
X3.563Y-1.3091
X3.563Y-1.6339
X3.563Y-1.7815
X3.563Y-2.0669
X3.563Y-2.2008
X3.563Y-2.5
X3.563Y-2.626
X3.5728Y-3.9075
X3.5728Y-4.6555
X3.5906Y-3.374
X3.5925Y-0.876
X3.5925Y-4.2323
X3.5925Y-4.3504
X3.5945Y-3.7992
X3.5984Y-2.9528
X3.5984Y-3.0551
X3.6063Y-3.4685
X3.622Y-1.437
X3.622Y-1.9567
X3.626Y-2.3937
X3.6299Y-2.8189
X3.6299Y-3.252
X3.6299Y-3.689
X3.6319Y-1.0925
X3.6319Y-1.5157
X3.6319Y-4.1142
X3.6319Y-4.5472
X3.7106Y-1.7323
X3.7106Y-4.0256
X3.7205Y-0.876
X3.7205Y-1.0039
X3.7205Y-1.2106
X3.7205Y-1.3091
X3.7205Y-1.437
X3.7205Y-2.2992
X3.7205Y-2.5118
X3.7205Y-2.6181
X3.7205Y-3.0472
X3.7205Y-3.9075
X3.7205Y-4.4587
X3.7244Y-2.937
X3.7244Y-3.1575
X3.7244Y-3.378
X3.7244Y-3.8071
X3.7283Y-1.8583
X3.7283Y-1.9488
X3.7283Y-2.1772
X3.7283Y-2.7205
X3.7283Y-3.5906
X3.7303Y-2.0669
X3.7303Y-4.2323
X3.7303Y-4.3504
X3.7303Y-4.6752
X3.7323Y-3.4803
X3.7362Y-2.3937
X3.878Y-1.8602
X3.878Y-1.9685
X3.878Y-2.0669
X3.878Y-2.185
X3.878Y-2.2913
X3.878Y-2.3858
X3.878Y-2.5079
X3.878Y-2.9291
X3.8898Y-2.6181
X3.8898Y-2.7126
X3.8898Y-2.8307
X3.8937Y-3.063
X3.8937Y-3.1614
X3.8937Y-3.2559
X3.8937Y-3.3622
X3.8937Y-3.4961
X3.8976Y-1.311
X3.8976Y-1.437
X3.8976Y-1.5315
X3.8976Y-1.6299
X3.9173Y-3.9173
X3.9173Y-4.0157
X3.9173Y-4.1339
X3.9173Y-4.2323
X3.9173Y-4.3602
X3.9173Y-4.4587
X3.9173Y-4.5571
X3.9173Y-4.6555
X3.9272Y-0.9154
X3.9272Y-0.9941
X3.9272Y-1.1024
X3.9272Y-1.2008
X3.9272Y-1.7815
X3.9291Y-3.5906
X3.9291Y-3.6969
X3.9291Y-3.7913
X3.9803Y-2.937
X3.9843Y-2.4016
X3.9843Y-3.2559
X3.9862Y-1.8602
X3.9862Y-1.9685
X3.9862Y-2.0669
X3.9921Y-1.5315
X3.9921Y-2.2047
X4.0236Y-3.0591
X4.0276Y-2.5079
X4.0276Y-2.6181
X4.0315Y-1.311
X4.0354Y-3.4961
X4.0354Y-4.2323
X4.0354Y-4.3602
X4.0433Y-3.3661
X4.0453Y-0.9154
X4.0453Y-1.2008
X4.0512Y-3.7953
X4.0551Y-1.626
X4.0551Y-1.7815
X4.0551Y-3.9173
X4.065Y-4.6654
X4.1063Y-2.0669
X4.1063Y-2.1969
X4.1535Y-2.937
X4.1535Y-3.0591
X4.1634Y-0.9154
X4.1634Y-1.2008
X4.1654Y-3.3661
X4.1654Y-3.4961
X4.1732Y-4.2323
X4.1732Y-4.3602
X4.1772Y-1.311
X4.1772Y-2.5079
X4.1772Y-2.6181
X4.1772Y-3.7953
X4.1811Y-1.626
X4.1831Y-1.7815
X4.1831Y-3.9173
X4.1831Y-4.6654
X4.2126Y-1.9528
X4.2165Y-2.3858
X4.2205Y-2.8189
X4.2205Y-3.2559
X4.2205Y-3.689
X4.2224Y-1.0827
X4.2224Y-4.1142
X4.2224Y-4.5472
X4.3031Y-2.1732
X4.3071Y-2.6102
X4.3071Y-2.9488
X4.3071Y-3.0512
X4.311Y-0.876
X4.311Y-2.7283
X4.311Y-3.1732
X4.311Y-3.378
X4.311Y-4.0256
X4.311Y-4.2421
X4.311Y-4.4587
X4.315Y-2.0787
X4.315Y-2.3031
X4.315Y-3.4921
X4.315Y-3.5945
X4.3189Y-1.311
X4.3189Y-3.8071
X4.3209Y-0.9941
X4.3209Y-1.1024
X4.3209Y-1.2106
X4.3209Y-3.9173
X4.3209Y-4.3602
X4.3209Y-4.6654
X4.3228Y-1.8425
X4.4685Y-0.9055
X4.4685Y-1.0039
X4.4685Y-1.0827
X4.4685Y-1.2008
X4.4724Y-1.4173
X4.4724Y-1.5276
X4.4783Y-4.6654
X4.4843Y-2.1969
X4.4843Y-2.2874
X4.4843Y-2.3937
X4.4843Y-2.4961
X4.4843Y-2.6299
X4.4843Y-2.7283
X4.4843Y-2.8386
X4.4843Y-2.9488
X4.4843Y-3.063
X4.4843Y-3.248
X4.4843Y-3.3622
X4.4843Y-3.4961
X4.4843Y-3.5945
X4.4843Y-3.7008
X4.4882Y-1.8583
X4.4882Y-1.9764
X4.4882Y-3.8071
X4.5118Y-3.9291
X4.5118Y-4.0197
X4.5118Y-4.1299
X4.5118Y-4.2323
X4.5177Y-4.3602
X4.5177Y-4.4488
X4.5177Y-4.5669
X4.5512Y-1.7953
X4.5669Y-1.5433
X4.5748Y-2.8386
X4.5748Y-2.9488
X4.5748Y-3.248
X4.5768Y-0.9055
X4.5768Y-1.0039
X4.5768Y-1.0827
X4.5768Y-1.2008
X4.5768Y-1.3091
X4.5866Y-1.6417
X4.5906Y-2.0787
X4.6102Y-2.4961
X4.6102Y-2.6299
X4.6142Y-3.3622
X4.626Y-2.1969
X4.626Y-4.6654
X4.6299Y-3.063
X4.6299Y-3.4961
X4.6299Y-3.8071
X4.6299Y-3.9291
X4.6299Y-4.2323
X4.6358Y-4.3602
X4.7323Y-1.7953
X4.7323Y-2.9488
X4.7402Y-2.4961
X4.7402Y-2.6299
X4.7441Y-0.9055
X4.7441Y-1.2008
X4.7441Y-1.3091
X4.748Y-3.3622
X4.7598Y-1.6417
X4.7598Y-2.1969
X4.7638Y-4.3602
X4.7677Y-4.2323
X4.7717Y-2.0787
X4.7736Y-4.6654
X4.7756Y-3.063
X4.7795Y-3.4961
X4.7795Y-3.8071
X4.7795Y-3.9291
X4.8071Y-1.9528
X4.8071Y-2.3819
X4.8071Y-2.8189
X4.811Y-3.2559
X4.811Y-3.685
X4.813Y-4.5571
X4.815Y-4.122
X4.8327Y-1.0728
X4.9173Y-2.9449
X4.9173Y-3.0551
X4.9173Y-3.378
X4.9173Y-3.4882
X4.9213Y-1.0039
X4.9213Y-1.1319
X4.9213Y-1.3189
X4.9213Y-1.437
X4.9213Y-1.5354
X4.9213Y-1.624
X4.9213Y-2.1969
X4.9213Y-2.2953
X4.9213Y-4.3602
X4.9213Y-4.4587
X4.9252Y-2.4961
X4.9252Y-2.6299
X4.9252Y-2.7244
X4.9252Y-3.8071
X4.9291Y-1.7717
X4.9291Y-1.8622
X4.9291Y-1.9685
X4.9291Y-2.0787
X4.9291Y-3.5866
X4.9291Y-3.9291
X4.9291Y-4.0276
X4.9311Y-0.8957
X4.9311Y-4.6654
X4.9331Y-3.1535
X4.937Y-4.2323
X5.0984Y-1.7323
X5.1063Y-1.8622
X5.1063Y-1.9685
X5.1063Y-2.063
X5.1063Y-2.1969
X5.1083Y-0.8858
X5.1083Y-1.0039
X5.1083Y-1.1122
X5.1083Y-1.2008
X5.1083Y-1.3287
X5.1083Y-1.4272
X5.1083Y-1.5354
X5.1083Y-1.6339
X5.1083Y-4.3602
X5.1083Y-4.4587
X5.1083Y-4.6654
X5.1102Y-2.7323
X5.1102Y-2.8346
X5.1102Y-2.9291
X5.1102Y-3.0669
X5.1102Y-3.1654
X5.1102Y-3.2717
X5.1102Y-3.3622
X5.1102Y-3.4961
X5.1102Y-3.5984
X5.1102Y-3.7087
X5.1102Y-3.8071
X5.1102Y-3.9291
X5.1102Y-4.0315
X5.1102Y-4.1299
X5.1102Y-4.2283
X5.1181Y-2.2953
X5.1181Y-2.4094
X5.1181Y-2.4961
X5.1181Y-2.6299
X5.2283Y-2.7323
X5.2283Y-2.8346
X5.2362Y-4.4587
X5.2362Y-4.5669
X5.2402Y-3.1654
X5.2402Y-3.2717
X5.2461Y-1.1122
X5.248Y-2.2953
X5.248Y-2.4094
X5.2559Y-1.0039
X5.2559Y-3.6024
X5.2559Y-3.7106
X5.2559Y-4.0256
X5.2559Y-4.1339
X5.2638Y-1.4252
X5.2638Y-1.5354
X5.2657Y-3.8681
X5.2717Y-1.2126
X5.2717Y-1.3071
X5.2717Y-1.9685
X5.2717Y-2.1654
X5.2756Y-3.002
X5.2953Y-1.0531
X5.2953Y-1.4862
X5.2953Y-1.9193
X5.2953Y-2.3524
X5.2953Y-2.7854
X5.2953Y-3.2185
X5.2953Y-3.6516
X5.2953Y-4.0846
X5.2953Y-4.5177
X5.3248Y-4.3012
X5.3661Y-1.7992
X5.3701Y-2.2362
X5.3701Y-2.4882
X5.3839Y-4.0453
X5.3858Y-1.4449
X5.4035Y-2.7559
X5.4094Y-1.9488
X5.4232Y-1.0531
X5.4232Y-3.002
X5.4232Y-3.1791
X5.4232Y-3.435
X5.4232Y-3.6024
X5.4232Y-3.7008
X5.4232Y-3.8681
X5.4232Y-4.3012
X5.4232Y-4.4685
X5.4232Y-4.5669
X5.4252Y-2.2953
X5.4252Y-2.4094
X5.4429Y-4.124
X5.502Y-4.0453
X5.5079Y-1.4449
X5.5118Y-2.7559
X5.5276Y-1.5354
X5.5276Y-2.3543
X5.5512Y-1.9488
X5.561Y-1.0827
X5.5709Y-1.0138
X5.5709Y-1.4469
X5.5709Y-1.8799
X5.5709Y-2.313
X5.5709Y-2.7461
X5.5709Y-3.1791
X5.5709Y-3.6024
X5.5709Y-3.8681
X5.5709Y-4.0354
X5.5709Y-4.3012
X5.5709Y-4.4587
X5.5807Y-1.1909
X5.5807Y-1.624
X5.5807Y-2.0571
X5.5807Y-2.4902
X5.5807Y-2.9232
X5.5807Y-3.0118
X5.5807Y-3.3563
X5.5807Y-3.7894
X5.5807Y-4.2224
X5.5807Y-4.6555
X5.7087Y-1.063
X5.7087Y-1.1909
X5.7087Y-2.6969
X5.7087Y-2.9134
X5.7087Y-3.0118
X5.7087Y-3.1398
X5.7087Y-3.3661
X5.7087Y-3.5531
X5.7126Y-1.5079
X5.7126Y-1.7992
X5.7126Y-1.9488
X5.7126Y-2.0827
X5.7126Y-2.2559
X5.7126Y-2.3701
X5.7126Y-2.4921
X5.7185Y-3.8189
X5.7185Y-3.9862
X5.7185Y-4.2421
X5.7244Y-4.7165
X5.8169Y-3.4154
X5.8465Y-3.8484
X5.8583Y-1.7992
X5.8583Y-1.9488
X5.8583Y-2.0827
X5.8661Y-2.9134
X5.876Y-4.6457
X5.8819Y-1.3071
X5.8819Y-1.4252
X5.8819Y-1.563
X5.8819Y-2.4921
X5.8858Y-0.8898
X5.8858Y-1.0157
X5.8858Y-1.1516
X5.9154Y-4.3209
X5.9154Y-4.5177
X5.9331Y-2.6142
X5.9331Y-2.7244
X5.9331Y-2.8465
X5.9547Y-3.2677
X5.9547Y-3.4154
X5.9547Y-3.5433
X5.9547Y-3.6909
X6.0039Y-3.8287
X6.0039Y-3.9764
X6.0039Y-4.1043
X6.0118Y-1.752
X6.0118Y-1.874
X6.0118Y-2.0827
X6.0138Y-1.6831
X6.0138Y-3.1693
X6.0157Y-1.6024
X6.0236Y-4.3602
X6.0236Y-4.5866
X6.0236Y-4.7146
X6.0276Y-1.1496
X6.0276Y-1.2835
X6.0315Y-0.8898
X6.0315Y-1.0157
X6.0315Y-1.4055
X6.0433Y-2.7244
X6.0433Y-2.9921
X6.0827Y-1.9843
X6.0827Y-2.3346
X6.1457Y-1.2087
X6.1457Y-1.3583
X6.1713Y-3.3563
X6.1811Y-2.4331
X6.1811Y-3.8287
X6.2402Y-2.9213
X6.2717Y-2.3346
X6.2717Y-2.5236
X6.3287Y-2.5689
X6.3287Y-2.9528
X6.3287Y-3.1594
T2
X6.1909Y-1.7685
X6.1909Y-1.8685
X6.1909Y-1.9685
T3
X5.7874Y-0.8941
X5.7874Y-0.9941
X5.7874Y-1.3272
X5.7874Y-1.4272
X5.7874Y-1.7602
X5.7874Y-1.8602
X5.7874Y-2.1933
X5.7874Y-2.2933
X5.7874Y-2.6264
X5.7874Y-2.7264
X5.7874Y-3.0594
X5.7874Y-3.1594
X5.7972Y-3.4925
X5.7972Y-3.5925
X5.7972Y-3.9256
X5.7972Y-4.0256
X5.7972Y-4.3587
X5.7972Y-4.4587
T4
X6.2894Y-1.2091
X6.2894Y-1.3091
X6.2894Y-3.3268
X6.2894Y-3.4268
X6.2894Y-3.5268
X6.2894Y-3.6268
X6.2894Y-3.7268
X6.2894Y-3.8268
T5
X3.6672Y-0.9411
X3.6672Y-1.1611
X3.6672Y-1.3742
X3.6672Y-1.5942
X3.6672Y-1.8072
X3.6672Y-2.0272
X3.6672Y-2.2403
X3.6672Y-2.4603
X3.6672Y-2.6734
X3.6672Y-2.8934
X3.6672Y-3.1065
X3.6672Y-3.3265
X3.6672Y-3.5395
X3.6672Y-3.7595
X3.6672Y-3.9628
X3.6672Y-4.1828
X3.6672Y-4.4057
X3.6672Y-4.6257
X4.2577Y-0.9411
X4.2577Y-1.1611
X4.2577Y-1.3742
X4.2577Y-1.5942
X4.2577Y-1.8072
X4.2577Y-2.0272
X4.2577Y-2.2403
X4.2577Y-2.4603
X4.2577Y-2.6734
X4.2577Y-2.8934
X4.2577Y-3.1065
X4.2577Y-3.3265
X4.2577Y-3.5395
X4.2577Y-3.7595
X4.2577Y-3.9628
X4.2577Y-4.1828
X4.2577Y-4.4057
X4.2577Y-4.6257
X4.8483Y-0.9411
X4.8483Y-1.1611
X4.8483Y-1.3742
X4.8483Y-1.5942
X4.8483Y-1.8072
X4.8483Y-2.0272
X4.8483Y-2.2403
X4.8483Y-2.4603
X4.8483Y-2.6734
X4.8483Y-2.8934
X4.8581Y-3.1065
X4.8581Y-3.3265
X4.8581Y-3.5395
X4.8581Y-3.7595
X4.8581Y-3.9726
X4.8581Y-4.1926
X4.8581Y-4.4057
X4.8581Y-4.6257
T6
X2.6085Y-1.4457
X2.6085Y-1.5457
X2.6085Y-1.6457
X2.6085Y-1.7457
X2.6085Y-1.8457
X6.1277Y-4.0126
X6.1277Y-4.1126
X6.1277Y-4.2126
X6.1277Y-4.3126
X6.1277Y-4.4126
T7
X2.5984Y-0.9843
X2.5984Y-4.6063
X6.2205Y-0.9843
X6.2205Y-4.6063
T0
M30
