G04 #@! TF.FileFunction,Soldermask,Bot*
%FSLAX46Y46*%
G04 Gerber Fmt 4.6, Leading zero omitted, Abs format (unit mm)*
G04 Created by KiCad (PCBNEW 4.0.7-e2-6376~58~ubuntu14.04.1) date Sat May 19 07:42:15 2018*
%MOMM*%
%LPD*%
G01*
G04 APERTURE LIST*
%ADD10C,0.100000*%
%ADD11C,1.800000*%
%ADD12R,5.000000X3.960000*%
%ADD13C,1.524000*%
%ADD14O,2.500000X1.600000*%
%ADD15O,1.200000X1.200000*%
%ADD16O,1.600000X2.500000*%
%ADD17C,1.500000*%
%ADD18R,2.500000X1.524000*%
%ADD19C,5.600000*%
%ADD20R,1.524000X2.500000*%
%ADD21R,1.700000X1.700000*%
%ADD22O,1.700000X1.700000*%
%ADD23C,2.340000*%
%ADD24O,2.300000X1.600000*%
%ADD25C,1.620000*%
%ADD26C,1.998980*%
%ADD27R,1.600000X1.600000*%
%ADD28O,1.600000X1.600000*%
%ADD29C,1.600000*%
G04 APERTURE END LIST*
D10*
D11*
X64257000Y-114880000D03*
X64257000Y-104720000D03*
D12*
X62750000Y-106180000D03*
X62750000Y-113420000D03*
D11*
X64257000Y-112340000D03*
X64257000Y-107260000D03*
X64257000Y-109800000D03*
D13*
X69000000Y-105000000D03*
X70270000Y-107540000D03*
X71540000Y-105000000D03*
X72810000Y-107540000D03*
X74080000Y-105000000D03*
X75350000Y-107540000D03*
D14*
X85550000Y-128000000D03*
D15*
X85550000Y-123000000D03*
D16*
X90550000Y-123000000D03*
X88050000Y-123000000D03*
X83050000Y-123000000D03*
X80550000Y-123000000D03*
D15*
X90550000Y-128000000D03*
X80550000Y-128000000D03*
X90550000Y-130500000D03*
X80550000Y-130500000D03*
D17*
X136800000Y-90500000D03*
X141680000Y-90500000D03*
D18*
X144680000Y-90500000D03*
X133800000Y-90530000D03*
D19*
X150000000Y-46000000D03*
D14*
X139900000Y-128000000D03*
D15*
X139900000Y-123000000D03*
D16*
X144900000Y-123000000D03*
X142400000Y-123000000D03*
X137400000Y-123000000D03*
X134900000Y-123000000D03*
D15*
X144900000Y-128000000D03*
X134900000Y-128000000D03*
X144900000Y-130500000D03*
X134900000Y-130500000D03*
D19*
X150000000Y-128000000D03*
X58000000Y-128000000D03*
X58000000Y-46000000D03*
D17*
X111900000Y-113100000D03*
X116780000Y-113100000D03*
D18*
X119780000Y-113100000D03*
X108900000Y-113130000D03*
D17*
X118800000Y-100700000D03*
X118800000Y-105580000D03*
D20*
X118800000Y-108580000D03*
X118770000Y-97700000D03*
D17*
X113700000Y-100700000D03*
X113700000Y-105580000D03*
D20*
X113700000Y-108580000D03*
X113670000Y-97700000D03*
D17*
X108600000Y-100700000D03*
X108600000Y-105580000D03*
D20*
X108600000Y-108580000D03*
X108570000Y-97700000D03*
D17*
X103500000Y-100700000D03*
X103500000Y-105580000D03*
D20*
X103500000Y-108580000D03*
X103470000Y-97700000D03*
D17*
X98400000Y-100700000D03*
X98400000Y-105580000D03*
D20*
X98400000Y-108580000D03*
X98370000Y-97700000D03*
D17*
X93300000Y-100700000D03*
X93300000Y-105580000D03*
D20*
X93300000Y-108580000D03*
X93270000Y-97700000D03*
D17*
X94600000Y-93100000D03*
X99480000Y-93100000D03*
D18*
X102480000Y-93100000D03*
X91600000Y-93130000D03*
D17*
X128800000Y-105800000D03*
X128800000Y-100920000D03*
D20*
X128800000Y-97920000D03*
X128830000Y-108800000D03*
D17*
X136800000Y-105800000D03*
X141680000Y-105800000D03*
D18*
X144680000Y-105800000D03*
X133800000Y-105830000D03*
D17*
X136800000Y-100700000D03*
X141680000Y-100700000D03*
D18*
X144680000Y-100700000D03*
X133800000Y-100730000D03*
D17*
X136800000Y-95600000D03*
X141680000Y-95600000D03*
D18*
X144680000Y-95600000D03*
X133800000Y-95630000D03*
D17*
X136800000Y-85400000D03*
X141680000Y-85400000D03*
D18*
X144680000Y-85400000D03*
X133800000Y-85430000D03*
D17*
X136800000Y-80300000D03*
X141680000Y-80300000D03*
D18*
X144680000Y-80300000D03*
X133800000Y-80330000D03*
D17*
X149800000Y-86700000D03*
X149800000Y-81820000D03*
D20*
X149800000Y-78820000D03*
X149830000Y-89700000D03*
D21*
X56650000Y-57450000D03*
D22*
X56650000Y-54910000D03*
D21*
X56650000Y-65450000D03*
D22*
X56650000Y-62910000D03*
D11*
X64257000Y-85880000D03*
X64257000Y-75720000D03*
D12*
X62750000Y-77180000D03*
X62750000Y-84420000D03*
D11*
X64257000Y-83340000D03*
X64257000Y-78260000D03*
X64257000Y-80800000D03*
D13*
X76400000Y-80400000D03*
X73860000Y-81670000D03*
X76400000Y-82940000D03*
X73860000Y-84210000D03*
X76400000Y-85480000D03*
X73860000Y-86750000D03*
D21*
X67100000Y-45700000D03*
D22*
X64560000Y-45700000D03*
D23*
X91250000Y-45800000D03*
X86250000Y-45800000D03*
X81250000Y-45800000D03*
X91250000Y-50800000D03*
X86250000Y-50800000D03*
X81250000Y-50800000D03*
D21*
X151000000Y-101670000D03*
D22*
X151000000Y-104210000D03*
D21*
X151000000Y-93940000D03*
D22*
X151000000Y-96480000D03*
D21*
X75050000Y-45700000D03*
D22*
X72510000Y-45700000D03*
D24*
X113600000Y-73800000D03*
X113600000Y-76340000D03*
X113600000Y-78880000D03*
X113600000Y-81420000D03*
X113600000Y-83960000D03*
X105980000Y-83960000D03*
X105980000Y-81420000D03*
X105980000Y-78880000D03*
X105980000Y-76340000D03*
X105980000Y-73800000D03*
D13*
X150800000Y-61000000D03*
X149530000Y-58460000D03*
X148260000Y-61000000D03*
X146990000Y-58460000D03*
X145720000Y-61000000D03*
X144450000Y-58460000D03*
X142700000Y-64700000D03*
X143970000Y-67240000D03*
X145240000Y-64700000D03*
X146510000Y-67240000D03*
D21*
X127500000Y-45700000D03*
D22*
X130040000Y-45700000D03*
D25*
X132300000Y-62600000D03*
X137300000Y-60100000D03*
X132300000Y-57600000D03*
D13*
X123500000Y-52000000D03*
X124770000Y-54540000D03*
X126040000Y-52000000D03*
X127310000Y-54540000D03*
X128580000Y-52000000D03*
X129850000Y-54540000D03*
D26*
X96758000Y-55346000D03*
X102346000Y-55346000D03*
D25*
X118400000Y-49200000D03*
X123400000Y-46700000D03*
X118400000Y-44200000D03*
X95200000Y-85600000D03*
X92700000Y-80600000D03*
X90200000Y-85600000D03*
D17*
X107750000Y-58800000D03*
X112630000Y-58800000D03*
D18*
X115630000Y-58800000D03*
X104750000Y-58830000D03*
D27*
X69100000Y-98400000D03*
D28*
X69100000Y-90780000D03*
D27*
X63900000Y-93100000D03*
D28*
X63900000Y-100720000D03*
D27*
X74000000Y-100700000D03*
D28*
X74000000Y-93080000D03*
D27*
X79000000Y-90900000D03*
D28*
X79000000Y-98520000D03*
D27*
X137500000Y-51800000D03*
D28*
X145120000Y-51800000D03*
D27*
X145100000Y-45300000D03*
D28*
X137480000Y-45300000D03*
D27*
X142600000Y-55000000D03*
D28*
X134980000Y-55000000D03*
D27*
X135000000Y-48600000D03*
D28*
X142620000Y-48600000D03*
D27*
X72050000Y-73050000D03*
D29*
X72050000Y-75550000D03*
D27*
X91800000Y-58700000D03*
D29*
X91800000Y-56200000D03*
D27*
X65400000Y-53200000D03*
D29*
X62900000Y-53200000D03*
D27*
X62800000Y-62600000D03*
D29*
X65300000Y-62600000D03*
M02*
