G04 #@! TF.FileFunction,Soldermask,Bot*
%FSLAX46Y46*%
G04 Gerber Fmt 4.6, Leading zero omitted, Abs format (unit mm)*
G04 Created by KiCad (PCBNEW 4.0.3+e1-6302~38~ubuntu14.04.1-stable) date Sat Aug 26 04:58:37 2017*
%MOMM*%
%LPD*%
G01*
G04 APERTURE LIST*
%ADD10C,0.100000*%
%ADD11C,2.000000*%
%ADD12C,5.600000*%
%ADD13R,3.500120X3.500120*%
%ADD14O,1.600000X2.500000*%
%ADD15O,1.200000X1.200000*%
%ADD16O,2.500000X1.600000*%
%ADD17C,1.998980*%
%ADD18C,1.524000*%
%ADD19C,1.500000*%
%ADD20R,1.524000X2.500000*%
%ADD21C,1.520000*%
%ADD22R,1.520000X1.520000*%
%ADD23R,1.600000X2.400000*%
%ADD24O,1.600000X2.400000*%
%ADD25R,1.300000X1.300000*%
%ADD26C,1.300000*%
%ADD27C,1.800000*%
%ADD28R,2.500000X1.524000*%
%ADD29R,1.700000X1.700000*%
%ADD30O,1.700000X1.700000*%
%ADD31C,3.000000*%
%ADD32R,5.000000X3.960000*%
%ADD33R,2.300000X0.500000*%
%ADD34R,2.500000X2.000000*%
%ADD35C,0.900000*%
%ADD36R,1.700000X1.400000*%
%ADD37R,1.600000X1.600000*%
%ADD38C,1.600000*%
%ADD39C,1.400000*%
%ADD40O,1.400000X1.400000*%
%ADD41R,1.800000X2.600000*%
%ADD42O,1.800000X2.600000*%
%ADD43O,1.600000X1.600000*%
%ADD44R,1.998980X1.998980*%
G04 APERTURE END LIST*
D10*
D11*
X44200000Y-42020000D03*
X44200000Y-46520000D03*
X50700000Y-42020000D03*
X50700000Y-46520000D03*
D12*
X34000000Y-25000000D03*
X126000000Y-25000000D03*
X34000000Y-84000000D03*
X126000000Y-84000000D03*
D13*
X117249860Y-75600000D03*
X123249340Y-75600000D03*
X120249600Y-80299000D03*
D14*
X126750000Y-64250000D03*
D15*
X121750000Y-64250000D03*
D16*
X121750000Y-59250000D03*
X121750000Y-61750000D03*
X121750000Y-66750000D03*
X121750000Y-69250000D03*
D15*
X126750000Y-59250000D03*
X126750000Y-69250000D03*
X129250000Y-59250000D03*
X129250000Y-69250000D03*
D14*
X126750000Y-52000000D03*
D15*
X121750000Y-52000000D03*
D16*
X121750000Y-47000000D03*
X121750000Y-49500000D03*
X121750000Y-54500000D03*
X121750000Y-57000000D03*
D15*
X126750000Y-47000000D03*
X126750000Y-57000000D03*
X129250000Y-47000000D03*
X129250000Y-57000000D03*
D17*
X54950000Y-78100000D03*
X54950000Y-67940000D03*
D18*
X41600000Y-62600000D03*
X39060000Y-63870000D03*
X41600000Y-65140000D03*
X39060000Y-66410000D03*
X41600000Y-67680000D03*
X39060000Y-68950000D03*
D19*
X32800000Y-106900000D03*
X32800000Y-102020000D03*
D20*
X32800000Y-99020000D03*
X32830000Y-109900000D03*
D19*
X83200000Y-102000000D03*
X83200000Y-106880000D03*
D20*
X83200000Y-109880000D03*
X83170000Y-99000000D03*
D19*
X104750000Y-102000000D03*
X104750000Y-106880000D03*
D20*
X104750000Y-109880000D03*
X104720000Y-99000000D03*
D19*
X127150000Y-106900000D03*
X127150000Y-102020000D03*
D20*
X127150000Y-99020000D03*
X127180000Y-109900000D03*
D19*
X38400000Y-106900000D03*
X38400000Y-102020000D03*
D20*
X38400000Y-99020000D03*
X38430000Y-109900000D03*
D19*
X44000000Y-102000000D03*
X44000000Y-106880000D03*
D20*
X44000000Y-109880000D03*
X43970000Y-99000000D03*
D19*
X49600000Y-106900000D03*
X49600000Y-102020000D03*
D20*
X49600000Y-99020000D03*
X49630000Y-109900000D03*
D19*
X55200000Y-102000000D03*
X55200000Y-106880000D03*
D20*
X55200000Y-109880000D03*
X55170000Y-99000000D03*
D19*
X60800000Y-106900000D03*
X60800000Y-102020000D03*
D20*
X60800000Y-99020000D03*
X60830000Y-109900000D03*
D19*
X66400000Y-102000000D03*
X66400000Y-106880000D03*
D20*
X66400000Y-109880000D03*
X66370000Y-99000000D03*
D19*
X72000000Y-106900000D03*
X72000000Y-102020000D03*
D20*
X72000000Y-99020000D03*
X72030000Y-109900000D03*
D19*
X77600000Y-102000000D03*
X77600000Y-106880000D03*
D20*
X77600000Y-109880000D03*
X77570000Y-99000000D03*
D19*
X99150000Y-102000000D03*
X99150000Y-106880000D03*
D20*
X99150000Y-109880000D03*
X99120000Y-99000000D03*
D19*
X110350000Y-106900000D03*
X110350000Y-102020000D03*
D20*
X110350000Y-99020000D03*
X110380000Y-109900000D03*
D19*
X115950000Y-102000000D03*
X115950000Y-106880000D03*
D20*
X115950000Y-109880000D03*
X115920000Y-99000000D03*
D19*
X121550000Y-106900000D03*
X121550000Y-102020000D03*
D20*
X121550000Y-99020000D03*
X121580000Y-109900000D03*
D21*
X53080000Y-87680000D03*
X55620000Y-87680000D03*
D22*
X50540000Y-87680000D03*
D11*
X124890000Y-44310000D03*
X122350000Y-44310000D03*
X127430000Y-44310000D03*
D23*
X62900000Y-79000000D03*
D24*
X70520000Y-86620000D03*
X65440000Y-79000000D03*
X67980000Y-86620000D03*
X67980000Y-79000000D03*
X65440000Y-86620000D03*
X70520000Y-79000000D03*
X62900000Y-86620000D03*
D21*
X99140000Y-78840000D03*
X101680000Y-78840000D03*
D22*
X96600000Y-78840000D03*
D25*
X63400000Y-74100000D03*
D26*
X63400000Y-72100000D03*
D25*
X52800000Y-81800000D03*
D26*
X52800000Y-83800000D03*
D25*
X98080000Y-84630000D03*
D26*
X100080000Y-84630000D03*
D17*
X71100000Y-64300000D03*
X71100000Y-54140000D03*
D27*
X112750000Y-87000000D03*
X105130000Y-87000000D03*
X112750000Y-74300000D03*
X105130000Y-69220000D03*
X105130000Y-79380000D03*
X112750000Y-79380000D03*
X105130000Y-74300000D03*
X112750000Y-69220000D03*
D19*
X88750000Y-70750000D03*
X93630000Y-70750000D03*
D28*
X96630000Y-70750000D03*
X85750000Y-70780000D03*
D17*
X77646000Y-74742000D03*
X77646000Y-69154000D03*
D25*
X76500000Y-79900000D03*
D26*
X78500000Y-79900000D03*
D29*
X70390000Y-24100000D03*
D30*
X67850000Y-24100000D03*
X70390000Y-26640000D03*
X67850000Y-26640000D03*
X70390000Y-29180000D03*
X67850000Y-29180000D03*
D19*
X99530000Y-40230000D03*
X96079319Y-43680681D03*
D10*
G36*
X94303067Y-44379302D02*
X95380698Y-45456933D01*
X93612931Y-47224700D01*
X92535300Y-46147069D01*
X94303067Y-44379302D01*
X94303067Y-44379302D01*
G37*
G36*
X101975175Y-36664767D02*
X103052806Y-37742398D01*
X101285039Y-39510165D01*
X100207408Y-38432534D01*
X101975175Y-36664767D01*
X101975175Y-36664767D01*
G37*
D27*
X56140000Y-36280000D03*
X70640000Y-36280000D03*
X70640000Y-38780000D03*
X70640000Y-41280000D03*
X56140000Y-41280000D03*
D31*
X63140000Y-44380000D03*
X63140000Y-33180000D03*
D27*
X35857000Y-67580000D03*
X35857000Y-57420000D03*
D32*
X34350000Y-58880000D03*
X34350000Y-66120000D03*
D27*
X35857000Y-65040000D03*
X35857000Y-59960000D03*
X35857000Y-62500000D03*
D33*
X122200000Y-32400000D03*
X122200000Y-33200000D03*
X122200000Y-34000000D03*
X122200000Y-34800000D03*
X122200000Y-35600000D03*
D34*
X122300000Y-29550000D03*
X127800000Y-29550000D03*
X122300000Y-38450000D03*
X127800000Y-38450000D03*
D35*
X124800000Y-31800000D03*
X124800000Y-36200000D03*
D27*
X35857000Y-39950000D03*
X35857000Y-29790000D03*
D32*
X34350000Y-31250000D03*
X34350000Y-38490000D03*
D27*
X35857000Y-37410000D03*
X35857000Y-32330000D03*
X35857000Y-34870000D03*
D36*
X84020000Y-30010000D03*
X84020000Y-27610000D03*
D11*
X61600000Y-51000000D03*
X61600000Y-55500000D03*
X68100000Y-51000000D03*
X68100000Y-55500000D03*
X52000000Y-51000000D03*
X52000000Y-55500000D03*
X58500000Y-51000000D03*
X58500000Y-55500000D03*
D37*
X68240000Y-90720000D03*
D38*
X68240000Y-93220000D03*
D37*
X74940000Y-90360000D03*
D38*
X77440000Y-90360000D03*
D37*
X54170000Y-93840000D03*
D38*
X51670000Y-93840000D03*
D11*
X47170000Y-36630000D03*
X44630000Y-36630000D03*
X49710000Y-36630000D03*
D29*
X62840000Y-26680000D03*
D30*
X62840000Y-24140000D03*
X60300000Y-26680000D03*
X60300000Y-24140000D03*
X57760000Y-26680000D03*
X57760000Y-24140000D03*
X55220000Y-26680000D03*
X55220000Y-24140000D03*
X52680000Y-26680000D03*
X52680000Y-24140000D03*
D38*
X89320000Y-78790000D03*
X89320000Y-83790000D03*
D39*
X63200000Y-96000000D03*
D40*
X60660000Y-96000000D03*
D39*
X60900000Y-90720000D03*
D40*
X63440000Y-90720000D03*
D41*
X103860000Y-25030000D03*
D42*
X101320000Y-25030000D03*
X98780000Y-25030000D03*
X96240000Y-25030000D03*
X93700000Y-25030000D03*
X91160000Y-25030000D03*
X88620000Y-25030000D03*
X86080000Y-25030000D03*
D11*
X114970000Y-25030000D03*
X114970000Y-65030000D03*
X74970000Y-65030000D03*
X74970000Y-25030000D03*
D38*
X45370000Y-30450000D03*
D43*
X58070000Y-30450000D03*
D44*
X40000000Y-28248360D03*
X40000000Y-39251640D03*
X40000000Y-46748360D03*
X40000000Y-57751640D03*
M02*
