M48
;DRILL file {KiCad 4.0.3+e1-6302~38~ubuntu14.04.1-stable} date Sat Aug 26 04:58:46 2017
;FORMAT={-:-/ absolute / metric / decimal}
FMAT,2
METRIC,TZ
T1C0.400
T2C0.700
T3C0.762
T4C0.800
T5C0.900
T6C1.000
T7C1.001
T8C1.100
T9C1.200
T10C2.200
T11C3.200
%
G90
G05
M71
T1
X31.09Y-108.07
X31.49Y-80.7
X31.6Y-45.1
X32.61Y-73.15
X32.78Y-104.35
X32.9Y-111.9
X33.18Y-95.3
X33.24Y-77.36
X33.52Y-90.13
X33.52Y-92.78
X33.53Y-80.01
X33.8Y-47.6
X34.85Y-99.75
X35.Y-45.1
X35.28Y-73.14
X35.6Y-103.01
X35.6Y-105.69
X35.6Y-109.9
X35.8Y-49.9
X35.9Y-70.4
X36.6Y-92.56
X37.4Y-53.5
X37.6Y-21.9
X37.7Y-36.3
X37.7Y-41.1
X38.3Y-28.5
X38.3Y-45.1
X38.35Y-105.18
X38.37Y-103.65
X38.5Y-33.8
X38.5Y-111.9
X39.1Y-92.54
X39.22Y-86.74
X39.23Y-75.51
X39.7Y-23.2
X40.Y-67.7
X41.2Y-109.9
X41.21Y-97.84
X41.21Y-100.56
X41.38Y-79.55
X41.79Y-92.54
X42.Y-40.9
X42.Y-44.3
X42.Y-70.4
X42.1Y-52.1
X42.3Y-58.3
X42.49Y-86.74
X42.63Y-74.65
X42.7Y-60.9
X42.8Y-23.6
X42.8Y-25.9
X42.8Y-29.7
X42.8Y-33.3
X42.8Y-37.4
X43.38Y-83.08
X43.4Y-67.8
X43.7Y-71.8
X43.82Y-79.55
X44.03Y-104.29
X44.2Y-49.5
X44.2Y-111.9
X44.3Y-53.4
X44.3Y-57.
X44.4Y-65.2
X44.5Y-92.5
X45.07Y-83.6
X45.63Y-74.71
X45.8Y-86.87
X45.84Y-65.23
X46.59Y-97.87
X46.59Y-100.69
X46.8Y-109.88
X47.3Y-70.9
X48.3Y-80.97
X48.5Y-59.3
X48.5Y-86.94
X49.1Y-53.4
X49.16Y-74.8
X49.2Y-56.8
X49.3Y-84.92
X49.36Y-81.83
X49.4Y-49.8
X49.56Y-104.15
X49.7Y-111.9
X50.23Y-91.16
X50.9Y-66.
X51.64Y-63.3
X51.7Y-60.
X51.7Y-62.1
X52.3Y-78.49
X52.4Y-109.9
X52.41Y-97.68
X52.41Y-100.53
X52.68Y-35.31
X52.75Y-91.14
X53.Y-70.3
X53.3Y-73.2
X53.49Y-36.43
X53.57Y-75.9
X54.1Y-65.5
X55.2Y-104.36
X55.2Y-111.9
X55.93Y-60.3
X55.95Y-85.58
X56.1Y-75.8
X56.8Y-62.9
X56.88Y-59.1
X56.98Y-89.34
X57.Y-92.6
X57.5Y-79.6
X57.5Y-83.5
X57.7Y-65.7
X57.71Y-97.51
X57.8Y-57.9
X58.Y-68.
X58.Y-100.4
X58.Y-109.9
X58.1Y-95.7
X59.6Y-93.2
X59.7Y-67.6
X60.8Y-104.4
X60.9Y-111.9
X61.2Y-61.8
X62.39Y-61.7
X62.39Y-66.93
X62.9Y-93.2
X63.5Y-61.8
X63.6Y-100.4
X63.6Y-109.9
X64.7Y-97.1
X65.3Y-94.2
X65.8Y-26.65
X65.8Y-33.72
X66.4Y-104.4
X66.4Y-111.9
X66.5Y-66.9
X66.6Y-63.4
X67.23Y-57.94
X68.8Y-61.4
X68.9Y-57.9
X69.2Y-100.3
X69.2Y-109.9
X70.6Y-92.2
X72.Y-96.1
X72.Y-104.4
X72.1Y-111.9
X73.4Y-51.9
X73.4Y-55.3
X73.9Y-46.8
X74.15Y-26.82
X74.35Y-60.29
X74.8Y-107.5
X74.8Y-109.9
X74.84Y-52.38
X74.84Y-100.13
X74.86Y-74.88
X74.9Y-96.1
X75.51Y-28.25
X75.82Y-34.72
X76.63Y-59.34
X76.78Y-65.64
X77.5Y-103.62
X77.5Y-105.33
X77.6Y-96.1
X77.7Y-111.9
X77.75Y-52.64
X78.Y-55.3
X78.4Y-46.9
X79.5Y-56.8
X79.57Y-64.01
X79.58Y-61.42
X80.4Y-99.
X80.4Y-101.12
X80.4Y-109.88
X81.07Y-79.72
X81.08Y-82.78
X81.1Y-93.5
X81.37Y-96.7
X82.Y-53.
X82.1Y-50.2
X82.4Y-56.6
X83.21Y-32.75
X83.3Y-111.92
X83.8Y-49.
X84.21Y-40.01
X84.46Y-62.42
X84.48Y-59.62
X84.89Y-34.43
X84.89Y-104.15
X84.89Y-106.12
X85.Y-53.
X85.56Y-73.46
X85.7Y-89.8
X85.98Y-37.83
X86.4Y-47.4
X86.9Y-35.23
X86.98Y-103.44
X87.05Y-78.21
X87.07Y-111.79
X87.29Y-41.02
X87.46Y-44.86
X87.5Y-41.94
X87.52Y-80.86
X87.86Y-72.68
X87.9Y-53.1
X87.98Y-74.32
X88.34Y-106.04
X88.5Y-91.3
X88.71Y-65.27
X88.8Y-38.38
X89.2Y-47.5
X89.3Y-51.3
X89.6Y-88.2
X89.99Y-99.62
X90.06Y-28.49
X90.22Y-80.86
X90.3Y-70.72
X90.39Y-66.53
X90.39Y-96.22
X90.69Y-111.72
X90.85Y-75.51
X91.17Y-40.58
X91.17Y-97.72
X91.2Y-47.24
X91.3Y-93.4
X92.Y-40.83
X92.09Y-70.72
X92.15Y-99.55
X92.38Y-60.34
X92.65Y-83.43
X93.15Y-36.97
X93.21Y-105.42
X93.27Y-40.48
X93.28Y-111.74
X93.3Y-88.2
X93.39Y-52.67
X93.57Y-109.19
X93.7Y-102.05
X93.76Y-103.13
X93.94Y-65.79
X94.31Y-99.73
X94.47Y-39.4
X94.51Y-28.84
X94.7Y-90.9
X94.72Y-80.8
X94.72Y-83.26
X95.23Y-86.29
X95.45Y-106.95
X95.5Y-38.35
X95.6Y-52.72
X97.34Y-102.05
X97.7Y-93.2
X98.48Y-88.18
X98.53Y-42.35
X98.85Y-73.65
X99.06Y-65.47
X99.12Y-95.41
X99.18Y-35.84
X99.21Y-81.14
X99.31Y-71.56
X99.575Y-34.275
X100.04Y-30.55
X100.86Y-29.27
X100.95Y-105.99
X101.05Y-90.63
X101.76Y-68.24
X101.8Y-76.54
X101.895Y-93.985
X101.95Y-99.
X101.95Y-109.88
X102.37Y-103.04
X104.73Y-104.46
X105.43Y-76.52
X105.51Y-71.08
X105.89Y-94.45
X106.71Y-99.
X106.72Y-81.83
X107.11Y-84.75
X107.25Y-100.7
X107.55Y-109.9
X107.58Y-94.29
X107.66Y-75.63
X107.67Y-43.75
X109.08Y-31.81
X109.23Y-27.16
X110.35Y-94.5
X110.36Y-104.34
X110.6Y-38.7
X110.64Y-83.42
X111.37Y-92.13
X113.Y-89.12
X113.15Y-109.9
X113.73Y-31.59
X113.86Y-100.94
X114.48Y-83.27
X114.7Y-35.5
X115.07Y-86.27
X115.58Y-79.9
X116.41Y-94.75
X117.06Y-32.74
X117.34Y-29.49
X117.47Y-86.32
X117.47Y-90.64
X118.51Y-67.64
X118.75Y-109.9
X118.83Y-100.24
X119.52Y-95.53
X119.67Y-38.45
X121.44Y-89.81
X121.52Y-104.39
X121.8Y-86.33
X121.96Y-95.53
X124.35Y-109.9
X124.37Y-34.82
X124.59Y-33.75
X124.62Y-38.41
X125.82Y-97.
X126.06Y-36.25
X126.93Y-33.75
X126.98Y-90.81
X127.18Y-104.39
X127.87Y-34.74
T2
X60.66Y-96.
X60.9Y-90.72
X63.2Y-96.
X63.44Y-90.72
T3
X39.06Y-63.87
X39.06Y-66.41
X39.06Y-68.95
X41.6Y-62.6
X41.6Y-65.14
X41.6Y-67.68
T4
X32.8Y-102.02
X32.8Y-106.9
X38.4Y-102.02
X38.4Y-106.9
X44.Y-102.
X44.Y-106.88
X45.37Y-30.45
X49.6Y-102.02
X49.6Y-106.9
X50.54Y-87.68
X51.67Y-93.84
X52.8Y-81.8
X52.8Y-83.8
X53.08Y-87.68
X54.17Y-93.84
X55.2Y-102.
X55.2Y-106.88
X55.62Y-87.68
X58.07Y-30.45
X60.8Y-102.02
X60.8Y-106.9
X62.9Y-79.
X62.9Y-86.62
X63.4Y-72.1
X63.4Y-74.1
X65.44Y-79.
X65.44Y-86.62
X66.4Y-102.
X66.4Y-106.88
X67.98Y-79.
X67.98Y-86.62
X68.24Y-90.72
X68.24Y-93.22
X70.52Y-79.
X70.52Y-86.62
X72.Y-102.02
X72.Y-106.9
X74.94Y-90.36
X76.5Y-79.9
X77.44Y-90.36
X77.6Y-102.
X77.6Y-106.88
X78.5Y-79.9
X83.2Y-102.
X83.2Y-106.88
X88.75Y-70.75
X89.32Y-78.79
X89.32Y-83.79
X93.63Y-70.75
X96.079Y-43.681
X96.6Y-78.84
X98.08Y-84.63
X99.14Y-78.84
X99.15Y-102.
X99.15Y-106.88
X99.53Y-40.23
X100.08Y-84.63
X101.68Y-78.84
X104.75Y-102.
X104.75Y-106.88
X110.35Y-102.02
X110.35Y-106.9
X115.95Y-102.
X115.95Y-106.88
X121.55Y-102.02
X121.55Y-106.9
X127.15Y-102.02
X127.15Y-106.9
T5
X105.13Y-69.22
X105.13Y-74.3
X105.13Y-79.38
X105.13Y-87.
X112.75Y-69.22
X112.75Y-74.3
X112.75Y-79.38
X112.75Y-87.
T6
X52.68Y-24.14
X52.68Y-26.68
X55.22Y-24.14
X55.22Y-26.68
X56.14Y-36.28
X56.14Y-41.28
X57.76Y-24.14
X57.76Y-26.68
X60.3Y-24.14
X60.3Y-26.68
X62.84Y-24.14
X62.84Y-26.68
X67.85Y-24.1
X67.85Y-26.64
X67.85Y-29.18
X70.39Y-24.1
X70.39Y-26.64
X70.39Y-29.18
X70.64Y-36.28
X70.64Y-38.78
X70.64Y-41.28
X74.97Y-25.03
X74.97Y-65.03
X114.97Y-25.03
X114.97Y-65.03
T7
X40.Y-28.749
X40.Y-38.751
X40.Y-47.249
X40.Y-57.251
X54.95Y-67.94
X54.95Y-78.1
X71.1Y-54.14
X71.1Y-64.3
X77.646Y-69.154
X77.646Y-74.742
T8
X35.857Y-29.79
X35.857Y-32.33
X35.857Y-34.87
X35.857Y-37.41
X35.857Y-39.95
X35.857Y-57.42
X35.857Y-59.96
X35.857Y-62.5
X35.857Y-65.04
X35.857Y-67.58
X44.2Y-42.02
X44.2Y-46.52
X50.7Y-42.02
X50.7Y-46.52
X52.Y-51.
X52.Y-55.5
X58.5Y-51.
X58.5Y-55.5
X61.6Y-51.
X61.6Y-55.5
X68.1Y-51.
X68.1Y-55.5
T9
X44.63Y-36.63
X47.17Y-36.63
X49.71Y-36.63
X86.08Y-25.03
X88.62Y-25.03
X91.16Y-25.03
X93.7Y-25.03
X96.24Y-25.03
X98.78Y-25.03
X101.32Y-25.03
X103.86Y-25.03
X122.35Y-44.31
X124.89Y-44.31
X127.43Y-44.31
T10
X63.14Y-33.18
X63.14Y-44.38
T11
X34.Y-25.
X34.Y-84.
X126.Y-25.
X126.Y-84.
T5
X121.4Y-47.G85X122.1Y-47.
G05
X121.4Y-49.5G85X122.1Y-49.5
G05
X121.4Y-54.5G85X122.1Y-54.5
G05
X121.4Y-57.G85X122.1Y-57.
G05
X121.4Y-59.25G85X122.1Y-59.25
G05
X121.4Y-61.75G85X122.1Y-61.75
G05
X121.4Y-66.75G85X122.1Y-66.75
G05
X121.4Y-69.25G85X122.1Y-69.25
G05
X126.75Y-52.35G85X126.75Y-51.65
G05
X126.75Y-64.6G85X126.75Y-63.9
G05
T7
X117.25Y-76.599G85X117.25Y-74.601
G05
X121.249Y-80.299G85X119.25Y-80.299
G05
X123.249Y-76.599G85X123.249Y-74.601
G05
T9
X121.75Y-52.G85X121.75Y-52.
G05
X121.75Y-64.25G85X121.75Y-64.25
G05
X126.75Y-47.G85X126.75Y-47.
G05
X126.75Y-57.G85X126.75Y-57.
G05
X126.75Y-59.25G85X126.75Y-59.25
G05
X126.75Y-69.25G85X126.75Y-69.25
G05
X129.25Y-47.G85X129.25Y-47.
G05
X129.25Y-57.G85X129.25Y-57.
G05
X129.25Y-59.25G85X129.25Y-59.25
G05
X129.25Y-69.25G85X129.25Y-69.25
G05
T0
M30
