G04 #@! TF.FileFunction,Legend,Top*
%FSLAX46Y46*%
G04 Gerber Fmt 4.6, Leading zero omitted, Abs format (unit mm)*
G04 Created by KiCad (PCBNEW 4.0.3+e1-6302~38~ubuntu14.04.1-stable) date Sat Aug 26 04:58:37 2017*
%MOMM*%
%LPD*%
G01*
G04 APERTURE LIST*
%ADD10C,0.100000*%
%ADD11C,0.150000*%
%ADD12C,0.120000*%
G04 APERTURE END LIST*
D10*
D11*
X101375000Y-74775000D02*
X101375000Y-74725000D01*
X97225000Y-74775000D02*
X97225000Y-74630000D01*
X97225000Y-69625000D02*
X97225000Y-69770000D01*
X101375000Y-69625000D02*
X101375000Y-69770000D01*
X101375000Y-74775000D02*
X97225000Y-74775000D01*
X101375000Y-69625000D02*
X97225000Y-69625000D01*
X101375000Y-74725000D02*
X102775000Y-74725000D01*
D12*
X48300000Y-66590000D02*
X45350000Y-66590000D01*
X46500000Y-69810000D02*
X48300000Y-69810000D01*
D11*
X93400000Y-79450000D02*
X93400000Y-79950000D01*
X92200000Y-79950000D02*
X92200000Y-79450000D01*
X83000000Y-62650000D02*
X83000000Y-63150000D01*
X81800000Y-63150000D02*
X81800000Y-62650000D01*
X83850000Y-67600000D02*
X84350000Y-67600000D01*
X84350000Y-68800000D02*
X83850000Y-68800000D01*
X40150000Y-61100000D02*
X39650000Y-61100000D01*
X39650000Y-59900000D02*
X40150000Y-59900000D01*
X53550000Y-59000000D02*
X53050000Y-59000000D01*
X53050000Y-57800000D02*
X53550000Y-57800000D01*
X47580000Y-50770000D02*
X47580000Y-51270000D01*
X46380000Y-51270000D02*
X46380000Y-50770000D01*
X32300000Y-77150000D02*
X32300000Y-77650000D01*
X31100000Y-77650000D02*
X31100000Y-77150000D01*
X86510000Y-94760000D02*
X86010000Y-94760000D01*
X86010000Y-93560000D02*
X86510000Y-93560000D01*
X110070000Y-97400000D02*
X110070000Y-97900000D01*
X108870000Y-97900000D02*
X108870000Y-97400000D01*
X98000000Y-77140000D02*
X97500000Y-77140000D01*
X97500000Y-75940000D02*
X98000000Y-75940000D01*
X118130000Y-64890000D02*
X118130000Y-64390000D01*
X119330000Y-64390000D02*
X119330000Y-64890000D01*
X32100000Y-92700000D02*
X32100000Y-93200000D01*
X30900000Y-93200000D02*
X30900000Y-92700000D01*
X39550000Y-72600000D02*
X39050000Y-72600000D01*
X39050000Y-71400000D02*
X39550000Y-71400000D01*
X105070000Y-91000000D02*
X105070000Y-91500000D01*
X103870000Y-91500000D02*
X103870000Y-91000000D01*
X99520000Y-103800000D02*
X100020000Y-103800000D01*
X100020000Y-105000000D02*
X99520000Y-105000000D01*
X107700000Y-103650000D02*
X107700000Y-104150000D01*
X106500000Y-104150000D02*
X106500000Y-103650000D01*
X41200000Y-104950000D02*
X41200000Y-104450000D01*
X42400000Y-104450000D02*
X42400000Y-104950000D01*
X47100000Y-103850000D02*
X47100000Y-104350000D01*
X45900000Y-104350000D02*
X45900000Y-103850000D01*
X51950000Y-104950000D02*
X51950000Y-104450000D01*
X53150000Y-104450000D02*
X53150000Y-104950000D01*
X58500000Y-103850000D02*
X58500000Y-104350000D01*
X57300000Y-104350000D02*
X57300000Y-103850000D01*
X63100000Y-104950000D02*
X63100000Y-104450000D01*
X64300000Y-104450000D02*
X64300000Y-104950000D01*
X69450000Y-103850000D02*
X69450000Y-104350000D01*
X68250000Y-104350000D02*
X68250000Y-103850000D01*
X73920000Y-104950000D02*
X73920000Y-104450000D01*
X75120000Y-104450000D02*
X75120000Y-104950000D01*
X113100000Y-105150000D02*
X113100000Y-104650000D01*
X114300000Y-104650000D02*
X114300000Y-105150000D01*
X118900000Y-103650000D02*
X118900000Y-104150000D01*
X117700000Y-104150000D02*
X117700000Y-103650000D01*
X124850000Y-99850000D02*
X124850000Y-100350000D01*
X123650000Y-100350000D02*
X123650000Y-99850000D01*
X69750000Y-66360000D02*
X70250000Y-66360000D01*
X70250000Y-67560000D02*
X69750000Y-67560000D01*
X97650000Y-67600000D02*
X98150000Y-67600000D01*
X98150000Y-68800000D02*
X97650000Y-68800000D01*
X69050000Y-82700000D02*
X69550000Y-82700000D01*
X69550000Y-83900000D02*
X69050000Y-83900000D01*
X68250000Y-95410000D02*
X68750000Y-95410000D01*
X68750000Y-96610000D02*
X68250000Y-96610000D01*
X127760000Y-94300000D02*
X127760000Y-93800000D01*
X128960000Y-93800000D02*
X128960000Y-94300000D01*
X74000000Y-84250000D02*
X74000000Y-84750000D01*
X72800000Y-84750000D02*
X72800000Y-84250000D01*
X80550000Y-72200000D02*
X80050000Y-72200000D01*
X80050000Y-71000000D02*
X80550000Y-71000000D01*
X49450000Y-78310000D02*
X49450000Y-77810000D01*
X50650000Y-77810000D02*
X50650000Y-78310000D01*
X86580000Y-109130000D02*
X86580000Y-108630000D01*
X87780000Y-108630000D02*
X87780000Y-109130000D01*
X51000000Y-73800000D02*
X51000000Y-73300000D01*
X52200000Y-73300000D02*
X52200000Y-73800000D01*
X108940000Y-85960000D02*
X109440000Y-85960000D01*
X109440000Y-87160000D02*
X108940000Y-87160000D01*
X54150000Y-61900000D02*
X54150000Y-62400000D01*
X52950000Y-62400000D02*
X52950000Y-61900000D01*
X54350000Y-71850000D02*
X54350000Y-71350000D01*
X55550000Y-71350000D02*
X55550000Y-71850000D01*
D12*
X92920000Y-92620000D02*
X91990000Y-92620000D01*
X89760000Y-92620000D02*
X90690000Y-92620000D01*
X89760000Y-92620000D02*
X89760000Y-95780000D01*
X92920000Y-92620000D02*
X92920000Y-94080000D01*
X110060000Y-91680000D02*
X110060000Y-90750000D01*
X110060000Y-88520000D02*
X110060000Y-89450000D01*
X110060000Y-88520000D02*
X106900000Y-88520000D01*
X110060000Y-91680000D02*
X108600000Y-91680000D01*
X97540000Y-110900000D02*
X97540000Y-109970000D01*
X97540000Y-107740000D02*
X97540000Y-108670000D01*
X97540000Y-107740000D02*
X94380000Y-107740000D01*
X97540000Y-110900000D02*
X96080000Y-110900000D01*
X125810000Y-90480000D02*
X125810000Y-89550000D01*
X125810000Y-87320000D02*
X125810000Y-88250000D01*
X125810000Y-87320000D02*
X122650000Y-87320000D01*
X125810000Y-90480000D02*
X124350000Y-90480000D01*
X76840000Y-81820000D02*
X76840000Y-82750000D01*
X76840000Y-84980000D02*
X76840000Y-84050000D01*
X76840000Y-84980000D02*
X80000000Y-84980000D01*
X76840000Y-81820000D02*
X78300000Y-81820000D01*
X107440000Y-82040000D02*
X108370000Y-82040000D01*
X110600000Y-82040000D02*
X109670000Y-82040000D01*
X110600000Y-82040000D02*
X110600000Y-78880000D01*
X107440000Y-82040000D02*
X107440000Y-80580000D01*
X41770000Y-82780000D02*
X41770000Y-81850000D01*
X41770000Y-79620000D02*
X41770000Y-80550000D01*
X41770000Y-79620000D02*
X38610000Y-79620000D01*
X41770000Y-82780000D02*
X40310000Y-82780000D01*
X85370000Y-104310000D02*
X86300000Y-104310000D01*
X88530000Y-104310000D02*
X87600000Y-104310000D01*
X88530000Y-104310000D02*
X88530000Y-101150000D01*
X85370000Y-104310000D02*
X85370000Y-102850000D01*
X120110000Y-98830000D02*
X120110000Y-97900000D01*
X120110000Y-95670000D02*
X120110000Y-96600000D01*
X120110000Y-95670000D02*
X116950000Y-95670000D01*
X120110000Y-98830000D02*
X118650000Y-98830000D01*
X40250000Y-75780000D02*
X40250000Y-76710000D01*
X40250000Y-78940000D02*
X40250000Y-78010000D01*
X40250000Y-78940000D02*
X43410000Y-78940000D01*
X40250000Y-75780000D02*
X41710000Y-75780000D01*
X92330000Y-102790000D02*
X91400000Y-102790000D01*
X89170000Y-102790000D02*
X90100000Y-102790000D01*
X89170000Y-102790000D02*
X89170000Y-105950000D01*
X92330000Y-102790000D02*
X92330000Y-104250000D01*
X118640000Y-91770000D02*
X118640000Y-92700000D01*
X118640000Y-94930000D02*
X118640000Y-94000000D01*
X118640000Y-94930000D02*
X121800000Y-94930000D01*
X118640000Y-91770000D02*
X120100000Y-91770000D01*
X70140000Y-73620000D02*
X70140000Y-74550000D01*
X70140000Y-76780000D02*
X70140000Y-75850000D01*
X70140000Y-76780000D02*
X73300000Y-76780000D01*
X70140000Y-73620000D02*
X71600000Y-73620000D01*
X70140000Y-69820000D02*
X70140000Y-70750000D01*
X70140000Y-72980000D02*
X70140000Y-72050000D01*
X70140000Y-72980000D02*
X73300000Y-72980000D01*
X70140000Y-69820000D02*
X71600000Y-69820000D01*
X91710000Y-59380000D02*
X90780000Y-59380000D01*
X88550000Y-59380000D02*
X89480000Y-59380000D01*
X88550000Y-59380000D02*
X88550000Y-62540000D01*
X91710000Y-59380000D02*
X91710000Y-60840000D01*
D11*
X47100000Y-71825000D02*
X48100000Y-71825000D01*
X48100000Y-73175000D02*
X47100000Y-73175000D01*
X90600000Y-67525000D02*
X91400000Y-67525000D01*
X91400000Y-68875000D02*
X90600000Y-68875000D01*
X36200000Y-76975000D02*
X35400000Y-76975000D01*
X35400000Y-75625000D02*
X36200000Y-75625000D01*
X36200000Y-79275000D02*
X35400000Y-79275000D01*
X35400000Y-77925000D02*
X36200000Y-77925000D01*
X86925000Y-98350000D02*
X86925000Y-97550000D01*
X88275000Y-97550000D02*
X88275000Y-98350000D01*
X84215000Y-98350000D02*
X84215000Y-97550000D01*
X85565000Y-97550000D02*
X85565000Y-98350000D01*
X114240000Y-97095000D02*
X113440000Y-97095000D01*
X113440000Y-95745000D02*
X114240000Y-95745000D01*
X39100000Y-84325000D02*
X39900000Y-84325000D01*
X39900000Y-85675000D02*
X39100000Y-85675000D01*
X95165000Y-100030000D02*
X95165000Y-99030000D01*
X96515000Y-99030000D02*
X96515000Y-100030000D01*
X95195000Y-95500000D02*
X95195000Y-94700000D01*
X96545000Y-94700000D02*
X96545000Y-95500000D01*
X114240000Y-99645000D02*
X113440000Y-99645000D01*
X113440000Y-98295000D02*
X114240000Y-98295000D01*
X114125000Y-92400000D02*
X114125000Y-91600000D01*
X115475000Y-91600000D02*
X115475000Y-92400000D01*
X46325000Y-84200000D02*
X46325000Y-83400000D01*
X47675000Y-83400000D02*
X47675000Y-84200000D01*
X44300000Y-85665000D02*
X43300000Y-85665000D01*
X43300000Y-84315000D02*
X44300000Y-84315000D01*
X96005000Y-103670000D02*
X96005000Y-104470000D01*
X94655000Y-104470000D02*
X94655000Y-103670000D01*
X120325000Y-88900000D02*
X120325000Y-89700000D01*
X118975000Y-89700000D02*
X118975000Y-88900000D01*
X116650000Y-88775000D02*
X115650000Y-88775000D01*
X115650000Y-87425000D02*
X116650000Y-87425000D01*
X47120000Y-79875000D02*
X46320000Y-79875000D01*
X46320000Y-78525000D02*
X47120000Y-78525000D01*
X47130000Y-77575000D02*
X46330000Y-77575000D01*
X46330000Y-76225000D02*
X47130000Y-76225000D01*
X90380000Y-109345000D02*
X91180000Y-109345000D01*
X91180000Y-110695000D02*
X90380000Y-110695000D01*
X90420000Y-106875000D02*
X91220000Y-106875000D01*
X91220000Y-108225000D02*
X90420000Y-108225000D01*
X125040000Y-96015000D02*
X124240000Y-96015000D01*
X124240000Y-94665000D02*
X125040000Y-94665000D01*
X125030000Y-93565000D02*
X124230000Y-93565000D01*
X124230000Y-92215000D02*
X125030000Y-92215000D01*
X50725000Y-69700000D02*
X50725000Y-68700000D01*
X52075000Y-68700000D02*
X52075000Y-69700000D01*
X58825000Y-79600000D02*
X58825000Y-78800000D01*
X60175000Y-78800000D02*
X60175000Y-79600000D01*
X49135000Y-62500000D02*
X49135000Y-61700000D01*
X50485000Y-61700000D02*
X50485000Y-62500000D01*
X58800000Y-73525000D02*
X59600000Y-73525000D01*
X59600000Y-74875000D02*
X58800000Y-74875000D01*
X82125000Y-80000000D02*
X82125000Y-78800000D01*
X83875000Y-78800000D02*
X83875000Y-80000000D01*
X75715000Y-69160000D02*
X75715000Y-69960000D01*
X74365000Y-69960000D02*
X74365000Y-69160000D01*
X77200000Y-77975000D02*
X76400000Y-77975000D01*
X76400000Y-76625000D02*
X77200000Y-76625000D01*
X86955000Y-63650000D02*
X86955000Y-64450000D01*
X85605000Y-64450000D02*
X85605000Y-63650000D01*
X43685000Y-62400000D02*
X43685000Y-61600000D01*
X45035000Y-61600000D02*
X45035000Y-62400000D01*
X58800000Y-69725000D02*
X59600000Y-69725000D01*
X59600000Y-71075000D02*
X58800000Y-71075000D01*
X47655000Y-55340000D02*
X47655000Y-56140000D01*
X46305000Y-56140000D02*
X46305000Y-55340000D01*
D12*
X48240000Y-62800000D02*
X48240000Y-60900000D01*
X45920000Y-61400000D02*
X45920000Y-62800000D01*
D11*
X39750000Y-26350000D02*
X39250000Y-26350000D01*
X39250000Y-25150000D02*
X39750000Y-25150000D01*
X39400000Y-43250000D02*
X39400000Y-42750000D01*
X40600000Y-42750000D02*
X40600000Y-43250000D01*
X54900000Y-82650000D02*
X54900000Y-82150000D01*
X56100000Y-82150000D02*
X56100000Y-82650000D01*
X80850000Y-105000000D02*
X80350000Y-105000000D01*
X80350000Y-103800000D02*
X80850000Y-103800000D01*
D12*
X32770000Y-46180000D02*
X34770000Y-46180000D01*
X34770000Y-49140000D02*
X32770000Y-49140000D01*
X36350000Y-95400000D02*
X36350000Y-88100000D01*
X36350000Y-88100000D02*
X34350000Y-88100000D01*
X34350000Y-88100000D02*
X34350000Y-95400000D01*
X36850000Y-89900000D02*
X36850000Y-97200000D01*
X36850000Y-97200000D02*
X38850000Y-97200000D01*
X38850000Y-97200000D02*
X38850000Y-89900000D01*
X41350000Y-95400000D02*
X41350000Y-88100000D01*
X41350000Y-88100000D02*
X39350000Y-88100000D01*
X39350000Y-88100000D02*
X39350000Y-95400000D01*
X42200000Y-89900000D02*
X42200000Y-97200000D01*
X42200000Y-97200000D02*
X44200000Y-97200000D01*
X44200000Y-97200000D02*
X44200000Y-89900000D01*
X46750000Y-95400000D02*
X46750000Y-88100000D01*
X46750000Y-88100000D02*
X44750000Y-88100000D01*
X44750000Y-88100000D02*
X44750000Y-95400000D01*
X47300000Y-89900000D02*
X47300000Y-97200000D01*
X47300000Y-97200000D02*
X49300000Y-97200000D01*
X49300000Y-97200000D02*
X49300000Y-89900000D01*
X84000000Y-89550000D02*
X84000000Y-82250000D01*
X84000000Y-82250000D02*
X82000000Y-82250000D01*
X82000000Y-82250000D02*
X82000000Y-89550000D01*
D11*
X102672513Y-37031041D02*
X102318959Y-36677487D01*
X103167487Y-35828959D02*
X103521041Y-36182513D01*
X75900000Y-56350000D02*
X75900000Y-56850000D01*
X74700000Y-56850000D02*
X74700000Y-56350000D01*
X113726000Y-41094000D02*
X110678000Y-41094000D01*
X110678000Y-41094000D02*
X110678000Y-48206000D01*
X110678000Y-48206000D02*
X113726000Y-48206000D01*
X116774000Y-41094000D02*
X117536000Y-41094000D01*
X117536000Y-41094000D02*
X119822000Y-42618000D01*
X119822000Y-42618000D02*
X119822000Y-46682000D01*
X119822000Y-46682000D02*
X117536000Y-48206000D01*
X117536000Y-48206000D02*
X116774000Y-48206000D01*
X64598880Y-76196260D02*
X62201120Y-76196260D01*
X62201120Y-70499040D02*
X62201120Y-75700960D01*
X64598880Y-70499040D02*
X64598880Y-75700960D01*
X51601120Y-79703740D02*
X53998880Y-79703740D01*
X53998880Y-85400960D02*
X53998880Y-80199040D01*
X51601120Y-85400960D02*
X51601120Y-80199040D01*
X80225000Y-54375000D02*
X80050000Y-54375000D01*
X80225000Y-57625000D02*
X79950000Y-57625000D01*
X76975000Y-57625000D02*
X77250000Y-57625000D01*
X76975000Y-54375000D02*
X77250000Y-54375000D01*
X80225000Y-54375000D02*
X80225000Y-57625000D01*
X76975000Y-54375000D02*
X76975000Y-57625000D01*
X80050000Y-54375000D02*
X80050000Y-53300000D01*
D12*
X88900000Y-46750000D02*
X72925000Y-46750000D01*
X72925000Y-46750000D02*
X72925000Y-51850000D01*
X72925000Y-51850000D02*
X88900000Y-51850000D01*
D11*
X34250000Y-42400000D02*
X34750000Y-42400000D01*
X34750000Y-43600000D02*
X34250000Y-43600000D01*
X95983740Y-85828880D02*
X95983740Y-83431120D01*
X101680960Y-83431120D02*
X96479040Y-83431120D01*
X101680960Y-85828880D02*
X96479040Y-85828880D01*
X34250000Y-51400000D02*
X34750000Y-51400000D01*
X34750000Y-52600000D02*
X34250000Y-52600000D01*
X92250000Y-42876524D02*
X92409099Y-42717425D01*
X87123476Y-37750000D02*
X87353286Y-37520190D01*
X92250000Y-32623476D02*
X92020190Y-32853286D01*
X97376524Y-37750000D02*
X97146714Y-37979810D01*
X92250000Y-42876524D02*
X92020190Y-42646714D01*
X97376524Y-37750000D02*
X97146714Y-37520190D01*
X92250000Y-32623476D02*
X92479810Y-32853286D01*
X87123476Y-37750000D02*
X87353286Y-37979810D01*
X92409099Y-42717425D02*
X93416726Y-43725052D01*
D12*
X65860000Y-59270000D02*
X65760000Y-59270000D01*
X58660000Y-59370000D02*
X58660000Y-59270000D01*
X58660000Y-59270000D02*
X58760000Y-59270000D01*
X58660000Y-64370000D02*
X58660000Y-64470000D01*
X58660000Y-64470000D02*
X58760000Y-64470000D01*
X65860000Y-64370000D02*
X65860000Y-64470000D01*
X65860000Y-64470000D02*
X65760000Y-64470000D01*
X65860000Y-64370000D02*
X65860000Y-62670000D01*
X58660000Y-62670000D02*
X58660000Y-64370000D01*
X58660000Y-59370000D02*
X58660000Y-61070000D01*
X65860000Y-61070000D02*
X65860000Y-58670000D01*
D11*
X93400000Y-74450000D02*
X93400000Y-74950000D01*
X92200000Y-74950000D02*
X92200000Y-74450000D01*
X74403740Y-81098880D02*
X74403740Y-78701120D01*
X80100960Y-78701120D02*
X74899040Y-78701120D01*
X80100960Y-81098880D02*
X74899040Y-81098880D01*
X98512513Y-46981041D02*
X98158959Y-46627487D01*
X99007487Y-45778959D02*
X99361041Y-46132513D01*
X102032513Y-43481041D02*
X101678959Y-43127487D01*
X102527487Y-42278959D02*
X102881041Y-42632513D01*
X89600000Y-44925000D02*
X90400000Y-44925000D01*
X90400000Y-46275000D02*
X89600000Y-46275000D01*
X84600000Y-44925000D02*
X85400000Y-44925000D01*
X85400000Y-46275000D02*
X84600000Y-46275000D01*
X36800000Y-68700000D02*
X31600000Y-68700000D01*
X31600000Y-68700000D02*
X31600000Y-56300000D01*
X31600000Y-56300000D02*
X36800000Y-56300000D01*
X49360000Y-29775000D02*
X50160000Y-29775000D01*
X50160000Y-31125000D02*
X49360000Y-31125000D01*
X51330000Y-38485000D02*
X52130000Y-38485000D01*
X52130000Y-39835000D02*
X51330000Y-39835000D01*
X108630000Y-47615000D02*
X107830000Y-47615000D01*
X107830000Y-46265000D02*
X108630000Y-46265000D01*
X107830000Y-48745000D02*
X108630000Y-48745000D01*
X108630000Y-50095000D02*
X107830000Y-50095000D01*
X112705000Y-26435000D02*
X112705000Y-27010000D01*
X118455000Y-26435000D02*
X118455000Y-27085000D01*
X118455000Y-37085000D02*
X118455000Y-36435000D01*
X112705000Y-37085000D02*
X112705000Y-36435000D01*
X112705000Y-26435000D02*
X118455000Y-26435000D01*
X112705000Y-37085000D02*
X118455000Y-37085000D01*
X112705000Y-27010000D02*
X111105000Y-27010000D01*
X107005000Y-32485000D02*
X107005000Y-32435000D01*
X102855000Y-32485000D02*
X102855000Y-32340000D01*
X102855000Y-27335000D02*
X102855000Y-27480000D01*
X107005000Y-27335000D02*
X107005000Y-27480000D01*
X107005000Y-32485000D02*
X102855000Y-32485000D01*
X107005000Y-27335000D02*
X102855000Y-27335000D01*
X107005000Y-32435000D02*
X108405000Y-32435000D01*
X36800000Y-41070000D02*
X31600000Y-41070000D01*
X31600000Y-41070000D02*
X31600000Y-28670000D01*
X31600000Y-28670000D02*
X36800000Y-28670000D01*
X98240000Y-28680000D02*
X97740000Y-28680000D01*
X97740000Y-27480000D02*
X98240000Y-27480000D01*
X108570000Y-71150000D02*
X109070000Y-71150000D01*
X109070000Y-72350000D02*
X108570000Y-72350000D01*
X67400000Y-36955000D02*
X66600000Y-36955000D01*
X66600000Y-35605000D02*
X67400000Y-35605000D01*
X67400000Y-41955000D02*
X66600000Y-41955000D01*
X66600000Y-40605000D02*
X67400000Y-40605000D01*
X59120000Y-40615000D02*
X59920000Y-40615000D01*
X59920000Y-41965000D02*
X59120000Y-41965000D01*
X63605000Y-50200000D02*
X63605000Y-49400000D01*
X64955000Y-49400000D02*
X64955000Y-50200000D01*
X53965000Y-50200000D02*
X53965000Y-49400000D01*
X55315000Y-49400000D02*
X55315000Y-50200000D01*
X108600000Y-34740000D02*
X108100000Y-34740000D01*
X108100000Y-33540000D02*
X108600000Y-33540000D01*
X116060000Y-39320000D02*
X115560000Y-39320000D01*
X115560000Y-38120000D02*
X116060000Y-38120000D01*
X123305000Y-30810000D02*
X123305000Y-31610000D01*
X121955000Y-31610000D02*
X121955000Y-30810000D01*
X126265000Y-31590000D02*
X126265000Y-30790000D01*
X127615000Y-30790000D02*
X127615000Y-31590000D01*
D12*
X105430000Y-23980000D02*
X110930000Y-23980000D01*
X105430000Y-26080000D02*
X110930000Y-26080000D01*
X105430000Y-23980000D02*
X105430000Y-26080000D01*
X119188000Y-50390000D02*
X119188000Y-55890000D01*
X117088000Y-50390000D02*
X117088000Y-55890000D01*
X119188000Y-50390000D02*
X117088000Y-50390000D01*
D11*
X67475000Y-69800000D02*
X67475000Y-70600000D01*
X66125000Y-70600000D02*
X66125000Y-69800000D01*
D12*
X70050000Y-63110000D02*
X70050000Y-57610000D01*
X72150000Y-63110000D02*
X72150000Y-57610000D01*
X70050000Y-63110000D02*
X72150000Y-63110000D01*
D11*
X47160000Y-43585000D02*
X47960000Y-43585000D01*
X47960000Y-44935000D02*
X47160000Y-44935000D01*
D12*
X100650000Y-23400000D02*
X99650000Y-23400000D01*
X99650000Y-22040000D02*
X100650000Y-22040000D01*
X62990000Y-67150000D02*
X63990000Y-67150000D01*
X63990000Y-68510000D02*
X62990000Y-68510000D01*
D11*
X110645000Y-75310000D02*
X110645000Y-76110000D01*
X109295000Y-76110000D02*
X109295000Y-75310000D01*
X57540000Y-45750000D02*
X58040000Y-45750000D01*
X58040000Y-46950000D02*
X57540000Y-46950000D01*
X89485000Y-54880000D02*
X89485000Y-54080000D01*
X90835000Y-54080000D02*
X90835000Y-54880000D01*
X95670000Y-62315000D02*
X94870000Y-62315000D01*
X94870000Y-60965000D02*
X95670000Y-60965000D01*
X114850000Y-55390000D02*
X114850000Y-54890000D01*
X116050000Y-54890000D02*
X116050000Y-55390000D01*
D12*
X126720000Y-40030000D02*
X128520000Y-40030000D01*
X128520000Y-36810000D02*
X126070000Y-36810000D01*
D11*
X39199900Y-33750000D02*
X39199900Y-33950660D01*
X39199900Y-33750000D02*
X39199900Y-33549340D01*
X40800100Y-33650940D02*
X40800100Y-33549340D01*
X40800100Y-33549340D02*
X40800100Y-33950660D01*
X39199900Y-52250000D02*
X39199900Y-52450660D01*
X39199900Y-52250000D02*
X39199900Y-52049340D01*
X40800100Y-52150940D02*
X40800100Y-52049340D01*
X40800100Y-52049340D02*
X40800100Y-52450660D01*
X64350000Y-81150000D02*
X64850000Y-81150000D01*
X64850000Y-82350000D02*
X64350000Y-82350000D01*
X103512381Y-72591905D02*
X104321905Y-72591905D01*
X104417143Y-72544286D01*
X104464762Y-72496667D01*
X104512381Y-72401429D01*
X104512381Y-72210952D01*
X104464762Y-72115714D01*
X104417143Y-72068095D01*
X104321905Y-72020476D01*
X103512381Y-72020476D01*
X104512381Y-71020476D02*
X104512381Y-71591905D01*
X104512381Y-71306191D02*
X103512381Y-71306191D01*
X103655238Y-71401429D01*
X103750476Y-71496667D01*
X103798095Y-71591905D01*
X45848095Y-70082381D02*
X45848095Y-70891905D01*
X45895714Y-70987143D01*
X45943333Y-71034762D01*
X46038571Y-71082381D01*
X46229048Y-71082381D01*
X46324286Y-71034762D01*
X46371905Y-70987143D01*
X46419524Y-70891905D01*
X46419524Y-70082381D01*
X46848095Y-70177619D02*
X46895714Y-70130000D01*
X46990952Y-70082381D01*
X47229048Y-70082381D01*
X47324286Y-70130000D01*
X47371905Y-70177619D01*
X47419524Y-70272857D01*
X47419524Y-70368095D01*
X47371905Y-70510952D01*
X46800476Y-71082381D01*
X47419524Y-71082381D01*
X94707143Y-79866666D02*
X94754762Y-79914285D01*
X94802381Y-80057142D01*
X94802381Y-80152380D01*
X94754762Y-80295238D01*
X94659524Y-80390476D01*
X94564286Y-80438095D01*
X94373810Y-80485714D01*
X94230952Y-80485714D01*
X94040476Y-80438095D01*
X93945238Y-80390476D01*
X93850000Y-80295238D01*
X93802381Y-80152380D01*
X93802381Y-80057142D01*
X93850000Y-79914285D01*
X93897619Y-79866666D01*
X94802381Y-78914285D02*
X94802381Y-79485714D01*
X94802381Y-79200000D02*
X93802381Y-79200000D01*
X93945238Y-79295238D01*
X94040476Y-79390476D01*
X94088095Y-79485714D01*
X80917143Y-63066666D02*
X80964762Y-63114285D01*
X81012381Y-63257142D01*
X81012381Y-63352380D01*
X80964762Y-63495238D01*
X80869524Y-63590476D01*
X80774286Y-63638095D01*
X80583810Y-63685714D01*
X80440952Y-63685714D01*
X80250476Y-63638095D01*
X80155238Y-63590476D01*
X80060000Y-63495238D01*
X80012381Y-63352380D01*
X80012381Y-63257142D01*
X80060000Y-63114285D01*
X80107619Y-63066666D01*
X80107619Y-62685714D02*
X80060000Y-62638095D01*
X80012381Y-62542857D01*
X80012381Y-62304761D01*
X80060000Y-62209523D01*
X80107619Y-62161904D01*
X80202857Y-62114285D01*
X80298095Y-62114285D01*
X80440952Y-62161904D01*
X81012381Y-62733333D01*
X81012381Y-62114285D01*
X86983334Y-68557143D02*
X86935715Y-68604762D01*
X86792858Y-68652381D01*
X86697620Y-68652381D01*
X86554762Y-68604762D01*
X86459524Y-68509524D01*
X86411905Y-68414286D01*
X86364286Y-68223810D01*
X86364286Y-68080952D01*
X86411905Y-67890476D01*
X86459524Y-67795238D01*
X86554762Y-67700000D01*
X86697620Y-67652381D01*
X86792858Y-67652381D01*
X86935715Y-67700000D01*
X86983334Y-67747619D01*
X87316667Y-67652381D02*
X87935715Y-67652381D01*
X87602381Y-68033333D01*
X87745239Y-68033333D01*
X87840477Y-68080952D01*
X87888096Y-68128571D01*
X87935715Y-68223810D01*
X87935715Y-68461905D01*
X87888096Y-68557143D01*
X87840477Y-68604762D01*
X87745239Y-68652381D01*
X87459524Y-68652381D01*
X87364286Y-68604762D01*
X87316667Y-68557143D01*
X38833334Y-62607143D02*
X38785715Y-62654762D01*
X38642858Y-62702381D01*
X38547620Y-62702381D01*
X38404762Y-62654762D01*
X38309524Y-62559524D01*
X38261905Y-62464286D01*
X38214286Y-62273810D01*
X38214286Y-62130952D01*
X38261905Y-61940476D01*
X38309524Y-61845238D01*
X38404762Y-61750000D01*
X38547620Y-61702381D01*
X38642858Y-61702381D01*
X38785715Y-61750000D01*
X38833334Y-61797619D01*
X39690477Y-62035714D02*
X39690477Y-62702381D01*
X39452381Y-61654762D02*
X39214286Y-62369048D01*
X39833334Y-62369048D01*
X56183334Y-58757143D02*
X56135715Y-58804762D01*
X55992858Y-58852381D01*
X55897620Y-58852381D01*
X55754762Y-58804762D01*
X55659524Y-58709524D01*
X55611905Y-58614286D01*
X55564286Y-58423810D01*
X55564286Y-58280952D01*
X55611905Y-58090476D01*
X55659524Y-57995238D01*
X55754762Y-57900000D01*
X55897620Y-57852381D01*
X55992858Y-57852381D01*
X56135715Y-57900000D01*
X56183334Y-57947619D01*
X57088096Y-57852381D02*
X56611905Y-57852381D01*
X56564286Y-58328571D01*
X56611905Y-58280952D01*
X56707143Y-58233333D01*
X56945239Y-58233333D01*
X57040477Y-58280952D01*
X57088096Y-58328571D01*
X57135715Y-58423810D01*
X57135715Y-58661905D01*
X57088096Y-58757143D01*
X57040477Y-58804762D01*
X56945239Y-58852381D01*
X56707143Y-58852381D01*
X56611905Y-58804762D01*
X56564286Y-58757143D01*
X45667143Y-51206666D02*
X45714762Y-51254285D01*
X45762381Y-51397142D01*
X45762381Y-51492380D01*
X45714762Y-51635238D01*
X45619524Y-51730476D01*
X45524286Y-51778095D01*
X45333810Y-51825714D01*
X45190952Y-51825714D01*
X45000476Y-51778095D01*
X44905238Y-51730476D01*
X44810000Y-51635238D01*
X44762381Y-51492380D01*
X44762381Y-51397142D01*
X44810000Y-51254285D01*
X44857619Y-51206666D01*
X44762381Y-50349523D02*
X44762381Y-50540000D01*
X44810000Y-50635238D01*
X44857619Y-50682857D01*
X45000476Y-50778095D01*
X45190952Y-50825714D01*
X45571905Y-50825714D01*
X45667143Y-50778095D01*
X45714762Y-50730476D01*
X45762381Y-50635238D01*
X45762381Y-50444761D01*
X45714762Y-50349523D01*
X45667143Y-50301904D01*
X45571905Y-50254285D01*
X45333810Y-50254285D01*
X45238571Y-50301904D01*
X45190952Y-50349523D01*
X45143333Y-50444761D01*
X45143333Y-50635238D01*
X45190952Y-50730476D01*
X45238571Y-50778095D01*
X45333810Y-50825714D01*
X32057143Y-74546666D02*
X32104762Y-74594285D01*
X32152381Y-74737142D01*
X32152381Y-74832380D01*
X32104762Y-74975238D01*
X32009524Y-75070476D01*
X31914286Y-75118095D01*
X31723810Y-75165714D01*
X31580952Y-75165714D01*
X31390476Y-75118095D01*
X31295238Y-75070476D01*
X31200000Y-74975238D01*
X31152381Y-74832380D01*
X31152381Y-74737142D01*
X31200000Y-74594285D01*
X31247619Y-74546666D01*
X32152381Y-74070476D02*
X32152381Y-73880000D01*
X32104762Y-73784761D01*
X32057143Y-73737142D01*
X31914286Y-73641904D01*
X31723810Y-73594285D01*
X31342857Y-73594285D01*
X31247619Y-73641904D01*
X31200000Y-73689523D01*
X31152381Y-73784761D01*
X31152381Y-73975238D01*
X31200000Y-74070476D01*
X31247619Y-74118095D01*
X31342857Y-74165714D01*
X31580952Y-74165714D01*
X31676190Y-74118095D01*
X31723810Y-74070476D01*
X31771429Y-73975238D01*
X31771429Y-73784761D01*
X31723810Y-73689523D01*
X31676190Y-73641904D01*
X31580952Y-73594285D01*
X85617143Y-92917143D02*
X85569524Y-92964762D01*
X85426667Y-93012381D01*
X85331429Y-93012381D01*
X85188571Y-92964762D01*
X85093333Y-92869524D01*
X85045714Y-92774286D01*
X84998095Y-92583810D01*
X84998095Y-92440952D01*
X85045714Y-92250476D01*
X85093333Y-92155238D01*
X85188571Y-92060000D01*
X85331429Y-92012381D01*
X85426667Y-92012381D01*
X85569524Y-92060000D01*
X85617143Y-92107619D01*
X86569524Y-93012381D02*
X85998095Y-93012381D01*
X86283809Y-93012381D02*
X86283809Y-92012381D01*
X86188571Y-92155238D01*
X86093333Y-92250476D01*
X85998095Y-92298095D01*
X87188571Y-92012381D02*
X87283810Y-92012381D01*
X87379048Y-92060000D01*
X87426667Y-92107619D01*
X87474286Y-92202857D01*
X87521905Y-92393333D01*
X87521905Y-92631429D01*
X87474286Y-92821905D01*
X87426667Y-92917143D01*
X87379048Y-92964762D01*
X87283810Y-93012381D01*
X87188571Y-93012381D01*
X87093333Y-92964762D01*
X87045714Y-92917143D01*
X86998095Y-92821905D01*
X86950476Y-92631429D01*
X86950476Y-92393333D01*
X86998095Y-92202857D01*
X87045714Y-92107619D01*
X87093333Y-92060000D01*
X87188571Y-92012381D01*
X107827143Y-98182857D02*
X107874762Y-98230476D01*
X107922381Y-98373333D01*
X107922381Y-98468571D01*
X107874762Y-98611429D01*
X107779524Y-98706667D01*
X107684286Y-98754286D01*
X107493810Y-98801905D01*
X107350952Y-98801905D01*
X107160476Y-98754286D01*
X107065238Y-98706667D01*
X106970000Y-98611429D01*
X106922381Y-98468571D01*
X106922381Y-98373333D01*
X106970000Y-98230476D01*
X107017619Y-98182857D01*
X107922381Y-97230476D02*
X107922381Y-97801905D01*
X107922381Y-97516191D02*
X106922381Y-97516191D01*
X107065238Y-97611429D01*
X107160476Y-97706667D01*
X107208095Y-97801905D01*
X107922381Y-96278095D02*
X107922381Y-96849524D01*
X107922381Y-96563810D02*
X106922381Y-96563810D01*
X107065238Y-96659048D01*
X107160476Y-96754286D01*
X107208095Y-96849524D01*
X100757143Y-76897143D02*
X100709524Y-76944762D01*
X100566667Y-76992381D01*
X100471429Y-76992381D01*
X100328571Y-76944762D01*
X100233333Y-76849524D01*
X100185714Y-76754286D01*
X100138095Y-76563810D01*
X100138095Y-76420952D01*
X100185714Y-76230476D01*
X100233333Y-76135238D01*
X100328571Y-76040000D01*
X100471429Y-75992381D01*
X100566667Y-75992381D01*
X100709524Y-76040000D01*
X100757143Y-76087619D01*
X101709524Y-76992381D02*
X101138095Y-76992381D01*
X101423809Y-76992381D02*
X101423809Y-75992381D01*
X101328571Y-76135238D01*
X101233333Y-76230476D01*
X101138095Y-76278095D01*
X102090476Y-76087619D02*
X102138095Y-76040000D01*
X102233333Y-75992381D01*
X102471429Y-75992381D01*
X102566667Y-76040000D01*
X102614286Y-76087619D01*
X102661905Y-76182857D01*
X102661905Y-76278095D01*
X102614286Y-76420952D01*
X102042857Y-76992381D01*
X102661905Y-76992381D01*
X117187143Y-65282857D02*
X117234762Y-65330476D01*
X117282381Y-65473333D01*
X117282381Y-65568571D01*
X117234762Y-65711429D01*
X117139524Y-65806667D01*
X117044286Y-65854286D01*
X116853810Y-65901905D01*
X116710952Y-65901905D01*
X116520476Y-65854286D01*
X116425238Y-65806667D01*
X116330000Y-65711429D01*
X116282381Y-65568571D01*
X116282381Y-65473333D01*
X116330000Y-65330476D01*
X116377619Y-65282857D01*
X117282381Y-64330476D02*
X117282381Y-64901905D01*
X117282381Y-64616191D02*
X116282381Y-64616191D01*
X116425238Y-64711429D01*
X116520476Y-64806667D01*
X116568095Y-64901905D01*
X116282381Y-63997143D02*
X116282381Y-63378095D01*
X116663333Y-63711429D01*
X116663333Y-63568571D01*
X116710952Y-63473333D01*
X116758571Y-63425714D01*
X116853810Y-63378095D01*
X117091905Y-63378095D01*
X117187143Y-63425714D01*
X117234762Y-63473333D01*
X117282381Y-63568571D01*
X117282381Y-63854286D01*
X117234762Y-63949524D01*
X117187143Y-63997143D01*
X31857143Y-89792857D02*
X31904762Y-89840476D01*
X31952381Y-89983333D01*
X31952381Y-90078571D01*
X31904762Y-90221429D01*
X31809524Y-90316667D01*
X31714286Y-90364286D01*
X31523810Y-90411905D01*
X31380952Y-90411905D01*
X31190476Y-90364286D01*
X31095238Y-90316667D01*
X31000000Y-90221429D01*
X30952381Y-90078571D01*
X30952381Y-89983333D01*
X31000000Y-89840476D01*
X31047619Y-89792857D01*
X31952381Y-88840476D02*
X31952381Y-89411905D01*
X31952381Y-89126191D02*
X30952381Y-89126191D01*
X31095238Y-89221429D01*
X31190476Y-89316667D01*
X31238095Y-89411905D01*
X31285714Y-87983333D02*
X31952381Y-87983333D01*
X30904762Y-88221429D02*
X31619048Y-88459524D01*
X31619048Y-87840476D01*
X38657143Y-74257143D02*
X38609524Y-74304762D01*
X38466667Y-74352381D01*
X38371429Y-74352381D01*
X38228571Y-74304762D01*
X38133333Y-74209524D01*
X38085714Y-74114286D01*
X38038095Y-73923810D01*
X38038095Y-73780952D01*
X38085714Y-73590476D01*
X38133333Y-73495238D01*
X38228571Y-73400000D01*
X38371429Y-73352381D01*
X38466667Y-73352381D01*
X38609524Y-73400000D01*
X38657143Y-73447619D01*
X39609524Y-74352381D02*
X39038095Y-74352381D01*
X39323809Y-74352381D02*
X39323809Y-73352381D01*
X39228571Y-73495238D01*
X39133333Y-73590476D01*
X39038095Y-73638095D01*
X40514286Y-73352381D02*
X40038095Y-73352381D01*
X39990476Y-73828571D01*
X40038095Y-73780952D01*
X40133333Y-73733333D01*
X40371429Y-73733333D01*
X40466667Y-73780952D01*
X40514286Y-73828571D01*
X40561905Y-73923810D01*
X40561905Y-74161905D01*
X40514286Y-74257143D01*
X40466667Y-74304762D01*
X40371429Y-74352381D01*
X40133333Y-74352381D01*
X40038095Y-74304762D01*
X39990476Y-74257143D01*
X102887143Y-91892857D02*
X102934762Y-91940476D01*
X102982381Y-92083333D01*
X102982381Y-92178571D01*
X102934762Y-92321429D01*
X102839524Y-92416667D01*
X102744286Y-92464286D01*
X102553810Y-92511905D01*
X102410952Y-92511905D01*
X102220476Y-92464286D01*
X102125238Y-92416667D01*
X102030000Y-92321429D01*
X101982381Y-92178571D01*
X101982381Y-92083333D01*
X102030000Y-91940476D01*
X102077619Y-91892857D01*
X102982381Y-90940476D02*
X102982381Y-91511905D01*
X102982381Y-91226191D02*
X101982381Y-91226191D01*
X102125238Y-91321429D01*
X102220476Y-91416667D01*
X102268095Y-91511905D01*
X101982381Y-90083333D02*
X101982381Y-90273810D01*
X102030000Y-90369048D01*
X102077619Y-90416667D01*
X102220476Y-90511905D01*
X102410952Y-90559524D01*
X102791905Y-90559524D01*
X102887143Y-90511905D01*
X102934762Y-90464286D01*
X102982381Y-90369048D01*
X102982381Y-90178571D01*
X102934762Y-90083333D01*
X102887143Y-90035714D01*
X102791905Y-89988095D01*
X102553810Y-89988095D01*
X102458571Y-90035714D01*
X102410952Y-90083333D01*
X102363333Y-90178571D01*
X102363333Y-90369048D01*
X102410952Y-90464286D01*
X102458571Y-90511905D01*
X102553810Y-90559524D01*
X102807143Y-104797143D02*
X102759524Y-104844762D01*
X102616667Y-104892381D01*
X102521429Y-104892381D01*
X102378571Y-104844762D01*
X102283333Y-104749524D01*
X102235714Y-104654286D01*
X102188095Y-104463810D01*
X102188095Y-104320952D01*
X102235714Y-104130476D01*
X102283333Y-104035238D01*
X102378571Y-103940000D01*
X102521429Y-103892381D01*
X102616667Y-103892381D01*
X102759524Y-103940000D01*
X102807143Y-103987619D01*
X103759524Y-104892381D02*
X103188095Y-104892381D01*
X103473809Y-104892381D02*
X103473809Y-103892381D01*
X103378571Y-104035238D01*
X103283333Y-104130476D01*
X103188095Y-104178095D01*
X104092857Y-103892381D02*
X104759524Y-103892381D01*
X104330952Y-104892381D01*
X109157143Y-104542857D02*
X109204762Y-104590476D01*
X109252381Y-104733333D01*
X109252381Y-104828571D01*
X109204762Y-104971429D01*
X109109524Y-105066667D01*
X109014286Y-105114286D01*
X108823810Y-105161905D01*
X108680952Y-105161905D01*
X108490476Y-105114286D01*
X108395238Y-105066667D01*
X108300000Y-104971429D01*
X108252381Y-104828571D01*
X108252381Y-104733333D01*
X108300000Y-104590476D01*
X108347619Y-104542857D01*
X108347619Y-104161905D02*
X108300000Y-104114286D01*
X108252381Y-104019048D01*
X108252381Y-103780952D01*
X108300000Y-103685714D01*
X108347619Y-103638095D01*
X108442857Y-103590476D01*
X108538095Y-103590476D01*
X108680952Y-103638095D01*
X109252381Y-104209524D01*
X109252381Y-103590476D01*
X109252381Y-102638095D02*
X109252381Y-103209524D01*
X109252381Y-102923810D02*
X108252381Y-102923810D01*
X108395238Y-103019048D01*
X108490476Y-103114286D01*
X108538095Y-103209524D01*
X40257143Y-105342857D02*
X40304762Y-105390476D01*
X40352381Y-105533333D01*
X40352381Y-105628571D01*
X40304762Y-105771429D01*
X40209524Y-105866667D01*
X40114286Y-105914286D01*
X39923810Y-105961905D01*
X39780952Y-105961905D01*
X39590476Y-105914286D01*
X39495238Y-105866667D01*
X39400000Y-105771429D01*
X39352381Y-105628571D01*
X39352381Y-105533333D01*
X39400000Y-105390476D01*
X39447619Y-105342857D01*
X39447619Y-104961905D02*
X39400000Y-104914286D01*
X39352381Y-104819048D01*
X39352381Y-104580952D01*
X39400000Y-104485714D01*
X39447619Y-104438095D01*
X39542857Y-104390476D01*
X39638095Y-104390476D01*
X39780952Y-104438095D01*
X40352381Y-105009524D01*
X40352381Y-104390476D01*
X39447619Y-104009524D02*
X39400000Y-103961905D01*
X39352381Y-103866667D01*
X39352381Y-103628571D01*
X39400000Y-103533333D01*
X39447619Y-103485714D01*
X39542857Y-103438095D01*
X39638095Y-103438095D01*
X39780952Y-103485714D01*
X40352381Y-104057143D01*
X40352381Y-103438095D01*
X48757143Y-104742857D02*
X48804762Y-104790476D01*
X48852381Y-104933333D01*
X48852381Y-105028571D01*
X48804762Y-105171429D01*
X48709524Y-105266667D01*
X48614286Y-105314286D01*
X48423810Y-105361905D01*
X48280952Y-105361905D01*
X48090476Y-105314286D01*
X47995238Y-105266667D01*
X47900000Y-105171429D01*
X47852381Y-105028571D01*
X47852381Y-104933333D01*
X47900000Y-104790476D01*
X47947619Y-104742857D01*
X47947619Y-104361905D02*
X47900000Y-104314286D01*
X47852381Y-104219048D01*
X47852381Y-103980952D01*
X47900000Y-103885714D01*
X47947619Y-103838095D01*
X48042857Y-103790476D01*
X48138095Y-103790476D01*
X48280952Y-103838095D01*
X48852381Y-104409524D01*
X48852381Y-103790476D01*
X47852381Y-103457143D02*
X47852381Y-102838095D01*
X48233333Y-103171429D01*
X48233333Y-103028571D01*
X48280952Y-102933333D01*
X48328571Y-102885714D01*
X48423810Y-102838095D01*
X48661905Y-102838095D01*
X48757143Y-102885714D01*
X48804762Y-102933333D01*
X48852381Y-103028571D01*
X48852381Y-103314286D01*
X48804762Y-103409524D01*
X48757143Y-103457143D01*
X51007143Y-105342857D02*
X51054762Y-105390476D01*
X51102381Y-105533333D01*
X51102381Y-105628571D01*
X51054762Y-105771429D01*
X50959524Y-105866667D01*
X50864286Y-105914286D01*
X50673810Y-105961905D01*
X50530952Y-105961905D01*
X50340476Y-105914286D01*
X50245238Y-105866667D01*
X50150000Y-105771429D01*
X50102381Y-105628571D01*
X50102381Y-105533333D01*
X50150000Y-105390476D01*
X50197619Y-105342857D01*
X50197619Y-104961905D02*
X50150000Y-104914286D01*
X50102381Y-104819048D01*
X50102381Y-104580952D01*
X50150000Y-104485714D01*
X50197619Y-104438095D01*
X50292857Y-104390476D01*
X50388095Y-104390476D01*
X50530952Y-104438095D01*
X51102381Y-105009524D01*
X51102381Y-104390476D01*
X50435714Y-103533333D02*
X51102381Y-103533333D01*
X50054762Y-103771429D02*
X50769048Y-104009524D01*
X50769048Y-103390476D01*
X60157143Y-104742857D02*
X60204762Y-104790476D01*
X60252381Y-104933333D01*
X60252381Y-105028571D01*
X60204762Y-105171429D01*
X60109524Y-105266667D01*
X60014286Y-105314286D01*
X59823810Y-105361905D01*
X59680952Y-105361905D01*
X59490476Y-105314286D01*
X59395238Y-105266667D01*
X59300000Y-105171429D01*
X59252381Y-105028571D01*
X59252381Y-104933333D01*
X59300000Y-104790476D01*
X59347619Y-104742857D01*
X59347619Y-104361905D02*
X59300000Y-104314286D01*
X59252381Y-104219048D01*
X59252381Y-103980952D01*
X59300000Y-103885714D01*
X59347619Y-103838095D01*
X59442857Y-103790476D01*
X59538095Y-103790476D01*
X59680952Y-103838095D01*
X60252381Y-104409524D01*
X60252381Y-103790476D01*
X59252381Y-102885714D02*
X59252381Y-103361905D01*
X59728571Y-103409524D01*
X59680952Y-103361905D01*
X59633333Y-103266667D01*
X59633333Y-103028571D01*
X59680952Y-102933333D01*
X59728571Y-102885714D01*
X59823810Y-102838095D01*
X60061905Y-102838095D01*
X60157143Y-102885714D01*
X60204762Y-102933333D01*
X60252381Y-103028571D01*
X60252381Y-103266667D01*
X60204762Y-103361905D01*
X60157143Y-103409524D01*
X62397143Y-105072857D02*
X62444762Y-105120476D01*
X62492381Y-105263333D01*
X62492381Y-105358571D01*
X62444762Y-105501429D01*
X62349524Y-105596667D01*
X62254286Y-105644286D01*
X62063810Y-105691905D01*
X61920952Y-105691905D01*
X61730476Y-105644286D01*
X61635238Y-105596667D01*
X61540000Y-105501429D01*
X61492381Y-105358571D01*
X61492381Y-105263333D01*
X61540000Y-105120476D01*
X61587619Y-105072857D01*
X61587619Y-104691905D02*
X61540000Y-104644286D01*
X61492381Y-104549048D01*
X61492381Y-104310952D01*
X61540000Y-104215714D01*
X61587619Y-104168095D01*
X61682857Y-104120476D01*
X61778095Y-104120476D01*
X61920952Y-104168095D01*
X62492381Y-104739524D01*
X62492381Y-104120476D01*
X61492381Y-103263333D02*
X61492381Y-103453810D01*
X61540000Y-103549048D01*
X61587619Y-103596667D01*
X61730476Y-103691905D01*
X61920952Y-103739524D01*
X62301905Y-103739524D01*
X62397143Y-103691905D01*
X62444762Y-103644286D01*
X62492381Y-103549048D01*
X62492381Y-103358571D01*
X62444762Y-103263333D01*
X62397143Y-103215714D01*
X62301905Y-103168095D01*
X62063810Y-103168095D01*
X61968571Y-103215714D01*
X61920952Y-103263333D01*
X61873333Y-103358571D01*
X61873333Y-103549048D01*
X61920952Y-103644286D01*
X61968571Y-103691905D01*
X62063810Y-103739524D01*
X71107143Y-104742857D02*
X71154762Y-104790476D01*
X71202381Y-104933333D01*
X71202381Y-105028571D01*
X71154762Y-105171429D01*
X71059524Y-105266667D01*
X70964286Y-105314286D01*
X70773810Y-105361905D01*
X70630952Y-105361905D01*
X70440476Y-105314286D01*
X70345238Y-105266667D01*
X70250000Y-105171429D01*
X70202381Y-105028571D01*
X70202381Y-104933333D01*
X70250000Y-104790476D01*
X70297619Y-104742857D01*
X70297619Y-104361905D02*
X70250000Y-104314286D01*
X70202381Y-104219048D01*
X70202381Y-103980952D01*
X70250000Y-103885714D01*
X70297619Y-103838095D01*
X70392857Y-103790476D01*
X70488095Y-103790476D01*
X70630952Y-103838095D01*
X71202381Y-104409524D01*
X71202381Y-103790476D01*
X70202381Y-103457143D02*
X70202381Y-102790476D01*
X71202381Y-103219048D01*
X73237143Y-105002857D02*
X73284762Y-105050476D01*
X73332381Y-105193333D01*
X73332381Y-105288571D01*
X73284762Y-105431429D01*
X73189524Y-105526667D01*
X73094286Y-105574286D01*
X72903810Y-105621905D01*
X72760952Y-105621905D01*
X72570476Y-105574286D01*
X72475238Y-105526667D01*
X72380000Y-105431429D01*
X72332381Y-105288571D01*
X72332381Y-105193333D01*
X72380000Y-105050476D01*
X72427619Y-105002857D01*
X72427619Y-104621905D02*
X72380000Y-104574286D01*
X72332381Y-104479048D01*
X72332381Y-104240952D01*
X72380000Y-104145714D01*
X72427619Y-104098095D01*
X72522857Y-104050476D01*
X72618095Y-104050476D01*
X72760952Y-104098095D01*
X73332381Y-104669524D01*
X73332381Y-104050476D01*
X72760952Y-103479048D02*
X72713333Y-103574286D01*
X72665714Y-103621905D01*
X72570476Y-103669524D01*
X72522857Y-103669524D01*
X72427619Y-103621905D01*
X72380000Y-103574286D01*
X72332381Y-103479048D01*
X72332381Y-103288571D01*
X72380000Y-103193333D01*
X72427619Y-103145714D01*
X72522857Y-103098095D01*
X72570476Y-103098095D01*
X72665714Y-103145714D01*
X72713333Y-103193333D01*
X72760952Y-103288571D01*
X72760952Y-103479048D01*
X72808571Y-103574286D01*
X72856190Y-103621905D01*
X72951429Y-103669524D01*
X73141905Y-103669524D01*
X73237143Y-103621905D01*
X73284762Y-103574286D01*
X73332381Y-103479048D01*
X73332381Y-103288571D01*
X73284762Y-103193333D01*
X73237143Y-103145714D01*
X73141905Y-103098095D01*
X72951429Y-103098095D01*
X72856190Y-103145714D01*
X72808571Y-103193333D01*
X72760952Y-103288571D01*
X112157143Y-105542857D02*
X112204762Y-105590476D01*
X112252381Y-105733333D01*
X112252381Y-105828571D01*
X112204762Y-105971429D01*
X112109524Y-106066667D01*
X112014286Y-106114286D01*
X111823810Y-106161905D01*
X111680952Y-106161905D01*
X111490476Y-106114286D01*
X111395238Y-106066667D01*
X111300000Y-105971429D01*
X111252381Y-105828571D01*
X111252381Y-105733333D01*
X111300000Y-105590476D01*
X111347619Y-105542857D01*
X111347619Y-105161905D02*
X111300000Y-105114286D01*
X111252381Y-105019048D01*
X111252381Y-104780952D01*
X111300000Y-104685714D01*
X111347619Y-104638095D01*
X111442857Y-104590476D01*
X111538095Y-104590476D01*
X111680952Y-104638095D01*
X112252381Y-105209524D01*
X112252381Y-104590476D01*
X112252381Y-104114286D02*
X112252381Y-103923810D01*
X112204762Y-103828571D01*
X112157143Y-103780952D01*
X112014286Y-103685714D01*
X111823810Y-103638095D01*
X111442857Y-103638095D01*
X111347619Y-103685714D01*
X111300000Y-103733333D01*
X111252381Y-103828571D01*
X111252381Y-104019048D01*
X111300000Y-104114286D01*
X111347619Y-104161905D01*
X111442857Y-104209524D01*
X111680952Y-104209524D01*
X111776190Y-104161905D01*
X111823810Y-104114286D01*
X111871429Y-104019048D01*
X111871429Y-103828571D01*
X111823810Y-103733333D01*
X111776190Y-103685714D01*
X111680952Y-103638095D01*
X120557143Y-104542857D02*
X120604762Y-104590476D01*
X120652381Y-104733333D01*
X120652381Y-104828571D01*
X120604762Y-104971429D01*
X120509524Y-105066667D01*
X120414286Y-105114286D01*
X120223810Y-105161905D01*
X120080952Y-105161905D01*
X119890476Y-105114286D01*
X119795238Y-105066667D01*
X119700000Y-104971429D01*
X119652381Y-104828571D01*
X119652381Y-104733333D01*
X119700000Y-104590476D01*
X119747619Y-104542857D01*
X119652381Y-104209524D02*
X119652381Y-103590476D01*
X120033333Y-103923810D01*
X120033333Y-103780952D01*
X120080952Y-103685714D01*
X120128571Y-103638095D01*
X120223810Y-103590476D01*
X120461905Y-103590476D01*
X120557143Y-103638095D01*
X120604762Y-103685714D01*
X120652381Y-103780952D01*
X120652381Y-104066667D01*
X120604762Y-104161905D01*
X120557143Y-104209524D01*
X119652381Y-102971429D02*
X119652381Y-102876190D01*
X119700000Y-102780952D01*
X119747619Y-102733333D01*
X119842857Y-102685714D01*
X120033333Y-102638095D01*
X120271429Y-102638095D01*
X120461905Y-102685714D01*
X120557143Y-102733333D01*
X120604762Y-102780952D01*
X120652381Y-102876190D01*
X120652381Y-102971429D01*
X120604762Y-103066667D01*
X120557143Y-103114286D01*
X120461905Y-103161905D01*
X120271429Y-103209524D01*
X120033333Y-103209524D01*
X119842857Y-103161905D01*
X119747619Y-103114286D01*
X119700000Y-103066667D01*
X119652381Y-102971429D01*
X126507143Y-100742857D02*
X126554762Y-100790476D01*
X126602381Y-100933333D01*
X126602381Y-101028571D01*
X126554762Y-101171429D01*
X126459524Y-101266667D01*
X126364286Y-101314286D01*
X126173810Y-101361905D01*
X126030952Y-101361905D01*
X125840476Y-101314286D01*
X125745238Y-101266667D01*
X125650000Y-101171429D01*
X125602381Y-101028571D01*
X125602381Y-100933333D01*
X125650000Y-100790476D01*
X125697619Y-100742857D01*
X125602381Y-100409524D02*
X125602381Y-99790476D01*
X125983333Y-100123810D01*
X125983333Y-99980952D01*
X126030952Y-99885714D01*
X126078571Y-99838095D01*
X126173810Y-99790476D01*
X126411905Y-99790476D01*
X126507143Y-99838095D01*
X126554762Y-99885714D01*
X126602381Y-99980952D01*
X126602381Y-100266667D01*
X126554762Y-100361905D01*
X126507143Y-100409524D01*
X125697619Y-99409524D02*
X125650000Y-99361905D01*
X125602381Y-99266667D01*
X125602381Y-99028571D01*
X125650000Y-98933333D01*
X125697619Y-98885714D01*
X125792857Y-98838095D01*
X125888095Y-98838095D01*
X126030952Y-98885714D01*
X126602381Y-99457143D01*
X126602381Y-98838095D01*
X67617143Y-65677143D02*
X67569524Y-65724762D01*
X67426667Y-65772381D01*
X67331429Y-65772381D01*
X67188571Y-65724762D01*
X67093333Y-65629524D01*
X67045714Y-65534286D01*
X66998095Y-65343810D01*
X66998095Y-65200952D01*
X67045714Y-65010476D01*
X67093333Y-64915238D01*
X67188571Y-64820000D01*
X67331429Y-64772381D01*
X67426667Y-64772381D01*
X67569524Y-64820000D01*
X67617143Y-64867619D01*
X67950476Y-64772381D02*
X68569524Y-64772381D01*
X68236190Y-65153333D01*
X68379048Y-65153333D01*
X68474286Y-65200952D01*
X68521905Y-65248571D01*
X68569524Y-65343810D01*
X68569524Y-65581905D01*
X68521905Y-65677143D01*
X68474286Y-65724762D01*
X68379048Y-65772381D01*
X68093333Y-65772381D01*
X67998095Y-65724762D01*
X67950476Y-65677143D01*
X68902857Y-64772381D02*
X69521905Y-64772381D01*
X69188571Y-65153333D01*
X69331429Y-65153333D01*
X69426667Y-65200952D01*
X69474286Y-65248571D01*
X69521905Y-65343810D01*
X69521905Y-65581905D01*
X69474286Y-65677143D01*
X69426667Y-65724762D01*
X69331429Y-65772381D01*
X69045714Y-65772381D01*
X68950476Y-65724762D01*
X68902857Y-65677143D01*
X101057143Y-68557143D02*
X101009524Y-68604762D01*
X100866667Y-68652381D01*
X100771429Y-68652381D01*
X100628571Y-68604762D01*
X100533333Y-68509524D01*
X100485714Y-68414286D01*
X100438095Y-68223810D01*
X100438095Y-68080952D01*
X100485714Y-67890476D01*
X100533333Y-67795238D01*
X100628571Y-67700000D01*
X100771429Y-67652381D01*
X100866667Y-67652381D01*
X101009524Y-67700000D01*
X101057143Y-67747619D01*
X101390476Y-67652381D02*
X102009524Y-67652381D01*
X101676190Y-68033333D01*
X101819048Y-68033333D01*
X101914286Y-68080952D01*
X101961905Y-68128571D01*
X102009524Y-68223810D01*
X102009524Y-68461905D01*
X101961905Y-68557143D01*
X101914286Y-68604762D01*
X101819048Y-68652381D01*
X101533333Y-68652381D01*
X101438095Y-68604762D01*
X101390476Y-68557143D01*
X102914286Y-67652381D02*
X102438095Y-67652381D01*
X102390476Y-68128571D01*
X102438095Y-68080952D01*
X102533333Y-68033333D01*
X102771429Y-68033333D01*
X102866667Y-68080952D01*
X102914286Y-68128571D01*
X102961905Y-68223810D01*
X102961905Y-68461905D01*
X102914286Y-68557143D01*
X102866667Y-68604762D01*
X102771429Y-68652381D01*
X102533333Y-68652381D01*
X102438095Y-68604762D01*
X102390476Y-68557143D01*
X68657143Y-81857143D02*
X68609524Y-81904762D01*
X68466667Y-81952381D01*
X68371429Y-81952381D01*
X68228571Y-81904762D01*
X68133333Y-81809524D01*
X68085714Y-81714286D01*
X68038095Y-81523810D01*
X68038095Y-81380952D01*
X68085714Y-81190476D01*
X68133333Y-81095238D01*
X68228571Y-81000000D01*
X68371429Y-80952381D01*
X68466667Y-80952381D01*
X68609524Y-81000000D01*
X68657143Y-81047619D01*
X68990476Y-80952381D02*
X69609524Y-80952381D01*
X69276190Y-81333333D01*
X69419048Y-81333333D01*
X69514286Y-81380952D01*
X69561905Y-81428571D01*
X69609524Y-81523810D01*
X69609524Y-81761905D01*
X69561905Y-81857143D01*
X69514286Y-81904762D01*
X69419048Y-81952381D01*
X69133333Y-81952381D01*
X69038095Y-81904762D01*
X68990476Y-81857143D01*
X70466667Y-80952381D02*
X70276190Y-80952381D01*
X70180952Y-81000000D01*
X70133333Y-81047619D01*
X70038095Y-81190476D01*
X69990476Y-81380952D01*
X69990476Y-81761905D01*
X70038095Y-81857143D01*
X70085714Y-81904762D01*
X70180952Y-81952381D01*
X70371429Y-81952381D01*
X70466667Y-81904762D01*
X70514286Y-81857143D01*
X70561905Y-81761905D01*
X70561905Y-81523810D01*
X70514286Y-81428571D01*
X70466667Y-81380952D01*
X70371429Y-81333333D01*
X70180952Y-81333333D01*
X70085714Y-81380952D01*
X70038095Y-81428571D01*
X69990476Y-81523810D01*
X67857143Y-98067143D02*
X67809524Y-98114762D01*
X67666667Y-98162381D01*
X67571429Y-98162381D01*
X67428571Y-98114762D01*
X67333333Y-98019524D01*
X67285714Y-97924286D01*
X67238095Y-97733810D01*
X67238095Y-97590952D01*
X67285714Y-97400476D01*
X67333333Y-97305238D01*
X67428571Y-97210000D01*
X67571429Y-97162381D01*
X67666667Y-97162381D01*
X67809524Y-97210000D01*
X67857143Y-97257619D01*
X68190476Y-97162381D02*
X68809524Y-97162381D01*
X68476190Y-97543333D01*
X68619048Y-97543333D01*
X68714286Y-97590952D01*
X68761905Y-97638571D01*
X68809524Y-97733810D01*
X68809524Y-97971905D01*
X68761905Y-98067143D01*
X68714286Y-98114762D01*
X68619048Y-98162381D01*
X68333333Y-98162381D01*
X68238095Y-98114762D01*
X68190476Y-98067143D01*
X69142857Y-97162381D02*
X69809524Y-97162381D01*
X69380952Y-98162381D01*
X127727143Y-97327143D02*
X127679524Y-97374762D01*
X127536667Y-97422381D01*
X127441429Y-97422381D01*
X127298571Y-97374762D01*
X127203333Y-97279524D01*
X127155714Y-97184286D01*
X127108095Y-96993810D01*
X127108095Y-96850952D01*
X127155714Y-96660476D01*
X127203333Y-96565238D01*
X127298571Y-96470000D01*
X127441429Y-96422381D01*
X127536667Y-96422381D01*
X127679524Y-96470000D01*
X127727143Y-96517619D01*
X128060476Y-96422381D02*
X128679524Y-96422381D01*
X128346190Y-96803333D01*
X128489048Y-96803333D01*
X128584286Y-96850952D01*
X128631905Y-96898571D01*
X128679524Y-96993810D01*
X128679524Y-97231905D01*
X128631905Y-97327143D01*
X128584286Y-97374762D01*
X128489048Y-97422381D01*
X128203333Y-97422381D01*
X128108095Y-97374762D01*
X128060476Y-97327143D01*
X129250952Y-96850952D02*
X129155714Y-96803333D01*
X129108095Y-96755714D01*
X129060476Y-96660476D01*
X129060476Y-96612857D01*
X129108095Y-96517619D01*
X129155714Y-96470000D01*
X129250952Y-96422381D01*
X129441429Y-96422381D01*
X129536667Y-96470000D01*
X129584286Y-96517619D01*
X129631905Y-96612857D01*
X129631905Y-96660476D01*
X129584286Y-96755714D01*
X129536667Y-96803333D01*
X129441429Y-96850952D01*
X129250952Y-96850952D01*
X129155714Y-96898571D01*
X129108095Y-96946190D01*
X129060476Y-97041429D01*
X129060476Y-97231905D01*
X129108095Y-97327143D01*
X129155714Y-97374762D01*
X129250952Y-97422381D01*
X129441429Y-97422381D01*
X129536667Y-97374762D01*
X129584286Y-97327143D01*
X129631905Y-97231905D01*
X129631905Y-97041429D01*
X129584286Y-96946190D01*
X129536667Y-96898571D01*
X129441429Y-96850952D01*
X75882143Y-85992857D02*
X75929762Y-86040476D01*
X75977381Y-86183333D01*
X75977381Y-86278571D01*
X75929762Y-86421429D01*
X75834524Y-86516667D01*
X75739286Y-86564286D01*
X75548810Y-86611905D01*
X75405952Y-86611905D01*
X75215476Y-86564286D01*
X75120238Y-86516667D01*
X75025000Y-86421429D01*
X74977381Y-86278571D01*
X74977381Y-86183333D01*
X75025000Y-86040476D01*
X75072619Y-85992857D01*
X75310714Y-85135714D02*
X75977381Y-85135714D01*
X74929762Y-85373810D02*
X75644048Y-85611905D01*
X75644048Y-84992857D01*
X74977381Y-84421429D02*
X74977381Y-84326190D01*
X75025000Y-84230952D01*
X75072619Y-84183333D01*
X75167857Y-84135714D01*
X75358333Y-84088095D01*
X75596429Y-84088095D01*
X75786905Y-84135714D01*
X75882143Y-84183333D01*
X75929762Y-84230952D01*
X75977381Y-84326190D01*
X75977381Y-84421429D01*
X75929762Y-84516667D01*
X75882143Y-84564286D01*
X75786905Y-84611905D01*
X75596429Y-84659524D01*
X75358333Y-84659524D01*
X75167857Y-84611905D01*
X75072619Y-84564286D01*
X75025000Y-84516667D01*
X74977381Y-84421429D01*
X79657143Y-70257143D02*
X79609524Y-70304762D01*
X79466667Y-70352381D01*
X79371429Y-70352381D01*
X79228571Y-70304762D01*
X79133333Y-70209524D01*
X79085714Y-70114286D01*
X79038095Y-69923810D01*
X79038095Y-69780952D01*
X79085714Y-69590476D01*
X79133333Y-69495238D01*
X79228571Y-69400000D01*
X79371429Y-69352381D01*
X79466667Y-69352381D01*
X79609524Y-69400000D01*
X79657143Y-69447619D01*
X80514286Y-69685714D02*
X80514286Y-70352381D01*
X80276190Y-69304762D02*
X80038095Y-70019048D01*
X80657143Y-70019048D01*
X81561905Y-70352381D02*
X80990476Y-70352381D01*
X81276190Y-70352381D02*
X81276190Y-69352381D01*
X81180952Y-69495238D01*
X81085714Y-69590476D01*
X80990476Y-69638095D01*
X52057143Y-78612857D02*
X52104762Y-78660476D01*
X52152381Y-78803333D01*
X52152381Y-78898571D01*
X52104762Y-79041429D01*
X52009524Y-79136667D01*
X51914286Y-79184286D01*
X51723810Y-79231905D01*
X51580952Y-79231905D01*
X51390476Y-79184286D01*
X51295238Y-79136667D01*
X51200000Y-79041429D01*
X51152381Y-78898571D01*
X51152381Y-78803333D01*
X51200000Y-78660476D01*
X51247619Y-78612857D01*
X51485714Y-77755714D02*
X52152381Y-77755714D01*
X51104762Y-77993810D02*
X51819048Y-78231905D01*
X51819048Y-77612857D01*
X51152381Y-77327143D02*
X51152381Y-76708095D01*
X51533333Y-77041429D01*
X51533333Y-76898571D01*
X51580952Y-76803333D01*
X51628571Y-76755714D01*
X51723810Y-76708095D01*
X51961905Y-76708095D01*
X52057143Y-76755714D01*
X52104762Y-76803333D01*
X52152381Y-76898571D01*
X52152381Y-77184286D01*
X52104762Y-77279524D01*
X52057143Y-77327143D01*
X85937143Y-109522857D02*
X85984762Y-109570476D01*
X86032381Y-109713333D01*
X86032381Y-109808571D01*
X85984762Y-109951429D01*
X85889524Y-110046667D01*
X85794286Y-110094286D01*
X85603810Y-110141905D01*
X85460952Y-110141905D01*
X85270476Y-110094286D01*
X85175238Y-110046667D01*
X85080000Y-109951429D01*
X85032381Y-109808571D01*
X85032381Y-109713333D01*
X85080000Y-109570476D01*
X85127619Y-109522857D01*
X85365714Y-108665714D02*
X86032381Y-108665714D01*
X84984762Y-108903810D02*
X85699048Y-109141905D01*
X85699048Y-108522857D01*
X85365714Y-107713333D02*
X86032381Y-107713333D01*
X84984762Y-107951429D02*
X85699048Y-108189524D01*
X85699048Y-107570476D01*
X53607143Y-74142857D02*
X53654762Y-74190476D01*
X53702381Y-74333333D01*
X53702381Y-74428571D01*
X53654762Y-74571429D01*
X53559524Y-74666667D01*
X53464286Y-74714286D01*
X53273810Y-74761905D01*
X53130952Y-74761905D01*
X52940476Y-74714286D01*
X52845238Y-74666667D01*
X52750000Y-74571429D01*
X52702381Y-74428571D01*
X52702381Y-74333333D01*
X52750000Y-74190476D01*
X52797619Y-74142857D01*
X53035714Y-73285714D02*
X53702381Y-73285714D01*
X52654762Y-73523810D02*
X53369048Y-73761905D01*
X53369048Y-73142857D01*
X52702381Y-72285714D02*
X52702381Y-72761905D01*
X53178571Y-72809524D01*
X53130952Y-72761905D01*
X53083333Y-72666667D01*
X53083333Y-72428571D01*
X53130952Y-72333333D01*
X53178571Y-72285714D01*
X53273810Y-72238095D01*
X53511905Y-72238095D01*
X53607143Y-72285714D01*
X53654762Y-72333333D01*
X53702381Y-72428571D01*
X53702381Y-72666667D01*
X53654762Y-72761905D01*
X53607143Y-72809524D01*
X108547143Y-85217143D02*
X108499524Y-85264762D01*
X108356667Y-85312381D01*
X108261429Y-85312381D01*
X108118571Y-85264762D01*
X108023333Y-85169524D01*
X107975714Y-85074286D01*
X107928095Y-84883810D01*
X107928095Y-84740952D01*
X107975714Y-84550476D01*
X108023333Y-84455238D01*
X108118571Y-84360000D01*
X108261429Y-84312381D01*
X108356667Y-84312381D01*
X108499524Y-84360000D01*
X108547143Y-84407619D01*
X109404286Y-84645714D02*
X109404286Y-85312381D01*
X109166190Y-84264762D02*
X108928095Y-84979048D01*
X109547143Y-84979048D01*
X110356667Y-84312381D02*
X110166190Y-84312381D01*
X110070952Y-84360000D01*
X110023333Y-84407619D01*
X109928095Y-84550476D01*
X109880476Y-84740952D01*
X109880476Y-85121905D01*
X109928095Y-85217143D01*
X109975714Y-85264762D01*
X110070952Y-85312381D01*
X110261429Y-85312381D01*
X110356667Y-85264762D01*
X110404286Y-85217143D01*
X110451905Y-85121905D01*
X110451905Y-84883810D01*
X110404286Y-84788571D01*
X110356667Y-84740952D01*
X110261429Y-84693333D01*
X110070952Y-84693333D01*
X109975714Y-84740952D01*
X109928095Y-84788571D01*
X109880476Y-84883810D01*
X55807143Y-62792857D02*
X55854762Y-62840476D01*
X55902381Y-62983333D01*
X55902381Y-63078571D01*
X55854762Y-63221429D01*
X55759524Y-63316667D01*
X55664286Y-63364286D01*
X55473810Y-63411905D01*
X55330952Y-63411905D01*
X55140476Y-63364286D01*
X55045238Y-63316667D01*
X54950000Y-63221429D01*
X54902381Y-63078571D01*
X54902381Y-62983333D01*
X54950000Y-62840476D01*
X54997619Y-62792857D01*
X55235714Y-61935714D02*
X55902381Y-61935714D01*
X54854762Y-62173810D02*
X55569048Y-62411905D01*
X55569048Y-61792857D01*
X55330952Y-61269048D02*
X55283333Y-61364286D01*
X55235714Y-61411905D01*
X55140476Y-61459524D01*
X55092857Y-61459524D01*
X54997619Y-61411905D01*
X54950000Y-61364286D01*
X54902381Y-61269048D01*
X54902381Y-61078571D01*
X54950000Y-60983333D01*
X54997619Y-60935714D01*
X55092857Y-60888095D01*
X55140476Y-60888095D01*
X55235714Y-60935714D01*
X55283333Y-60983333D01*
X55330952Y-61078571D01*
X55330952Y-61269048D01*
X55378571Y-61364286D01*
X55426190Y-61411905D01*
X55521429Y-61459524D01*
X55711905Y-61459524D01*
X55807143Y-61411905D01*
X55854762Y-61364286D01*
X55902381Y-61269048D01*
X55902381Y-61078571D01*
X55854762Y-60983333D01*
X55807143Y-60935714D01*
X55711905Y-60888095D01*
X55521429Y-60888095D01*
X55426190Y-60935714D01*
X55378571Y-60983333D01*
X55330952Y-61078571D01*
X55207143Y-75852857D02*
X55254762Y-75900476D01*
X55302381Y-76043333D01*
X55302381Y-76138571D01*
X55254762Y-76281429D01*
X55159524Y-76376667D01*
X55064286Y-76424286D01*
X54873810Y-76471905D01*
X54730952Y-76471905D01*
X54540476Y-76424286D01*
X54445238Y-76376667D01*
X54350000Y-76281429D01*
X54302381Y-76138571D01*
X54302381Y-76043333D01*
X54350000Y-75900476D01*
X54397619Y-75852857D01*
X54302381Y-74948095D02*
X54302381Y-75424286D01*
X54778571Y-75471905D01*
X54730952Y-75424286D01*
X54683333Y-75329048D01*
X54683333Y-75090952D01*
X54730952Y-74995714D01*
X54778571Y-74948095D01*
X54873810Y-74900476D01*
X55111905Y-74900476D01*
X55207143Y-74948095D01*
X55254762Y-74995714D01*
X55302381Y-75090952D01*
X55302381Y-75329048D01*
X55254762Y-75424286D01*
X55207143Y-75471905D01*
X54302381Y-74043333D02*
X54302381Y-74233810D01*
X54350000Y-74329048D01*
X54397619Y-74376667D01*
X54540476Y-74471905D01*
X54730952Y-74519524D01*
X55111905Y-74519524D01*
X55207143Y-74471905D01*
X55254762Y-74424286D01*
X55302381Y-74329048D01*
X55302381Y-74138571D01*
X55254762Y-74043333D01*
X55207143Y-73995714D01*
X55111905Y-73948095D01*
X54873810Y-73948095D01*
X54778571Y-73995714D01*
X54730952Y-74043333D01*
X54683333Y-74138571D01*
X54683333Y-74329048D01*
X54730952Y-74424286D01*
X54778571Y-74471905D01*
X54873810Y-74519524D01*
X91792381Y-90318095D02*
X90792381Y-90318095D01*
X90792381Y-90080000D01*
X90840000Y-89937142D01*
X90935238Y-89841904D01*
X91030476Y-89794285D01*
X91220952Y-89746666D01*
X91363810Y-89746666D01*
X91554286Y-89794285D01*
X91649524Y-89841904D01*
X91744762Y-89937142D01*
X91792381Y-90080000D01*
X91792381Y-90318095D01*
X90792381Y-89413333D02*
X90792381Y-88794285D01*
X91173333Y-89127619D01*
X91173333Y-88984761D01*
X91220952Y-88889523D01*
X91268571Y-88841904D01*
X91363810Y-88794285D01*
X91601905Y-88794285D01*
X91697143Y-88841904D01*
X91744762Y-88889523D01*
X91792381Y-88984761D01*
X91792381Y-89270476D01*
X91744762Y-89365714D01*
X91697143Y-89413333D01*
X108541905Y-93072381D02*
X108541905Y-92072381D01*
X108780000Y-92072381D01*
X108922858Y-92120000D01*
X109018096Y-92215238D01*
X109065715Y-92310476D01*
X109113334Y-92500952D01*
X109113334Y-92643810D01*
X109065715Y-92834286D01*
X109018096Y-92929524D01*
X108922858Y-93024762D01*
X108780000Y-93072381D01*
X108541905Y-93072381D01*
X109970477Y-92072381D02*
X109780000Y-92072381D01*
X109684762Y-92120000D01*
X109637143Y-92167619D01*
X109541905Y-92310476D01*
X109494286Y-92500952D01*
X109494286Y-92881905D01*
X109541905Y-92977143D01*
X109589524Y-93024762D01*
X109684762Y-93072381D01*
X109875239Y-93072381D01*
X109970477Y-93024762D01*
X110018096Y-92977143D01*
X110065715Y-92881905D01*
X110065715Y-92643810D01*
X110018096Y-92548571D01*
X109970477Y-92500952D01*
X109875239Y-92453333D01*
X109684762Y-92453333D01*
X109589524Y-92500952D01*
X109541905Y-92548571D01*
X109494286Y-92643810D01*
X95891905Y-112297381D02*
X95891905Y-111297381D01*
X96130000Y-111297381D01*
X96272858Y-111345000D01*
X96368096Y-111440238D01*
X96415715Y-111535476D01*
X96463334Y-111725952D01*
X96463334Y-111868810D01*
X96415715Y-112059286D01*
X96368096Y-112154524D01*
X96272858Y-112249762D01*
X96130000Y-112297381D01*
X95891905Y-112297381D01*
X97034762Y-111725952D02*
X96939524Y-111678333D01*
X96891905Y-111630714D01*
X96844286Y-111535476D01*
X96844286Y-111487857D01*
X96891905Y-111392619D01*
X96939524Y-111345000D01*
X97034762Y-111297381D01*
X97225239Y-111297381D01*
X97320477Y-111345000D01*
X97368096Y-111392619D01*
X97415715Y-111487857D01*
X97415715Y-111535476D01*
X97368096Y-111630714D01*
X97320477Y-111678333D01*
X97225239Y-111725952D01*
X97034762Y-111725952D01*
X96939524Y-111773571D01*
X96891905Y-111821190D01*
X96844286Y-111916429D01*
X96844286Y-112106905D01*
X96891905Y-112202143D01*
X96939524Y-112249762D01*
X97034762Y-112297381D01*
X97225239Y-112297381D01*
X97320477Y-112249762D01*
X97368096Y-112202143D01*
X97415715Y-112106905D01*
X97415715Y-111916429D01*
X97368096Y-111821190D01*
X97320477Y-111773571D01*
X97225239Y-111725952D01*
X129052381Y-90114286D02*
X128052381Y-90114286D01*
X128052381Y-89876191D01*
X128100000Y-89733333D01*
X128195238Y-89638095D01*
X128290476Y-89590476D01*
X128480952Y-89542857D01*
X128623810Y-89542857D01*
X128814286Y-89590476D01*
X128909524Y-89638095D01*
X129004762Y-89733333D01*
X129052381Y-89876191D01*
X129052381Y-90114286D01*
X129052381Y-88590476D02*
X129052381Y-89161905D01*
X129052381Y-88876191D02*
X128052381Y-88876191D01*
X128195238Y-88971429D01*
X128290476Y-89066667D01*
X128338095Y-89161905D01*
X128052381Y-87971429D02*
X128052381Y-87876190D01*
X128100000Y-87780952D01*
X128147619Y-87733333D01*
X128242857Y-87685714D01*
X128433333Y-87638095D01*
X128671429Y-87638095D01*
X128861905Y-87685714D01*
X128957143Y-87733333D01*
X129004762Y-87780952D01*
X129052381Y-87876190D01*
X129052381Y-87971429D01*
X129004762Y-88066667D01*
X128957143Y-88114286D01*
X128861905Y-88161905D01*
X128671429Y-88209524D01*
X128433333Y-88209524D01*
X128242857Y-88161905D01*
X128147619Y-88114286D01*
X128100000Y-88066667D01*
X128052381Y-87971429D01*
X81502381Y-84614286D02*
X80502381Y-84614286D01*
X80502381Y-84376191D01*
X80550000Y-84233333D01*
X80645238Y-84138095D01*
X80740476Y-84090476D01*
X80930952Y-84042857D01*
X81073810Y-84042857D01*
X81264286Y-84090476D01*
X81359524Y-84138095D01*
X81454762Y-84233333D01*
X81502381Y-84376191D01*
X81502381Y-84614286D01*
X81502381Y-83090476D02*
X81502381Y-83661905D01*
X81502381Y-83376191D02*
X80502381Y-83376191D01*
X80645238Y-83471429D01*
X80740476Y-83566667D01*
X80788095Y-83661905D01*
X80502381Y-82757143D02*
X80502381Y-82138095D01*
X80883333Y-82471429D01*
X80883333Y-82328571D01*
X80930952Y-82233333D01*
X80978571Y-82185714D01*
X81073810Y-82138095D01*
X81311905Y-82138095D01*
X81407143Y-82185714D01*
X81454762Y-82233333D01*
X81502381Y-82328571D01*
X81502381Y-82614286D01*
X81454762Y-82709524D01*
X81407143Y-82757143D01*
X106947619Y-81515238D02*
X106900000Y-81610476D01*
X106804762Y-81705714D01*
X106661905Y-81848571D01*
X106614286Y-81943810D01*
X106614286Y-82039048D01*
X106852381Y-81991429D02*
X106804762Y-82086667D01*
X106709524Y-82181905D01*
X106519048Y-82229524D01*
X106185714Y-82229524D01*
X105995238Y-82181905D01*
X105900000Y-82086667D01*
X105852381Y-81991429D01*
X105852381Y-81800952D01*
X105900000Y-81705714D01*
X105995238Y-81610476D01*
X106185714Y-81562857D01*
X106519048Y-81562857D01*
X106709524Y-81610476D01*
X106804762Y-81705714D01*
X106852381Y-81800952D01*
X106852381Y-81991429D01*
X106852381Y-80610476D02*
X106852381Y-81181905D01*
X106852381Y-80896191D02*
X105852381Y-80896191D01*
X105995238Y-80991429D01*
X106090476Y-81086667D01*
X106138095Y-81181905D01*
X38027619Y-81515238D02*
X37980000Y-81610476D01*
X37884762Y-81705714D01*
X37741905Y-81848571D01*
X37694286Y-81943810D01*
X37694286Y-82039048D01*
X37932381Y-81991429D02*
X37884762Y-82086667D01*
X37789524Y-82181905D01*
X37599048Y-82229524D01*
X37265714Y-82229524D01*
X37075238Y-82181905D01*
X36980000Y-82086667D01*
X36932381Y-81991429D01*
X36932381Y-81800952D01*
X36980000Y-81705714D01*
X37075238Y-81610476D01*
X37265714Y-81562857D01*
X37599048Y-81562857D01*
X37789524Y-81610476D01*
X37884762Y-81705714D01*
X37932381Y-81800952D01*
X37932381Y-81991429D01*
X37027619Y-81181905D02*
X36980000Y-81134286D01*
X36932381Y-81039048D01*
X36932381Y-80800952D01*
X36980000Y-80705714D01*
X37027619Y-80658095D01*
X37122857Y-80610476D01*
X37218095Y-80610476D01*
X37360952Y-80658095D01*
X37932381Y-81229524D01*
X37932381Y-80610476D01*
X85057619Y-103645238D02*
X85010000Y-103740476D01*
X84914762Y-103835714D01*
X84771905Y-103978571D01*
X84724286Y-104073810D01*
X84724286Y-104169048D01*
X84962381Y-104121429D02*
X84914762Y-104216667D01*
X84819524Y-104311905D01*
X84629048Y-104359524D01*
X84295714Y-104359524D01*
X84105238Y-104311905D01*
X84010000Y-104216667D01*
X83962381Y-104121429D01*
X83962381Y-103930952D01*
X84010000Y-103835714D01*
X84105238Y-103740476D01*
X84295714Y-103692857D01*
X84629048Y-103692857D01*
X84819524Y-103740476D01*
X84914762Y-103835714D01*
X84962381Y-103930952D01*
X84962381Y-104121429D01*
X83962381Y-103359524D02*
X83962381Y-102740476D01*
X84343333Y-103073810D01*
X84343333Y-102930952D01*
X84390952Y-102835714D01*
X84438571Y-102788095D01*
X84533810Y-102740476D01*
X84771905Y-102740476D01*
X84867143Y-102788095D01*
X84914762Y-102835714D01*
X84962381Y-102930952D01*
X84962381Y-103216667D01*
X84914762Y-103311905D01*
X84867143Y-103359524D01*
X119254762Y-100297619D02*
X119159524Y-100250000D01*
X119064286Y-100154762D01*
X118921429Y-100011905D01*
X118826190Y-99964286D01*
X118730952Y-99964286D01*
X118778571Y-100202381D02*
X118683333Y-100154762D01*
X118588095Y-100059524D01*
X118540476Y-99869048D01*
X118540476Y-99535714D01*
X118588095Y-99345238D01*
X118683333Y-99250000D01*
X118778571Y-99202381D01*
X118969048Y-99202381D01*
X119064286Y-99250000D01*
X119159524Y-99345238D01*
X119207143Y-99535714D01*
X119207143Y-99869048D01*
X119159524Y-100059524D01*
X119064286Y-100154762D01*
X118969048Y-100202381D01*
X118778571Y-100202381D01*
X120064286Y-99535714D02*
X120064286Y-100202381D01*
X119826190Y-99154762D02*
X119588095Y-99869048D01*
X120207143Y-99869048D01*
X42684762Y-75087619D02*
X42589524Y-75040000D01*
X42494286Y-74944762D01*
X42351429Y-74801905D01*
X42256190Y-74754286D01*
X42160952Y-74754286D01*
X42208571Y-74992381D02*
X42113333Y-74944762D01*
X42018095Y-74849524D01*
X41970476Y-74659048D01*
X41970476Y-74325714D01*
X42018095Y-74135238D01*
X42113333Y-74040000D01*
X42208571Y-73992381D01*
X42399048Y-73992381D01*
X42494286Y-74040000D01*
X42589524Y-74135238D01*
X42637143Y-74325714D01*
X42637143Y-74659048D01*
X42589524Y-74849524D01*
X42494286Y-74944762D01*
X42399048Y-74992381D01*
X42208571Y-74992381D01*
X43541905Y-73992381D02*
X43065714Y-73992381D01*
X43018095Y-74468571D01*
X43065714Y-74420952D01*
X43160952Y-74373333D01*
X43399048Y-74373333D01*
X43494286Y-74420952D01*
X43541905Y-74468571D01*
X43589524Y-74563810D01*
X43589524Y-74801905D01*
X43541905Y-74897143D01*
X43494286Y-74944762D01*
X43399048Y-74992381D01*
X43160952Y-74992381D01*
X43065714Y-74944762D01*
X43018095Y-74897143D01*
X93757619Y-103645238D02*
X93710000Y-103740476D01*
X93614762Y-103835714D01*
X93471905Y-103978571D01*
X93424286Y-104073810D01*
X93424286Y-104169048D01*
X93662381Y-104121429D02*
X93614762Y-104216667D01*
X93519524Y-104311905D01*
X93329048Y-104359524D01*
X92995714Y-104359524D01*
X92805238Y-104311905D01*
X92710000Y-104216667D01*
X92662381Y-104121429D01*
X92662381Y-103930952D01*
X92710000Y-103835714D01*
X92805238Y-103740476D01*
X92995714Y-103692857D01*
X93329048Y-103692857D01*
X93519524Y-103740476D01*
X93614762Y-103835714D01*
X93662381Y-103930952D01*
X93662381Y-104121429D01*
X92662381Y-102835714D02*
X92662381Y-103026191D01*
X92710000Y-103121429D01*
X92757619Y-103169048D01*
X92900476Y-103264286D01*
X93090952Y-103311905D01*
X93471905Y-103311905D01*
X93567143Y-103264286D01*
X93614762Y-103216667D01*
X93662381Y-103121429D01*
X93662381Y-102930952D01*
X93614762Y-102835714D01*
X93567143Y-102788095D01*
X93471905Y-102740476D01*
X93233810Y-102740476D01*
X93138571Y-102788095D01*
X93090952Y-102835714D01*
X93043333Y-102930952D01*
X93043333Y-103121429D01*
X93090952Y-103216667D01*
X93138571Y-103264286D01*
X93233810Y-103311905D01*
X117404762Y-91447619D02*
X117309524Y-91400000D01*
X117214286Y-91304762D01*
X117071429Y-91161905D01*
X116976190Y-91114286D01*
X116880952Y-91114286D01*
X116928571Y-91352381D02*
X116833333Y-91304762D01*
X116738095Y-91209524D01*
X116690476Y-91019048D01*
X116690476Y-90685714D01*
X116738095Y-90495238D01*
X116833333Y-90400000D01*
X116928571Y-90352381D01*
X117119048Y-90352381D01*
X117214286Y-90400000D01*
X117309524Y-90495238D01*
X117357143Y-90685714D01*
X117357143Y-91019048D01*
X117309524Y-91209524D01*
X117214286Y-91304762D01*
X117119048Y-91352381D01*
X116928571Y-91352381D01*
X117690476Y-90352381D02*
X118357143Y-90352381D01*
X117928571Y-91352381D01*
X74947619Y-75095238D02*
X74900000Y-75190476D01*
X74804762Y-75285714D01*
X74661905Y-75428571D01*
X74614286Y-75523810D01*
X74614286Y-75619048D01*
X74852381Y-75571429D02*
X74804762Y-75666667D01*
X74709524Y-75761905D01*
X74519048Y-75809524D01*
X74185714Y-75809524D01*
X73995238Y-75761905D01*
X73900000Y-75666667D01*
X73852381Y-75571429D01*
X73852381Y-75380952D01*
X73900000Y-75285714D01*
X73995238Y-75190476D01*
X74185714Y-75142857D01*
X74519048Y-75142857D01*
X74709524Y-75190476D01*
X74804762Y-75285714D01*
X74852381Y-75380952D01*
X74852381Y-75571429D01*
X74280952Y-74571429D02*
X74233333Y-74666667D01*
X74185714Y-74714286D01*
X74090476Y-74761905D01*
X74042857Y-74761905D01*
X73947619Y-74714286D01*
X73900000Y-74666667D01*
X73852381Y-74571429D01*
X73852381Y-74380952D01*
X73900000Y-74285714D01*
X73947619Y-74238095D01*
X74042857Y-74190476D01*
X74090476Y-74190476D01*
X74185714Y-74238095D01*
X74233333Y-74285714D01*
X74280952Y-74380952D01*
X74280952Y-74571429D01*
X74328571Y-74666667D01*
X74376190Y-74714286D01*
X74471429Y-74761905D01*
X74661905Y-74761905D01*
X74757143Y-74714286D01*
X74804762Y-74666667D01*
X74852381Y-74571429D01*
X74852381Y-74380952D01*
X74804762Y-74285714D01*
X74757143Y-74238095D01*
X74661905Y-74190476D01*
X74471429Y-74190476D01*
X74376190Y-74238095D01*
X74328571Y-74285714D01*
X74280952Y-74380952D01*
X70804762Y-69347619D02*
X70709524Y-69300000D01*
X70614286Y-69204762D01*
X70471429Y-69061905D01*
X70376190Y-69014286D01*
X70280952Y-69014286D01*
X70328571Y-69252381D02*
X70233333Y-69204762D01*
X70138095Y-69109524D01*
X70090476Y-68919048D01*
X70090476Y-68585714D01*
X70138095Y-68395238D01*
X70233333Y-68300000D01*
X70328571Y-68252381D01*
X70519048Y-68252381D01*
X70614286Y-68300000D01*
X70709524Y-68395238D01*
X70757143Y-68585714D01*
X70757143Y-68919048D01*
X70709524Y-69109524D01*
X70614286Y-69204762D01*
X70519048Y-69252381D01*
X70328571Y-69252381D01*
X71233333Y-69252381D02*
X71423809Y-69252381D01*
X71519048Y-69204762D01*
X71566667Y-69157143D01*
X71661905Y-69014286D01*
X71709524Y-68823810D01*
X71709524Y-68442857D01*
X71661905Y-68347619D01*
X71614286Y-68300000D01*
X71519048Y-68252381D01*
X71328571Y-68252381D01*
X71233333Y-68300000D01*
X71185714Y-68347619D01*
X71138095Y-68442857D01*
X71138095Y-68680952D01*
X71185714Y-68776190D01*
X71233333Y-68823810D01*
X71328571Y-68871429D01*
X71519048Y-68871429D01*
X71614286Y-68823810D01*
X71661905Y-68776190D01*
X71709524Y-68680952D01*
X88177619Y-60711428D02*
X88130000Y-60806666D01*
X88034762Y-60901904D01*
X87891905Y-61044761D01*
X87844286Y-61140000D01*
X87844286Y-61235238D01*
X88082381Y-61187619D02*
X88034762Y-61282857D01*
X87939524Y-61378095D01*
X87749048Y-61425714D01*
X87415714Y-61425714D01*
X87225238Y-61378095D01*
X87130000Y-61282857D01*
X87082381Y-61187619D01*
X87082381Y-60997142D01*
X87130000Y-60901904D01*
X87225238Y-60806666D01*
X87415714Y-60759047D01*
X87749048Y-60759047D01*
X87939524Y-60806666D01*
X88034762Y-60901904D01*
X88082381Y-60997142D01*
X88082381Y-61187619D01*
X88082381Y-59806666D02*
X88082381Y-60378095D01*
X88082381Y-60092381D02*
X87082381Y-60092381D01*
X87225238Y-60187619D01*
X87320476Y-60282857D01*
X87368095Y-60378095D01*
X87082381Y-59187619D02*
X87082381Y-59092380D01*
X87130000Y-58997142D01*
X87177619Y-58949523D01*
X87272857Y-58901904D01*
X87463333Y-58854285D01*
X87701429Y-58854285D01*
X87891905Y-58901904D01*
X87987143Y-58949523D01*
X88034762Y-58997142D01*
X88082381Y-59092380D01*
X88082381Y-59187619D01*
X88034762Y-59282857D01*
X87987143Y-59330476D01*
X87891905Y-59378095D01*
X87701429Y-59425714D01*
X87463333Y-59425714D01*
X87272857Y-59378095D01*
X87177619Y-59330476D01*
X87130000Y-59282857D01*
X87082381Y-59187619D01*
X44333334Y-72952381D02*
X44000000Y-72476190D01*
X43761905Y-72952381D02*
X43761905Y-71952381D01*
X44142858Y-71952381D01*
X44238096Y-72000000D01*
X44285715Y-72047619D01*
X44333334Y-72142857D01*
X44333334Y-72285714D01*
X44285715Y-72380952D01*
X44238096Y-72428571D01*
X44142858Y-72476190D01*
X43761905Y-72476190D01*
X45285715Y-72952381D02*
X44714286Y-72952381D01*
X45000000Y-72952381D02*
X45000000Y-71952381D01*
X44904762Y-72095238D01*
X44809524Y-72190476D01*
X44714286Y-72238095D01*
X94033334Y-68752381D02*
X93700000Y-68276190D01*
X93461905Y-68752381D02*
X93461905Y-67752381D01*
X93842858Y-67752381D01*
X93938096Y-67800000D01*
X93985715Y-67847619D01*
X94033334Y-67942857D01*
X94033334Y-68085714D01*
X93985715Y-68180952D01*
X93938096Y-68228571D01*
X93842858Y-68276190D01*
X93461905Y-68276190D01*
X94414286Y-67847619D02*
X94461905Y-67800000D01*
X94557143Y-67752381D01*
X94795239Y-67752381D01*
X94890477Y-67800000D01*
X94938096Y-67847619D01*
X94985715Y-67942857D01*
X94985715Y-68038095D01*
X94938096Y-68180952D01*
X94366667Y-68752381D01*
X94985715Y-68752381D01*
X35633334Y-74852381D02*
X35300000Y-74376190D01*
X35061905Y-74852381D02*
X35061905Y-73852381D01*
X35442858Y-73852381D01*
X35538096Y-73900000D01*
X35585715Y-73947619D01*
X35633334Y-74042857D01*
X35633334Y-74185714D01*
X35585715Y-74280952D01*
X35538096Y-74328571D01*
X35442858Y-74376190D01*
X35061905Y-74376190D01*
X36490477Y-74185714D02*
X36490477Y-74852381D01*
X36252381Y-73804762D02*
X36014286Y-74519048D01*
X36633334Y-74519048D01*
X35553334Y-80792381D02*
X35220000Y-80316190D01*
X34981905Y-80792381D02*
X34981905Y-79792381D01*
X35362858Y-79792381D01*
X35458096Y-79840000D01*
X35505715Y-79887619D01*
X35553334Y-79982857D01*
X35553334Y-80125714D01*
X35505715Y-80220952D01*
X35458096Y-80268571D01*
X35362858Y-80316190D01*
X34981905Y-80316190D01*
X36458096Y-79792381D02*
X35981905Y-79792381D01*
X35934286Y-80268571D01*
X35981905Y-80220952D01*
X36077143Y-80173333D01*
X36315239Y-80173333D01*
X36410477Y-80220952D01*
X36458096Y-80268571D01*
X36505715Y-80363810D01*
X36505715Y-80601905D01*
X36458096Y-80697143D01*
X36410477Y-80744762D01*
X36315239Y-80792381D01*
X36077143Y-80792381D01*
X35981905Y-80744762D01*
X35934286Y-80697143D01*
X89652381Y-98116666D02*
X89176190Y-98450000D01*
X89652381Y-98688095D02*
X88652381Y-98688095D01*
X88652381Y-98307142D01*
X88700000Y-98211904D01*
X88747619Y-98164285D01*
X88842857Y-98116666D01*
X88985714Y-98116666D01*
X89080952Y-98164285D01*
X89128571Y-98211904D01*
X89176190Y-98307142D01*
X89176190Y-98688095D01*
X88652381Y-97259523D02*
X88652381Y-97450000D01*
X88700000Y-97545238D01*
X88747619Y-97592857D01*
X88890476Y-97688095D01*
X89080952Y-97735714D01*
X89461905Y-97735714D01*
X89557143Y-97688095D01*
X89604762Y-97640476D01*
X89652381Y-97545238D01*
X89652381Y-97354761D01*
X89604762Y-97259523D01*
X89557143Y-97211904D01*
X89461905Y-97164285D01*
X89223810Y-97164285D01*
X89128571Y-97211904D01*
X89080952Y-97259523D01*
X89033333Y-97354761D01*
X89033333Y-97545238D01*
X89080952Y-97640476D01*
X89128571Y-97688095D01*
X89223810Y-97735714D01*
X83742381Y-98116666D02*
X83266190Y-98450000D01*
X83742381Y-98688095D02*
X82742381Y-98688095D01*
X82742381Y-98307142D01*
X82790000Y-98211904D01*
X82837619Y-98164285D01*
X82932857Y-98116666D01*
X83075714Y-98116666D01*
X83170952Y-98164285D01*
X83218571Y-98211904D01*
X83266190Y-98307142D01*
X83266190Y-98688095D01*
X82742381Y-97783333D02*
X82742381Y-97116666D01*
X83742381Y-97545238D01*
X113207143Y-95242381D02*
X112873809Y-94766190D01*
X112635714Y-95242381D02*
X112635714Y-94242381D01*
X113016667Y-94242381D01*
X113111905Y-94290000D01*
X113159524Y-94337619D01*
X113207143Y-94432857D01*
X113207143Y-94575714D01*
X113159524Y-94670952D01*
X113111905Y-94718571D01*
X113016667Y-94766190D01*
X112635714Y-94766190D01*
X114159524Y-95242381D02*
X113588095Y-95242381D01*
X113873809Y-95242381D02*
X113873809Y-94242381D01*
X113778571Y-94385238D01*
X113683333Y-94480476D01*
X113588095Y-94528095D01*
X114778571Y-94242381D02*
X114873810Y-94242381D01*
X114969048Y-94290000D01*
X115016667Y-94337619D01*
X115064286Y-94432857D01*
X115111905Y-94623333D01*
X115111905Y-94861429D01*
X115064286Y-95051905D01*
X115016667Y-95147143D01*
X114969048Y-95194762D01*
X114873810Y-95242381D01*
X114778571Y-95242381D01*
X114683333Y-95194762D01*
X114635714Y-95147143D01*
X114588095Y-95051905D01*
X114540476Y-94861429D01*
X114540476Y-94623333D01*
X114588095Y-94432857D01*
X114635714Y-94337619D01*
X114683333Y-94290000D01*
X114778571Y-94242381D01*
X38857143Y-87352381D02*
X38523809Y-86876190D01*
X38285714Y-87352381D02*
X38285714Y-86352381D01*
X38666667Y-86352381D01*
X38761905Y-86400000D01*
X38809524Y-86447619D01*
X38857143Y-86542857D01*
X38857143Y-86685714D01*
X38809524Y-86780952D01*
X38761905Y-86828571D01*
X38666667Y-86876190D01*
X38285714Y-86876190D01*
X39809524Y-87352381D02*
X39238095Y-87352381D01*
X39523809Y-87352381D02*
X39523809Y-86352381D01*
X39428571Y-86495238D01*
X39333333Y-86590476D01*
X39238095Y-86638095D01*
X40761905Y-87352381D02*
X40190476Y-87352381D01*
X40476190Y-87352381D02*
X40476190Y-86352381D01*
X40380952Y-86495238D01*
X40285714Y-86590476D01*
X40190476Y-86638095D01*
X97792381Y-99922857D02*
X97316190Y-100256191D01*
X97792381Y-100494286D02*
X96792381Y-100494286D01*
X96792381Y-100113333D01*
X96840000Y-100018095D01*
X96887619Y-99970476D01*
X96982857Y-99922857D01*
X97125714Y-99922857D01*
X97220952Y-99970476D01*
X97268571Y-100018095D01*
X97316190Y-100113333D01*
X97316190Y-100494286D01*
X97792381Y-98970476D02*
X97792381Y-99541905D01*
X97792381Y-99256191D02*
X96792381Y-99256191D01*
X96935238Y-99351429D01*
X97030476Y-99446667D01*
X97078095Y-99541905D01*
X96887619Y-98589524D02*
X96840000Y-98541905D01*
X96792381Y-98446667D01*
X96792381Y-98208571D01*
X96840000Y-98113333D01*
X96887619Y-98065714D01*
X96982857Y-98018095D01*
X97078095Y-98018095D01*
X97220952Y-98065714D01*
X97792381Y-98637143D01*
X97792381Y-98018095D01*
X94597381Y-95792857D02*
X94121190Y-96126191D01*
X94597381Y-96364286D02*
X93597381Y-96364286D01*
X93597381Y-95983333D01*
X93645000Y-95888095D01*
X93692619Y-95840476D01*
X93787857Y-95792857D01*
X93930714Y-95792857D01*
X94025952Y-95840476D01*
X94073571Y-95888095D01*
X94121190Y-95983333D01*
X94121190Y-96364286D01*
X94597381Y-94840476D02*
X94597381Y-95411905D01*
X94597381Y-95126191D02*
X93597381Y-95126191D01*
X93740238Y-95221429D01*
X93835476Y-95316667D01*
X93883095Y-95411905D01*
X93597381Y-94507143D02*
X93597381Y-93888095D01*
X93978333Y-94221429D01*
X93978333Y-94078571D01*
X94025952Y-93983333D01*
X94073571Y-93935714D01*
X94168810Y-93888095D01*
X94406905Y-93888095D01*
X94502143Y-93935714D01*
X94549762Y-93983333D01*
X94597381Y-94078571D01*
X94597381Y-94364286D01*
X94549762Y-94459524D01*
X94502143Y-94507143D01*
X112897143Y-101062381D02*
X112563809Y-100586190D01*
X112325714Y-101062381D02*
X112325714Y-100062381D01*
X112706667Y-100062381D01*
X112801905Y-100110000D01*
X112849524Y-100157619D01*
X112897143Y-100252857D01*
X112897143Y-100395714D01*
X112849524Y-100490952D01*
X112801905Y-100538571D01*
X112706667Y-100586190D01*
X112325714Y-100586190D01*
X113849524Y-101062381D02*
X113278095Y-101062381D01*
X113563809Y-101062381D02*
X113563809Y-100062381D01*
X113468571Y-100205238D01*
X113373333Y-100300476D01*
X113278095Y-100348095D01*
X114706667Y-100395714D02*
X114706667Y-101062381D01*
X114468571Y-100014762D02*
X114230476Y-100729048D01*
X114849524Y-100729048D01*
X113452381Y-91842857D02*
X112976190Y-92176191D01*
X113452381Y-92414286D02*
X112452381Y-92414286D01*
X112452381Y-92033333D01*
X112500000Y-91938095D01*
X112547619Y-91890476D01*
X112642857Y-91842857D01*
X112785714Y-91842857D01*
X112880952Y-91890476D01*
X112928571Y-91938095D01*
X112976190Y-92033333D01*
X112976190Y-92414286D01*
X113452381Y-90890476D02*
X113452381Y-91461905D01*
X113452381Y-91176191D02*
X112452381Y-91176191D01*
X112595238Y-91271429D01*
X112690476Y-91366667D01*
X112738095Y-91461905D01*
X112452381Y-90557143D02*
X112452381Y-89890476D01*
X113452381Y-90319048D01*
X49072381Y-84442857D02*
X48596190Y-84776191D01*
X49072381Y-85014286D02*
X48072381Y-85014286D01*
X48072381Y-84633333D01*
X48120000Y-84538095D01*
X48167619Y-84490476D01*
X48262857Y-84442857D01*
X48405714Y-84442857D01*
X48500952Y-84490476D01*
X48548571Y-84538095D01*
X48596190Y-84633333D01*
X48596190Y-85014286D01*
X49072381Y-83490476D02*
X49072381Y-84061905D01*
X49072381Y-83776191D02*
X48072381Y-83776191D01*
X48215238Y-83871429D01*
X48310476Y-83966667D01*
X48358095Y-84061905D01*
X48500952Y-82919048D02*
X48453333Y-83014286D01*
X48405714Y-83061905D01*
X48310476Y-83109524D01*
X48262857Y-83109524D01*
X48167619Y-83061905D01*
X48120000Y-83014286D01*
X48072381Y-82919048D01*
X48072381Y-82728571D01*
X48120000Y-82633333D01*
X48167619Y-82585714D01*
X48262857Y-82538095D01*
X48310476Y-82538095D01*
X48405714Y-82585714D01*
X48453333Y-82633333D01*
X48500952Y-82728571D01*
X48500952Y-82919048D01*
X48548571Y-83014286D01*
X48596190Y-83061905D01*
X48691429Y-83109524D01*
X48881905Y-83109524D01*
X48977143Y-83061905D01*
X49024762Y-83014286D01*
X49072381Y-82919048D01*
X49072381Y-82728571D01*
X49024762Y-82633333D01*
X48977143Y-82585714D01*
X48881905Y-82538095D01*
X48691429Y-82538095D01*
X48596190Y-82585714D01*
X48548571Y-82633333D01*
X48500952Y-82728571D01*
X43007143Y-86942381D02*
X42673809Y-86466190D01*
X42435714Y-86942381D02*
X42435714Y-85942381D01*
X42816667Y-85942381D01*
X42911905Y-85990000D01*
X42959524Y-86037619D01*
X43007143Y-86132857D01*
X43007143Y-86275714D01*
X42959524Y-86370952D01*
X42911905Y-86418571D01*
X42816667Y-86466190D01*
X42435714Y-86466190D01*
X43959524Y-86942381D02*
X43388095Y-86942381D01*
X43673809Y-86942381D02*
X43673809Y-85942381D01*
X43578571Y-86085238D01*
X43483333Y-86180476D01*
X43388095Y-86228095D01*
X44435714Y-86942381D02*
X44626190Y-86942381D01*
X44721429Y-86894762D01*
X44769048Y-86847143D01*
X44864286Y-86704286D01*
X44911905Y-86513810D01*
X44911905Y-86132857D01*
X44864286Y-86037619D01*
X44816667Y-85990000D01*
X44721429Y-85942381D01*
X44530952Y-85942381D01*
X44435714Y-85990000D01*
X44388095Y-86037619D01*
X44340476Y-86132857D01*
X44340476Y-86370952D01*
X44388095Y-86466190D01*
X44435714Y-86513810D01*
X44530952Y-86561429D01*
X44721429Y-86561429D01*
X44816667Y-86513810D01*
X44864286Y-86466190D01*
X44911905Y-86370952D01*
X97532381Y-104712857D02*
X97056190Y-105046191D01*
X97532381Y-105284286D02*
X96532381Y-105284286D01*
X96532381Y-104903333D01*
X96580000Y-104808095D01*
X96627619Y-104760476D01*
X96722857Y-104712857D01*
X96865714Y-104712857D01*
X96960952Y-104760476D01*
X97008571Y-104808095D01*
X97056190Y-104903333D01*
X97056190Y-105284286D01*
X96627619Y-104331905D02*
X96580000Y-104284286D01*
X96532381Y-104189048D01*
X96532381Y-103950952D01*
X96580000Y-103855714D01*
X96627619Y-103808095D01*
X96722857Y-103760476D01*
X96818095Y-103760476D01*
X96960952Y-103808095D01*
X97532381Y-104379524D01*
X97532381Y-103760476D01*
X96532381Y-103141429D02*
X96532381Y-103046190D01*
X96580000Y-102950952D01*
X96627619Y-102903333D01*
X96722857Y-102855714D01*
X96913333Y-102808095D01*
X97151429Y-102808095D01*
X97341905Y-102855714D01*
X97437143Y-102903333D01*
X97484762Y-102950952D01*
X97532381Y-103046190D01*
X97532381Y-103141429D01*
X97484762Y-103236667D01*
X97437143Y-103284286D01*
X97341905Y-103331905D01*
X97151429Y-103379524D01*
X96913333Y-103379524D01*
X96722857Y-103331905D01*
X96627619Y-103284286D01*
X96580000Y-103236667D01*
X96532381Y-103141429D01*
X121902381Y-89892857D02*
X121426190Y-90226191D01*
X121902381Y-90464286D02*
X120902381Y-90464286D01*
X120902381Y-90083333D01*
X120950000Y-89988095D01*
X120997619Y-89940476D01*
X121092857Y-89892857D01*
X121235714Y-89892857D01*
X121330952Y-89940476D01*
X121378571Y-89988095D01*
X121426190Y-90083333D01*
X121426190Y-90464286D01*
X120997619Y-89511905D02*
X120950000Y-89464286D01*
X120902381Y-89369048D01*
X120902381Y-89130952D01*
X120950000Y-89035714D01*
X120997619Y-88988095D01*
X121092857Y-88940476D01*
X121188095Y-88940476D01*
X121330952Y-88988095D01*
X121902381Y-89559524D01*
X121902381Y-88940476D01*
X121902381Y-87988095D02*
X121902381Y-88559524D01*
X121902381Y-88273810D02*
X120902381Y-88273810D01*
X121045238Y-88369048D01*
X121140476Y-88464286D01*
X121188095Y-88559524D01*
X115257143Y-87052381D02*
X114923809Y-86576190D01*
X114685714Y-87052381D02*
X114685714Y-86052381D01*
X115066667Y-86052381D01*
X115161905Y-86100000D01*
X115209524Y-86147619D01*
X115257143Y-86242857D01*
X115257143Y-86385714D01*
X115209524Y-86480952D01*
X115161905Y-86528571D01*
X115066667Y-86576190D01*
X114685714Y-86576190D01*
X115638095Y-86147619D02*
X115685714Y-86100000D01*
X115780952Y-86052381D01*
X116019048Y-86052381D01*
X116114286Y-86100000D01*
X116161905Y-86147619D01*
X116209524Y-86242857D01*
X116209524Y-86338095D01*
X116161905Y-86480952D01*
X115590476Y-87052381D01*
X116209524Y-87052381D01*
X116590476Y-86147619D02*
X116638095Y-86100000D01*
X116733333Y-86052381D01*
X116971429Y-86052381D01*
X117066667Y-86100000D01*
X117114286Y-86147619D01*
X117161905Y-86242857D01*
X117161905Y-86338095D01*
X117114286Y-86480952D01*
X116542857Y-87052381D01*
X117161905Y-87052381D01*
X46107143Y-81352381D02*
X45773809Y-80876190D01*
X45535714Y-81352381D02*
X45535714Y-80352381D01*
X45916667Y-80352381D01*
X46011905Y-80400000D01*
X46059524Y-80447619D01*
X46107143Y-80542857D01*
X46107143Y-80685714D01*
X46059524Y-80780952D01*
X46011905Y-80828571D01*
X45916667Y-80876190D01*
X45535714Y-80876190D01*
X46488095Y-80447619D02*
X46535714Y-80400000D01*
X46630952Y-80352381D01*
X46869048Y-80352381D01*
X46964286Y-80400000D01*
X47011905Y-80447619D01*
X47059524Y-80542857D01*
X47059524Y-80638095D01*
X47011905Y-80780952D01*
X46440476Y-81352381D01*
X47059524Y-81352381D01*
X47916667Y-80685714D02*
X47916667Y-81352381D01*
X47678571Y-80304762D02*
X47440476Y-81019048D01*
X48059524Y-81019048D01*
X46087143Y-75452381D02*
X45753809Y-74976190D01*
X45515714Y-75452381D02*
X45515714Y-74452381D01*
X45896667Y-74452381D01*
X45991905Y-74500000D01*
X46039524Y-74547619D01*
X46087143Y-74642857D01*
X46087143Y-74785714D01*
X46039524Y-74880952D01*
X45991905Y-74928571D01*
X45896667Y-74976190D01*
X45515714Y-74976190D01*
X46468095Y-74547619D02*
X46515714Y-74500000D01*
X46610952Y-74452381D01*
X46849048Y-74452381D01*
X46944286Y-74500000D01*
X46991905Y-74547619D01*
X47039524Y-74642857D01*
X47039524Y-74738095D01*
X46991905Y-74880952D01*
X46420476Y-75452381D01*
X47039524Y-75452381D01*
X47944286Y-74452381D02*
X47468095Y-74452381D01*
X47420476Y-74928571D01*
X47468095Y-74880952D01*
X47563333Y-74833333D01*
X47801429Y-74833333D01*
X47896667Y-74880952D01*
X47944286Y-74928571D01*
X47991905Y-75023810D01*
X47991905Y-75261905D01*
X47944286Y-75357143D01*
X47896667Y-75404762D01*
X47801429Y-75452381D01*
X47563333Y-75452381D01*
X47468095Y-75404762D01*
X47420476Y-75357143D01*
X90147143Y-112242381D02*
X89813809Y-111766190D01*
X89575714Y-112242381D02*
X89575714Y-111242381D01*
X89956667Y-111242381D01*
X90051905Y-111290000D01*
X90099524Y-111337619D01*
X90147143Y-111432857D01*
X90147143Y-111575714D01*
X90099524Y-111670952D01*
X90051905Y-111718571D01*
X89956667Y-111766190D01*
X89575714Y-111766190D01*
X90528095Y-111337619D02*
X90575714Y-111290000D01*
X90670952Y-111242381D01*
X90909048Y-111242381D01*
X91004286Y-111290000D01*
X91051905Y-111337619D01*
X91099524Y-111432857D01*
X91099524Y-111528095D01*
X91051905Y-111670952D01*
X90480476Y-112242381D01*
X91099524Y-112242381D01*
X91956667Y-111242381D02*
X91766190Y-111242381D01*
X91670952Y-111290000D01*
X91623333Y-111337619D01*
X91528095Y-111480476D01*
X91480476Y-111670952D01*
X91480476Y-112051905D01*
X91528095Y-112147143D01*
X91575714Y-112194762D01*
X91670952Y-112242381D01*
X91861429Y-112242381D01*
X91956667Y-112194762D01*
X92004286Y-112147143D01*
X92051905Y-112051905D01*
X92051905Y-111813810D01*
X92004286Y-111718571D01*
X91956667Y-111670952D01*
X91861429Y-111623333D01*
X91670952Y-111623333D01*
X91575714Y-111670952D01*
X91528095Y-111718571D01*
X91480476Y-111813810D01*
X93687143Y-107342381D02*
X93353809Y-106866190D01*
X93115714Y-107342381D02*
X93115714Y-106342381D01*
X93496667Y-106342381D01*
X93591905Y-106390000D01*
X93639524Y-106437619D01*
X93687143Y-106532857D01*
X93687143Y-106675714D01*
X93639524Y-106770952D01*
X93591905Y-106818571D01*
X93496667Y-106866190D01*
X93115714Y-106866190D01*
X94068095Y-106437619D02*
X94115714Y-106390000D01*
X94210952Y-106342381D01*
X94449048Y-106342381D01*
X94544286Y-106390000D01*
X94591905Y-106437619D01*
X94639524Y-106532857D01*
X94639524Y-106628095D01*
X94591905Y-106770952D01*
X94020476Y-107342381D01*
X94639524Y-107342381D01*
X94972857Y-106342381D02*
X95639524Y-106342381D01*
X95210952Y-107342381D01*
X124007143Y-97512381D02*
X123673809Y-97036190D01*
X123435714Y-97512381D02*
X123435714Y-96512381D01*
X123816667Y-96512381D01*
X123911905Y-96560000D01*
X123959524Y-96607619D01*
X124007143Y-96702857D01*
X124007143Y-96845714D01*
X123959524Y-96940952D01*
X123911905Y-96988571D01*
X123816667Y-97036190D01*
X123435714Y-97036190D01*
X124388095Y-96607619D02*
X124435714Y-96560000D01*
X124530952Y-96512381D01*
X124769048Y-96512381D01*
X124864286Y-96560000D01*
X124911905Y-96607619D01*
X124959524Y-96702857D01*
X124959524Y-96798095D01*
X124911905Y-96940952D01*
X124340476Y-97512381D01*
X124959524Y-97512381D01*
X125530952Y-96940952D02*
X125435714Y-96893333D01*
X125388095Y-96845714D01*
X125340476Y-96750476D01*
X125340476Y-96702857D01*
X125388095Y-96607619D01*
X125435714Y-96560000D01*
X125530952Y-96512381D01*
X125721429Y-96512381D01*
X125816667Y-96560000D01*
X125864286Y-96607619D01*
X125911905Y-96702857D01*
X125911905Y-96750476D01*
X125864286Y-96845714D01*
X125816667Y-96893333D01*
X125721429Y-96940952D01*
X125530952Y-96940952D01*
X125435714Y-96988571D01*
X125388095Y-97036190D01*
X125340476Y-97131429D01*
X125340476Y-97321905D01*
X125388095Y-97417143D01*
X125435714Y-97464762D01*
X125530952Y-97512381D01*
X125721429Y-97512381D01*
X125816667Y-97464762D01*
X125864286Y-97417143D01*
X125911905Y-97321905D01*
X125911905Y-97131429D01*
X125864286Y-97036190D01*
X125816667Y-96988571D01*
X125721429Y-96940952D01*
X123987143Y-91722381D02*
X123653809Y-91246190D01*
X123415714Y-91722381D02*
X123415714Y-90722381D01*
X123796667Y-90722381D01*
X123891905Y-90770000D01*
X123939524Y-90817619D01*
X123987143Y-90912857D01*
X123987143Y-91055714D01*
X123939524Y-91150952D01*
X123891905Y-91198571D01*
X123796667Y-91246190D01*
X123415714Y-91246190D01*
X124368095Y-90817619D02*
X124415714Y-90770000D01*
X124510952Y-90722381D01*
X124749048Y-90722381D01*
X124844286Y-90770000D01*
X124891905Y-90817619D01*
X124939524Y-90912857D01*
X124939524Y-91008095D01*
X124891905Y-91150952D01*
X124320476Y-91722381D01*
X124939524Y-91722381D01*
X125415714Y-91722381D02*
X125606190Y-91722381D01*
X125701429Y-91674762D01*
X125749048Y-91627143D01*
X125844286Y-91484286D01*
X125891905Y-91293810D01*
X125891905Y-90912857D01*
X125844286Y-90817619D01*
X125796667Y-90770000D01*
X125701429Y-90722381D01*
X125510952Y-90722381D01*
X125415714Y-90770000D01*
X125368095Y-90817619D01*
X125320476Y-90912857D01*
X125320476Y-91150952D01*
X125368095Y-91246190D01*
X125415714Y-91293810D01*
X125510952Y-91341429D01*
X125701429Y-91341429D01*
X125796667Y-91293810D01*
X125844286Y-91246190D01*
X125891905Y-91150952D01*
X53352381Y-69592857D02*
X52876190Y-69926191D01*
X53352381Y-70164286D02*
X52352381Y-70164286D01*
X52352381Y-69783333D01*
X52400000Y-69688095D01*
X52447619Y-69640476D01*
X52542857Y-69592857D01*
X52685714Y-69592857D01*
X52780952Y-69640476D01*
X52828571Y-69688095D01*
X52876190Y-69783333D01*
X52876190Y-70164286D01*
X52352381Y-69259524D02*
X52352381Y-68640476D01*
X52733333Y-68973810D01*
X52733333Y-68830952D01*
X52780952Y-68735714D01*
X52828571Y-68688095D01*
X52923810Y-68640476D01*
X53161905Y-68640476D01*
X53257143Y-68688095D01*
X53304762Y-68735714D01*
X53352381Y-68830952D01*
X53352381Y-69116667D01*
X53304762Y-69211905D01*
X53257143Y-69259524D01*
X52352381Y-68021429D02*
X52352381Y-67926190D01*
X52400000Y-67830952D01*
X52447619Y-67783333D01*
X52542857Y-67735714D01*
X52733333Y-67688095D01*
X52971429Y-67688095D01*
X53161905Y-67735714D01*
X53257143Y-67783333D01*
X53304762Y-67830952D01*
X53352381Y-67926190D01*
X53352381Y-68021429D01*
X53304762Y-68116667D01*
X53257143Y-68164286D01*
X53161905Y-68211905D01*
X52971429Y-68259524D01*
X52733333Y-68259524D01*
X52542857Y-68211905D01*
X52447619Y-68164286D01*
X52400000Y-68116667D01*
X52352381Y-68021429D01*
X58152381Y-79842857D02*
X57676190Y-80176191D01*
X58152381Y-80414286D02*
X57152381Y-80414286D01*
X57152381Y-80033333D01*
X57200000Y-79938095D01*
X57247619Y-79890476D01*
X57342857Y-79842857D01*
X57485714Y-79842857D01*
X57580952Y-79890476D01*
X57628571Y-79938095D01*
X57676190Y-80033333D01*
X57676190Y-80414286D01*
X57152381Y-79509524D02*
X57152381Y-78890476D01*
X57533333Y-79223810D01*
X57533333Y-79080952D01*
X57580952Y-78985714D01*
X57628571Y-78938095D01*
X57723810Y-78890476D01*
X57961905Y-78890476D01*
X58057143Y-78938095D01*
X58104762Y-78985714D01*
X58152381Y-79080952D01*
X58152381Y-79366667D01*
X58104762Y-79461905D01*
X58057143Y-79509524D01*
X58152381Y-77938095D02*
X58152381Y-78509524D01*
X58152381Y-78223810D02*
X57152381Y-78223810D01*
X57295238Y-78319048D01*
X57390476Y-78414286D01*
X57438095Y-78509524D01*
X52162381Y-62742857D02*
X51686190Y-63076191D01*
X52162381Y-63314286D02*
X51162381Y-63314286D01*
X51162381Y-62933333D01*
X51210000Y-62838095D01*
X51257619Y-62790476D01*
X51352857Y-62742857D01*
X51495714Y-62742857D01*
X51590952Y-62790476D01*
X51638571Y-62838095D01*
X51686190Y-62933333D01*
X51686190Y-63314286D01*
X51162381Y-62409524D02*
X51162381Y-61790476D01*
X51543333Y-62123810D01*
X51543333Y-61980952D01*
X51590952Y-61885714D01*
X51638571Y-61838095D01*
X51733810Y-61790476D01*
X51971905Y-61790476D01*
X52067143Y-61838095D01*
X52114762Y-61885714D01*
X52162381Y-61980952D01*
X52162381Y-62266667D01*
X52114762Y-62361905D01*
X52067143Y-62409524D01*
X51495714Y-60933333D02*
X52162381Y-60933333D01*
X51114762Y-61171429D02*
X51829048Y-61409524D01*
X51829048Y-60790476D01*
X58557143Y-76552381D02*
X58223809Y-76076190D01*
X57985714Y-76552381D02*
X57985714Y-75552381D01*
X58366667Y-75552381D01*
X58461905Y-75600000D01*
X58509524Y-75647619D01*
X58557143Y-75742857D01*
X58557143Y-75885714D01*
X58509524Y-75980952D01*
X58461905Y-76028571D01*
X58366667Y-76076190D01*
X57985714Y-76076190D01*
X58890476Y-75552381D02*
X59509524Y-75552381D01*
X59176190Y-75933333D01*
X59319048Y-75933333D01*
X59414286Y-75980952D01*
X59461905Y-76028571D01*
X59509524Y-76123810D01*
X59509524Y-76361905D01*
X59461905Y-76457143D01*
X59414286Y-76504762D01*
X59319048Y-76552381D01*
X59033333Y-76552381D01*
X58938095Y-76504762D01*
X58890476Y-76457143D01*
X60414286Y-75552381D02*
X59938095Y-75552381D01*
X59890476Y-76028571D01*
X59938095Y-75980952D01*
X60033333Y-75933333D01*
X60271429Y-75933333D01*
X60366667Y-75980952D01*
X60414286Y-76028571D01*
X60461905Y-76123810D01*
X60461905Y-76361905D01*
X60414286Y-76457143D01*
X60366667Y-76504762D01*
X60271429Y-76552381D01*
X60033333Y-76552381D01*
X59938095Y-76504762D01*
X59890476Y-76457143D01*
X85352381Y-80042857D02*
X84876190Y-80376191D01*
X85352381Y-80614286D02*
X84352381Y-80614286D01*
X84352381Y-80233333D01*
X84400000Y-80138095D01*
X84447619Y-80090476D01*
X84542857Y-80042857D01*
X84685714Y-80042857D01*
X84780952Y-80090476D01*
X84828571Y-80138095D01*
X84876190Y-80233333D01*
X84876190Y-80614286D01*
X84352381Y-79709524D02*
X84352381Y-79090476D01*
X84733333Y-79423810D01*
X84733333Y-79280952D01*
X84780952Y-79185714D01*
X84828571Y-79138095D01*
X84923810Y-79090476D01*
X85161905Y-79090476D01*
X85257143Y-79138095D01*
X85304762Y-79185714D01*
X85352381Y-79280952D01*
X85352381Y-79566667D01*
X85304762Y-79661905D01*
X85257143Y-79709524D01*
X84352381Y-78233333D02*
X84352381Y-78423810D01*
X84400000Y-78519048D01*
X84447619Y-78566667D01*
X84590476Y-78661905D01*
X84780952Y-78709524D01*
X85161905Y-78709524D01*
X85257143Y-78661905D01*
X85304762Y-78614286D01*
X85352381Y-78519048D01*
X85352381Y-78328571D01*
X85304762Y-78233333D01*
X85257143Y-78185714D01*
X85161905Y-78138095D01*
X84923810Y-78138095D01*
X84828571Y-78185714D01*
X84780952Y-78233333D01*
X84733333Y-78328571D01*
X84733333Y-78519048D01*
X84780952Y-78614286D01*
X84828571Y-78661905D01*
X84923810Y-78709524D01*
X74627143Y-73032381D02*
X74293809Y-72556190D01*
X74055714Y-73032381D02*
X74055714Y-72032381D01*
X74436667Y-72032381D01*
X74531905Y-72080000D01*
X74579524Y-72127619D01*
X74627143Y-72222857D01*
X74627143Y-72365714D01*
X74579524Y-72460952D01*
X74531905Y-72508571D01*
X74436667Y-72556190D01*
X74055714Y-72556190D01*
X74960476Y-72032381D02*
X75579524Y-72032381D01*
X75246190Y-72413333D01*
X75389048Y-72413333D01*
X75484286Y-72460952D01*
X75531905Y-72508571D01*
X75579524Y-72603810D01*
X75579524Y-72841905D01*
X75531905Y-72937143D01*
X75484286Y-72984762D01*
X75389048Y-73032381D01*
X75103333Y-73032381D01*
X75008095Y-72984762D01*
X74960476Y-72937143D01*
X75912857Y-72032381D02*
X76579524Y-72032381D01*
X76150952Y-73032381D01*
X79707143Y-77752381D02*
X79373809Y-77276190D01*
X79135714Y-77752381D02*
X79135714Y-76752381D01*
X79516667Y-76752381D01*
X79611905Y-76800000D01*
X79659524Y-76847619D01*
X79707143Y-76942857D01*
X79707143Y-77085714D01*
X79659524Y-77180952D01*
X79611905Y-77228571D01*
X79516667Y-77276190D01*
X79135714Y-77276190D01*
X80040476Y-76752381D02*
X80659524Y-76752381D01*
X80326190Y-77133333D01*
X80469048Y-77133333D01*
X80564286Y-77180952D01*
X80611905Y-77228571D01*
X80659524Y-77323810D01*
X80659524Y-77561905D01*
X80611905Y-77657143D01*
X80564286Y-77704762D01*
X80469048Y-77752381D01*
X80183333Y-77752381D01*
X80088095Y-77704762D01*
X80040476Y-77657143D01*
X81230952Y-77180952D02*
X81135714Y-77133333D01*
X81088095Y-77085714D01*
X81040476Y-76990476D01*
X81040476Y-76942857D01*
X81088095Y-76847619D01*
X81135714Y-76800000D01*
X81230952Y-76752381D01*
X81421429Y-76752381D01*
X81516667Y-76800000D01*
X81564286Y-76847619D01*
X81611905Y-76942857D01*
X81611905Y-76990476D01*
X81564286Y-77085714D01*
X81516667Y-77133333D01*
X81421429Y-77180952D01*
X81230952Y-77180952D01*
X81135714Y-77228571D01*
X81088095Y-77276190D01*
X81040476Y-77371429D01*
X81040476Y-77561905D01*
X81088095Y-77657143D01*
X81135714Y-77704762D01*
X81230952Y-77752381D01*
X81421429Y-77752381D01*
X81516667Y-77704762D01*
X81564286Y-77657143D01*
X81611905Y-77561905D01*
X81611905Y-77371429D01*
X81564286Y-77276190D01*
X81516667Y-77228571D01*
X81421429Y-77180952D01*
X85022381Y-64692857D02*
X84546190Y-65026191D01*
X85022381Y-65264286D02*
X84022381Y-65264286D01*
X84022381Y-64883333D01*
X84070000Y-64788095D01*
X84117619Y-64740476D01*
X84212857Y-64692857D01*
X84355714Y-64692857D01*
X84450952Y-64740476D01*
X84498571Y-64788095D01*
X84546190Y-64883333D01*
X84546190Y-65264286D01*
X84022381Y-64359524D02*
X84022381Y-63740476D01*
X84403333Y-64073810D01*
X84403333Y-63930952D01*
X84450952Y-63835714D01*
X84498571Y-63788095D01*
X84593810Y-63740476D01*
X84831905Y-63740476D01*
X84927143Y-63788095D01*
X84974762Y-63835714D01*
X85022381Y-63930952D01*
X85022381Y-64216667D01*
X84974762Y-64311905D01*
X84927143Y-64359524D01*
X85022381Y-63264286D02*
X85022381Y-63073810D01*
X84974762Y-62978571D01*
X84927143Y-62930952D01*
X84784286Y-62835714D01*
X84593810Y-62788095D01*
X84212857Y-62788095D01*
X84117619Y-62835714D01*
X84070000Y-62883333D01*
X84022381Y-62978571D01*
X84022381Y-63169048D01*
X84070000Y-63264286D01*
X84117619Y-63311905D01*
X84212857Y-63359524D01*
X84450952Y-63359524D01*
X84546190Y-63311905D01*
X84593810Y-63264286D01*
X84641429Y-63169048D01*
X84641429Y-62978571D01*
X84593810Y-62883333D01*
X84546190Y-62835714D01*
X84450952Y-62788095D01*
X44852381Y-59042857D02*
X44376190Y-59376191D01*
X44852381Y-59614286D02*
X43852381Y-59614286D01*
X43852381Y-59233333D01*
X43900000Y-59138095D01*
X43947619Y-59090476D01*
X44042857Y-59042857D01*
X44185714Y-59042857D01*
X44280952Y-59090476D01*
X44328571Y-59138095D01*
X44376190Y-59233333D01*
X44376190Y-59614286D01*
X44185714Y-58185714D02*
X44852381Y-58185714D01*
X43804762Y-58423810D02*
X44519048Y-58661905D01*
X44519048Y-58042857D01*
X43852381Y-57757143D02*
X43852381Y-57138095D01*
X44233333Y-57471429D01*
X44233333Y-57328571D01*
X44280952Y-57233333D01*
X44328571Y-57185714D01*
X44423810Y-57138095D01*
X44661905Y-57138095D01*
X44757143Y-57185714D01*
X44804762Y-57233333D01*
X44852381Y-57328571D01*
X44852381Y-57614286D01*
X44804762Y-57709524D01*
X44757143Y-57757143D01*
X58557143Y-72752381D02*
X58223809Y-72276190D01*
X57985714Y-72752381D02*
X57985714Y-71752381D01*
X58366667Y-71752381D01*
X58461905Y-71800000D01*
X58509524Y-71847619D01*
X58557143Y-71942857D01*
X58557143Y-72085714D01*
X58509524Y-72180952D01*
X58461905Y-72228571D01*
X58366667Y-72276190D01*
X57985714Y-72276190D01*
X59414286Y-72085714D02*
X59414286Y-72752381D01*
X59176190Y-71704762D02*
X58938095Y-72419048D01*
X59557143Y-72419048D01*
X59985714Y-72752381D02*
X60176190Y-72752381D01*
X60271429Y-72704762D01*
X60319048Y-72657143D01*
X60414286Y-72514286D01*
X60461905Y-72323810D01*
X60461905Y-71942857D01*
X60414286Y-71847619D01*
X60366667Y-71800000D01*
X60271429Y-71752381D01*
X60080952Y-71752381D01*
X59985714Y-71800000D01*
X59938095Y-71847619D01*
X59890476Y-71942857D01*
X59890476Y-72180952D01*
X59938095Y-72276190D01*
X59985714Y-72323810D01*
X60080952Y-72371429D01*
X60271429Y-72371429D01*
X60366667Y-72323810D01*
X60414286Y-72276190D01*
X60461905Y-72180952D01*
X49102381Y-56382857D02*
X48626190Y-56716191D01*
X49102381Y-56954286D02*
X48102381Y-56954286D01*
X48102381Y-56573333D01*
X48150000Y-56478095D01*
X48197619Y-56430476D01*
X48292857Y-56382857D01*
X48435714Y-56382857D01*
X48530952Y-56430476D01*
X48578571Y-56478095D01*
X48626190Y-56573333D01*
X48626190Y-56954286D01*
X48102381Y-55478095D02*
X48102381Y-55954286D01*
X48578571Y-56001905D01*
X48530952Y-55954286D01*
X48483333Y-55859048D01*
X48483333Y-55620952D01*
X48530952Y-55525714D01*
X48578571Y-55478095D01*
X48673810Y-55430476D01*
X48911905Y-55430476D01*
X49007143Y-55478095D01*
X49054762Y-55525714D01*
X49102381Y-55620952D01*
X49102381Y-55859048D01*
X49054762Y-55954286D01*
X49007143Y-56001905D01*
X48197619Y-55049524D02*
X48150000Y-55001905D01*
X48102381Y-54906667D01*
X48102381Y-54668571D01*
X48150000Y-54573333D01*
X48197619Y-54525714D01*
X48292857Y-54478095D01*
X48388095Y-54478095D01*
X48530952Y-54525714D01*
X49102381Y-55097143D01*
X49102381Y-54478095D01*
X46418095Y-58652381D02*
X46418095Y-59461905D01*
X46465714Y-59557143D01*
X46513333Y-59604762D01*
X46608571Y-59652381D01*
X46799048Y-59652381D01*
X46894286Y-59604762D01*
X46941905Y-59557143D01*
X46989524Y-59461905D01*
X46989524Y-58652381D01*
X47941905Y-58652381D02*
X47465714Y-58652381D01*
X47418095Y-59128571D01*
X47465714Y-59080952D01*
X47560952Y-59033333D01*
X47799048Y-59033333D01*
X47894286Y-59080952D01*
X47941905Y-59128571D01*
X47989524Y-59223810D01*
X47989524Y-59461905D01*
X47941905Y-59557143D01*
X47894286Y-59604762D01*
X47799048Y-59652381D01*
X47560952Y-59652381D01*
X47465714Y-59604762D01*
X47418095Y-59557143D01*
X38857143Y-24557143D02*
X38809524Y-24604762D01*
X38666667Y-24652381D01*
X38571429Y-24652381D01*
X38428571Y-24604762D01*
X38333333Y-24509524D01*
X38285714Y-24414286D01*
X38238095Y-24223810D01*
X38238095Y-24080952D01*
X38285714Y-23890476D01*
X38333333Y-23795238D01*
X38428571Y-23700000D01*
X38571429Y-23652381D01*
X38666667Y-23652381D01*
X38809524Y-23700000D01*
X38857143Y-23747619D01*
X39714286Y-23985714D02*
X39714286Y-24652381D01*
X39476190Y-23604762D02*
X39238095Y-24319048D01*
X39857143Y-24319048D01*
X40285714Y-24652381D02*
X40476190Y-24652381D01*
X40571429Y-24604762D01*
X40619048Y-24557143D01*
X40714286Y-24414286D01*
X40761905Y-24223810D01*
X40761905Y-23842857D01*
X40714286Y-23747619D01*
X40666667Y-23700000D01*
X40571429Y-23652381D01*
X40380952Y-23652381D01*
X40285714Y-23700000D01*
X40238095Y-23747619D01*
X40190476Y-23842857D01*
X40190476Y-24080952D01*
X40238095Y-24176190D01*
X40285714Y-24223810D01*
X40380952Y-24271429D01*
X40571429Y-24271429D01*
X40666667Y-24223810D01*
X40714286Y-24176190D01*
X40761905Y-24080952D01*
X42107143Y-43642857D02*
X42154762Y-43690476D01*
X42202381Y-43833333D01*
X42202381Y-43928571D01*
X42154762Y-44071429D01*
X42059524Y-44166667D01*
X41964286Y-44214286D01*
X41773810Y-44261905D01*
X41630952Y-44261905D01*
X41440476Y-44214286D01*
X41345238Y-44166667D01*
X41250000Y-44071429D01*
X41202381Y-43928571D01*
X41202381Y-43833333D01*
X41250000Y-43690476D01*
X41297619Y-43642857D01*
X41202381Y-42738095D02*
X41202381Y-43214286D01*
X41678571Y-43261905D01*
X41630952Y-43214286D01*
X41583333Y-43119048D01*
X41583333Y-42880952D01*
X41630952Y-42785714D01*
X41678571Y-42738095D01*
X41773810Y-42690476D01*
X42011905Y-42690476D01*
X42107143Y-42738095D01*
X42154762Y-42785714D01*
X42202381Y-42880952D01*
X42202381Y-43119048D01*
X42154762Y-43214286D01*
X42107143Y-43261905D01*
X41202381Y-42071429D02*
X41202381Y-41976190D01*
X41250000Y-41880952D01*
X41297619Y-41833333D01*
X41392857Y-41785714D01*
X41583333Y-41738095D01*
X41821429Y-41738095D01*
X42011905Y-41785714D01*
X42107143Y-41833333D01*
X42154762Y-41880952D01*
X42202381Y-41976190D01*
X42202381Y-42071429D01*
X42154762Y-42166667D01*
X42107143Y-42214286D01*
X42011905Y-42261905D01*
X41821429Y-42309524D01*
X41583333Y-42309524D01*
X41392857Y-42261905D01*
X41297619Y-42214286D01*
X41250000Y-42166667D01*
X41202381Y-42071429D01*
X57757143Y-83042857D02*
X57804762Y-83090476D01*
X57852381Y-83233333D01*
X57852381Y-83328571D01*
X57804762Y-83471429D01*
X57709524Y-83566667D01*
X57614286Y-83614286D01*
X57423810Y-83661905D01*
X57280952Y-83661905D01*
X57090476Y-83614286D01*
X56995238Y-83566667D01*
X56900000Y-83471429D01*
X56852381Y-83328571D01*
X56852381Y-83233333D01*
X56900000Y-83090476D01*
X56947619Y-83042857D01*
X56852381Y-82138095D02*
X56852381Y-82614286D01*
X57328571Y-82661905D01*
X57280952Y-82614286D01*
X57233333Y-82519048D01*
X57233333Y-82280952D01*
X57280952Y-82185714D01*
X57328571Y-82138095D01*
X57423810Y-82090476D01*
X57661905Y-82090476D01*
X57757143Y-82138095D01*
X57804762Y-82185714D01*
X57852381Y-82280952D01*
X57852381Y-82519048D01*
X57804762Y-82614286D01*
X57757143Y-82661905D01*
X56947619Y-81709524D02*
X56900000Y-81661905D01*
X56852381Y-81566667D01*
X56852381Y-81328571D01*
X56900000Y-81233333D01*
X56947619Y-81185714D01*
X57042857Y-81138095D01*
X57138095Y-81138095D01*
X57280952Y-81185714D01*
X57852381Y-81757143D01*
X57852381Y-81138095D01*
X76357143Y-104757143D02*
X76309524Y-104804762D01*
X76166667Y-104852381D01*
X76071429Y-104852381D01*
X75928571Y-104804762D01*
X75833333Y-104709524D01*
X75785714Y-104614286D01*
X75738095Y-104423810D01*
X75738095Y-104280952D01*
X75785714Y-104090476D01*
X75833333Y-103995238D01*
X75928571Y-103900000D01*
X76071429Y-103852381D01*
X76166667Y-103852381D01*
X76309524Y-103900000D01*
X76357143Y-103947619D01*
X77261905Y-103852381D02*
X76785714Y-103852381D01*
X76738095Y-104328571D01*
X76785714Y-104280952D01*
X76880952Y-104233333D01*
X77119048Y-104233333D01*
X77214286Y-104280952D01*
X77261905Y-104328571D01*
X77309524Y-104423810D01*
X77309524Y-104661905D01*
X77261905Y-104757143D01*
X77214286Y-104804762D01*
X77119048Y-104852381D01*
X76880952Y-104852381D01*
X76785714Y-104804762D01*
X76738095Y-104757143D01*
X77642857Y-103852381D02*
X78261905Y-103852381D01*
X77928571Y-104233333D01*
X78071429Y-104233333D01*
X78166667Y-104280952D01*
X78214286Y-104328571D01*
X78261905Y-104423810D01*
X78261905Y-104661905D01*
X78214286Y-104757143D01*
X78166667Y-104804762D01*
X78071429Y-104852381D01*
X77785714Y-104852381D01*
X77690476Y-104804762D01*
X77642857Y-104757143D01*
X33127143Y-50362381D02*
X32650952Y-50362381D01*
X32650952Y-49362381D01*
X33984286Y-50362381D02*
X33412857Y-50362381D01*
X33698571Y-50362381D02*
X33698571Y-49362381D01*
X33603333Y-49505238D01*
X33508095Y-49600476D01*
X33412857Y-49648095D01*
X34603333Y-49362381D02*
X34698572Y-49362381D01*
X34793810Y-49410000D01*
X34841429Y-49457619D01*
X34889048Y-49552857D01*
X34936667Y-49743333D01*
X34936667Y-49981429D01*
X34889048Y-50171905D01*
X34841429Y-50267143D01*
X34793810Y-50314762D01*
X34698572Y-50362381D01*
X34603333Y-50362381D01*
X34508095Y-50314762D01*
X34460476Y-50267143D01*
X34412857Y-50171905D01*
X34365238Y-49981429D01*
X34365238Y-49743333D01*
X34412857Y-49552857D01*
X34460476Y-49457619D01*
X34508095Y-49410000D01*
X34603333Y-49362381D01*
X35802381Y-99038095D02*
X34802381Y-99038095D01*
X34802381Y-98800000D01*
X34850000Y-98657142D01*
X34945238Y-98561904D01*
X35040476Y-98514285D01*
X35230952Y-98466666D01*
X35373810Y-98466666D01*
X35564286Y-98514285D01*
X35659524Y-98561904D01*
X35754762Y-98657142D01*
X35802381Y-98800000D01*
X35802381Y-99038095D01*
X35802381Y-97514285D02*
X35802381Y-98085714D01*
X35802381Y-97800000D02*
X34802381Y-97800000D01*
X34945238Y-97895238D01*
X35040476Y-97990476D01*
X35088095Y-98085714D01*
X38302381Y-99088095D02*
X37302381Y-99088095D01*
X37302381Y-98850000D01*
X37350000Y-98707142D01*
X37445238Y-98611904D01*
X37540476Y-98564285D01*
X37730952Y-98516666D01*
X37873810Y-98516666D01*
X38064286Y-98564285D01*
X38159524Y-98611904D01*
X38254762Y-98707142D01*
X38302381Y-98850000D01*
X38302381Y-99088095D01*
X37397619Y-98135714D02*
X37350000Y-98088095D01*
X37302381Y-97992857D01*
X37302381Y-97754761D01*
X37350000Y-97659523D01*
X37397619Y-97611904D01*
X37492857Y-97564285D01*
X37588095Y-97564285D01*
X37730952Y-97611904D01*
X38302381Y-98183333D01*
X38302381Y-97564285D01*
X40802381Y-99038095D02*
X39802381Y-99038095D01*
X39802381Y-98800000D01*
X39850000Y-98657142D01*
X39945238Y-98561904D01*
X40040476Y-98514285D01*
X40230952Y-98466666D01*
X40373810Y-98466666D01*
X40564286Y-98514285D01*
X40659524Y-98561904D01*
X40754762Y-98657142D01*
X40802381Y-98800000D01*
X40802381Y-99038095D01*
X39802381Y-97561904D02*
X39802381Y-98038095D01*
X40278571Y-98085714D01*
X40230952Y-98038095D01*
X40183333Y-97942857D01*
X40183333Y-97704761D01*
X40230952Y-97609523D01*
X40278571Y-97561904D01*
X40373810Y-97514285D01*
X40611905Y-97514285D01*
X40707143Y-97561904D01*
X40754762Y-97609523D01*
X40802381Y-97704761D01*
X40802381Y-97942857D01*
X40754762Y-98038095D01*
X40707143Y-98085714D01*
X43652381Y-99088095D02*
X42652381Y-99088095D01*
X42652381Y-98850000D01*
X42700000Y-98707142D01*
X42795238Y-98611904D01*
X42890476Y-98564285D01*
X43080952Y-98516666D01*
X43223810Y-98516666D01*
X43414286Y-98564285D01*
X43509524Y-98611904D01*
X43604762Y-98707142D01*
X43652381Y-98850000D01*
X43652381Y-99088095D01*
X42652381Y-98183333D02*
X42652381Y-97516666D01*
X43652381Y-97945238D01*
X46252381Y-99188095D02*
X45252381Y-99188095D01*
X45252381Y-98950000D01*
X45300000Y-98807142D01*
X45395238Y-98711904D01*
X45490476Y-98664285D01*
X45680952Y-98616666D01*
X45823810Y-98616666D01*
X46014286Y-98664285D01*
X46109524Y-98711904D01*
X46204762Y-98807142D01*
X46252381Y-98950000D01*
X46252381Y-99188095D01*
X46252381Y-98140476D02*
X46252381Y-97950000D01*
X46204762Y-97854761D01*
X46157143Y-97807142D01*
X46014286Y-97711904D01*
X45823810Y-97664285D01*
X45442857Y-97664285D01*
X45347619Y-97711904D01*
X45300000Y-97759523D01*
X45252381Y-97854761D01*
X45252381Y-98045238D01*
X45300000Y-98140476D01*
X45347619Y-98188095D01*
X45442857Y-98235714D01*
X45680952Y-98235714D01*
X45776190Y-98188095D01*
X45823810Y-98140476D01*
X45871429Y-98045238D01*
X45871429Y-97854761D01*
X45823810Y-97759523D01*
X45776190Y-97711904D01*
X45680952Y-97664285D01*
X48752381Y-100014286D02*
X47752381Y-100014286D01*
X47752381Y-99776191D01*
X47800000Y-99633333D01*
X47895238Y-99538095D01*
X47990476Y-99490476D01*
X48180952Y-99442857D01*
X48323810Y-99442857D01*
X48514286Y-99490476D01*
X48609524Y-99538095D01*
X48704762Y-99633333D01*
X48752381Y-99776191D01*
X48752381Y-100014286D01*
X48752381Y-98490476D02*
X48752381Y-99061905D01*
X48752381Y-98776191D02*
X47752381Y-98776191D01*
X47895238Y-98871429D01*
X47990476Y-98966667D01*
X48038095Y-99061905D01*
X48752381Y-97538095D02*
X48752381Y-98109524D01*
X48752381Y-97823810D02*
X47752381Y-97823810D01*
X47895238Y-97919048D01*
X47990476Y-98014286D01*
X48038095Y-98109524D01*
X81552381Y-89414286D02*
X80552381Y-89414286D01*
X80552381Y-89176191D01*
X80600000Y-89033333D01*
X80695238Y-88938095D01*
X80790476Y-88890476D01*
X80980952Y-88842857D01*
X81123810Y-88842857D01*
X81314286Y-88890476D01*
X81409524Y-88938095D01*
X81504762Y-89033333D01*
X81552381Y-89176191D01*
X81552381Y-89414286D01*
X81552381Y-87890476D02*
X81552381Y-88461905D01*
X81552381Y-88176191D02*
X80552381Y-88176191D01*
X80695238Y-88271429D01*
X80790476Y-88366667D01*
X80838095Y-88461905D01*
X80647619Y-87509524D02*
X80600000Y-87461905D01*
X80552381Y-87366667D01*
X80552381Y-87128571D01*
X80600000Y-87033333D01*
X80647619Y-86985714D01*
X80742857Y-86938095D01*
X80838095Y-86938095D01*
X80980952Y-86985714D01*
X81552381Y-87557143D01*
X81552381Y-86938095D01*
X103402893Y-35077970D02*
X103335550Y-35077970D01*
X103200863Y-35010626D01*
X103133519Y-34943283D01*
X103066175Y-34808595D01*
X103066175Y-34673908D01*
X103099847Y-34572893D01*
X103200862Y-34404535D01*
X103301878Y-34303519D01*
X103470237Y-34202504D01*
X103571252Y-34168832D01*
X103705939Y-34168832D01*
X103840626Y-34236176D01*
X103907970Y-34303519D01*
X103975313Y-34438206D01*
X103975313Y-34505550D01*
X104143672Y-35145312D02*
X104110000Y-35044297D01*
X104110000Y-34976954D01*
X104143672Y-34875939D01*
X104177343Y-34842267D01*
X104278359Y-34808595D01*
X104345702Y-34808595D01*
X104446717Y-34842267D01*
X104581405Y-34976955D01*
X104615076Y-35077970D01*
X104615076Y-35145313D01*
X104581405Y-35246328D01*
X104547733Y-35280000D01*
X104446718Y-35313672D01*
X104379374Y-35313672D01*
X104278359Y-35280000D01*
X104143672Y-35145312D01*
X104042657Y-35111641D01*
X103975313Y-35111641D01*
X103874297Y-35145313D01*
X103739610Y-35280000D01*
X103705939Y-35381015D01*
X103705939Y-35448359D01*
X103739610Y-35549374D01*
X103874298Y-35684061D01*
X103975313Y-35717733D01*
X104042657Y-35717733D01*
X104143672Y-35684061D01*
X104278359Y-35549374D01*
X104312031Y-35448359D01*
X104312031Y-35381015D01*
X104278359Y-35280000D01*
X105153824Y-35549374D02*
X105221168Y-35616718D01*
X105254840Y-35717733D01*
X105254840Y-35785076D01*
X105221168Y-35886092D01*
X105120153Y-36054450D01*
X104951794Y-36222810D01*
X104783435Y-36323825D01*
X104682420Y-36357496D01*
X104615076Y-36357496D01*
X104514061Y-36323825D01*
X104446717Y-36256481D01*
X104413045Y-36155465D01*
X104413045Y-36088122D01*
X104446717Y-35987107D01*
X104547732Y-35818748D01*
X104716092Y-35650389D01*
X104884450Y-35549374D01*
X104985465Y-35515702D01*
X105052809Y-35515702D01*
X105153824Y-35549374D01*
X74707143Y-54057143D02*
X74659524Y-54104762D01*
X74516667Y-54152381D01*
X74421429Y-54152381D01*
X74278571Y-54104762D01*
X74183333Y-54009524D01*
X74135714Y-53914286D01*
X74088095Y-53723810D01*
X74088095Y-53580952D01*
X74135714Y-53390476D01*
X74183333Y-53295238D01*
X74278571Y-53200000D01*
X74421429Y-53152381D01*
X74516667Y-53152381D01*
X74659524Y-53200000D01*
X74707143Y-53247619D01*
X75278571Y-53580952D02*
X75183333Y-53533333D01*
X75135714Y-53485714D01*
X75088095Y-53390476D01*
X75088095Y-53342857D01*
X75135714Y-53247619D01*
X75183333Y-53200000D01*
X75278571Y-53152381D01*
X75469048Y-53152381D01*
X75564286Y-53200000D01*
X75611905Y-53247619D01*
X75659524Y-53342857D01*
X75659524Y-53390476D01*
X75611905Y-53485714D01*
X75564286Y-53533333D01*
X75469048Y-53580952D01*
X75278571Y-53580952D01*
X75183333Y-53628571D01*
X75135714Y-53676190D01*
X75088095Y-53771429D01*
X75088095Y-53961905D01*
X75135714Y-54057143D01*
X75183333Y-54104762D01*
X75278571Y-54152381D01*
X75469048Y-54152381D01*
X75564286Y-54104762D01*
X75611905Y-54057143D01*
X75659524Y-53961905D01*
X75659524Y-53771429D01*
X75611905Y-53676190D01*
X75564286Y-53628571D01*
X75469048Y-53580952D01*
X76611905Y-54152381D02*
X76040476Y-54152381D01*
X76326190Y-54152381D02*
X76326190Y-53152381D01*
X76230952Y-53295238D01*
X76135714Y-53390476D01*
X76040476Y-53438095D01*
X118998095Y-40902381D02*
X118998095Y-41711905D01*
X119045714Y-41807143D01*
X119093333Y-41854762D01*
X119188571Y-41902381D01*
X119379048Y-41902381D01*
X119474286Y-41854762D01*
X119521905Y-41807143D01*
X119569524Y-41711905D01*
X119569524Y-40902381D01*
X120474286Y-40902381D02*
X120283809Y-40902381D01*
X120188571Y-40950000D01*
X120140952Y-40997619D01*
X120045714Y-41140476D01*
X119998095Y-41330952D01*
X119998095Y-41711905D01*
X120045714Y-41807143D01*
X120093333Y-41854762D01*
X120188571Y-41902381D01*
X120379048Y-41902381D01*
X120474286Y-41854762D01*
X120521905Y-41807143D01*
X120569524Y-41711905D01*
X120569524Y-41473810D01*
X120521905Y-41378571D01*
X120474286Y-41330952D01*
X120379048Y-41283333D01*
X120188571Y-41283333D01*
X120093333Y-41330952D01*
X120045714Y-41378571D01*
X119998095Y-41473810D01*
X65332857Y-77055238D02*
X65332857Y-76064762D01*
X65828095Y-76560000D02*
X64837619Y-76560000D01*
X54617857Y-79870238D02*
X54617857Y-78879762D01*
X55113095Y-79375000D02*
X54122619Y-79375000D01*
X80652381Y-57238095D02*
X81461905Y-57238095D01*
X81557143Y-57190476D01*
X81604762Y-57142857D01*
X81652381Y-57047619D01*
X81652381Y-56857142D01*
X81604762Y-56761904D01*
X81557143Y-56714285D01*
X81461905Y-56666666D01*
X80652381Y-56666666D01*
X80747619Y-56238095D02*
X80700000Y-56190476D01*
X80652381Y-56095238D01*
X80652381Y-55857142D01*
X80700000Y-55761904D01*
X80747619Y-55714285D01*
X80842857Y-55666666D01*
X80938095Y-55666666D01*
X81080952Y-55714285D01*
X81652381Y-56285714D01*
X81652381Y-55666666D01*
X80652381Y-54761904D02*
X80652381Y-55238095D01*
X81128571Y-55285714D01*
X81080952Y-55238095D01*
X81033333Y-55142857D01*
X81033333Y-54904761D01*
X81080952Y-54809523D01*
X81128571Y-54761904D01*
X81223810Y-54714285D01*
X81461905Y-54714285D01*
X81557143Y-54761904D01*
X81604762Y-54809523D01*
X81652381Y-54904761D01*
X81652381Y-55142857D01*
X81604762Y-55238095D01*
X81557143Y-55285714D01*
X82047619Y-52676190D02*
X82047619Y-53152381D01*
X81714286Y-52152381D02*
X82047619Y-52676190D01*
X82380953Y-52152381D01*
X83238096Y-53152381D02*
X82666667Y-53152381D01*
X82952381Y-53152381D02*
X82952381Y-52152381D01*
X82857143Y-52295238D01*
X82761905Y-52390476D01*
X82666667Y-52438095D01*
X83571429Y-52152381D02*
X84238096Y-52152381D01*
X83809524Y-53152381D01*
X33857143Y-45107143D02*
X33809524Y-45154762D01*
X33666667Y-45202381D01*
X33571429Y-45202381D01*
X33428571Y-45154762D01*
X33333333Y-45059524D01*
X33285714Y-44964286D01*
X33238095Y-44773810D01*
X33238095Y-44630952D01*
X33285714Y-44440476D01*
X33333333Y-44345238D01*
X33428571Y-44250000D01*
X33571429Y-44202381D01*
X33666667Y-44202381D01*
X33809524Y-44250000D01*
X33857143Y-44297619D01*
X34714286Y-44202381D02*
X34523809Y-44202381D01*
X34428571Y-44250000D01*
X34380952Y-44297619D01*
X34285714Y-44440476D01*
X34238095Y-44630952D01*
X34238095Y-45011905D01*
X34285714Y-45107143D01*
X34333333Y-45154762D01*
X34428571Y-45202381D01*
X34619048Y-45202381D01*
X34714286Y-45154762D01*
X34761905Y-45107143D01*
X34809524Y-45011905D01*
X34809524Y-44773810D01*
X34761905Y-44678571D01*
X34714286Y-44630952D01*
X34619048Y-44583333D01*
X34428571Y-44583333D01*
X34333333Y-44630952D01*
X34285714Y-44678571D01*
X34238095Y-44773810D01*
X35428571Y-44202381D02*
X35523810Y-44202381D01*
X35619048Y-44250000D01*
X35666667Y-44297619D01*
X35714286Y-44392857D01*
X35761905Y-44583333D01*
X35761905Y-44821429D01*
X35714286Y-45011905D01*
X35666667Y-45107143D01*
X35619048Y-45154762D01*
X35523810Y-45202381D01*
X35428571Y-45202381D01*
X35333333Y-45154762D01*
X35285714Y-45107143D01*
X35238095Y-45011905D01*
X35190476Y-44821429D01*
X35190476Y-44583333D01*
X35238095Y-44392857D01*
X35285714Y-44297619D01*
X35333333Y-44250000D01*
X35428571Y-44202381D01*
X95124762Y-86562857D02*
X96115238Y-86562857D01*
X95620000Y-87058095D02*
X95620000Y-86067619D01*
X33380953Y-53977143D02*
X33333334Y-54024762D01*
X33190477Y-54072381D01*
X33095239Y-54072381D01*
X32952381Y-54024762D01*
X32857143Y-53929524D01*
X32809524Y-53834286D01*
X32761905Y-53643810D01*
X32761905Y-53500952D01*
X32809524Y-53310476D01*
X32857143Y-53215238D01*
X32952381Y-53120000D01*
X33095239Y-53072381D01*
X33190477Y-53072381D01*
X33333334Y-53120000D01*
X33380953Y-53167619D01*
X34333334Y-54072381D02*
X33761905Y-54072381D01*
X34047619Y-54072381D02*
X34047619Y-53072381D01*
X33952381Y-53215238D01*
X33857143Y-53310476D01*
X33761905Y-53358095D01*
X34952381Y-53072381D02*
X35047620Y-53072381D01*
X35142858Y-53120000D01*
X35190477Y-53167619D01*
X35238096Y-53262857D01*
X35285715Y-53453333D01*
X35285715Y-53691429D01*
X35238096Y-53881905D01*
X35190477Y-53977143D01*
X35142858Y-54024762D01*
X35047620Y-54072381D01*
X34952381Y-54072381D01*
X34857143Y-54024762D01*
X34809524Y-53977143D01*
X34761905Y-53881905D01*
X34714286Y-53691429D01*
X34714286Y-53453333D01*
X34761905Y-53262857D01*
X34809524Y-53167619D01*
X34857143Y-53120000D01*
X34952381Y-53072381D01*
X36238096Y-54072381D02*
X35666667Y-54072381D01*
X35952381Y-54072381D02*
X35952381Y-53072381D01*
X35857143Y-53215238D01*
X35761905Y-53310476D01*
X35666667Y-53358095D01*
X86961852Y-41657607D02*
X87668959Y-40950500D01*
X87769974Y-42331042D02*
X87702630Y-42331042D01*
X87567943Y-42263699D01*
X87500600Y-42196355D01*
X87433256Y-42061668D01*
X87433256Y-41926981D01*
X87466928Y-41825966D01*
X87567943Y-41657607D01*
X87668959Y-41556591D01*
X87837317Y-41455576D01*
X87938332Y-41421904D01*
X88073019Y-41421904D01*
X88207707Y-41489249D01*
X88275050Y-41556592D01*
X88342394Y-41691279D01*
X88342394Y-41758622D01*
X88376065Y-43071821D02*
X87972004Y-42667759D01*
X88174034Y-42869790D02*
X88881141Y-42162683D01*
X88712782Y-42196355D01*
X88578096Y-42196355D01*
X88477080Y-42162683D01*
X67582381Y-63108095D02*
X68391905Y-63108095D01*
X68487143Y-63060476D01*
X68534762Y-63012857D01*
X68582381Y-62917619D01*
X68582381Y-62727142D01*
X68534762Y-62631904D01*
X68487143Y-62584285D01*
X68391905Y-62536666D01*
X67582381Y-62536666D01*
X67677619Y-62108095D02*
X67630000Y-62060476D01*
X67582381Y-61965238D01*
X67582381Y-61727142D01*
X67630000Y-61631904D01*
X67677619Y-61584285D01*
X67772857Y-61536666D01*
X67868095Y-61536666D01*
X68010952Y-61584285D01*
X68582381Y-62155714D01*
X68582381Y-61536666D01*
X67582381Y-60679523D02*
X67582381Y-60870000D01*
X67630000Y-60965238D01*
X67677619Y-61012857D01*
X67820476Y-61108095D01*
X68010952Y-61155714D01*
X68391905Y-61155714D01*
X68487143Y-61108095D01*
X68534762Y-61060476D01*
X68582381Y-60965238D01*
X68582381Y-60774761D01*
X68534762Y-60679523D01*
X68487143Y-60631904D01*
X68391905Y-60584285D01*
X68153810Y-60584285D01*
X68058571Y-60631904D01*
X68010952Y-60679523D01*
X67963333Y-60774761D01*
X67963333Y-60965238D01*
X68010952Y-61060476D01*
X68058571Y-61108095D01*
X68153810Y-61155714D01*
X91432143Y-75317857D02*
X91479762Y-75365476D01*
X91527381Y-75508333D01*
X91527381Y-75603571D01*
X91479762Y-75746429D01*
X91384524Y-75841667D01*
X91289286Y-75889286D01*
X91098810Y-75936905D01*
X90955952Y-75936905D01*
X90765476Y-75889286D01*
X90670238Y-75841667D01*
X90575000Y-75746429D01*
X90527381Y-75603571D01*
X90527381Y-75508333D01*
X90575000Y-75365476D01*
X90622619Y-75317857D01*
X90527381Y-74413095D02*
X90527381Y-74889286D01*
X91003571Y-74936905D01*
X90955952Y-74889286D01*
X90908333Y-74794048D01*
X90908333Y-74555952D01*
X90955952Y-74460714D01*
X91003571Y-74413095D01*
X91098810Y-74365476D01*
X91336905Y-74365476D01*
X91432143Y-74413095D01*
X91479762Y-74460714D01*
X91527381Y-74555952D01*
X91527381Y-74794048D01*
X91479762Y-74889286D01*
X91432143Y-74936905D01*
X91527381Y-73889286D02*
X91527381Y-73698810D01*
X91479762Y-73603571D01*
X91432143Y-73555952D01*
X91289286Y-73460714D01*
X91098810Y-73413095D01*
X90717857Y-73413095D01*
X90622619Y-73460714D01*
X90575000Y-73508333D01*
X90527381Y-73603571D01*
X90527381Y-73794048D01*
X90575000Y-73889286D01*
X90622619Y-73936905D01*
X90717857Y-73984524D01*
X90955952Y-73984524D01*
X91051190Y-73936905D01*
X91098810Y-73889286D01*
X91146429Y-73794048D01*
X91146429Y-73603571D01*
X91098810Y-73508333D01*
X91051190Y-73460714D01*
X90955952Y-73413095D01*
X73544762Y-81832857D02*
X74535238Y-81832857D01*
X74040000Y-82328095D02*
X74040000Y-81337619D01*
X98847547Y-44709882D02*
X98780204Y-44709882D01*
X98645517Y-44642538D01*
X98578173Y-44575195D01*
X98510829Y-44440507D01*
X98510829Y-44305820D01*
X98544501Y-44204805D01*
X98645516Y-44036446D01*
X98746532Y-43935431D01*
X98914890Y-43834415D01*
X99015906Y-43800744D01*
X99150593Y-43800744D01*
X99285280Y-43868088D01*
X99352624Y-43935431D01*
X99419967Y-44070118D01*
X99419967Y-44137462D01*
X99453639Y-45450660D02*
X99049577Y-45046599D01*
X99251608Y-45248629D02*
X99958714Y-44541522D01*
X99790356Y-44575194D01*
X99655669Y-44575194D01*
X99554654Y-44541522D01*
X100598478Y-45181286D02*
X100665822Y-45248630D01*
X100699494Y-45349645D01*
X100699494Y-45416988D01*
X100665822Y-45518003D01*
X100564807Y-45686362D01*
X100396447Y-45854721D01*
X100228089Y-45955736D01*
X100127074Y-45989408D01*
X100059730Y-45989408D01*
X99958715Y-45955736D01*
X99891371Y-45888392D01*
X99857699Y-45787377D01*
X99857699Y-45720034D01*
X99891371Y-45619019D01*
X99992386Y-45450660D01*
X100160745Y-45282301D01*
X100329104Y-45181286D01*
X100430119Y-45147614D01*
X100497463Y-45147614D01*
X100598478Y-45181286D01*
X101069883Y-45652690D02*
X101507616Y-46090423D01*
X101002539Y-46124094D01*
X101103555Y-46225110D01*
X101137227Y-46326125D01*
X101137227Y-46393469D01*
X101103554Y-46494485D01*
X100935196Y-46662843D01*
X100834181Y-46696515D01*
X100766837Y-46696515D01*
X100665822Y-46662843D01*
X100463791Y-46460812D01*
X100430119Y-46359797D01*
X100430119Y-46292454D01*
X102455935Y-41121494D02*
X102388592Y-41121494D01*
X102253905Y-41054150D01*
X102186561Y-40986807D01*
X102119217Y-40852119D01*
X102119217Y-40717432D01*
X102152889Y-40616417D01*
X102253904Y-40448058D01*
X102354920Y-40347043D01*
X102523278Y-40246027D01*
X102624294Y-40212356D01*
X102758981Y-40212356D01*
X102893668Y-40279700D01*
X102961012Y-40347043D01*
X103028355Y-40481730D01*
X103028355Y-40549074D01*
X103062027Y-41862272D02*
X102657965Y-41458211D01*
X102859996Y-41660241D02*
X103567102Y-40953134D01*
X103398744Y-40986806D01*
X103264057Y-40986806D01*
X103163042Y-40953134D01*
X104206866Y-41592898D02*
X104274210Y-41660242D01*
X104307882Y-41761257D01*
X104307882Y-41828600D01*
X104274210Y-41929615D01*
X104173195Y-42097974D01*
X104004835Y-42266333D01*
X103836477Y-42367348D01*
X103735462Y-42401020D01*
X103668118Y-42401020D01*
X103567103Y-42367348D01*
X103499759Y-42300004D01*
X103466087Y-42198989D01*
X103466087Y-42131646D01*
X103499759Y-42030631D01*
X103600774Y-41862272D01*
X103769133Y-41693913D01*
X103937492Y-41592898D01*
X104038507Y-41559226D01*
X104105851Y-41559226D01*
X104206866Y-41592898D01*
X104812958Y-42670394D02*
X104341553Y-43141799D01*
X104913973Y-42232661D02*
X104240537Y-42569379D01*
X104678271Y-43007112D01*
X92843334Y-46052381D02*
X92510000Y-45576190D01*
X92271905Y-46052381D02*
X92271905Y-45052381D01*
X92652858Y-45052381D01*
X92748096Y-45100000D01*
X92795715Y-45147619D01*
X92843334Y-45242857D01*
X92843334Y-45385714D01*
X92795715Y-45480952D01*
X92748096Y-45528571D01*
X92652858Y-45576190D01*
X92271905Y-45576190D01*
X93176667Y-45052381D02*
X93795715Y-45052381D01*
X93462381Y-45433333D01*
X93605239Y-45433333D01*
X93700477Y-45480952D01*
X93748096Y-45528571D01*
X93795715Y-45623810D01*
X93795715Y-45861905D01*
X93748096Y-45957143D01*
X93700477Y-46004762D01*
X93605239Y-46052381D01*
X93319524Y-46052381D01*
X93224286Y-46004762D01*
X93176667Y-45957143D01*
X81383334Y-46152381D02*
X81050000Y-45676190D01*
X80811905Y-46152381D02*
X80811905Y-45152381D01*
X81192858Y-45152381D01*
X81288096Y-45200000D01*
X81335715Y-45247619D01*
X81383334Y-45342857D01*
X81383334Y-45485714D01*
X81335715Y-45580952D01*
X81288096Y-45628571D01*
X81192858Y-45676190D01*
X80811905Y-45676190D01*
X81859524Y-46152381D02*
X82050000Y-46152381D01*
X82145239Y-46104762D01*
X82192858Y-46057143D01*
X82288096Y-45914286D01*
X82335715Y-45723810D01*
X82335715Y-45342857D01*
X82288096Y-45247619D01*
X82240477Y-45200000D01*
X82145239Y-45152381D01*
X81954762Y-45152381D01*
X81859524Y-45200000D01*
X81811905Y-45247619D01*
X81764286Y-45342857D01*
X81764286Y-45580952D01*
X81811905Y-45676190D01*
X81859524Y-45723810D01*
X81954762Y-45771429D01*
X82145239Y-45771429D01*
X82240477Y-45723810D01*
X82288096Y-45676190D01*
X82335715Y-45580952D01*
X33721905Y-69937381D02*
X33721905Y-68937381D01*
X34102858Y-68937381D01*
X34198096Y-68985000D01*
X34245715Y-69032619D01*
X34293334Y-69127857D01*
X34293334Y-69270714D01*
X34245715Y-69365952D01*
X34198096Y-69413571D01*
X34102858Y-69461190D01*
X33721905Y-69461190D01*
X34674286Y-69032619D02*
X34721905Y-68985000D01*
X34817143Y-68937381D01*
X35055239Y-68937381D01*
X35150477Y-68985000D01*
X35198096Y-69032619D01*
X35245715Y-69127857D01*
X35245715Y-69223095D01*
X35198096Y-69365952D01*
X34626667Y-69937381D01*
X35245715Y-69937381D01*
X49117143Y-32802381D02*
X48783809Y-32326190D01*
X48545714Y-32802381D02*
X48545714Y-31802381D01*
X48926667Y-31802381D01*
X49021905Y-31850000D01*
X49069524Y-31897619D01*
X49117143Y-31992857D01*
X49117143Y-32135714D01*
X49069524Y-32230952D01*
X49021905Y-32278571D01*
X48926667Y-32326190D01*
X48545714Y-32326190D01*
X50069524Y-32802381D02*
X49498095Y-32802381D01*
X49783809Y-32802381D02*
X49783809Y-31802381D01*
X49688571Y-31945238D01*
X49593333Y-32040476D01*
X49498095Y-32088095D01*
X50974286Y-31802381D02*
X50498095Y-31802381D01*
X50450476Y-32278571D01*
X50498095Y-32230952D01*
X50593333Y-32183333D01*
X50831429Y-32183333D01*
X50926667Y-32230952D01*
X50974286Y-32278571D01*
X51021905Y-32373810D01*
X51021905Y-32611905D01*
X50974286Y-32707143D01*
X50926667Y-32754762D01*
X50831429Y-32802381D01*
X50593333Y-32802381D01*
X50498095Y-32754762D01*
X50450476Y-32707143D01*
X54617143Y-39602381D02*
X54283809Y-39126190D01*
X54045714Y-39602381D02*
X54045714Y-38602381D01*
X54426667Y-38602381D01*
X54521905Y-38650000D01*
X54569524Y-38697619D01*
X54617143Y-38792857D01*
X54617143Y-38935714D01*
X54569524Y-39030952D01*
X54521905Y-39078571D01*
X54426667Y-39126190D01*
X54045714Y-39126190D01*
X55474286Y-38935714D02*
X55474286Y-39602381D01*
X55236190Y-38554762D02*
X54998095Y-39269048D01*
X55617143Y-39269048D01*
X56426667Y-38602381D02*
X56236190Y-38602381D01*
X56140952Y-38650000D01*
X56093333Y-38697619D01*
X55998095Y-38840476D01*
X55950476Y-39030952D01*
X55950476Y-39411905D01*
X55998095Y-39507143D01*
X56045714Y-39554762D01*
X56140952Y-39602381D01*
X56331429Y-39602381D01*
X56426667Y-39554762D01*
X56474286Y-39507143D01*
X56521905Y-39411905D01*
X56521905Y-39173810D01*
X56474286Y-39078571D01*
X56426667Y-39030952D01*
X56331429Y-38983333D01*
X56140952Y-38983333D01*
X56045714Y-39030952D01*
X55998095Y-39078571D01*
X55950476Y-39173810D01*
X107587143Y-45492381D02*
X107253809Y-45016190D01*
X107015714Y-45492381D02*
X107015714Y-44492381D01*
X107396667Y-44492381D01*
X107491905Y-44540000D01*
X107539524Y-44587619D01*
X107587143Y-44682857D01*
X107587143Y-44825714D01*
X107539524Y-44920952D01*
X107491905Y-44968571D01*
X107396667Y-45016190D01*
X107015714Y-45016190D01*
X108491905Y-44492381D02*
X108015714Y-44492381D01*
X107968095Y-44968571D01*
X108015714Y-44920952D01*
X108110952Y-44873333D01*
X108349048Y-44873333D01*
X108444286Y-44920952D01*
X108491905Y-44968571D01*
X108539524Y-45063810D01*
X108539524Y-45301905D01*
X108491905Y-45397143D01*
X108444286Y-45444762D01*
X108349048Y-45492381D01*
X108110952Y-45492381D01*
X108015714Y-45444762D01*
X107968095Y-45397143D01*
X109158571Y-44492381D02*
X109253810Y-44492381D01*
X109349048Y-44540000D01*
X109396667Y-44587619D01*
X109444286Y-44682857D01*
X109491905Y-44873333D01*
X109491905Y-45111429D01*
X109444286Y-45301905D01*
X109396667Y-45397143D01*
X109349048Y-45444762D01*
X109253810Y-45492381D01*
X109158571Y-45492381D01*
X109063333Y-45444762D01*
X109015714Y-45397143D01*
X108968095Y-45301905D01*
X108920476Y-45111429D01*
X108920476Y-44873333D01*
X108968095Y-44682857D01*
X109015714Y-44587619D01*
X109063333Y-44540000D01*
X109158571Y-44492381D01*
X107587143Y-51772381D02*
X107253809Y-51296190D01*
X107015714Y-51772381D02*
X107015714Y-50772381D01*
X107396667Y-50772381D01*
X107491905Y-50820000D01*
X107539524Y-50867619D01*
X107587143Y-50962857D01*
X107587143Y-51105714D01*
X107539524Y-51200952D01*
X107491905Y-51248571D01*
X107396667Y-51296190D01*
X107015714Y-51296190D01*
X108491905Y-50772381D02*
X108015714Y-50772381D01*
X107968095Y-51248571D01*
X108015714Y-51200952D01*
X108110952Y-51153333D01*
X108349048Y-51153333D01*
X108444286Y-51200952D01*
X108491905Y-51248571D01*
X108539524Y-51343810D01*
X108539524Y-51581905D01*
X108491905Y-51677143D01*
X108444286Y-51724762D01*
X108349048Y-51772381D01*
X108110952Y-51772381D01*
X108015714Y-51724762D01*
X107968095Y-51677143D01*
X109491905Y-51772381D02*
X108920476Y-51772381D01*
X109206190Y-51772381D02*
X109206190Y-50772381D01*
X109110952Y-50915238D01*
X109015714Y-51010476D01*
X108920476Y-51058095D01*
X111828095Y-37432381D02*
X111828095Y-38241905D01*
X111875714Y-38337143D01*
X111923333Y-38384762D01*
X112018571Y-38432381D01*
X112209048Y-38432381D01*
X112304286Y-38384762D01*
X112351905Y-38337143D01*
X112399524Y-38241905D01*
X112399524Y-37432381D01*
X113304286Y-37765714D02*
X113304286Y-38432381D01*
X113066190Y-37384762D02*
X112828095Y-38099048D01*
X113447143Y-38099048D01*
X104168095Y-32862381D02*
X104168095Y-33671905D01*
X104215714Y-33767143D01*
X104263333Y-33814762D01*
X104358571Y-33862381D01*
X104549048Y-33862381D01*
X104644286Y-33814762D01*
X104691905Y-33767143D01*
X104739524Y-33671905D01*
X104739524Y-32862381D01*
X105120476Y-32862381D02*
X105787143Y-32862381D01*
X105358571Y-33862381D01*
X38452381Y-35488095D02*
X37452381Y-35488095D01*
X37452381Y-35107142D01*
X37500000Y-35011904D01*
X37547619Y-34964285D01*
X37642857Y-34916666D01*
X37785714Y-34916666D01*
X37880952Y-34964285D01*
X37928571Y-35011904D01*
X37976190Y-35107142D01*
X37976190Y-35488095D01*
X37785714Y-34059523D02*
X38452381Y-34059523D01*
X37404762Y-34297619D02*
X38119048Y-34535714D01*
X38119048Y-33916666D01*
X97823334Y-30337143D02*
X97775715Y-30384762D01*
X97632858Y-30432381D01*
X97537620Y-30432381D01*
X97394762Y-30384762D01*
X97299524Y-30289524D01*
X97251905Y-30194286D01*
X97204286Y-30003810D01*
X97204286Y-29860952D01*
X97251905Y-29670476D01*
X97299524Y-29575238D01*
X97394762Y-29480000D01*
X97537620Y-29432381D01*
X97632858Y-29432381D01*
X97775715Y-29480000D01*
X97823334Y-29527619D01*
X98156667Y-29432381D02*
X98823334Y-29432381D01*
X98394762Y-30432381D01*
X108653334Y-70207143D02*
X108605715Y-70254762D01*
X108462858Y-70302381D01*
X108367620Y-70302381D01*
X108224762Y-70254762D01*
X108129524Y-70159524D01*
X108081905Y-70064286D01*
X108034286Y-69873810D01*
X108034286Y-69730952D01*
X108081905Y-69540476D01*
X108129524Y-69445238D01*
X108224762Y-69350000D01*
X108367620Y-69302381D01*
X108462858Y-69302381D01*
X108605715Y-69350000D01*
X108653334Y-69397619D01*
X109224762Y-69730952D02*
X109129524Y-69683333D01*
X109081905Y-69635714D01*
X109034286Y-69540476D01*
X109034286Y-69492857D01*
X109081905Y-69397619D01*
X109129524Y-69350000D01*
X109224762Y-69302381D01*
X109415239Y-69302381D01*
X109510477Y-69350000D01*
X109558096Y-69397619D01*
X109605715Y-69492857D01*
X109605715Y-69540476D01*
X109558096Y-69635714D01*
X109510477Y-69683333D01*
X109415239Y-69730952D01*
X109224762Y-69730952D01*
X109129524Y-69778571D01*
X109081905Y-69826190D01*
X109034286Y-69921429D01*
X109034286Y-70111905D01*
X109081905Y-70207143D01*
X109129524Y-70254762D01*
X109224762Y-70302381D01*
X109415239Y-70302381D01*
X109510477Y-70254762D01*
X109558096Y-70207143D01*
X109605715Y-70111905D01*
X109605715Y-69921429D01*
X109558096Y-69826190D01*
X109510477Y-69778571D01*
X109415239Y-69730952D01*
X66357143Y-34832381D02*
X66023809Y-34356190D01*
X65785714Y-34832381D02*
X65785714Y-33832381D01*
X66166667Y-33832381D01*
X66261905Y-33880000D01*
X66309524Y-33927619D01*
X66357143Y-34022857D01*
X66357143Y-34165714D01*
X66309524Y-34260952D01*
X66261905Y-34308571D01*
X66166667Y-34356190D01*
X65785714Y-34356190D01*
X67261905Y-33832381D02*
X66785714Y-33832381D01*
X66738095Y-34308571D01*
X66785714Y-34260952D01*
X66880952Y-34213333D01*
X67119048Y-34213333D01*
X67214286Y-34260952D01*
X67261905Y-34308571D01*
X67309524Y-34403810D01*
X67309524Y-34641905D01*
X67261905Y-34737143D01*
X67214286Y-34784762D01*
X67119048Y-34832381D01*
X66880952Y-34832381D01*
X66785714Y-34784762D01*
X66738095Y-34737143D01*
X68214286Y-33832381D02*
X67738095Y-33832381D01*
X67690476Y-34308571D01*
X67738095Y-34260952D01*
X67833333Y-34213333D01*
X68071429Y-34213333D01*
X68166667Y-34260952D01*
X68214286Y-34308571D01*
X68261905Y-34403810D01*
X68261905Y-34641905D01*
X68214286Y-34737143D01*
X68166667Y-34784762D01*
X68071429Y-34832381D01*
X67833333Y-34832381D01*
X67738095Y-34784762D01*
X67690476Y-34737143D01*
X66357143Y-39832381D02*
X66023809Y-39356190D01*
X65785714Y-39832381D02*
X65785714Y-38832381D01*
X66166667Y-38832381D01*
X66261905Y-38880000D01*
X66309524Y-38927619D01*
X66357143Y-39022857D01*
X66357143Y-39165714D01*
X66309524Y-39260952D01*
X66261905Y-39308571D01*
X66166667Y-39356190D01*
X65785714Y-39356190D01*
X67261905Y-38832381D02*
X66785714Y-38832381D01*
X66738095Y-39308571D01*
X66785714Y-39260952D01*
X66880952Y-39213333D01*
X67119048Y-39213333D01*
X67214286Y-39260952D01*
X67261905Y-39308571D01*
X67309524Y-39403810D01*
X67309524Y-39641905D01*
X67261905Y-39737143D01*
X67214286Y-39784762D01*
X67119048Y-39832381D01*
X66880952Y-39832381D01*
X66785714Y-39784762D01*
X66738095Y-39737143D01*
X68166667Y-38832381D02*
X67976190Y-38832381D01*
X67880952Y-38880000D01*
X67833333Y-38927619D01*
X67738095Y-39070476D01*
X67690476Y-39260952D01*
X67690476Y-39641905D01*
X67738095Y-39737143D01*
X67785714Y-39784762D01*
X67880952Y-39832381D01*
X68071429Y-39832381D01*
X68166667Y-39784762D01*
X68214286Y-39737143D01*
X68261905Y-39641905D01*
X68261905Y-39403810D01*
X68214286Y-39308571D01*
X68166667Y-39260952D01*
X68071429Y-39213333D01*
X67880952Y-39213333D01*
X67785714Y-39260952D01*
X67738095Y-39308571D01*
X67690476Y-39403810D01*
X58877143Y-43642381D02*
X58543809Y-43166190D01*
X58305714Y-43642381D02*
X58305714Y-42642381D01*
X58686667Y-42642381D01*
X58781905Y-42690000D01*
X58829524Y-42737619D01*
X58877143Y-42832857D01*
X58877143Y-42975714D01*
X58829524Y-43070952D01*
X58781905Y-43118571D01*
X58686667Y-43166190D01*
X58305714Y-43166190D01*
X59781905Y-42642381D02*
X59305714Y-42642381D01*
X59258095Y-43118571D01*
X59305714Y-43070952D01*
X59400952Y-43023333D01*
X59639048Y-43023333D01*
X59734286Y-43070952D01*
X59781905Y-43118571D01*
X59829524Y-43213810D01*
X59829524Y-43451905D01*
X59781905Y-43547143D01*
X59734286Y-43594762D01*
X59639048Y-43642381D01*
X59400952Y-43642381D01*
X59305714Y-43594762D01*
X59258095Y-43547143D01*
X60400952Y-43070952D02*
X60305714Y-43023333D01*
X60258095Y-42975714D01*
X60210476Y-42880476D01*
X60210476Y-42832857D01*
X60258095Y-42737619D01*
X60305714Y-42690000D01*
X60400952Y-42642381D01*
X60591429Y-42642381D01*
X60686667Y-42690000D01*
X60734286Y-42737619D01*
X60781905Y-42832857D01*
X60781905Y-42880476D01*
X60734286Y-42975714D01*
X60686667Y-43023333D01*
X60591429Y-43070952D01*
X60400952Y-43070952D01*
X60305714Y-43118571D01*
X60258095Y-43166190D01*
X60210476Y-43261429D01*
X60210476Y-43451905D01*
X60258095Y-43547143D01*
X60305714Y-43594762D01*
X60400952Y-43642381D01*
X60591429Y-43642381D01*
X60686667Y-43594762D01*
X60734286Y-43547143D01*
X60781905Y-43451905D01*
X60781905Y-43261429D01*
X60734286Y-43166190D01*
X60686667Y-43118571D01*
X60591429Y-43070952D01*
X66632381Y-50442857D02*
X66156190Y-50776191D01*
X66632381Y-51014286D02*
X65632381Y-51014286D01*
X65632381Y-50633333D01*
X65680000Y-50538095D01*
X65727619Y-50490476D01*
X65822857Y-50442857D01*
X65965714Y-50442857D01*
X66060952Y-50490476D01*
X66108571Y-50538095D01*
X66156190Y-50633333D01*
X66156190Y-51014286D01*
X65632381Y-49538095D02*
X65632381Y-50014286D01*
X66108571Y-50061905D01*
X66060952Y-50014286D01*
X66013333Y-49919048D01*
X66013333Y-49680952D01*
X66060952Y-49585714D01*
X66108571Y-49538095D01*
X66203810Y-49490476D01*
X66441905Y-49490476D01*
X66537143Y-49538095D01*
X66584762Y-49585714D01*
X66632381Y-49680952D01*
X66632381Y-49919048D01*
X66584762Y-50014286D01*
X66537143Y-50061905D01*
X66632381Y-49014286D02*
X66632381Y-48823810D01*
X66584762Y-48728571D01*
X66537143Y-48680952D01*
X66394286Y-48585714D01*
X66203810Y-48538095D01*
X65822857Y-48538095D01*
X65727619Y-48585714D01*
X65680000Y-48633333D01*
X65632381Y-48728571D01*
X65632381Y-48919048D01*
X65680000Y-49014286D01*
X65727619Y-49061905D01*
X65822857Y-49109524D01*
X66060952Y-49109524D01*
X66156190Y-49061905D01*
X66203810Y-49014286D01*
X66251429Y-48919048D01*
X66251429Y-48728571D01*
X66203810Y-48633333D01*
X66156190Y-48585714D01*
X66060952Y-48538095D01*
X56992381Y-50442857D02*
X56516190Y-50776191D01*
X56992381Y-51014286D02*
X55992381Y-51014286D01*
X55992381Y-50633333D01*
X56040000Y-50538095D01*
X56087619Y-50490476D01*
X56182857Y-50442857D01*
X56325714Y-50442857D01*
X56420952Y-50490476D01*
X56468571Y-50538095D01*
X56516190Y-50633333D01*
X56516190Y-51014286D01*
X55992381Y-49585714D02*
X55992381Y-49776191D01*
X56040000Y-49871429D01*
X56087619Y-49919048D01*
X56230476Y-50014286D01*
X56420952Y-50061905D01*
X56801905Y-50061905D01*
X56897143Y-50014286D01*
X56944762Y-49966667D01*
X56992381Y-49871429D01*
X56992381Y-49680952D01*
X56944762Y-49585714D01*
X56897143Y-49538095D01*
X56801905Y-49490476D01*
X56563810Y-49490476D01*
X56468571Y-49538095D01*
X56420952Y-49585714D01*
X56373333Y-49680952D01*
X56373333Y-49871429D01*
X56420952Y-49966667D01*
X56468571Y-50014286D01*
X56563810Y-50061905D01*
X55992381Y-48871429D02*
X55992381Y-48776190D01*
X56040000Y-48680952D01*
X56087619Y-48633333D01*
X56182857Y-48585714D01*
X56373333Y-48538095D01*
X56611429Y-48538095D01*
X56801905Y-48585714D01*
X56897143Y-48633333D01*
X56944762Y-48680952D01*
X56992381Y-48776190D01*
X56992381Y-48871429D01*
X56944762Y-48966667D01*
X56897143Y-49014286D01*
X56801905Y-49061905D01*
X56611429Y-49109524D01*
X56373333Y-49109524D01*
X56182857Y-49061905D01*
X56087619Y-49014286D01*
X56040000Y-48966667D01*
X55992381Y-48871429D01*
X107647143Y-36037143D02*
X107599524Y-36084762D01*
X107456667Y-36132381D01*
X107361429Y-36132381D01*
X107218571Y-36084762D01*
X107123333Y-35989524D01*
X107075714Y-35894286D01*
X107028095Y-35703810D01*
X107028095Y-35560952D01*
X107075714Y-35370476D01*
X107123333Y-35275238D01*
X107218571Y-35180000D01*
X107361429Y-35132381D01*
X107456667Y-35132381D01*
X107599524Y-35180000D01*
X107647143Y-35227619D01*
X108599524Y-36132381D02*
X108028095Y-36132381D01*
X108313809Y-36132381D02*
X108313809Y-35132381D01*
X108218571Y-35275238D01*
X108123333Y-35370476D01*
X108028095Y-35418095D01*
X109170952Y-35560952D02*
X109075714Y-35513333D01*
X109028095Y-35465714D01*
X108980476Y-35370476D01*
X108980476Y-35322857D01*
X109028095Y-35227619D01*
X109075714Y-35180000D01*
X109170952Y-35132381D01*
X109361429Y-35132381D01*
X109456667Y-35180000D01*
X109504286Y-35227619D01*
X109551905Y-35322857D01*
X109551905Y-35370476D01*
X109504286Y-35465714D01*
X109456667Y-35513333D01*
X109361429Y-35560952D01*
X109170952Y-35560952D01*
X109075714Y-35608571D01*
X109028095Y-35656190D01*
X108980476Y-35751429D01*
X108980476Y-35941905D01*
X109028095Y-36037143D01*
X109075714Y-36084762D01*
X109170952Y-36132381D01*
X109361429Y-36132381D01*
X109456667Y-36084762D01*
X109504286Y-36037143D01*
X109551905Y-35941905D01*
X109551905Y-35751429D01*
X109504286Y-35656190D01*
X109456667Y-35608571D01*
X109361429Y-35560952D01*
X118877143Y-39107143D02*
X118829524Y-39154762D01*
X118686667Y-39202381D01*
X118591429Y-39202381D01*
X118448571Y-39154762D01*
X118353333Y-39059524D01*
X118305714Y-38964286D01*
X118258095Y-38773810D01*
X118258095Y-38630952D01*
X118305714Y-38440476D01*
X118353333Y-38345238D01*
X118448571Y-38250000D01*
X118591429Y-38202381D01*
X118686667Y-38202381D01*
X118829524Y-38250000D01*
X118877143Y-38297619D01*
X119210476Y-38202381D02*
X119829524Y-38202381D01*
X119496190Y-38583333D01*
X119639048Y-38583333D01*
X119734286Y-38630952D01*
X119781905Y-38678571D01*
X119829524Y-38773810D01*
X119829524Y-39011905D01*
X119781905Y-39107143D01*
X119734286Y-39154762D01*
X119639048Y-39202381D01*
X119353333Y-39202381D01*
X119258095Y-39154762D01*
X119210476Y-39107143D01*
X120781905Y-39202381D02*
X120210476Y-39202381D01*
X120496190Y-39202381D02*
X120496190Y-38202381D01*
X120400952Y-38345238D01*
X120305714Y-38440476D01*
X120210476Y-38488095D01*
X122027143Y-28722381D02*
X121693809Y-28246190D01*
X121455714Y-28722381D02*
X121455714Y-27722381D01*
X121836667Y-27722381D01*
X121931905Y-27770000D01*
X121979524Y-27817619D01*
X122027143Y-27912857D01*
X122027143Y-28055714D01*
X121979524Y-28150952D01*
X121931905Y-28198571D01*
X121836667Y-28246190D01*
X121455714Y-28246190D01*
X122884286Y-27722381D02*
X122693809Y-27722381D01*
X122598571Y-27770000D01*
X122550952Y-27817619D01*
X122455714Y-27960476D01*
X122408095Y-28150952D01*
X122408095Y-28531905D01*
X122455714Y-28627143D01*
X122503333Y-28674762D01*
X122598571Y-28722381D01*
X122789048Y-28722381D01*
X122884286Y-28674762D01*
X122931905Y-28627143D01*
X122979524Y-28531905D01*
X122979524Y-28293810D01*
X122931905Y-28198571D01*
X122884286Y-28150952D01*
X122789048Y-28103333D01*
X122598571Y-28103333D01*
X122503333Y-28150952D01*
X122455714Y-28198571D01*
X122408095Y-28293810D01*
X123931905Y-28722381D02*
X123360476Y-28722381D01*
X123646190Y-28722381D02*
X123646190Y-27722381D01*
X123550952Y-27865238D01*
X123455714Y-27960476D01*
X123360476Y-28008095D01*
X129292381Y-31832857D02*
X128816190Y-32166191D01*
X129292381Y-32404286D02*
X128292381Y-32404286D01*
X128292381Y-32023333D01*
X128340000Y-31928095D01*
X128387619Y-31880476D01*
X128482857Y-31832857D01*
X128625714Y-31832857D01*
X128720952Y-31880476D01*
X128768571Y-31928095D01*
X128816190Y-32023333D01*
X128816190Y-32404286D01*
X128292381Y-30975714D02*
X128292381Y-31166191D01*
X128340000Y-31261429D01*
X128387619Y-31309048D01*
X128530476Y-31404286D01*
X128720952Y-31451905D01*
X129101905Y-31451905D01*
X129197143Y-31404286D01*
X129244762Y-31356667D01*
X129292381Y-31261429D01*
X129292381Y-31070952D01*
X129244762Y-30975714D01*
X129197143Y-30928095D01*
X129101905Y-30880476D01*
X128863810Y-30880476D01*
X128768571Y-30928095D01*
X128720952Y-30975714D01*
X128673333Y-31070952D01*
X128673333Y-31261429D01*
X128720952Y-31356667D01*
X128768571Y-31404286D01*
X128863810Y-31451905D01*
X128387619Y-30499524D02*
X128340000Y-30451905D01*
X128292381Y-30356667D01*
X128292381Y-30118571D01*
X128340000Y-30023333D01*
X128387619Y-29975714D01*
X128482857Y-29928095D01*
X128578095Y-29928095D01*
X128720952Y-29975714D01*
X129292381Y-30547143D01*
X129292381Y-29928095D01*
X108677143Y-23537143D02*
X108629524Y-23584762D01*
X108486667Y-23632381D01*
X108391429Y-23632381D01*
X108248571Y-23584762D01*
X108153333Y-23489524D01*
X108105714Y-23394286D01*
X108058095Y-23203810D01*
X108058095Y-23060952D01*
X108105714Y-22870476D01*
X108153333Y-22775238D01*
X108248571Y-22680000D01*
X108391429Y-22632381D01*
X108486667Y-22632381D01*
X108629524Y-22680000D01*
X108677143Y-22727619D01*
X109629524Y-23632381D02*
X109058095Y-23632381D01*
X109343809Y-23632381D02*
X109343809Y-22632381D01*
X109248571Y-22775238D01*
X109153333Y-22870476D01*
X109058095Y-22918095D01*
X110105714Y-23632381D02*
X110296190Y-23632381D01*
X110391429Y-23584762D01*
X110439048Y-23537143D01*
X110534286Y-23394286D01*
X110581905Y-23203810D01*
X110581905Y-22822857D01*
X110534286Y-22727619D01*
X110486667Y-22680000D01*
X110391429Y-22632381D01*
X110200952Y-22632381D01*
X110105714Y-22680000D01*
X110058095Y-22727619D01*
X110010476Y-22822857D01*
X110010476Y-23060952D01*
X110058095Y-23156190D01*
X110105714Y-23203810D01*
X110200952Y-23251429D01*
X110391429Y-23251429D01*
X110486667Y-23203810D01*
X110534286Y-23156190D01*
X110581905Y-23060952D01*
X117505143Y-49897143D02*
X117457524Y-49944762D01*
X117314667Y-49992381D01*
X117219429Y-49992381D01*
X117076571Y-49944762D01*
X116981333Y-49849524D01*
X116933714Y-49754286D01*
X116886095Y-49563810D01*
X116886095Y-49420952D01*
X116933714Y-49230476D01*
X116981333Y-49135238D01*
X117076571Y-49040000D01*
X117219429Y-48992381D01*
X117314667Y-48992381D01*
X117457524Y-49040000D01*
X117505143Y-49087619D01*
X118076571Y-49420952D02*
X117981333Y-49373333D01*
X117933714Y-49325714D01*
X117886095Y-49230476D01*
X117886095Y-49182857D01*
X117933714Y-49087619D01*
X117981333Y-49040000D01*
X118076571Y-48992381D01*
X118267048Y-48992381D01*
X118362286Y-49040000D01*
X118409905Y-49087619D01*
X118457524Y-49182857D01*
X118457524Y-49230476D01*
X118409905Y-49325714D01*
X118362286Y-49373333D01*
X118267048Y-49420952D01*
X118076571Y-49420952D01*
X117981333Y-49468571D01*
X117933714Y-49516190D01*
X117886095Y-49611429D01*
X117886095Y-49801905D01*
X117933714Y-49897143D01*
X117981333Y-49944762D01*
X118076571Y-49992381D01*
X118267048Y-49992381D01*
X118362286Y-49944762D01*
X118409905Y-49897143D01*
X118457524Y-49801905D01*
X118457524Y-49611429D01*
X118409905Y-49516190D01*
X118362286Y-49468571D01*
X118267048Y-49420952D01*
X118790857Y-48992381D02*
X119409905Y-48992381D01*
X119076571Y-49373333D01*
X119219429Y-49373333D01*
X119314667Y-49420952D01*
X119362286Y-49468571D01*
X119409905Y-49563810D01*
X119409905Y-49801905D01*
X119362286Y-49897143D01*
X119314667Y-49944762D01*
X119219429Y-49992381D01*
X118933714Y-49992381D01*
X118838476Y-49944762D01*
X118790857Y-49897143D01*
X67252381Y-74542857D02*
X66776190Y-74876191D01*
X67252381Y-75114286D02*
X66252381Y-75114286D01*
X66252381Y-74733333D01*
X66300000Y-74638095D01*
X66347619Y-74590476D01*
X66442857Y-74542857D01*
X66585714Y-74542857D01*
X66680952Y-74590476D01*
X66728571Y-74638095D01*
X66776190Y-74733333D01*
X66776190Y-75114286D01*
X66347619Y-74161905D02*
X66300000Y-74114286D01*
X66252381Y-74019048D01*
X66252381Y-73780952D01*
X66300000Y-73685714D01*
X66347619Y-73638095D01*
X66442857Y-73590476D01*
X66538095Y-73590476D01*
X66680952Y-73638095D01*
X67252381Y-74209524D01*
X67252381Y-73590476D01*
X66252381Y-73257143D02*
X66252381Y-72638095D01*
X66633333Y-72971429D01*
X66633333Y-72828571D01*
X66680952Y-72733333D01*
X66728571Y-72685714D01*
X66823810Y-72638095D01*
X67061905Y-72638095D01*
X67157143Y-72685714D01*
X67204762Y-72733333D01*
X67252381Y-72828571D01*
X67252381Y-73114286D01*
X67204762Y-73209524D01*
X67157143Y-73257143D01*
X73407143Y-59852857D02*
X73454762Y-59900476D01*
X73502381Y-60043333D01*
X73502381Y-60138571D01*
X73454762Y-60281429D01*
X73359524Y-60376667D01*
X73264286Y-60424286D01*
X73073810Y-60471905D01*
X72930952Y-60471905D01*
X72740476Y-60424286D01*
X72645238Y-60376667D01*
X72550000Y-60281429D01*
X72502381Y-60138571D01*
X72502381Y-60043333D01*
X72550000Y-59900476D01*
X72597619Y-59852857D01*
X72835714Y-58995714D02*
X73502381Y-58995714D01*
X72454762Y-59233810D02*
X73169048Y-59471905D01*
X73169048Y-58852857D01*
X72502381Y-58567143D02*
X72502381Y-57900476D01*
X73502381Y-58329048D01*
X46877143Y-46462381D02*
X46543809Y-45986190D01*
X46305714Y-46462381D02*
X46305714Y-45462381D01*
X46686667Y-45462381D01*
X46781905Y-45510000D01*
X46829524Y-45557619D01*
X46877143Y-45652857D01*
X46877143Y-45795714D01*
X46829524Y-45890952D01*
X46781905Y-45938571D01*
X46686667Y-45986190D01*
X46305714Y-45986190D01*
X47734286Y-45462381D02*
X47543809Y-45462381D01*
X47448571Y-45510000D01*
X47400952Y-45557619D01*
X47305714Y-45700476D01*
X47258095Y-45890952D01*
X47258095Y-46271905D01*
X47305714Y-46367143D01*
X47353333Y-46414762D01*
X47448571Y-46462381D01*
X47639048Y-46462381D01*
X47734286Y-46414762D01*
X47781905Y-46367143D01*
X47829524Y-46271905D01*
X47829524Y-46033810D01*
X47781905Y-45938571D01*
X47734286Y-45890952D01*
X47639048Y-45843333D01*
X47448571Y-45843333D01*
X47353333Y-45890952D01*
X47305714Y-45938571D01*
X47258095Y-46033810D01*
X48686667Y-45795714D02*
X48686667Y-46462381D01*
X48448571Y-45414762D02*
X48210476Y-46129048D01*
X48829524Y-46129048D01*
X99507143Y-21722381D02*
X99173809Y-21246190D01*
X98935714Y-21722381D02*
X98935714Y-20722381D01*
X99316667Y-20722381D01*
X99411905Y-20770000D01*
X99459524Y-20817619D01*
X99507143Y-20912857D01*
X99507143Y-21055714D01*
X99459524Y-21150952D01*
X99411905Y-21198571D01*
X99316667Y-21246190D01*
X98935714Y-21246190D01*
X100411905Y-20722381D02*
X99935714Y-20722381D01*
X99888095Y-21198571D01*
X99935714Y-21150952D01*
X100030952Y-21103333D01*
X100269048Y-21103333D01*
X100364286Y-21150952D01*
X100411905Y-21198571D01*
X100459524Y-21293810D01*
X100459524Y-21531905D01*
X100411905Y-21627143D01*
X100364286Y-21674762D01*
X100269048Y-21722381D01*
X100030952Y-21722381D01*
X99935714Y-21674762D01*
X99888095Y-21627143D01*
X101316667Y-21055714D02*
X101316667Y-21722381D01*
X101078571Y-20674762D02*
X100840476Y-21389048D01*
X101459524Y-21389048D01*
X59297143Y-68202381D02*
X58963809Y-67726190D01*
X58725714Y-68202381D02*
X58725714Y-67202381D01*
X59106667Y-67202381D01*
X59201905Y-67250000D01*
X59249524Y-67297619D01*
X59297143Y-67392857D01*
X59297143Y-67535714D01*
X59249524Y-67630952D01*
X59201905Y-67678571D01*
X59106667Y-67726190D01*
X58725714Y-67726190D01*
X60154286Y-67202381D02*
X59963809Y-67202381D01*
X59868571Y-67250000D01*
X59820952Y-67297619D01*
X59725714Y-67440476D01*
X59678095Y-67630952D01*
X59678095Y-68011905D01*
X59725714Y-68107143D01*
X59773333Y-68154762D01*
X59868571Y-68202381D01*
X60059048Y-68202381D01*
X60154286Y-68154762D01*
X60201905Y-68107143D01*
X60249524Y-68011905D01*
X60249524Y-67773810D01*
X60201905Y-67678571D01*
X60154286Y-67630952D01*
X60059048Y-67583333D01*
X59868571Y-67583333D01*
X59773333Y-67630952D01*
X59725714Y-67678571D01*
X59678095Y-67773810D01*
X60582857Y-67202381D02*
X61201905Y-67202381D01*
X60868571Y-67583333D01*
X61011429Y-67583333D01*
X61106667Y-67630952D01*
X61154286Y-67678571D01*
X61201905Y-67773810D01*
X61201905Y-68011905D01*
X61154286Y-68107143D01*
X61106667Y-68154762D01*
X61011429Y-68202381D01*
X60725714Y-68202381D01*
X60630476Y-68154762D01*
X60582857Y-68107143D01*
X108522381Y-75876666D02*
X108046190Y-76210000D01*
X108522381Y-76448095D02*
X107522381Y-76448095D01*
X107522381Y-76067142D01*
X107570000Y-75971904D01*
X107617619Y-75924285D01*
X107712857Y-75876666D01*
X107855714Y-75876666D01*
X107950952Y-75924285D01*
X107998571Y-75971904D01*
X108046190Y-76067142D01*
X108046190Y-76448095D01*
X107950952Y-75305238D02*
X107903333Y-75400476D01*
X107855714Y-75448095D01*
X107760476Y-75495714D01*
X107712857Y-75495714D01*
X107617619Y-75448095D01*
X107570000Y-75400476D01*
X107522381Y-75305238D01*
X107522381Y-75114761D01*
X107570000Y-75019523D01*
X107617619Y-74971904D01*
X107712857Y-74924285D01*
X107760476Y-74924285D01*
X107855714Y-74971904D01*
X107903333Y-75019523D01*
X107950952Y-75114761D01*
X107950952Y-75305238D01*
X107998571Y-75400476D01*
X108046190Y-75448095D01*
X108141429Y-75495714D01*
X108331905Y-75495714D01*
X108427143Y-75448095D01*
X108474762Y-75400476D01*
X108522381Y-75305238D01*
X108522381Y-75114761D01*
X108474762Y-75019523D01*
X108427143Y-74971904D01*
X108331905Y-74924285D01*
X108141429Y-74924285D01*
X108046190Y-74971904D01*
X107998571Y-75019523D01*
X107950952Y-75114761D01*
X53627143Y-46707143D02*
X53579524Y-46754762D01*
X53436667Y-46802381D01*
X53341429Y-46802381D01*
X53198571Y-46754762D01*
X53103333Y-46659524D01*
X53055714Y-46564286D01*
X53008095Y-46373810D01*
X53008095Y-46230952D01*
X53055714Y-46040476D01*
X53103333Y-45945238D01*
X53198571Y-45850000D01*
X53341429Y-45802381D01*
X53436667Y-45802381D01*
X53579524Y-45850000D01*
X53627143Y-45897619D01*
X54531905Y-45802381D02*
X54055714Y-45802381D01*
X54008095Y-46278571D01*
X54055714Y-46230952D01*
X54150952Y-46183333D01*
X54389048Y-46183333D01*
X54484286Y-46230952D01*
X54531905Y-46278571D01*
X54579524Y-46373810D01*
X54579524Y-46611905D01*
X54531905Y-46707143D01*
X54484286Y-46754762D01*
X54389048Y-46802381D01*
X54150952Y-46802381D01*
X54055714Y-46754762D01*
X54008095Y-46707143D01*
X55484286Y-45802381D02*
X55008095Y-45802381D01*
X54960476Y-46278571D01*
X55008095Y-46230952D01*
X55103333Y-46183333D01*
X55341429Y-46183333D01*
X55436667Y-46230952D01*
X55484286Y-46278571D01*
X55531905Y-46373810D01*
X55531905Y-46611905D01*
X55484286Y-46707143D01*
X55436667Y-46754762D01*
X55341429Y-46802381D01*
X55103333Y-46802381D01*
X55008095Y-46754762D01*
X54960476Y-46707143D01*
X92512381Y-55122857D02*
X92036190Y-55456191D01*
X92512381Y-55694286D02*
X91512381Y-55694286D01*
X91512381Y-55313333D01*
X91560000Y-55218095D01*
X91607619Y-55170476D01*
X91702857Y-55122857D01*
X91845714Y-55122857D01*
X91940952Y-55170476D01*
X91988571Y-55218095D01*
X92036190Y-55313333D01*
X92036190Y-55694286D01*
X91845714Y-54265714D02*
X92512381Y-54265714D01*
X91464762Y-54503810D02*
X92179048Y-54741905D01*
X92179048Y-54122857D01*
X91512381Y-53551429D02*
X91512381Y-53456190D01*
X91560000Y-53360952D01*
X91607619Y-53313333D01*
X91702857Y-53265714D01*
X91893333Y-53218095D01*
X92131429Y-53218095D01*
X92321905Y-53265714D01*
X92417143Y-53313333D01*
X92464762Y-53360952D01*
X92512381Y-53456190D01*
X92512381Y-53551429D01*
X92464762Y-53646667D01*
X92417143Y-53694286D01*
X92321905Y-53741905D01*
X92131429Y-53789524D01*
X91893333Y-53789524D01*
X91702857Y-53741905D01*
X91607619Y-53694286D01*
X91560000Y-53646667D01*
X91512381Y-53551429D01*
X94627143Y-60192381D02*
X94293809Y-59716190D01*
X94055714Y-60192381D02*
X94055714Y-59192381D01*
X94436667Y-59192381D01*
X94531905Y-59240000D01*
X94579524Y-59287619D01*
X94627143Y-59382857D01*
X94627143Y-59525714D01*
X94579524Y-59620952D01*
X94531905Y-59668571D01*
X94436667Y-59716190D01*
X94055714Y-59716190D01*
X95484286Y-59525714D02*
X95484286Y-60192381D01*
X95246190Y-59144762D02*
X95008095Y-59859048D01*
X95627143Y-59859048D01*
X95960476Y-59287619D02*
X96008095Y-59240000D01*
X96103333Y-59192381D01*
X96341429Y-59192381D01*
X96436667Y-59240000D01*
X96484286Y-59287619D01*
X96531905Y-59382857D01*
X96531905Y-59478095D01*
X96484286Y-59620952D01*
X95912857Y-60192381D01*
X96531905Y-60192381D01*
X113907143Y-55782857D02*
X113954762Y-55830476D01*
X114002381Y-55973333D01*
X114002381Y-56068571D01*
X113954762Y-56211429D01*
X113859524Y-56306667D01*
X113764286Y-56354286D01*
X113573810Y-56401905D01*
X113430952Y-56401905D01*
X113240476Y-56354286D01*
X113145238Y-56306667D01*
X113050000Y-56211429D01*
X113002381Y-56068571D01*
X113002381Y-55973333D01*
X113050000Y-55830476D01*
X113097619Y-55782857D01*
X113002381Y-54925714D02*
X113002381Y-55116191D01*
X113050000Y-55211429D01*
X113097619Y-55259048D01*
X113240476Y-55354286D01*
X113430952Y-55401905D01*
X113811905Y-55401905D01*
X113907143Y-55354286D01*
X113954762Y-55306667D01*
X114002381Y-55211429D01*
X114002381Y-55020952D01*
X113954762Y-54925714D01*
X113907143Y-54878095D01*
X113811905Y-54830476D01*
X113573810Y-54830476D01*
X113478571Y-54878095D01*
X113430952Y-54925714D01*
X113383333Y-55020952D01*
X113383333Y-55211429D01*
X113430952Y-55306667D01*
X113478571Y-55354286D01*
X113573810Y-55401905D01*
X114002381Y-53878095D02*
X114002381Y-54449524D01*
X114002381Y-54163810D02*
X113002381Y-54163810D01*
X113145238Y-54259048D01*
X113240476Y-54354286D01*
X113288095Y-54449524D01*
X126881905Y-35972381D02*
X126881905Y-34972381D01*
X127120000Y-34972381D01*
X127262858Y-35020000D01*
X127358096Y-35115238D01*
X127405715Y-35210476D01*
X127453334Y-35400952D01*
X127453334Y-35543810D01*
X127405715Y-35734286D01*
X127358096Y-35829524D01*
X127262858Y-35924762D01*
X127120000Y-35972381D01*
X126881905Y-35972381D01*
X128310477Y-35305714D02*
X128310477Y-35972381D01*
X128072381Y-34924762D02*
X127834286Y-35639048D01*
X128453334Y-35639048D01*
X42402381Y-33916666D02*
X42402381Y-34392857D01*
X41402381Y-34392857D01*
X41830952Y-33440476D02*
X41783333Y-33535714D01*
X41735714Y-33583333D01*
X41640476Y-33630952D01*
X41592857Y-33630952D01*
X41497619Y-33583333D01*
X41450000Y-33535714D01*
X41402381Y-33440476D01*
X41402381Y-33249999D01*
X41450000Y-33154761D01*
X41497619Y-33107142D01*
X41592857Y-33059523D01*
X41640476Y-33059523D01*
X41735714Y-33107142D01*
X41783333Y-33154761D01*
X41830952Y-33249999D01*
X41830952Y-33440476D01*
X41878571Y-33535714D01*
X41926190Y-33583333D01*
X42021429Y-33630952D01*
X42211905Y-33630952D01*
X42307143Y-33583333D01*
X42354762Y-33535714D01*
X42402381Y-33440476D01*
X42402381Y-33249999D01*
X42354762Y-33154761D01*
X42307143Y-33107142D01*
X42211905Y-33059523D01*
X42021429Y-33059523D01*
X41926190Y-33107142D01*
X41878571Y-33154761D01*
X41830952Y-33249999D01*
X42412381Y-52416666D02*
X42412381Y-52892857D01*
X41412381Y-52892857D01*
X42412381Y-52035714D02*
X42412381Y-51845238D01*
X42364762Y-51749999D01*
X42317143Y-51702380D01*
X42174286Y-51607142D01*
X41983810Y-51559523D01*
X41602857Y-51559523D01*
X41507619Y-51607142D01*
X41460000Y-51654761D01*
X41412381Y-51749999D01*
X41412381Y-51940476D01*
X41460000Y-52035714D01*
X41507619Y-52083333D01*
X41602857Y-52130952D01*
X41840952Y-52130952D01*
X41936190Y-52083333D01*
X41983810Y-52035714D01*
X42031429Y-51940476D01*
X42031429Y-51749999D01*
X41983810Y-51654761D01*
X41936190Y-51607142D01*
X41840952Y-51559523D01*
X63957143Y-83867143D02*
X63909524Y-83914762D01*
X63766667Y-83962381D01*
X63671429Y-83962381D01*
X63528571Y-83914762D01*
X63433333Y-83819524D01*
X63385714Y-83724286D01*
X63338095Y-83533810D01*
X63338095Y-83390952D01*
X63385714Y-83200476D01*
X63433333Y-83105238D01*
X63528571Y-83010000D01*
X63671429Y-82962381D01*
X63766667Y-82962381D01*
X63909524Y-83010000D01*
X63957143Y-83057619D01*
X64814286Y-82962381D02*
X64623809Y-82962381D01*
X64528571Y-83010000D01*
X64480952Y-83057619D01*
X64385714Y-83200476D01*
X64338095Y-83390952D01*
X64338095Y-83771905D01*
X64385714Y-83867143D01*
X64433333Y-83914762D01*
X64528571Y-83962381D01*
X64719048Y-83962381D01*
X64814286Y-83914762D01*
X64861905Y-83867143D01*
X64909524Y-83771905D01*
X64909524Y-83533810D01*
X64861905Y-83438571D01*
X64814286Y-83390952D01*
X64719048Y-83343333D01*
X64528571Y-83343333D01*
X64433333Y-83390952D01*
X64385714Y-83438571D01*
X64338095Y-83533810D01*
X65290476Y-83057619D02*
X65338095Y-83010000D01*
X65433333Y-82962381D01*
X65671429Y-82962381D01*
X65766667Y-83010000D01*
X65814286Y-83057619D01*
X65861905Y-83152857D01*
X65861905Y-83248095D01*
X65814286Y-83390952D01*
X65242857Y-83962381D01*
X65861905Y-83962381D01*
M02*
