G04 #@! TF.FileFunction,Legend,Bot*
%FSLAX46Y46*%
G04 Gerber Fmt 4.6, Leading zero omitted, Abs format (unit mm)*
G04 Created by KiCad (PCBNEW 4.0.7-e2-6376~58~ubuntu14.04.1) date Sat May 19 07:42:15 2018*
%MOMM*%
%LPD*%
G01*
G04 APERTURE LIST*
%ADD10C,0.100000*%
%ADD11C,0.300000*%
%ADD12C,0.150000*%
%ADD13C,0.120000*%
G04 APERTURE END LIST*
D10*
D11*
X122392856Y-128778571D02*
X122392856Y-127278571D01*
X121535713Y-128778571D02*
X122178570Y-127921429D01*
X121535713Y-127278571D02*
X122392856Y-128135714D01*
X120178570Y-128778571D02*
X120892856Y-128778571D01*
X120892856Y-127278571D01*
X119392856Y-127278571D02*
X119107142Y-127278571D01*
X118964284Y-127350000D01*
X118821427Y-127492857D01*
X118749999Y-127778571D01*
X118749999Y-128278571D01*
X118821427Y-128564286D01*
X118964284Y-128707143D01*
X119107142Y-128778571D01*
X119392856Y-128778571D01*
X119535713Y-128707143D01*
X119678570Y-128564286D01*
X119749999Y-128278571D01*
X119749999Y-127778571D01*
X119678570Y-127492857D01*
X119535713Y-127350000D01*
X119392856Y-127278571D01*
X118107141Y-128778571D02*
X118107141Y-127278571D01*
X117535713Y-127278571D01*
X117392855Y-127350000D01*
X117321427Y-127421429D01*
X117249998Y-127564286D01*
X117249998Y-127778571D01*
X117321427Y-127921429D01*
X117392855Y-127992857D01*
X117535713Y-128064286D01*
X118107141Y-128064286D01*
X116607141Y-128778571D02*
X116607141Y-127278571D01*
X115892855Y-128778571D02*
X115892855Y-127278571D01*
X115035712Y-128778571D02*
X115678569Y-127921429D01*
X115035712Y-127278571D02*
X115892855Y-128135714D01*
X113392855Y-127778571D02*
X113035712Y-128778571D01*
X112678570Y-127778571D01*
X111321427Y-128778571D02*
X112178570Y-128778571D01*
X111749998Y-128778571D02*
X111749998Y-127278571D01*
X111892855Y-127492857D01*
X112035713Y-127635714D01*
X112178570Y-127707143D01*
X110678570Y-128635714D02*
X110607142Y-128707143D01*
X110678570Y-128778571D01*
X110749999Y-128707143D01*
X110678570Y-128635714D01*
X110678570Y-128778571D01*
X109178570Y-128778571D02*
X110035713Y-128778571D01*
X109607141Y-128778571D02*
X109607141Y-127278571D01*
X109749998Y-127492857D01*
X109892856Y-127635714D01*
X110035713Y-127707143D01*
X107821427Y-127278571D02*
X108535713Y-127278571D01*
X108607142Y-127992857D01*
X108535713Y-127921429D01*
X108392856Y-127850000D01*
X108035713Y-127850000D01*
X107892856Y-127921429D01*
X107821427Y-127992857D01*
X107749999Y-128135714D01*
X107749999Y-128492857D01*
X107821427Y-128635714D01*
X107892856Y-128707143D01*
X108035713Y-128778571D01*
X108392856Y-128778571D01*
X108535713Y-128707143D01*
X108607142Y-128635714D01*
X106178571Y-127278571D02*
X105321428Y-127278571D01*
X105749999Y-128778571D02*
X105749999Y-127278571D01*
X103964285Y-128778571D02*
X104464285Y-128064286D01*
X104821428Y-128778571D02*
X104821428Y-127278571D01*
X104250000Y-127278571D01*
X104107142Y-127350000D01*
X104035714Y-127421429D01*
X103964285Y-127564286D01*
X103964285Y-127778571D01*
X104035714Y-127921429D01*
X104107142Y-127992857D01*
X104250000Y-128064286D01*
X104821428Y-128064286D01*
X103464285Y-127278571D02*
X102464285Y-128778571D01*
X102464285Y-127278571D02*
X103464285Y-128778571D01*
X75757143Y-48850000D02*
X75042857Y-48850000D01*
X75900000Y-49278571D02*
X75400000Y-47778571D01*
X74900000Y-49278571D01*
X73614286Y-47850000D02*
X73757143Y-47778571D01*
X73971429Y-47778571D01*
X74185714Y-47850000D01*
X74328572Y-47992857D01*
X74400000Y-48135714D01*
X74471429Y-48421429D01*
X74471429Y-48635714D01*
X74400000Y-48921429D01*
X74328572Y-49064286D01*
X74185714Y-49207143D01*
X73971429Y-49278571D01*
X73828572Y-49278571D01*
X73614286Y-49207143D01*
X73542857Y-49135714D01*
X73542857Y-48635714D01*
X73828572Y-48635714D01*
X72042857Y-49135714D02*
X72114286Y-49207143D01*
X72328572Y-49278571D01*
X72471429Y-49278571D01*
X72685714Y-49207143D01*
X72828572Y-49064286D01*
X72900000Y-48921429D01*
X72971429Y-48635714D01*
X72971429Y-48421429D01*
X72900000Y-48135714D01*
X72828572Y-47992857D01*
X72685714Y-47850000D01*
X72471429Y-47778571D01*
X72328572Y-47778571D01*
X72114286Y-47850000D01*
X72042857Y-47921429D01*
X68257143Y-49207143D02*
X68042857Y-49278571D01*
X67685714Y-49278571D01*
X67542857Y-49207143D01*
X67471428Y-49135714D01*
X67400000Y-48992857D01*
X67400000Y-48850000D01*
X67471428Y-48707143D01*
X67542857Y-48635714D01*
X67685714Y-48564286D01*
X67971428Y-48492857D01*
X68114286Y-48421429D01*
X68185714Y-48350000D01*
X68257143Y-48207143D01*
X68257143Y-48064286D01*
X68185714Y-47921429D01*
X68114286Y-47850000D01*
X67971428Y-47778571D01*
X67614286Y-47778571D01*
X67400000Y-47850000D01*
X66757143Y-48707143D02*
X65614286Y-48707143D01*
X64900000Y-49278571D02*
X64900000Y-48278571D01*
X64900000Y-48421429D02*
X64828572Y-48350000D01*
X64685714Y-48278571D01*
X64471429Y-48278571D01*
X64328572Y-48350000D01*
X64257143Y-48492857D01*
X64257143Y-49278571D01*
X64257143Y-48492857D02*
X64185714Y-48350000D01*
X64042857Y-48278571D01*
X63828572Y-48278571D01*
X63685714Y-48350000D01*
X63614286Y-48492857D01*
X63614286Y-49278571D01*
X58678571Y-62957143D02*
X58678571Y-63814286D01*
X60178571Y-63385715D02*
X58678571Y-63385715D01*
X58678571Y-64171429D02*
X60178571Y-65171429D01*
X58678571Y-65171429D02*
X60178571Y-64171429D01*
X59707143Y-52457144D02*
X59707143Y-53600001D01*
X60278571Y-53028572D02*
X59135714Y-53028572D01*
X60278571Y-55100001D02*
X60278571Y-54242858D01*
X60278571Y-54671430D02*
X58778571Y-54671430D01*
X58992857Y-54528573D01*
X59135714Y-54385715D01*
X59207143Y-54242858D01*
X58778571Y-55600001D02*
X58778571Y-56528572D01*
X59350000Y-56028572D01*
X59350000Y-56242858D01*
X59421429Y-56385715D01*
X59492857Y-56457144D01*
X59635714Y-56528572D01*
X59992857Y-56528572D01*
X60135714Y-56457144D01*
X60207143Y-56385715D01*
X60278571Y-56242858D01*
X60278571Y-55814286D01*
X60207143Y-55671429D01*
X60135714Y-55600001D01*
X60135714Y-57171429D02*
X60207143Y-57242857D01*
X60278571Y-57171429D01*
X60207143Y-57100000D01*
X60135714Y-57171429D01*
X60278571Y-57171429D01*
X58778571Y-58528572D02*
X58778571Y-58242858D01*
X58850000Y-58100001D01*
X58921429Y-58028572D01*
X59135714Y-57885715D01*
X59421429Y-57814286D01*
X59992857Y-57814286D01*
X60135714Y-57885715D01*
X60207143Y-57957143D01*
X60278571Y-58100001D01*
X60278571Y-58385715D01*
X60207143Y-58528572D01*
X60135714Y-58600001D01*
X59992857Y-58671429D01*
X59635714Y-58671429D01*
X59492857Y-58600001D01*
X59421429Y-58528572D01*
X59350000Y-58385715D01*
X59350000Y-58100001D01*
X59421429Y-57957143D01*
X59492857Y-57885715D01*
X59635714Y-57814286D01*
X59278571Y-59171429D02*
X60278571Y-59528572D01*
X59278571Y-59885714D01*
D12*
X68200000Y-108870000D02*
X77700000Y-108880000D01*
X77700000Y-108880000D02*
X77700000Y-103840000D01*
X77700000Y-103840000D02*
X67190000Y-103840000D01*
X67190000Y-103840000D02*
X67190000Y-108680000D01*
X79550000Y-131500000D02*
X79550000Y-120500000D01*
X91550000Y-131500000D02*
X91550000Y-120500000D01*
X79550000Y-131500000D02*
X91550000Y-131500000D01*
D13*
X136115000Y-93025000D02*
X142365000Y-93025000D01*
X136115000Y-87975000D02*
X142365000Y-87975000D01*
D12*
X133900000Y-131500000D02*
X133900000Y-120500000D01*
X145900000Y-131500000D02*
X145900000Y-120500000D01*
X133900000Y-131500000D02*
X145900000Y-131500000D01*
D13*
X111215000Y-115625000D02*
X117465000Y-115625000D01*
X111215000Y-110575000D02*
X117465000Y-110575000D01*
X116275000Y-100015000D02*
X116275000Y-106265000D01*
X121325000Y-100015000D02*
X121325000Y-106265000D01*
X111175000Y-100015000D02*
X111175000Y-106265000D01*
X116225000Y-100015000D02*
X116225000Y-106265000D01*
X106075000Y-100015000D02*
X106075000Y-106265000D01*
X111125000Y-100015000D02*
X111125000Y-106265000D01*
X100975000Y-100015000D02*
X100975000Y-106265000D01*
X106025000Y-100015000D02*
X106025000Y-106265000D01*
X95875000Y-100015000D02*
X95875000Y-106265000D01*
X100925000Y-100015000D02*
X100925000Y-106265000D01*
X90775000Y-100015000D02*
X90775000Y-106265000D01*
X95825000Y-100015000D02*
X95825000Y-106265000D01*
X93915000Y-95625000D02*
X100165000Y-95625000D01*
X93915000Y-90575000D02*
X100165000Y-90575000D01*
X131325000Y-106485000D02*
X131325000Y-100235000D01*
X126275000Y-106485000D02*
X126275000Y-100235000D01*
X136115000Y-108325000D02*
X142365000Y-108325000D01*
X136115000Y-103275000D02*
X142365000Y-103275000D01*
X136115000Y-103225000D02*
X142365000Y-103225000D01*
X136115000Y-98175000D02*
X142365000Y-98175000D01*
X136115000Y-98125000D02*
X142365000Y-98125000D01*
X136115000Y-93075000D02*
X142365000Y-93075000D01*
X136115000Y-87925000D02*
X142365000Y-87925000D01*
X136115000Y-82875000D02*
X142365000Y-82875000D01*
X136115000Y-82825000D02*
X142365000Y-82825000D01*
X136115000Y-77775000D02*
X142365000Y-77775000D01*
X152325000Y-87385000D02*
X152325000Y-81135000D01*
X147275000Y-87385000D02*
X147275000Y-81135000D01*
X55320000Y-53580000D02*
X57980000Y-53580000D01*
X55320000Y-56180000D02*
X55320000Y-53580000D01*
X57980000Y-56180000D02*
X57980000Y-53580000D01*
X55320000Y-56180000D02*
X57980000Y-56180000D01*
X55320000Y-57450000D02*
X55320000Y-58780000D01*
X55320000Y-58780000D02*
X56650000Y-58780000D01*
X55320000Y-61580000D02*
X57980000Y-61580000D01*
X55320000Y-64180000D02*
X55320000Y-61580000D01*
X57980000Y-64180000D02*
X57980000Y-61580000D01*
X55320000Y-64180000D02*
X57980000Y-64180000D01*
X55320000Y-65450000D02*
X55320000Y-66780000D01*
X55320000Y-66780000D02*
X56650000Y-66780000D01*
D12*
X72530000Y-79600000D02*
X72520000Y-89100000D01*
X72520000Y-89100000D02*
X77560000Y-89100000D01*
X77560000Y-89100000D02*
X77560000Y-78590000D01*
X77560000Y-78590000D02*
X72720000Y-78590000D01*
D13*
X63230000Y-47030000D02*
X63230000Y-44370000D01*
X65830000Y-47030000D02*
X63230000Y-47030000D01*
X65830000Y-44370000D02*
X63230000Y-44370000D01*
X65830000Y-47030000D02*
X65830000Y-44370000D01*
X67100000Y-47030000D02*
X68430000Y-47030000D01*
X68430000Y-47030000D02*
X68430000Y-45700000D01*
X94700000Y-53500000D02*
X94700000Y-42000000D01*
X77800000Y-53500000D02*
X77800000Y-42000000D01*
X94700000Y-53500000D02*
X77800000Y-53500000D01*
X94700000Y-42000000D02*
X77800000Y-42000000D01*
X152330000Y-105540000D02*
X149670000Y-105540000D01*
X152330000Y-102940000D02*
X152330000Y-105540000D01*
X149670000Y-102940000D02*
X149670000Y-105540000D01*
X152330000Y-102940000D02*
X149670000Y-102940000D01*
X152330000Y-101670000D02*
X152330000Y-100340000D01*
X152330000Y-100340000D02*
X151000000Y-100340000D01*
X152330000Y-97810000D02*
X149670000Y-97810000D01*
X152330000Y-95210000D02*
X152330000Y-97810000D01*
X149670000Y-95210000D02*
X149670000Y-97810000D01*
X152330000Y-95210000D02*
X149670000Y-95210000D01*
X152330000Y-93940000D02*
X152330000Y-92610000D01*
X152330000Y-92610000D02*
X151000000Y-92610000D01*
X71180000Y-47030000D02*
X71180000Y-44370000D01*
X73780000Y-47030000D02*
X71180000Y-47030000D01*
X73780000Y-44370000D02*
X71180000Y-44370000D01*
X73780000Y-47030000D02*
X73780000Y-44370000D01*
X75050000Y-47030000D02*
X76380000Y-47030000D01*
X76380000Y-47030000D02*
X76380000Y-45700000D01*
X114870000Y-86246000D02*
X114870000Y-71514000D01*
X114870000Y-71514000D02*
X104710000Y-71514000D01*
X104710000Y-71514000D02*
X104710000Y-86246000D01*
X104710000Y-86246000D02*
X114870000Y-86246000D01*
X109384000Y-73800000D02*
X110019000Y-74816000D01*
X111568000Y-73673000D02*
X111568000Y-74308000D01*
X111568000Y-74308000D02*
X110908000Y-74308000D01*
X108368000Y-73673000D02*
X108368000Y-74308000D01*
X108368000Y-74308000D02*
X109003000Y-74308000D01*
X109003000Y-73800000D02*
X110908000Y-73800000D01*
X110908000Y-73800000D02*
X110908000Y-74816000D01*
X110908000Y-74816000D02*
X109003000Y-74816000D01*
X109003000Y-73800000D02*
X109003000Y-74816000D01*
D12*
X151600000Y-57130000D02*
X142100000Y-57120000D01*
X142100000Y-57120000D02*
X142100000Y-62160000D01*
X142100000Y-62160000D02*
X152610000Y-62160000D01*
X152610000Y-62160000D02*
X152610000Y-57320000D01*
X148500000Y-68300000D02*
X148500000Y-63900000D01*
X148500000Y-63700000D02*
X148500000Y-63900000D01*
X148500000Y-63700000D02*
X140900000Y-63700000D01*
X140900000Y-68300000D02*
X148500000Y-68300000D01*
X140900000Y-64300000D02*
X140900000Y-68300000D01*
D13*
X131370000Y-44370000D02*
X131370000Y-47030000D01*
X128770000Y-44370000D02*
X131370000Y-44370000D01*
X128770000Y-47030000D02*
X131370000Y-47030000D01*
X128770000Y-44370000D02*
X128770000Y-47030000D01*
X127500000Y-44370000D02*
X126170000Y-44370000D01*
X126170000Y-44370000D02*
X126170000Y-45700000D01*
X137852891Y-59108055D02*
G75*
G03X134800000Y-56890000I-3052891J-991945D01*
G01*
X133244667Y-62907816D02*
G75*
G03X137853000Y-61091000I1555333J2807816D01*
G01*
X131965329Y-58592382D02*
G75*
G03X131965000Y-61607000I2834671J-1507618D01*
G01*
X134856464Y-56890201D02*
G75*
G03X133244000Y-57292000I-56464J-3209799D01*
G01*
X135700000Y-60100000D02*
G75*
G03X135700000Y-60100000I-900000J0D01*
G01*
D12*
X122700000Y-55870000D02*
X132200000Y-55880000D01*
X132200000Y-55880000D02*
X132200000Y-50840000D01*
X132200000Y-50840000D02*
X121690000Y-50840000D01*
X121690000Y-50840000D02*
X121690000Y-55680000D01*
X102854000Y-61950000D02*
X102854000Y-56743000D01*
X102854000Y-48869000D02*
X102854000Y-53822000D01*
X96250000Y-61950000D02*
X96250000Y-56870000D01*
X96250000Y-48869000D02*
X96250000Y-53949000D01*
X96250000Y-48869000D02*
X102854000Y-48869000D01*
X102854000Y-61950000D02*
X96250000Y-61950000D01*
D13*
X123952891Y-45708055D02*
G75*
G03X120900000Y-43490000I-3052891J-991945D01*
G01*
X119344667Y-49507816D02*
G75*
G03X123953000Y-47691000I1555333J2807816D01*
G01*
X118065329Y-45192382D02*
G75*
G03X118065000Y-48207000I2834671J-1507618D01*
G01*
X120956464Y-43490201D02*
G75*
G03X119344000Y-43892000I-56464J-3209799D01*
G01*
X121800000Y-46700000D02*
G75*
G03X121800000Y-46700000I-900000J0D01*
G01*
X91708055Y-80047109D02*
G75*
G03X89490000Y-83100000I991945J-3052891D01*
G01*
X95507816Y-84655333D02*
G75*
G03X93691000Y-80047000I-2807816J1555333D01*
G01*
X91192382Y-85934671D02*
G75*
G03X94207000Y-85935000I1507618J2834671D01*
G01*
X89490201Y-83043536D02*
G75*
G03X89892000Y-84656000I3209799J-56464D01*
G01*
X93600000Y-83100000D02*
G75*
G03X93600000Y-83100000I-900000J0D01*
G01*
X107065000Y-61325000D02*
X113315000Y-61325000D01*
X107065000Y-56275000D02*
X113315000Y-56275000D01*
X70160000Y-96650000D02*
X68040000Y-96650000D01*
X68040000Y-96650000D02*
X68040000Y-92530000D01*
X68040000Y-92530000D02*
X70160000Y-92530000D01*
X70160000Y-92530000D02*
X70160000Y-96650000D01*
X69100000Y-97420000D02*
X69100000Y-96650000D01*
X69100000Y-91760000D02*
X69100000Y-92530000D01*
X70160000Y-95990000D02*
X68040000Y-95990000D01*
X62840000Y-94850000D02*
X64960000Y-94850000D01*
X64960000Y-94850000D02*
X64960000Y-98970000D01*
X64960000Y-98970000D02*
X62840000Y-98970000D01*
X62840000Y-98970000D02*
X62840000Y-94850000D01*
X63900000Y-94080000D02*
X63900000Y-94850000D01*
X63900000Y-99740000D02*
X63900000Y-98970000D01*
X62840000Y-95510000D02*
X64960000Y-95510000D01*
X75060000Y-98950000D02*
X72940000Y-98950000D01*
X72940000Y-98950000D02*
X72940000Y-94830000D01*
X72940000Y-94830000D02*
X75060000Y-94830000D01*
X75060000Y-94830000D02*
X75060000Y-98950000D01*
X74000000Y-99720000D02*
X74000000Y-98950000D01*
X74000000Y-94060000D02*
X74000000Y-94830000D01*
X75060000Y-98290000D02*
X72940000Y-98290000D01*
X77940000Y-92650000D02*
X80060000Y-92650000D01*
X80060000Y-92650000D02*
X80060000Y-96770000D01*
X80060000Y-96770000D02*
X77940000Y-96770000D01*
X77940000Y-96770000D02*
X77940000Y-92650000D01*
X79000000Y-91880000D02*
X79000000Y-92650000D01*
X79000000Y-97540000D02*
X79000000Y-96770000D01*
X77940000Y-93310000D02*
X80060000Y-93310000D01*
X139250000Y-52860000D02*
X139250000Y-50740000D01*
X139250000Y-50740000D02*
X143370000Y-50740000D01*
X143370000Y-50740000D02*
X143370000Y-52860000D01*
X143370000Y-52860000D02*
X139250000Y-52860000D01*
X138480000Y-51800000D02*
X139250000Y-51800000D01*
X144140000Y-51800000D02*
X143370000Y-51800000D01*
X139910000Y-52860000D02*
X139910000Y-50740000D01*
X143350000Y-44240000D02*
X143350000Y-46360000D01*
X143350000Y-46360000D02*
X139230000Y-46360000D01*
X139230000Y-46360000D02*
X139230000Y-44240000D01*
X139230000Y-44240000D02*
X143350000Y-44240000D01*
X144120000Y-45300000D02*
X143350000Y-45300000D01*
X138460000Y-45300000D02*
X139230000Y-45300000D01*
X142690000Y-44240000D02*
X142690000Y-46360000D01*
X140850000Y-53940000D02*
X140850000Y-56060000D01*
X140850000Y-56060000D02*
X136730000Y-56060000D01*
X136730000Y-56060000D02*
X136730000Y-53940000D01*
X136730000Y-53940000D02*
X140850000Y-53940000D01*
X141620000Y-55000000D02*
X140850000Y-55000000D01*
X135960000Y-55000000D02*
X136730000Y-55000000D01*
X140190000Y-53940000D02*
X140190000Y-56060000D01*
X136750000Y-49660000D02*
X136750000Y-47540000D01*
X136750000Y-47540000D02*
X140870000Y-47540000D01*
X140870000Y-47540000D02*
X140870000Y-49660000D01*
X140870000Y-49660000D02*
X136750000Y-49660000D01*
X135980000Y-48600000D02*
X136750000Y-48600000D01*
X141640000Y-48600000D02*
X140870000Y-48600000D01*
X137410000Y-49660000D02*
X137410000Y-47540000D01*
X70870864Y-77317820D02*
G75*
G02X70870000Y-71282518I1179136J3017820D01*
G01*
X73229136Y-77317820D02*
G75*
G03X73230000Y-71282518I-1179136J3017820D01*
G01*
X73229136Y-77317820D02*
G75*
G02X70870000Y-77317482I-1179136J3017820D01*
G01*
X68850000Y-74300000D02*
X75250000Y-74300000D01*
X68850000Y-74340000D02*
X75250000Y-74340000D01*
X68850000Y-74380000D02*
X75250000Y-74380000D01*
X68852000Y-74420000D02*
X75248000Y-74420000D01*
X68853000Y-74460000D02*
X75247000Y-74460000D01*
X68856000Y-74500000D02*
X75244000Y-74500000D01*
X68858000Y-74540000D02*
X75242000Y-74540000D01*
X68862000Y-74580000D02*
X71070000Y-74580000D01*
X73030000Y-74580000D02*
X75238000Y-74580000D01*
X68865000Y-74620000D02*
X71070000Y-74620000D01*
X73030000Y-74620000D02*
X75235000Y-74620000D01*
X68870000Y-74660000D02*
X71070000Y-74660000D01*
X73030000Y-74660000D02*
X75230000Y-74660000D01*
X68874000Y-74700000D02*
X71070000Y-74700000D01*
X73030000Y-74700000D02*
X75226000Y-74700000D01*
X68880000Y-74740000D02*
X71070000Y-74740000D01*
X73030000Y-74740000D02*
X75220000Y-74740000D01*
X68885000Y-74780000D02*
X71070000Y-74780000D01*
X73030000Y-74780000D02*
X75215000Y-74780000D01*
X68892000Y-74820000D02*
X71070000Y-74820000D01*
X73030000Y-74820000D02*
X75208000Y-74820000D01*
X68898000Y-74860000D02*
X71070000Y-74860000D01*
X73030000Y-74860000D02*
X75202000Y-74860000D01*
X68906000Y-74900000D02*
X71070000Y-74900000D01*
X73030000Y-74900000D02*
X75194000Y-74900000D01*
X68913000Y-74940000D02*
X71070000Y-74940000D01*
X73030000Y-74940000D02*
X75187000Y-74940000D01*
X68922000Y-74980000D02*
X71070000Y-74980000D01*
X73030000Y-74980000D02*
X75178000Y-74980000D01*
X68931000Y-75021000D02*
X71070000Y-75021000D01*
X73030000Y-75021000D02*
X75169000Y-75021000D01*
X68940000Y-75061000D02*
X71070000Y-75061000D01*
X73030000Y-75061000D02*
X75160000Y-75061000D01*
X68950000Y-75101000D02*
X71070000Y-75101000D01*
X73030000Y-75101000D02*
X75150000Y-75101000D01*
X68960000Y-75141000D02*
X71070000Y-75141000D01*
X73030000Y-75141000D02*
X75140000Y-75141000D01*
X68971000Y-75181000D02*
X71070000Y-75181000D01*
X73030000Y-75181000D02*
X75129000Y-75181000D01*
X68983000Y-75221000D02*
X71070000Y-75221000D01*
X73030000Y-75221000D02*
X75117000Y-75221000D01*
X68995000Y-75261000D02*
X71070000Y-75261000D01*
X73030000Y-75261000D02*
X75105000Y-75261000D01*
X69008000Y-75301000D02*
X71070000Y-75301000D01*
X73030000Y-75301000D02*
X75092000Y-75301000D01*
X69021000Y-75341000D02*
X71070000Y-75341000D01*
X73030000Y-75341000D02*
X75079000Y-75341000D01*
X69035000Y-75381000D02*
X71070000Y-75381000D01*
X73030000Y-75381000D02*
X75065000Y-75381000D01*
X69049000Y-75421000D02*
X71070000Y-75421000D01*
X73030000Y-75421000D02*
X75051000Y-75421000D01*
X69064000Y-75461000D02*
X71070000Y-75461000D01*
X73030000Y-75461000D02*
X75036000Y-75461000D01*
X69080000Y-75501000D02*
X71070000Y-75501000D01*
X73030000Y-75501000D02*
X75020000Y-75501000D01*
X69096000Y-75541000D02*
X71070000Y-75541000D01*
X73030000Y-75541000D02*
X75004000Y-75541000D01*
X69113000Y-75581000D02*
X71070000Y-75581000D01*
X73030000Y-75581000D02*
X74987000Y-75581000D01*
X69131000Y-75621000D02*
X71070000Y-75621000D01*
X73030000Y-75621000D02*
X74969000Y-75621000D01*
X69149000Y-75661000D02*
X71070000Y-75661000D01*
X73030000Y-75661000D02*
X74951000Y-75661000D01*
X69168000Y-75701000D02*
X71070000Y-75701000D01*
X73030000Y-75701000D02*
X74932000Y-75701000D01*
X69187000Y-75741000D02*
X71070000Y-75741000D01*
X73030000Y-75741000D02*
X74913000Y-75741000D01*
X69207000Y-75781000D02*
X71070000Y-75781000D01*
X73030000Y-75781000D02*
X74893000Y-75781000D01*
X69228000Y-75821000D02*
X71070000Y-75821000D01*
X73030000Y-75821000D02*
X74872000Y-75821000D01*
X69250000Y-75861000D02*
X71070000Y-75861000D01*
X73030000Y-75861000D02*
X74850000Y-75861000D01*
X69272000Y-75901000D02*
X71070000Y-75901000D01*
X73030000Y-75901000D02*
X74828000Y-75901000D01*
X69295000Y-75941000D02*
X71070000Y-75941000D01*
X73030000Y-75941000D02*
X74805000Y-75941000D01*
X69319000Y-75981000D02*
X71070000Y-75981000D01*
X73030000Y-75981000D02*
X74781000Y-75981000D01*
X69344000Y-76021000D02*
X71070000Y-76021000D01*
X73030000Y-76021000D02*
X74756000Y-76021000D01*
X69369000Y-76061000D02*
X71070000Y-76061000D01*
X73030000Y-76061000D02*
X74731000Y-76061000D01*
X69396000Y-76101000D02*
X71070000Y-76101000D01*
X73030000Y-76101000D02*
X74704000Y-76101000D01*
X69423000Y-76141000D02*
X71070000Y-76141000D01*
X73030000Y-76141000D02*
X74677000Y-76141000D01*
X69451000Y-76181000D02*
X71070000Y-76181000D01*
X73030000Y-76181000D02*
X74649000Y-76181000D01*
X69480000Y-76221000D02*
X71070000Y-76221000D01*
X73030000Y-76221000D02*
X74620000Y-76221000D01*
X69510000Y-76261000D02*
X71070000Y-76261000D01*
X73030000Y-76261000D02*
X74590000Y-76261000D01*
X69540000Y-76301000D02*
X71070000Y-76301000D01*
X73030000Y-76301000D02*
X74560000Y-76301000D01*
X69572000Y-76341000D02*
X71070000Y-76341000D01*
X73030000Y-76341000D02*
X74528000Y-76341000D01*
X69605000Y-76381000D02*
X71070000Y-76381000D01*
X73030000Y-76381000D02*
X74495000Y-76381000D01*
X69639000Y-76421000D02*
X71070000Y-76421000D01*
X73030000Y-76421000D02*
X74461000Y-76421000D01*
X69675000Y-76461000D02*
X71070000Y-76461000D01*
X73030000Y-76461000D02*
X74425000Y-76461000D01*
X69711000Y-76501000D02*
X71070000Y-76501000D01*
X73030000Y-76501000D02*
X74389000Y-76501000D01*
X69749000Y-76541000D02*
X74351000Y-76541000D01*
X69788000Y-76581000D02*
X74312000Y-76581000D01*
X69828000Y-76621000D02*
X74272000Y-76621000D01*
X69870000Y-76661000D02*
X74230000Y-76661000D01*
X69913000Y-76701000D02*
X74187000Y-76701000D01*
X69958000Y-76741000D02*
X74142000Y-76741000D01*
X70005000Y-76781000D02*
X74095000Y-76781000D01*
X70053000Y-76821000D02*
X74047000Y-76821000D01*
X70104000Y-76861000D02*
X73996000Y-76861000D01*
X70156000Y-76901000D02*
X73944000Y-76901000D01*
X70211000Y-76941000D02*
X73889000Y-76941000D01*
X70269000Y-76981000D02*
X73831000Y-76981000D01*
X70329000Y-77021000D02*
X73771000Y-77021000D01*
X70392000Y-77061000D02*
X73708000Y-77061000D01*
X70459000Y-77101000D02*
X73641000Y-77101000D01*
X70530000Y-77141000D02*
X73570000Y-77141000D01*
X70605000Y-77181000D02*
X73495000Y-77181000D01*
X70686000Y-77221000D02*
X73414000Y-77221000D01*
X70772000Y-77261000D02*
X73328000Y-77261000D01*
X70866000Y-77301000D02*
X73234000Y-77301000D01*
X70969000Y-77341000D02*
X73131000Y-77341000D01*
X71084000Y-77381000D02*
X73016000Y-77381000D01*
X71216000Y-77421000D02*
X72884000Y-77421000D01*
X71374000Y-77461000D02*
X72726000Y-77461000D01*
X71582000Y-77501000D02*
X72518000Y-77501000D01*
X72050000Y-70850000D02*
X72050000Y-72050000D01*
X71400000Y-71450000D02*
X72700000Y-71450000D01*
X92979136Y-54432180D02*
G75*
G02X92980000Y-60467482I-1179136J-3017820D01*
G01*
X90620864Y-54432180D02*
G75*
G03X90620000Y-60467482I1179136J-3017820D01*
G01*
X90620864Y-54432180D02*
G75*
G02X92980000Y-54432518I1179136J-3017820D01*
G01*
X95000000Y-57450000D02*
X88600000Y-57450000D01*
X95000000Y-57410000D02*
X88600000Y-57410000D01*
X95000000Y-57370000D02*
X88600000Y-57370000D01*
X94998000Y-57330000D02*
X88602000Y-57330000D01*
X94997000Y-57290000D02*
X88603000Y-57290000D01*
X94994000Y-57250000D02*
X88606000Y-57250000D01*
X94992000Y-57210000D02*
X88608000Y-57210000D01*
X94988000Y-57170000D02*
X92780000Y-57170000D01*
X90820000Y-57170000D02*
X88612000Y-57170000D01*
X94985000Y-57130000D02*
X92780000Y-57130000D01*
X90820000Y-57130000D02*
X88615000Y-57130000D01*
X94980000Y-57090000D02*
X92780000Y-57090000D01*
X90820000Y-57090000D02*
X88620000Y-57090000D01*
X94976000Y-57050000D02*
X92780000Y-57050000D01*
X90820000Y-57050000D02*
X88624000Y-57050000D01*
X94970000Y-57010000D02*
X92780000Y-57010000D01*
X90820000Y-57010000D02*
X88630000Y-57010000D01*
X94965000Y-56970000D02*
X92780000Y-56970000D01*
X90820000Y-56970000D02*
X88635000Y-56970000D01*
X94958000Y-56930000D02*
X92780000Y-56930000D01*
X90820000Y-56930000D02*
X88642000Y-56930000D01*
X94952000Y-56890000D02*
X92780000Y-56890000D01*
X90820000Y-56890000D02*
X88648000Y-56890000D01*
X94944000Y-56850000D02*
X92780000Y-56850000D01*
X90820000Y-56850000D02*
X88656000Y-56850000D01*
X94937000Y-56810000D02*
X92780000Y-56810000D01*
X90820000Y-56810000D02*
X88663000Y-56810000D01*
X94928000Y-56770000D02*
X92780000Y-56770000D01*
X90820000Y-56770000D02*
X88672000Y-56770000D01*
X94919000Y-56729000D02*
X92780000Y-56729000D01*
X90820000Y-56729000D02*
X88681000Y-56729000D01*
X94910000Y-56689000D02*
X92780000Y-56689000D01*
X90820000Y-56689000D02*
X88690000Y-56689000D01*
X94900000Y-56649000D02*
X92780000Y-56649000D01*
X90820000Y-56649000D02*
X88700000Y-56649000D01*
X94890000Y-56609000D02*
X92780000Y-56609000D01*
X90820000Y-56609000D02*
X88710000Y-56609000D01*
X94879000Y-56569000D02*
X92780000Y-56569000D01*
X90820000Y-56569000D02*
X88721000Y-56569000D01*
X94867000Y-56529000D02*
X92780000Y-56529000D01*
X90820000Y-56529000D02*
X88733000Y-56529000D01*
X94855000Y-56489000D02*
X92780000Y-56489000D01*
X90820000Y-56489000D02*
X88745000Y-56489000D01*
X94842000Y-56449000D02*
X92780000Y-56449000D01*
X90820000Y-56449000D02*
X88758000Y-56449000D01*
X94829000Y-56409000D02*
X92780000Y-56409000D01*
X90820000Y-56409000D02*
X88771000Y-56409000D01*
X94815000Y-56369000D02*
X92780000Y-56369000D01*
X90820000Y-56369000D02*
X88785000Y-56369000D01*
X94801000Y-56329000D02*
X92780000Y-56329000D01*
X90820000Y-56329000D02*
X88799000Y-56329000D01*
X94786000Y-56289000D02*
X92780000Y-56289000D01*
X90820000Y-56289000D02*
X88814000Y-56289000D01*
X94770000Y-56249000D02*
X92780000Y-56249000D01*
X90820000Y-56249000D02*
X88830000Y-56249000D01*
X94754000Y-56209000D02*
X92780000Y-56209000D01*
X90820000Y-56209000D02*
X88846000Y-56209000D01*
X94737000Y-56169000D02*
X92780000Y-56169000D01*
X90820000Y-56169000D02*
X88863000Y-56169000D01*
X94719000Y-56129000D02*
X92780000Y-56129000D01*
X90820000Y-56129000D02*
X88881000Y-56129000D01*
X94701000Y-56089000D02*
X92780000Y-56089000D01*
X90820000Y-56089000D02*
X88899000Y-56089000D01*
X94682000Y-56049000D02*
X92780000Y-56049000D01*
X90820000Y-56049000D02*
X88918000Y-56049000D01*
X94663000Y-56009000D02*
X92780000Y-56009000D01*
X90820000Y-56009000D02*
X88937000Y-56009000D01*
X94643000Y-55969000D02*
X92780000Y-55969000D01*
X90820000Y-55969000D02*
X88957000Y-55969000D01*
X94622000Y-55929000D02*
X92780000Y-55929000D01*
X90820000Y-55929000D02*
X88978000Y-55929000D01*
X94600000Y-55889000D02*
X92780000Y-55889000D01*
X90820000Y-55889000D02*
X89000000Y-55889000D01*
X94578000Y-55849000D02*
X92780000Y-55849000D01*
X90820000Y-55849000D02*
X89022000Y-55849000D01*
X94555000Y-55809000D02*
X92780000Y-55809000D01*
X90820000Y-55809000D02*
X89045000Y-55809000D01*
X94531000Y-55769000D02*
X92780000Y-55769000D01*
X90820000Y-55769000D02*
X89069000Y-55769000D01*
X94506000Y-55729000D02*
X92780000Y-55729000D01*
X90820000Y-55729000D02*
X89094000Y-55729000D01*
X94481000Y-55689000D02*
X92780000Y-55689000D01*
X90820000Y-55689000D02*
X89119000Y-55689000D01*
X94454000Y-55649000D02*
X92780000Y-55649000D01*
X90820000Y-55649000D02*
X89146000Y-55649000D01*
X94427000Y-55609000D02*
X92780000Y-55609000D01*
X90820000Y-55609000D02*
X89173000Y-55609000D01*
X94399000Y-55569000D02*
X92780000Y-55569000D01*
X90820000Y-55569000D02*
X89201000Y-55569000D01*
X94370000Y-55529000D02*
X92780000Y-55529000D01*
X90820000Y-55529000D02*
X89230000Y-55529000D01*
X94340000Y-55489000D02*
X92780000Y-55489000D01*
X90820000Y-55489000D02*
X89260000Y-55489000D01*
X94310000Y-55449000D02*
X92780000Y-55449000D01*
X90820000Y-55449000D02*
X89290000Y-55449000D01*
X94278000Y-55409000D02*
X92780000Y-55409000D01*
X90820000Y-55409000D02*
X89322000Y-55409000D01*
X94245000Y-55369000D02*
X92780000Y-55369000D01*
X90820000Y-55369000D02*
X89355000Y-55369000D01*
X94211000Y-55329000D02*
X92780000Y-55329000D01*
X90820000Y-55329000D02*
X89389000Y-55329000D01*
X94175000Y-55289000D02*
X92780000Y-55289000D01*
X90820000Y-55289000D02*
X89425000Y-55289000D01*
X94139000Y-55249000D02*
X92780000Y-55249000D01*
X90820000Y-55249000D02*
X89461000Y-55249000D01*
X94101000Y-55209000D02*
X89499000Y-55209000D01*
X94062000Y-55169000D02*
X89538000Y-55169000D01*
X94022000Y-55129000D02*
X89578000Y-55129000D01*
X93980000Y-55089000D02*
X89620000Y-55089000D01*
X93937000Y-55049000D02*
X89663000Y-55049000D01*
X93892000Y-55009000D02*
X89708000Y-55009000D01*
X93845000Y-54969000D02*
X89755000Y-54969000D01*
X93797000Y-54929000D02*
X89803000Y-54929000D01*
X93746000Y-54889000D02*
X89854000Y-54889000D01*
X93694000Y-54849000D02*
X89906000Y-54849000D01*
X93639000Y-54809000D02*
X89961000Y-54809000D01*
X93581000Y-54769000D02*
X90019000Y-54769000D01*
X93521000Y-54729000D02*
X90079000Y-54729000D01*
X93458000Y-54689000D02*
X90142000Y-54689000D01*
X93391000Y-54649000D02*
X90209000Y-54649000D01*
X93320000Y-54609000D02*
X90280000Y-54609000D01*
X93245000Y-54569000D02*
X90355000Y-54569000D01*
X93164000Y-54529000D02*
X90436000Y-54529000D01*
X93078000Y-54489000D02*
X90522000Y-54489000D01*
X92984000Y-54449000D02*
X90616000Y-54449000D01*
X92881000Y-54409000D02*
X90719000Y-54409000D01*
X92766000Y-54369000D02*
X90834000Y-54369000D01*
X92634000Y-54329000D02*
X90966000Y-54329000D01*
X92476000Y-54289000D02*
X91124000Y-54289000D01*
X92268000Y-54249000D02*
X91332000Y-54249000D01*
X91800000Y-60900000D02*
X91800000Y-59700000D01*
X92450000Y-60300000D02*
X91150000Y-60300000D01*
X61132180Y-52020864D02*
G75*
G02X67167482Y-52020000I3017820J-1179136D01*
G01*
X61132180Y-54379136D02*
G75*
G03X67167482Y-54380000I3017820J1179136D01*
G01*
X61132180Y-54379136D02*
G75*
G02X61132518Y-52020000I3017820J1179136D01*
G01*
X64150000Y-50000000D02*
X64150000Y-56400000D01*
X64110000Y-50000000D02*
X64110000Y-56400000D01*
X64070000Y-50000000D02*
X64070000Y-56400000D01*
X64030000Y-50002000D02*
X64030000Y-56398000D01*
X63990000Y-50003000D02*
X63990000Y-56397000D01*
X63950000Y-50006000D02*
X63950000Y-56394000D01*
X63910000Y-50008000D02*
X63910000Y-56392000D01*
X63870000Y-50012000D02*
X63870000Y-52220000D01*
X63870000Y-54180000D02*
X63870000Y-56388000D01*
X63830000Y-50015000D02*
X63830000Y-52220000D01*
X63830000Y-54180000D02*
X63830000Y-56385000D01*
X63790000Y-50020000D02*
X63790000Y-52220000D01*
X63790000Y-54180000D02*
X63790000Y-56380000D01*
X63750000Y-50024000D02*
X63750000Y-52220000D01*
X63750000Y-54180000D02*
X63750000Y-56376000D01*
X63710000Y-50030000D02*
X63710000Y-52220000D01*
X63710000Y-54180000D02*
X63710000Y-56370000D01*
X63670000Y-50035000D02*
X63670000Y-52220000D01*
X63670000Y-54180000D02*
X63670000Y-56365000D01*
X63630000Y-50042000D02*
X63630000Y-52220000D01*
X63630000Y-54180000D02*
X63630000Y-56358000D01*
X63590000Y-50048000D02*
X63590000Y-52220000D01*
X63590000Y-54180000D02*
X63590000Y-56352000D01*
X63550000Y-50056000D02*
X63550000Y-52220000D01*
X63550000Y-54180000D02*
X63550000Y-56344000D01*
X63510000Y-50063000D02*
X63510000Y-52220000D01*
X63510000Y-54180000D02*
X63510000Y-56337000D01*
X63470000Y-50072000D02*
X63470000Y-52220000D01*
X63470000Y-54180000D02*
X63470000Y-56328000D01*
X63429000Y-50081000D02*
X63429000Y-52220000D01*
X63429000Y-54180000D02*
X63429000Y-56319000D01*
X63389000Y-50090000D02*
X63389000Y-52220000D01*
X63389000Y-54180000D02*
X63389000Y-56310000D01*
X63349000Y-50100000D02*
X63349000Y-52220000D01*
X63349000Y-54180000D02*
X63349000Y-56300000D01*
X63309000Y-50110000D02*
X63309000Y-52220000D01*
X63309000Y-54180000D02*
X63309000Y-56290000D01*
X63269000Y-50121000D02*
X63269000Y-52220000D01*
X63269000Y-54180000D02*
X63269000Y-56279000D01*
X63229000Y-50133000D02*
X63229000Y-52220000D01*
X63229000Y-54180000D02*
X63229000Y-56267000D01*
X63189000Y-50145000D02*
X63189000Y-52220000D01*
X63189000Y-54180000D02*
X63189000Y-56255000D01*
X63149000Y-50158000D02*
X63149000Y-52220000D01*
X63149000Y-54180000D02*
X63149000Y-56242000D01*
X63109000Y-50171000D02*
X63109000Y-52220000D01*
X63109000Y-54180000D02*
X63109000Y-56229000D01*
X63069000Y-50185000D02*
X63069000Y-52220000D01*
X63069000Y-54180000D02*
X63069000Y-56215000D01*
X63029000Y-50199000D02*
X63029000Y-52220000D01*
X63029000Y-54180000D02*
X63029000Y-56201000D01*
X62989000Y-50214000D02*
X62989000Y-52220000D01*
X62989000Y-54180000D02*
X62989000Y-56186000D01*
X62949000Y-50230000D02*
X62949000Y-52220000D01*
X62949000Y-54180000D02*
X62949000Y-56170000D01*
X62909000Y-50246000D02*
X62909000Y-52220000D01*
X62909000Y-54180000D02*
X62909000Y-56154000D01*
X62869000Y-50263000D02*
X62869000Y-52220000D01*
X62869000Y-54180000D02*
X62869000Y-56137000D01*
X62829000Y-50281000D02*
X62829000Y-52220000D01*
X62829000Y-54180000D02*
X62829000Y-56119000D01*
X62789000Y-50299000D02*
X62789000Y-52220000D01*
X62789000Y-54180000D02*
X62789000Y-56101000D01*
X62749000Y-50318000D02*
X62749000Y-52220000D01*
X62749000Y-54180000D02*
X62749000Y-56082000D01*
X62709000Y-50337000D02*
X62709000Y-52220000D01*
X62709000Y-54180000D02*
X62709000Y-56063000D01*
X62669000Y-50357000D02*
X62669000Y-52220000D01*
X62669000Y-54180000D02*
X62669000Y-56043000D01*
X62629000Y-50378000D02*
X62629000Y-52220000D01*
X62629000Y-54180000D02*
X62629000Y-56022000D01*
X62589000Y-50400000D02*
X62589000Y-52220000D01*
X62589000Y-54180000D02*
X62589000Y-56000000D01*
X62549000Y-50422000D02*
X62549000Y-52220000D01*
X62549000Y-54180000D02*
X62549000Y-55978000D01*
X62509000Y-50445000D02*
X62509000Y-52220000D01*
X62509000Y-54180000D02*
X62509000Y-55955000D01*
X62469000Y-50469000D02*
X62469000Y-52220000D01*
X62469000Y-54180000D02*
X62469000Y-55931000D01*
X62429000Y-50494000D02*
X62429000Y-52220000D01*
X62429000Y-54180000D02*
X62429000Y-55906000D01*
X62389000Y-50519000D02*
X62389000Y-52220000D01*
X62389000Y-54180000D02*
X62389000Y-55881000D01*
X62349000Y-50546000D02*
X62349000Y-52220000D01*
X62349000Y-54180000D02*
X62349000Y-55854000D01*
X62309000Y-50573000D02*
X62309000Y-52220000D01*
X62309000Y-54180000D02*
X62309000Y-55827000D01*
X62269000Y-50601000D02*
X62269000Y-52220000D01*
X62269000Y-54180000D02*
X62269000Y-55799000D01*
X62229000Y-50630000D02*
X62229000Y-52220000D01*
X62229000Y-54180000D02*
X62229000Y-55770000D01*
X62189000Y-50660000D02*
X62189000Y-52220000D01*
X62189000Y-54180000D02*
X62189000Y-55740000D01*
X62149000Y-50690000D02*
X62149000Y-52220000D01*
X62149000Y-54180000D02*
X62149000Y-55710000D01*
X62109000Y-50722000D02*
X62109000Y-52220000D01*
X62109000Y-54180000D02*
X62109000Y-55678000D01*
X62069000Y-50755000D02*
X62069000Y-52220000D01*
X62069000Y-54180000D02*
X62069000Y-55645000D01*
X62029000Y-50789000D02*
X62029000Y-52220000D01*
X62029000Y-54180000D02*
X62029000Y-55611000D01*
X61989000Y-50825000D02*
X61989000Y-52220000D01*
X61989000Y-54180000D02*
X61989000Y-55575000D01*
X61949000Y-50861000D02*
X61949000Y-52220000D01*
X61949000Y-54180000D02*
X61949000Y-55539000D01*
X61909000Y-50899000D02*
X61909000Y-55501000D01*
X61869000Y-50938000D02*
X61869000Y-55462000D01*
X61829000Y-50978000D02*
X61829000Y-55422000D01*
X61789000Y-51020000D02*
X61789000Y-55380000D01*
X61749000Y-51063000D02*
X61749000Y-55337000D01*
X61709000Y-51108000D02*
X61709000Y-55292000D01*
X61669000Y-51155000D02*
X61669000Y-55245000D01*
X61629000Y-51203000D02*
X61629000Y-55197000D01*
X61589000Y-51254000D02*
X61589000Y-55146000D01*
X61549000Y-51306000D02*
X61549000Y-55094000D01*
X61509000Y-51361000D02*
X61509000Y-55039000D01*
X61469000Y-51419000D02*
X61469000Y-54981000D01*
X61429000Y-51479000D02*
X61429000Y-54921000D01*
X61389000Y-51542000D02*
X61389000Y-54858000D01*
X61349000Y-51609000D02*
X61349000Y-54791000D01*
X61309000Y-51680000D02*
X61309000Y-54720000D01*
X61269000Y-51755000D02*
X61269000Y-54645000D01*
X61229000Y-51836000D02*
X61229000Y-54564000D01*
X61189000Y-51922000D02*
X61189000Y-54478000D01*
X61149000Y-52016000D02*
X61149000Y-54384000D01*
X61109000Y-52119000D02*
X61109000Y-54281000D01*
X61069000Y-52234000D02*
X61069000Y-54166000D01*
X61029000Y-52366000D02*
X61029000Y-54034000D01*
X60989000Y-52524000D02*
X60989000Y-53876000D01*
X60949000Y-52732000D02*
X60949000Y-53668000D01*
X67600000Y-53200000D02*
X66400000Y-53200000D01*
X67000000Y-52550000D02*
X67000000Y-53850000D01*
X67067820Y-63779136D02*
G75*
G02X61032518Y-63780000I-3017820J1179136D01*
G01*
X67067820Y-61420864D02*
G75*
G03X61032518Y-61420000I-3017820J-1179136D01*
G01*
X67067820Y-61420864D02*
G75*
G02X67067482Y-63780000I-3017820J-1179136D01*
G01*
X64050000Y-65800000D02*
X64050000Y-59400000D01*
X64090000Y-65800000D02*
X64090000Y-59400000D01*
X64130000Y-65800000D02*
X64130000Y-59400000D01*
X64170000Y-65798000D02*
X64170000Y-59402000D01*
X64210000Y-65797000D02*
X64210000Y-59403000D01*
X64250000Y-65794000D02*
X64250000Y-59406000D01*
X64290000Y-65792000D02*
X64290000Y-59408000D01*
X64330000Y-65788000D02*
X64330000Y-63580000D01*
X64330000Y-61620000D02*
X64330000Y-59412000D01*
X64370000Y-65785000D02*
X64370000Y-63580000D01*
X64370000Y-61620000D02*
X64370000Y-59415000D01*
X64410000Y-65780000D02*
X64410000Y-63580000D01*
X64410000Y-61620000D02*
X64410000Y-59420000D01*
X64450000Y-65776000D02*
X64450000Y-63580000D01*
X64450000Y-61620000D02*
X64450000Y-59424000D01*
X64490000Y-65770000D02*
X64490000Y-63580000D01*
X64490000Y-61620000D02*
X64490000Y-59430000D01*
X64530000Y-65765000D02*
X64530000Y-63580000D01*
X64530000Y-61620000D02*
X64530000Y-59435000D01*
X64570000Y-65758000D02*
X64570000Y-63580000D01*
X64570000Y-61620000D02*
X64570000Y-59442000D01*
X64610000Y-65752000D02*
X64610000Y-63580000D01*
X64610000Y-61620000D02*
X64610000Y-59448000D01*
X64650000Y-65744000D02*
X64650000Y-63580000D01*
X64650000Y-61620000D02*
X64650000Y-59456000D01*
X64690000Y-65737000D02*
X64690000Y-63580000D01*
X64690000Y-61620000D02*
X64690000Y-59463000D01*
X64730000Y-65728000D02*
X64730000Y-63580000D01*
X64730000Y-61620000D02*
X64730000Y-59472000D01*
X64771000Y-65719000D02*
X64771000Y-63580000D01*
X64771000Y-61620000D02*
X64771000Y-59481000D01*
X64811000Y-65710000D02*
X64811000Y-63580000D01*
X64811000Y-61620000D02*
X64811000Y-59490000D01*
X64851000Y-65700000D02*
X64851000Y-63580000D01*
X64851000Y-61620000D02*
X64851000Y-59500000D01*
X64891000Y-65690000D02*
X64891000Y-63580000D01*
X64891000Y-61620000D02*
X64891000Y-59510000D01*
X64931000Y-65679000D02*
X64931000Y-63580000D01*
X64931000Y-61620000D02*
X64931000Y-59521000D01*
X64971000Y-65667000D02*
X64971000Y-63580000D01*
X64971000Y-61620000D02*
X64971000Y-59533000D01*
X65011000Y-65655000D02*
X65011000Y-63580000D01*
X65011000Y-61620000D02*
X65011000Y-59545000D01*
X65051000Y-65642000D02*
X65051000Y-63580000D01*
X65051000Y-61620000D02*
X65051000Y-59558000D01*
X65091000Y-65629000D02*
X65091000Y-63580000D01*
X65091000Y-61620000D02*
X65091000Y-59571000D01*
X65131000Y-65615000D02*
X65131000Y-63580000D01*
X65131000Y-61620000D02*
X65131000Y-59585000D01*
X65171000Y-65601000D02*
X65171000Y-63580000D01*
X65171000Y-61620000D02*
X65171000Y-59599000D01*
X65211000Y-65586000D02*
X65211000Y-63580000D01*
X65211000Y-61620000D02*
X65211000Y-59614000D01*
X65251000Y-65570000D02*
X65251000Y-63580000D01*
X65251000Y-61620000D02*
X65251000Y-59630000D01*
X65291000Y-65554000D02*
X65291000Y-63580000D01*
X65291000Y-61620000D02*
X65291000Y-59646000D01*
X65331000Y-65537000D02*
X65331000Y-63580000D01*
X65331000Y-61620000D02*
X65331000Y-59663000D01*
X65371000Y-65519000D02*
X65371000Y-63580000D01*
X65371000Y-61620000D02*
X65371000Y-59681000D01*
X65411000Y-65501000D02*
X65411000Y-63580000D01*
X65411000Y-61620000D02*
X65411000Y-59699000D01*
X65451000Y-65482000D02*
X65451000Y-63580000D01*
X65451000Y-61620000D02*
X65451000Y-59718000D01*
X65491000Y-65463000D02*
X65491000Y-63580000D01*
X65491000Y-61620000D02*
X65491000Y-59737000D01*
X65531000Y-65443000D02*
X65531000Y-63580000D01*
X65531000Y-61620000D02*
X65531000Y-59757000D01*
X65571000Y-65422000D02*
X65571000Y-63580000D01*
X65571000Y-61620000D02*
X65571000Y-59778000D01*
X65611000Y-65400000D02*
X65611000Y-63580000D01*
X65611000Y-61620000D02*
X65611000Y-59800000D01*
X65651000Y-65378000D02*
X65651000Y-63580000D01*
X65651000Y-61620000D02*
X65651000Y-59822000D01*
X65691000Y-65355000D02*
X65691000Y-63580000D01*
X65691000Y-61620000D02*
X65691000Y-59845000D01*
X65731000Y-65331000D02*
X65731000Y-63580000D01*
X65731000Y-61620000D02*
X65731000Y-59869000D01*
X65771000Y-65306000D02*
X65771000Y-63580000D01*
X65771000Y-61620000D02*
X65771000Y-59894000D01*
X65811000Y-65281000D02*
X65811000Y-63580000D01*
X65811000Y-61620000D02*
X65811000Y-59919000D01*
X65851000Y-65254000D02*
X65851000Y-63580000D01*
X65851000Y-61620000D02*
X65851000Y-59946000D01*
X65891000Y-65227000D02*
X65891000Y-63580000D01*
X65891000Y-61620000D02*
X65891000Y-59973000D01*
X65931000Y-65199000D02*
X65931000Y-63580000D01*
X65931000Y-61620000D02*
X65931000Y-60001000D01*
X65971000Y-65170000D02*
X65971000Y-63580000D01*
X65971000Y-61620000D02*
X65971000Y-60030000D01*
X66011000Y-65140000D02*
X66011000Y-63580000D01*
X66011000Y-61620000D02*
X66011000Y-60060000D01*
X66051000Y-65110000D02*
X66051000Y-63580000D01*
X66051000Y-61620000D02*
X66051000Y-60090000D01*
X66091000Y-65078000D02*
X66091000Y-63580000D01*
X66091000Y-61620000D02*
X66091000Y-60122000D01*
X66131000Y-65045000D02*
X66131000Y-63580000D01*
X66131000Y-61620000D02*
X66131000Y-60155000D01*
X66171000Y-65011000D02*
X66171000Y-63580000D01*
X66171000Y-61620000D02*
X66171000Y-60189000D01*
X66211000Y-64975000D02*
X66211000Y-63580000D01*
X66211000Y-61620000D02*
X66211000Y-60225000D01*
X66251000Y-64939000D02*
X66251000Y-63580000D01*
X66251000Y-61620000D02*
X66251000Y-60261000D01*
X66291000Y-64901000D02*
X66291000Y-60299000D01*
X66331000Y-64862000D02*
X66331000Y-60338000D01*
X66371000Y-64822000D02*
X66371000Y-60378000D01*
X66411000Y-64780000D02*
X66411000Y-60420000D01*
X66451000Y-64737000D02*
X66451000Y-60463000D01*
X66491000Y-64692000D02*
X66491000Y-60508000D01*
X66531000Y-64645000D02*
X66531000Y-60555000D01*
X66571000Y-64597000D02*
X66571000Y-60603000D01*
X66611000Y-64546000D02*
X66611000Y-60654000D01*
X66651000Y-64494000D02*
X66651000Y-60706000D01*
X66691000Y-64439000D02*
X66691000Y-60761000D01*
X66731000Y-64381000D02*
X66731000Y-60819000D01*
X66771000Y-64321000D02*
X66771000Y-60879000D01*
X66811000Y-64258000D02*
X66811000Y-60942000D01*
X66851000Y-64191000D02*
X66851000Y-61009000D01*
X66891000Y-64120000D02*
X66891000Y-61080000D01*
X66931000Y-64045000D02*
X66931000Y-61155000D01*
X66971000Y-63964000D02*
X66971000Y-61236000D01*
X67011000Y-63878000D02*
X67011000Y-61322000D01*
X67051000Y-63784000D02*
X67051000Y-61416000D01*
X67091000Y-63681000D02*
X67091000Y-61519000D01*
X67131000Y-63566000D02*
X67131000Y-61634000D01*
X67171000Y-63434000D02*
X67171000Y-61766000D01*
X67211000Y-63276000D02*
X67211000Y-61924000D01*
X67251000Y-63068000D02*
X67251000Y-62132000D01*
X60600000Y-62600000D02*
X61800000Y-62600000D01*
X61200000Y-63250000D02*
X61200000Y-61950000D01*
D12*
X68611905Y-109302381D02*
X68040476Y-109302381D01*
X68326191Y-110302381D02*
X68326191Y-109302381D01*
X67278571Y-109635714D02*
X67278571Y-110302381D01*
X67516667Y-109254762D02*
X67754762Y-109969048D01*
X67135714Y-109969048D01*
X85823333Y-118612381D02*
X85823333Y-119326667D01*
X85870953Y-119469524D01*
X85966191Y-119564762D01*
X86109048Y-119612381D01*
X86204286Y-119612381D01*
X85394762Y-118707619D02*
X85347143Y-118660000D01*
X85251905Y-118612381D01*
X85013809Y-118612381D01*
X84918571Y-118660000D01*
X84870952Y-118707619D01*
X84823333Y-118802857D01*
X84823333Y-118898095D01*
X84870952Y-119040952D01*
X85442381Y-119612381D01*
X84823333Y-119612381D01*
X134252381Y-92826190D02*
X134252381Y-93302381D01*
X134585714Y-92302381D02*
X134252381Y-92826190D01*
X133919047Y-92302381D01*
X133061904Y-93302381D02*
X133633333Y-93302381D01*
X133347619Y-93302381D02*
X133347619Y-92302381D01*
X133442857Y-92445238D01*
X133538095Y-92540476D01*
X133633333Y-92588095D01*
X132728571Y-92302381D02*
X132061904Y-92302381D01*
X132490476Y-93302381D01*
X140243333Y-118962381D02*
X140243333Y-119676667D01*
X140290953Y-119819524D01*
X140386191Y-119914762D01*
X140529048Y-119962381D01*
X140624286Y-119962381D01*
X139243333Y-119962381D02*
X139814762Y-119962381D01*
X139529048Y-119962381D02*
X139529048Y-118962381D01*
X139624286Y-119105238D01*
X139719524Y-119200476D01*
X139814762Y-119248095D01*
X120752381Y-115426190D02*
X120752381Y-115902381D01*
X121085714Y-114902381D02*
X120752381Y-115426190D01*
X120419047Y-114902381D01*
X119561904Y-115902381D02*
X120133333Y-115902381D01*
X119847619Y-115902381D02*
X119847619Y-114902381D01*
X119942857Y-115045238D01*
X120038095Y-115140476D01*
X120133333Y-115188095D01*
X119180952Y-114997619D02*
X119133333Y-114950000D01*
X119038095Y-114902381D01*
X118799999Y-114902381D01*
X118704761Y-114950000D01*
X118657142Y-114997619D01*
X118609523Y-115092857D01*
X118609523Y-115188095D01*
X118657142Y-115330952D01*
X119228571Y-115902381D01*
X118609523Y-115902381D01*
X116426190Y-107647619D02*
X116902381Y-107647619D01*
X115902381Y-107314286D02*
X116426190Y-107647619D01*
X115902381Y-107980953D01*
X116902381Y-108838096D02*
X116902381Y-108266667D01*
X116902381Y-108552381D02*
X115902381Y-108552381D01*
X116045238Y-108457143D01*
X116140476Y-108361905D01*
X116188095Y-108266667D01*
X116902381Y-109790477D02*
X116902381Y-109219048D01*
X116902381Y-109504762D02*
X115902381Y-109504762D01*
X116045238Y-109409524D01*
X116140476Y-109314286D01*
X116188095Y-109219048D01*
X111326190Y-107647619D02*
X111802381Y-107647619D01*
X110802381Y-107314286D02*
X111326190Y-107647619D01*
X110802381Y-107980953D01*
X111802381Y-108838096D02*
X111802381Y-108266667D01*
X111802381Y-108552381D02*
X110802381Y-108552381D01*
X110945238Y-108457143D01*
X111040476Y-108361905D01*
X111088095Y-108266667D01*
X110802381Y-109457143D02*
X110802381Y-109552382D01*
X110850000Y-109647620D01*
X110897619Y-109695239D01*
X110992857Y-109742858D01*
X111183333Y-109790477D01*
X111421429Y-109790477D01*
X111611905Y-109742858D01*
X111707143Y-109695239D01*
X111754762Y-109647620D01*
X111802381Y-109552382D01*
X111802381Y-109457143D01*
X111754762Y-109361905D01*
X111707143Y-109314286D01*
X111611905Y-109266667D01*
X111421429Y-109219048D01*
X111183333Y-109219048D01*
X110992857Y-109266667D01*
X110897619Y-109314286D01*
X110850000Y-109361905D01*
X110802381Y-109457143D01*
X106226190Y-108123809D02*
X106702381Y-108123809D01*
X105702381Y-107790476D02*
X106226190Y-108123809D01*
X105702381Y-108457143D01*
X106702381Y-108838095D02*
X106702381Y-109028571D01*
X106654762Y-109123810D01*
X106607143Y-109171429D01*
X106464286Y-109266667D01*
X106273810Y-109314286D01*
X105892857Y-109314286D01*
X105797619Y-109266667D01*
X105750000Y-109219048D01*
X105702381Y-109123810D01*
X105702381Y-108933333D01*
X105750000Y-108838095D01*
X105797619Y-108790476D01*
X105892857Y-108742857D01*
X106130952Y-108742857D01*
X106226190Y-108790476D01*
X106273810Y-108838095D01*
X106321429Y-108933333D01*
X106321429Y-109123810D01*
X106273810Y-109219048D01*
X106226190Y-109266667D01*
X106130952Y-109314286D01*
X101126190Y-108123809D02*
X101602381Y-108123809D01*
X100602381Y-107790476D02*
X101126190Y-108123809D01*
X100602381Y-108457143D01*
X101030952Y-108933333D02*
X100983333Y-108838095D01*
X100935714Y-108790476D01*
X100840476Y-108742857D01*
X100792857Y-108742857D01*
X100697619Y-108790476D01*
X100650000Y-108838095D01*
X100602381Y-108933333D01*
X100602381Y-109123810D01*
X100650000Y-109219048D01*
X100697619Y-109266667D01*
X100792857Y-109314286D01*
X100840476Y-109314286D01*
X100935714Y-109266667D01*
X100983333Y-109219048D01*
X101030952Y-109123810D01*
X101030952Y-108933333D01*
X101078571Y-108838095D01*
X101126190Y-108790476D01*
X101221429Y-108742857D01*
X101411905Y-108742857D01*
X101507143Y-108790476D01*
X101554762Y-108838095D01*
X101602381Y-108933333D01*
X101602381Y-109123810D01*
X101554762Y-109219048D01*
X101507143Y-109266667D01*
X101411905Y-109314286D01*
X101221429Y-109314286D01*
X101126190Y-109266667D01*
X101078571Y-109219048D01*
X101030952Y-109123810D01*
X96026190Y-108123809D02*
X96502381Y-108123809D01*
X95502381Y-107790476D02*
X96026190Y-108123809D01*
X95502381Y-108457143D01*
X95502381Y-108695238D02*
X95502381Y-109361905D01*
X96502381Y-108933333D01*
X90926190Y-108123809D02*
X91402381Y-108123809D01*
X90402381Y-107790476D02*
X90926190Y-108123809D01*
X90402381Y-108457143D01*
X90402381Y-109219048D02*
X90402381Y-109028571D01*
X90450000Y-108933333D01*
X90497619Y-108885714D01*
X90640476Y-108790476D01*
X90830952Y-108742857D01*
X91211905Y-108742857D01*
X91307143Y-108790476D01*
X91354762Y-108838095D01*
X91402381Y-108933333D01*
X91402381Y-109123810D01*
X91354762Y-109219048D01*
X91307143Y-109266667D01*
X91211905Y-109314286D01*
X90973810Y-109314286D01*
X90878571Y-109266667D01*
X90830952Y-109219048D01*
X90783333Y-109123810D01*
X90783333Y-108933333D01*
X90830952Y-108838095D01*
X90878571Y-108790476D01*
X90973810Y-108742857D01*
X102456191Y-90726190D02*
X102456191Y-91202381D01*
X102789524Y-90202381D02*
X102456191Y-90726190D01*
X102122857Y-90202381D01*
X101313333Y-90202381D02*
X101789524Y-90202381D01*
X101837143Y-90678571D01*
X101789524Y-90630952D01*
X101694286Y-90583333D01*
X101456190Y-90583333D01*
X101360952Y-90630952D01*
X101313333Y-90678571D01*
X101265714Y-90773810D01*
X101265714Y-91011905D01*
X101313333Y-91107143D01*
X101360952Y-91154762D01*
X101456190Y-91202381D01*
X101694286Y-91202381D01*
X101789524Y-91154762D01*
X101837143Y-91107143D01*
X126466190Y-108147619D02*
X126942381Y-108147619D01*
X125942381Y-107814286D02*
X126466190Y-108147619D01*
X125942381Y-108480953D01*
X126942381Y-109338096D02*
X126942381Y-108766667D01*
X126942381Y-109052381D02*
X125942381Y-109052381D01*
X126085238Y-108957143D01*
X126180476Y-108861905D01*
X126228095Y-108766667D01*
X125942381Y-109671429D02*
X125942381Y-110290477D01*
X126323333Y-109957143D01*
X126323333Y-110100001D01*
X126370952Y-110195239D01*
X126418571Y-110242858D01*
X126513810Y-110290477D01*
X126751905Y-110290477D01*
X126847143Y-110242858D01*
X126894762Y-110195239D01*
X126942381Y-110100001D01*
X126942381Y-109814286D01*
X126894762Y-109719048D01*
X126847143Y-109671429D01*
X134252381Y-108126190D02*
X134252381Y-108602381D01*
X134585714Y-107602381D02*
X134252381Y-108126190D01*
X133919047Y-107602381D01*
X133061904Y-108602381D02*
X133633333Y-108602381D01*
X133347619Y-108602381D02*
X133347619Y-107602381D01*
X133442857Y-107745238D01*
X133538095Y-107840476D01*
X133633333Y-107888095D01*
X132204761Y-107935714D02*
X132204761Y-108602381D01*
X132442857Y-107554762D02*
X132680952Y-108269048D01*
X132061904Y-108269048D01*
X134252381Y-103026190D02*
X134252381Y-103502381D01*
X134585714Y-102502381D02*
X134252381Y-103026190D01*
X133919047Y-102502381D01*
X133061904Y-103502381D02*
X133633333Y-103502381D01*
X133347619Y-103502381D02*
X133347619Y-102502381D01*
X133442857Y-102645238D01*
X133538095Y-102740476D01*
X133633333Y-102788095D01*
X132157142Y-102502381D02*
X132633333Y-102502381D01*
X132680952Y-102978571D01*
X132633333Y-102930952D01*
X132538095Y-102883333D01*
X132299999Y-102883333D01*
X132204761Y-102930952D01*
X132157142Y-102978571D01*
X132109523Y-103073810D01*
X132109523Y-103311905D01*
X132157142Y-103407143D01*
X132204761Y-103454762D01*
X132299999Y-103502381D01*
X132538095Y-103502381D01*
X132633333Y-103454762D01*
X132680952Y-103407143D01*
X134252381Y-97926190D02*
X134252381Y-98402381D01*
X134585714Y-97402381D02*
X134252381Y-97926190D01*
X133919047Y-97402381D01*
X133061904Y-98402381D02*
X133633333Y-98402381D01*
X133347619Y-98402381D02*
X133347619Y-97402381D01*
X133442857Y-97545238D01*
X133538095Y-97640476D01*
X133633333Y-97688095D01*
X132204761Y-97402381D02*
X132395238Y-97402381D01*
X132490476Y-97450000D01*
X132538095Y-97497619D01*
X132633333Y-97640476D01*
X132680952Y-97830952D01*
X132680952Y-98211905D01*
X132633333Y-98307143D01*
X132585714Y-98354762D01*
X132490476Y-98402381D01*
X132299999Y-98402381D01*
X132204761Y-98354762D01*
X132157142Y-98307143D01*
X132109523Y-98211905D01*
X132109523Y-97973810D01*
X132157142Y-97878571D01*
X132204761Y-97830952D01*
X132299999Y-97783333D01*
X132490476Y-97783333D01*
X132585714Y-97830952D01*
X132633333Y-97878571D01*
X132680952Y-97973810D01*
X134252381Y-87726190D02*
X134252381Y-88202381D01*
X134585714Y-87202381D02*
X134252381Y-87726190D01*
X133919047Y-87202381D01*
X133061904Y-88202381D02*
X133633333Y-88202381D01*
X133347619Y-88202381D02*
X133347619Y-87202381D01*
X133442857Y-87345238D01*
X133538095Y-87440476D01*
X133633333Y-87488095D01*
X132585714Y-88202381D02*
X132395238Y-88202381D01*
X132299999Y-88154762D01*
X132252380Y-88107143D01*
X132157142Y-87964286D01*
X132109523Y-87773810D01*
X132109523Y-87392857D01*
X132157142Y-87297619D01*
X132204761Y-87250000D01*
X132299999Y-87202381D01*
X132490476Y-87202381D01*
X132585714Y-87250000D01*
X132633333Y-87297619D01*
X132680952Y-87392857D01*
X132680952Y-87630952D01*
X132633333Y-87726190D01*
X132585714Y-87773810D01*
X132490476Y-87821429D01*
X132299999Y-87821429D01*
X132204761Y-87773810D01*
X132157142Y-87726190D01*
X132109523Y-87630952D01*
X134252381Y-82626190D02*
X134252381Y-83102381D01*
X134585714Y-82102381D02*
X134252381Y-82626190D01*
X133919047Y-82102381D01*
X133633333Y-82197619D02*
X133585714Y-82150000D01*
X133490476Y-82102381D01*
X133252380Y-82102381D01*
X133157142Y-82150000D01*
X133109523Y-82197619D01*
X133061904Y-82292857D01*
X133061904Y-82388095D01*
X133109523Y-82530952D01*
X133680952Y-83102381D01*
X133061904Y-83102381D01*
X132442857Y-82102381D02*
X132347618Y-82102381D01*
X132252380Y-82150000D01*
X132204761Y-82197619D01*
X132157142Y-82292857D01*
X132109523Y-82483333D01*
X132109523Y-82721429D01*
X132157142Y-82911905D01*
X132204761Y-83007143D01*
X132252380Y-83054762D01*
X132347618Y-83102381D01*
X132442857Y-83102381D01*
X132538095Y-83054762D01*
X132585714Y-83007143D01*
X132633333Y-82911905D01*
X132680952Y-82721429D01*
X132680952Y-82483333D01*
X132633333Y-82292857D01*
X132585714Y-82197619D01*
X132538095Y-82150000D01*
X132442857Y-82102381D01*
X152126190Y-89247619D02*
X152602381Y-89247619D01*
X151602381Y-88914286D02*
X152126190Y-89247619D01*
X151602381Y-89580953D01*
X151697619Y-89866667D02*
X151650000Y-89914286D01*
X151602381Y-90009524D01*
X151602381Y-90247620D01*
X151650000Y-90342858D01*
X151697619Y-90390477D01*
X151792857Y-90438096D01*
X151888095Y-90438096D01*
X152030952Y-90390477D01*
X152602381Y-89819048D01*
X152602381Y-90438096D01*
X152602381Y-91390477D02*
X152602381Y-90819048D01*
X152602381Y-91104762D02*
X151602381Y-91104762D01*
X151745238Y-91009524D01*
X151840476Y-90914286D01*
X151888095Y-90819048D01*
X56983333Y-59232381D02*
X56983333Y-59946667D01*
X57030953Y-60089524D01*
X57126191Y-60184762D01*
X57269048Y-60232381D01*
X57364286Y-60232381D01*
X56602381Y-59232381D02*
X55983333Y-59232381D01*
X56316667Y-59613333D01*
X56173809Y-59613333D01*
X56078571Y-59660952D01*
X56030952Y-59708571D01*
X55983333Y-59803810D01*
X55983333Y-60041905D01*
X56030952Y-60137143D01*
X56078571Y-60184762D01*
X56173809Y-60232381D01*
X56459524Y-60232381D01*
X56554762Y-60184762D01*
X56602381Y-60137143D01*
X56983333Y-67232381D02*
X56983333Y-67946667D01*
X57030953Y-68089524D01*
X57126191Y-68184762D01*
X57269048Y-68232381D01*
X57364286Y-68232381D01*
X56078571Y-67232381D02*
X56269048Y-67232381D01*
X56364286Y-67280000D01*
X56411905Y-67327619D01*
X56507143Y-67470476D01*
X56554762Y-67660952D01*
X56554762Y-68041905D01*
X56507143Y-68137143D01*
X56459524Y-68184762D01*
X56364286Y-68232381D01*
X56173809Y-68232381D01*
X56078571Y-68184762D01*
X56030952Y-68137143D01*
X55983333Y-68041905D01*
X55983333Y-67803810D01*
X56030952Y-67708571D01*
X56078571Y-67660952D01*
X56173809Y-67613333D01*
X56364286Y-67613333D01*
X56459524Y-67660952D01*
X56507143Y-67708571D01*
X56554762Y-67803810D01*
X71002381Y-78488095D02*
X71002381Y-79059524D01*
X72002381Y-78773809D02*
X71002381Y-78773809D01*
X71002381Y-79869048D02*
X71002381Y-79392857D01*
X71478571Y-79345238D01*
X71430952Y-79392857D01*
X71383333Y-79488095D01*
X71383333Y-79726191D01*
X71430952Y-79821429D01*
X71478571Y-79869048D01*
X71573810Y-79916667D01*
X71811905Y-79916667D01*
X71907143Y-79869048D01*
X71954762Y-79821429D01*
X72002381Y-79726191D01*
X72002381Y-79488095D01*
X71954762Y-79392857D01*
X71907143Y-79345238D01*
X68652381Y-45366667D02*
X69366667Y-45366667D01*
X69509524Y-45319047D01*
X69604762Y-45223809D01*
X69652381Y-45080952D01*
X69652381Y-44985714D01*
X68652381Y-45747619D02*
X68652381Y-46414286D01*
X69652381Y-45985714D01*
X77302381Y-51334762D02*
X76826190Y-51001428D01*
X77302381Y-50763333D02*
X76302381Y-50763333D01*
X76302381Y-51144286D01*
X76350000Y-51239524D01*
X76397619Y-51287143D01*
X76492857Y-51334762D01*
X76635714Y-51334762D01*
X76730952Y-51287143D01*
X76778571Y-51239524D01*
X76826190Y-51144286D01*
X76826190Y-50763333D01*
X76302381Y-51620476D02*
X77302381Y-51953809D01*
X76302381Y-52287143D01*
X76635714Y-53049048D02*
X77302381Y-53049048D01*
X76254762Y-52810952D02*
X76969048Y-52572857D01*
X76969048Y-53191905D01*
X148022381Y-101326667D02*
X148736667Y-101326667D01*
X148879524Y-101279047D01*
X148974762Y-101183809D01*
X149022381Y-101040952D01*
X149022381Y-100945714D01*
X148022381Y-102279048D02*
X148022381Y-101802857D01*
X148498571Y-101755238D01*
X148450952Y-101802857D01*
X148403333Y-101898095D01*
X148403333Y-102136191D01*
X148450952Y-102231429D01*
X148498571Y-102279048D01*
X148593810Y-102326667D01*
X148831905Y-102326667D01*
X148927143Y-102279048D01*
X148974762Y-102231429D01*
X149022381Y-102136191D01*
X149022381Y-101898095D01*
X148974762Y-101802857D01*
X148927143Y-101755238D01*
X147832381Y-93010477D02*
X148546667Y-93010477D01*
X148689524Y-92962857D01*
X148784762Y-92867619D01*
X148832381Y-92724762D01*
X148832381Y-92629524D01*
X148832381Y-94010477D02*
X148832381Y-93439048D01*
X148832381Y-93724762D02*
X147832381Y-93724762D01*
X147975238Y-93629524D01*
X148070476Y-93534286D01*
X148118095Y-93439048D01*
X147832381Y-94343810D02*
X147832381Y-94962858D01*
X148213333Y-94629524D01*
X148213333Y-94772382D01*
X148260952Y-94867620D01*
X148308571Y-94915239D01*
X148403810Y-94962858D01*
X148641905Y-94962858D01*
X148737143Y-94915239D01*
X148784762Y-94867620D01*
X148832381Y-94772382D01*
X148832381Y-94486667D01*
X148784762Y-94391429D01*
X148737143Y-94343810D01*
X76552381Y-44890477D02*
X77266667Y-44890477D01*
X77409524Y-44842857D01*
X77504762Y-44747619D01*
X77552381Y-44604762D01*
X77552381Y-44509524D01*
X77552381Y-45890477D02*
X77552381Y-45319048D01*
X77552381Y-45604762D02*
X76552381Y-45604762D01*
X76695238Y-45509524D01*
X76790476Y-45414286D01*
X76838095Y-45319048D01*
X76552381Y-46795239D02*
X76552381Y-46319048D01*
X77028571Y-46271429D01*
X76980952Y-46319048D01*
X76933333Y-46414286D01*
X76933333Y-46652382D01*
X76980952Y-46747620D01*
X77028571Y-46795239D01*
X77123810Y-46842858D01*
X77361905Y-46842858D01*
X77457143Y-46795239D01*
X77504762Y-46747620D01*
X77552381Y-46652382D01*
X77552381Y-46414286D01*
X77504762Y-46319048D01*
X77457143Y-46271429D01*
X113703095Y-71077381D02*
X113703095Y-70077381D01*
X113131666Y-71077381D02*
X113560238Y-70505952D01*
X113131666Y-70077381D02*
X113703095Y-70648810D01*
X112179285Y-71077381D02*
X112750714Y-71077381D01*
X112465000Y-71077381D02*
X112465000Y-70077381D01*
X112560238Y-70220238D01*
X112655476Y-70315476D01*
X112750714Y-70363095D01*
X152711905Y-55602381D02*
X152140476Y-55602381D01*
X152426191Y-56602381D02*
X152426191Y-55602381D01*
X151283333Y-56602381D02*
X151854762Y-56602381D01*
X151569048Y-56602381D02*
X151569048Y-55602381D01*
X151664286Y-55745238D01*
X151759524Y-55840476D01*
X151854762Y-55888095D01*
X149402381Y-65388095D02*
X149402381Y-65959524D01*
X150402381Y-65673809D02*
X149402381Y-65673809D01*
X149402381Y-66197619D02*
X149402381Y-66816667D01*
X149783333Y-66483333D01*
X149783333Y-66626191D01*
X149830952Y-66721429D01*
X149878571Y-66769048D01*
X149973810Y-66816667D01*
X150211905Y-66816667D01*
X150307143Y-66769048D01*
X150354762Y-66721429D01*
X150402381Y-66626191D01*
X150402381Y-66340476D01*
X150354762Y-66245238D01*
X150307143Y-66197619D01*
X129809523Y-47752381D02*
X129809523Y-48466667D01*
X129857143Y-48609524D01*
X129952381Y-48704762D01*
X130095238Y-48752381D01*
X130190476Y-48752381D01*
X128809523Y-48752381D02*
X129380952Y-48752381D01*
X129095238Y-48752381D02*
X129095238Y-47752381D01*
X129190476Y-47895238D01*
X129285714Y-47990476D01*
X129380952Y-48038095D01*
X127952380Y-48085714D02*
X127952380Y-48752381D01*
X128190476Y-47704762D02*
X128428571Y-48419048D01*
X127809523Y-48419048D01*
X135395238Y-65112381D02*
X135728572Y-64636190D01*
X135966667Y-65112381D02*
X135966667Y-64112381D01*
X135585714Y-64112381D01*
X135490476Y-64160000D01*
X135442857Y-64207619D01*
X135395238Y-64302857D01*
X135395238Y-64445714D01*
X135442857Y-64540952D01*
X135490476Y-64588571D01*
X135585714Y-64636190D01*
X135966667Y-64636190D01*
X135109524Y-64112381D02*
X134776191Y-65112381D01*
X134442857Y-64112381D01*
X133585714Y-65112381D02*
X134157143Y-65112381D01*
X133871429Y-65112381D02*
X133871429Y-64112381D01*
X133966667Y-64255238D01*
X134061905Y-64350476D01*
X134157143Y-64398095D01*
X127661905Y-56152381D02*
X127090476Y-56152381D01*
X127376191Y-57152381D02*
X127376191Y-56152381D01*
X126804762Y-56247619D02*
X126757143Y-56200000D01*
X126661905Y-56152381D01*
X126423809Y-56152381D01*
X126328571Y-56200000D01*
X126280952Y-56247619D01*
X126233333Y-56342857D01*
X126233333Y-56438095D01*
X126280952Y-56580952D01*
X126852381Y-57152381D01*
X126233333Y-57152381D01*
X104452381Y-51157143D02*
X104452381Y-50680952D01*
X103452381Y-50680952D01*
X103547619Y-51442857D02*
X103500000Y-51490476D01*
X103452381Y-51585714D01*
X103452381Y-51823810D01*
X103500000Y-51919048D01*
X103547619Y-51966667D01*
X103642857Y-52014286D01*
X103738095Y-52014286D01*
X103880952Y-51966667D01*
X104452381Y-51395238D01*
X104452381Y-52014286D01*
X103785714Y-52871429D02*
X104452381Y-52871429D01*
X103404762Y-52633333D02*
X104119048Y-52395238D01*
X104119048Y-53014286D01*
X116902381Y-46254762D02*
X116426190Y-45921428D01*
X116902381Y-45683333D02*
X115902381Y-45683333D01*
X115902381Y-46064286D01*
X115950000Y-46159524D01*
X115997619Y-46207143D01*
X116092857Y-46254762D01*
X116235714Y-46254762D01*
X116330952Y-46207143D01*
X116378571Y-46159524D01*
X116426190Y-46064286D01*
X116426190Y-45683333D01*
X115902381Y-46540476D02*
X116902381Y-46873809D01*
X115902381Y-47207143D01*
X115997619Y-47492857D02*
X115950000Y-47540476D01*
X115902381Y-47635714D01*
X115902381Y-47873810D01*
X115950000Y-47969048D01*
X115997619Y-48016667D01*
X116092857Y-48064286D01*
X116188095Y-48064286D01*
X116330952Y-48016667D01*
X116902381Y-47445238D01*
X116902381Y-48064286D01*
X97712381Y-82504762D02*
X97236190Y-82171428D01*
X97712381Y-81933333D02*
X96712381Y-81933333D01*
X96712381Y-82314286D01*
X96760000Y-82409524D01*
X96807619Y-82457143D01*
X96902857Y-82504762D01*
X97045714Y-82504762D01*
X97140952Y-82457143D01*
X97188571Y-82409524D01*
X97236190Y-82314286D01*
X97236190Y-81933333D01*
X96712381Y-82790476D02*
X97712381Y-83123809D01*
X96712381Y-83457143D01*
X96712381Y-83695238D02*
X96712381Y-84314286D01*
X97093333Y-83980952D01*
X97093333Y-84123810D01*
X97140952Y-84219048D01*
X97188571Y-84266667D01*
X97283810Y-84314286D01*
X97521905Y-84314286D01*
X97617143Y-84266667D01*
X97664762Y-84219048D01*
X97712381Y-84123810D01*
X97712381Y-83838095D01*
X97664762Y-83742857D01*
X97617143Y-83695238D01*
X111327381Y-62176190D02*
X111327381Y-62652381D01*
X111660714Y-61652381D02*
X111327381Y-62176190D01*
X110994047Y-61652381D01*
X110136904Y-62652381D02*
X110708333Y-62652381D01*
X110422619Y-62652381D02*
X110422619Y-61652381D01*
X110517857Y-61795238D01*
X110613095Y-61890476D01*
X110708333Y-61938095D01*
X109565476Y-62080952D02*
X109660714Y-62033333D01*
X109708333Y-61985714D01*
X109755952Y-61890476D01*
X109755952Y-61842857D01*
X109708333Y-61747619D01*
X109660714Y-61700000D01*
X109565476Y-61652381D01*
X109374999Y-61652381D01*
X109279761Y-61700000D01*
X109232142Y-61747619D01*
X109184523Y-61842857D01*
X109184523Y-61890476D01*
X109232142Y-61985714D01*
X109279761Y-62033333D01*
X109374999Y-62080952D01*
X109565476Y-62080952D01*
X109660714Y-62128571D01*
X109708333Y-62176190D01*
X109755952Y-62271429D01*
X109755952Y-62461905D01*
X109708333Y-62557143D01*
X109660714Y-62604762D01*
X109565476Y-62652381D01*
X109374999Y-62652381D01*
X109279761Y-62604762D01*
X109232142Y-62557143D01*
X109184523Y-62461905D01*
X109184523Y-62271429D01*
X109232142Y-62176190D01*
X109279761Y-62128571D01*
X109374999Y-62080952D01*
X71612381Y-93851905D02*
X70612381Y-93851905D01*
X70612381Y-94090000D01*
X70660000Y-94232858D01*
X70755238Y-94328096D01*
X70850476Y-94375715D01*
X71040952Y-94423334D01*
X71183810Y-94423334D01*
X71374286Y-94375715D01*
X71469524Y-94328096D01*
X71564762Y-94232858D01*
X71612381Y-94090000D01*
X71612381Y-93851905D01*
X71612381Y-94899524D02*
X71612381Y-95090000D01*
X71564762Y-95185239D01*
X71517143Y-95232858D01*
X71374286Y-95328096D01*
X71183810Y-95375715D01*
X70802857Y-95375715D01*
X70707619Y-95328096D01*
X70660000Y-95280477D01*
X70612381Y-95185239D01*
X70612381Y-94994762D01*
X70660000Y-94899524D01*
X70707619Y-94851905D01*
X70802857Y-94804286D01*
X71040952Y-94804286D01*
X71136190Y-94851905D01*
X71183810Y-94899524D01*
X71231429Y-94994762D01*
X71231429Y-95185239D01*
X71183810Y-95280477D01*
X71136190Y-95328096D01*
X71040952Y-95375715D01*
X62292381Y-95695714D02*
X61292381Y-95695714D01*
X61292381Y-95933809D01*
X61340000Y-96076667D01*
X61435238Y-96171905D01*
X61530476Y-96219524D01*
X61720952Y-96267143D01*
X61863810Y-96267143D01*
X62054286Y-96219524D01*
X62149524Y-96171905D01*
X62244762Y-96076667D01*
X62292381Y-95933809D01*
X62292381Y-95695714D01*
X62292381Y-97219524D02*
X62292381Y-96648095D01*
X62292381Y-96933809D02*
X61292381Y-96933809D01*
X61435238Y-96838571D01*
X61530476Y-96743333D01*
X61578095Y-96648095D01*
X61292381Y-98076667D02*
X61292381Y-97886190D01*
X61340000Y-97790952D01*
X61387619Y-97743333D01*
X61530476Y-97648095D01*
X61720952Y-97600476D01*
X62101905Y-97600476D01*
X62197143Y-97648095D01*
X62244762Y-97695714D01*
X62292381Y-97790952D01*
X62292381Y-97981429D01*
X62244762Y-98076667D01*
X62197143Y-98124286D01*
X62101905Y-98171905D01*
X61863810Y-98171905D01*
X61768571Y-98124286D01*
X61720952Y-98076667D01*
X61673333Y-97981429D01*
X61673333Y-97790952D01*
X61720952Y-97695714D01*
X61768571Y-97648095D01*
X61863810Y-97600476D01*
X76512381Y-95675714D02*
X75512381Y-95675714D01*
X75512381Y-95913809D01*
X75560000Y-96056667D01*
X75655238Y-96151905D01*
X75750476Y-96199524D01*
X75940952Y-96247143D01*
X76083810Y-96247143D01*
X76274286Y-96199524D01*
X76369524Y-96151905D01*
X76464762Y-96056667D01*
X76512381Y-95913809D01*
X76512381Y-95675714D01*
X76512381Y-97199524D02*
X76512381Y-96628095D01*
X76512381Y-96913809D02*
X75512381Y-96913809D01*
X75655238Y-96818571D01*
X75750476Y-96723333D01*
X75798095Y-96628095D01*
X75512381Y-97532857D02*
X75512381Y-98199524D01*
X76512381Y-97770952D01*
X81552381Y-93185714D02*
X80552381Y-93185714D01*
X80552381Y-93423809D01*
X80600000Y-93566667D01*
X80695238Y-93661905D01*
X80790476Y-93709524D01*
X80980952Y-93757143D01*
X81123810Y-93757143D01*
X81314286Y-93709524D01*
X81409524Y-93661905D01*
X81504762Y-93566667D01*
X81552381Y-93423809D01*
X81552381Y-93185714D01*
X81552381Y-94709524D02*
X81552381Y-94138095D01*
X81552381Y-94423809D02*
X80552381Y-94423809D01*
X80695238Y-94328571D01*
X80790476Y-94233333D01*
X80838095Y-94138095D01*
X80552381Y-95614286D02*
X80552381Y-95138095D01*
X81028571Y-95090476D01*
X80980952Y-95138095D01*
X80933333Y-95233333D01*
X80933333Y-95471429D01*
X80980952Y-95566667D01*
X81028571Y-95614286D01*
X81123810Y-95661905D01*
X81361905Y-95661905D01*
X81457143Y-95614286D01*
X81504762Y-95566667D01*
X81552381Y-95471429D01*
X81552381Y-95233333D01*
X81504762Y-95138095D01*
X81457143Y-95090476D01*
X136114286Y-52352381D02*
X136114286Y-51352381D01*
X135876191Y-51352381D01*
X135733333Y-51400000D01*
X135638095Y-51495238D01*
X135590476Y-51590476D01*
X135542857Y-51780952D01*
X135542857Y-51923810D01*
X135590476Y-52114286D01*
X135638095Y-52209524D01*
X135733333Y-52304762D01*
X135876191Y-52352381D01*
X136114286Y-52352381D01*
X134590476Y-52352381D02*
X135161905Y-52352381D01*
X134876191Y-52352381D02*
X134876191Y-51352381D01*
X134971429Y-51495238D01*
X135066667Y-51590476D01*
X135161905Y-51638095D01*
X134019048Y-51780952D02*
X134114286Y-51733333D01*
X134161905Y-51685714D01*
X134209524Y-51590476D01*
X134209524Y-51542857D01*
X134161905Y-51447619D01*
X134114286Y-51400000D01*
X134019048Y-51352381D01*
X133828571Y-51352381D01*
X133733333Y-51400000D01*
X133685714Y-51447619D01*
X133638095Y-51542857D01*
X133638095Y-51590476D01*
X133685714Y-51685714D01*
X133733333Y-51733333D01*
X133828571Y-51780952D01*
X134019048Y-51780952D01*
X134114286Y-51828571D01*
X134161905Y-51876190D01*
X134209524Y-51971429D01*
X134209524Y-52161905D01*
X134161905Y-52257143D01*
X134114286Y-52304762D01*
X134019048Y-52352381D01*
X133828571Y-52352381D01*
X133733333Y-52304762D01*
X133685714Y-52257143D01*
X133638095Y-52161905D01*
X133638095Y-51971429D01*
X133685714Y-51876190D01*
X133733333Y-51828571D01*
X133828571Y-51780952D01*
X135914286Y-45652381D02*
X135914286Y-44652381D01*
X135676191Y-44652381D01*
X135533333Y-44700000D01*
X135438095Y-44795238D01*
X135390476Y-44890476D01*
X135342857Y-45080952D01*
X135342857Y-45223810D01*
X135390476Y-45414286D01*
X135438095Y-45509524D01*
X135533333Y-45604762D01*
X135676191Y-45652381D01*
X135914286Y-45652381D01*
X134961905Y-44747619D02*
X134914286Y-44700000D01*
X134819048Y-44652381D01*
X134580952Y-44652381D01*
X134485714Y-44700000D01*
X134438095Y-44747619D01*
X134390476Y-44842857D01*
X134390476Y-44938095D01*
X134438095Y-45080952D01*
X135009524Y-45652381D01*
X134390476Y-45652381D01*
X133771429Y-44652381D02*
X133676190Y-44652381D01*
X133580952Y-44700000D01*
X133533333Y-44747619D01*
X133485714Y-44842857D01*
X133438095Y-45033333D01*
X133438095Y-45271429D01*
X133485714Y-45461905D01*
X133533333Y-45557143D01*
X133580952Y-45604762D01*
X133676190Y-45652381D01*
X133771429Y-45652381D01*
X133866667Y-45604762D01*
X133914286Y-45557143D01*
X133961905Y-45461905D01*
X134009524Y-45271429D01*
X134009524Y-45033333D01*
X133961905Y-44842857D01*
X133914286Y-44747619D01*
X133866667Y-44700000D01*
X133771429Y-44652381D01*
X145538095Y-55552381D02*
X145538095Y-54552381D01*
X145300000Y-54552381D01*
X145157142Y-54600000D01*
X145061904Y-54695238D01*
X145014285Y-54790476D01*
X144966666Y-54980952D01*
X144966666Y-55123810D01*
X145014285Y-55314286D01*
X145061904Y-55409524D01*
X145157142Y-55504762D01*
X145300000Y-55552381D01*
X145538095Y-55552381D01*
X144109523Y-54885714D02*
X144109523Y-55552381D01*
X144347619Y-54504762D02*
X144585714Y-55219048D01*
X143966666Y-55219048D01*
X146214286Y-49052381D02*
X146214286Y-48052381D01*
X145976191Y-48052381D01*
X145833333Y-48100000D01*
X145738095Y-48195238D01*
X145690476Y-48290476D01*
X145642857Y-48480952D01*
X145642857Y-48623810D01*
X145690476Y-48814286D01*
X145738095Y-48909524D01*
X145833333Y-49004762D01*
X145976191Y-49052381D01*
X146214286Y-49052381D01*
X144690476Y-49052381D02*
X145261905Y-49052381D01*
X144976191Y-49052381D02*
X144976191Y-48052381D01*
X145071429Y-48195238D01*
X145166667Y-48290476D01*
X145261905Y-48338095D01*
X143833333Y-48385714D02*
X143833333Y-49052381D01*
X144071429Y-48004762D02*
X144309524Y-48719048D01*
X143690476Y-48719048D01*
X67947143Y-73657143D02*
X67994762Y-73609524D01*
X68042381Y-73466667D01*
X68042381Y-73371429D01*
X67994762Y-73228571D01*
X67899524Y-73133333D01*
X67804286Y-73085714D01*
X67613810Y-73038095D01*
X67470952Y-73038095D01*
X67280476Y-73085714D01*
X67185238Y-73133333D01*
X67090000Y-73228571D01*
X67042381Y-73371429D01*
X67042381Y-73466667D01*
X67090000Y-73609524D01*
X67137619Y-73657143D01*
X67137619Y-74038095D02*
X67090000Y-74085714D01*
X67042381Y-74180952D01*
X67042381Y-74419048D01*
X67090000Y-74514286D01*
X67137619Y-74561905D01*
X67232857Y-74609524D01*
X67328095Y-74609524D01*
X67470952Y-74561905D01*
X68042381Y-73990476D01*
X68042381Y-74609524D01*
X67042381Y-75228571D02*
X67042381Y-75323810D01*
X67090000Y-75419048D01*
X67137619Y-75466667D01*
X67232857Y-75514286D01*
X67423333Y-75561905D01*
X67661429Y-75561905D01*
X67851905Y-75514286D01*
X67947143Y-75466667D01*
X67994762Y-75419048D01*
X68042381Y-75323810D01*
X68042381Y-75228571D01*
X67994762Y-75133333D01*
X67947143Y-75085714D01*
X67851905Y-75038095D01*
X67661429Y-74990476D01*
X67423333Y-74990476D01*
X67232857Y-75038095D01*
X67137619Y-75085714D01*
X67090000Y-75133333D01*
X67042381Y-75228571D01*
X87957143Y-56557143D02*
X88004762Y-56509524D01*
X88052381Y-56366667D01*
X88052381Y-56271429D01*
X88004762Y-56128571D01*
X87909524Y-56033333D01*
X87814286Y-55985714D01*
X87623810Y-55938095D01*
X87480952Y-55938095D01*
X87290476Y-55985714D01*
X87195238Y-56033333D01*
X87100000Y-56128571D01*
X87052381Y-56271429D01*
X87052381Y-56366667D01*
X87100000Y-56509524D01*
X87147619Y-56557143D01*
X87052381Y-56890476D02*
X87052381Y-57509524D01*
X87433333Y-57176190D01*
X87433333Y-57319048D01*
X87480952Y-57414286D01*
X87528571Y-57461905D01*
X87623810Y-57509524D01*
X87861905Y-57509524D01*
X87957143Y-57461905D01*
X88004762Y-57414286D01*
X88052381Y-57319048D01*
X88052381Y-57033333D01*
X88004762Y-56938095D01*
X87957143Y-56890476D01*
X87385714Y-58366667D02*
X88052381Y-58366667D01*
X87004762Y-58128571D02*
X87719048Y-57890476D01*
X87719048Y-58509524D01*
X64792857Y-57957143D02*
X64840476Y-58004762D01*
X64983333Y-58052381D01*
X65078571Y-58052381D01*
X65221429Y-58004762D01*
X65316667Y-57909524D01*
X65364286Y-57814286D01*
X65411905Y-57623810D01*
X65411905Y-57480952D01*
X65364286Y-57290476D01*
X65316667Y-57195238D01*
X65221429Y-57100000D01*
X65078571Y-57052381D01*
X64983333Y-57052381D01*
X64840476Y-57100000D01*
X64792857Y-57147619D01*
X63935714Y-57385714D02*
X63935714Y-58052381D01*
X64173810Y-57004762D02*
X64411905Y-57719048D01*
X63792857Y-57719048D01*
X63269048Y-57480952D02*
X63364286Y-57433333D01*
X63411905Y-57385714D01*
X63459524Y-57290476D01*
X63459524Y-57242857D01*
X63411905Y-57147619D01*
X63364286Y-57100000D01*
X63269048Y-57052381D01*
X63078571Y-57052381D01*
X62983333Y-57100000D01*
X62935714Y-57147619D01*
X62888095Y-57242857D01*
X62888095Y-57290476D01*
X62935714Y-57385714D01*
X62983333Y-57433333D01*
X63078571Y-57480952D01*
X63269048Y-57480952D01*
X63364286Y-57528571D01*
X63411905Y-57576190D01*
X63459524Y-57671429D01*
X63459524Y-57861905D01*
X63411905Y-57957143D01*
X63364286Y-58004762D01*
X63269048Y-58052381D01*
X63078571Y-58052381D01*
X62983333Y-58004762D01*
X62935714Y-57957143D01*
X62888095Y-57861905D01*
X62888095Y-57671429D01*
X62935714Y-57576190D01*
X62983333Y-57528571D01*
X63078571Y-57480952D01*
X64692857Y-67417143D02*
X64740476Y-67464762D01*
X64883333Y-67512381D01*
X64978571Y-67512381D01*
X65121429Y-67464762D01*
X65216667Y-67369524D01*
X65264286Y-67274286D01*
X65311905Y-67083810D01*
X65311905Y-66940952D01*
X65264286Y-66750476D01*
X65216667Y-66655238D01*
X65121429Y-66560000D01*
X64978571Y-66512381D01*
X64883333Y-66512381D01*
X64740476Y-66560000D01*
X64692857Y-66607619D01*
X63788095Y-66512381D02*
X64264286Y-66512381D01*
X64311905Y-66988571D01*
X64264286Y-66940952D01*
X64169048Y-66893333D01*
X63930952Y-66893333D01*
X63835714Y-66940952D01*
X63788095Y-66988571D01*
X63740476Y-67083810D01*
X63740476Y-67321905D01*
X63788095Y-67417143D01*
X63835714Y-67464762D01*
X63930952Y-67512381D01*
X64169048Y-67512381D01*
X64264286Y-67464762D01*
X64311905Y-67417143D01*
X63407143Y-66512381D02*
X62740476Y-66512381D01*
X63169048Y-67512381D01*
M02*
