M48
;DRILL file {KiCad 4.0.7-e2-6376~58~ubuntu14.04.1} date Sat May 19 07:42:50 2018
;FORMAT={-:-/ absolute / inch / decimal}
FMAT,2
INCH,TZ
T1C0.016
T2C0.030
T3C0.031
T4C0.035
T5C0.039
T6C0.039
T7C0.043
T8C0.047
T9C0.051
T10C0.126
%
G90
G05
M72
T1
X2.2953Y-2.6476
X2.3445Y-2.7539
X2.4173Y-3.6673
X2.4193Y-3.7677
X2.4193Y-3.8681
X2.4193Y-4.0197
X2.4232Y-3.5728
X2.4449Y-2.5354
X2.4587Y-2.7953
X2.4606Y-2.6476
X2.4705Y-3.4744
X2.4803Y-4.7638
X2.4803Y-4.9606
X2.4803Y-5.1181
X2.4941Y-2.8819
X2.5157Y-3.7677
X2.5157Y-3.8681
X2.5217Y-2.1693
X2.5315Y-2.6378
X2.5374Y-3.5728
X2.5846Y-3.4646
X2.5965Y-2.3957
X2.6102Y-3.7677
X2.6102Y-3.8681
X2.6102Y-4.0197
X2.626Y-4.1398
X2.6299Y-4.5472
X2.6437Y-3.2933
X2.6496Y-3.6102
X2.6575Y-2.8819
X2.6654Y-2.0512
X2.6654Y-3.376
X2.6752Y-2.7067
X2.6772Y-4.7638
X2.6772Y-4.9606
X2.6772Y-5.1181
X2.6811Y-4.4626
X2.6969Y-4.6654
X2.7047Y-3.502
X2.7205Y-2.2087
X2.7205Y-3.7165
X2.7205Y-3.8012
X2.7244Y-2.811
X2.752Y-3.0591
X2.752Y-3.2441
X2.7559Y-4.0492
X2.7736Y-2.502
X2.7736Y-2.6398
X2.8071Y-2.0551
X2.8169Y-3.3169
X2.8169Y-3.6181
X2.8169Y-3.7165
X2.8169Y-3.8091
X2.8169Y-3.9134
X2.8189Y-3.4803
X2.8209Y-4.3386
X2.8248Y-4.4626
X2.8445Y-2.1909
X2.8681Y-1.8957
X2.874Y-4.7638
X2.874Y-4.9606
X2.874Y-5.1181
X2.8839Y-4.0472
X2.9035Y-4.6654
X2.9134Y-3.7539
X2.9134Y-3.8583
X2.9272Y-2.4567
X2.9311Y-2.6516
X2.9331Y-2.7756
X2.9508Y-4.3012
X2.9705Y-1.9075
X2.9705Y-2.0335
X2.9705Y-3.0492
X2.9744Y-3.4803
X2.9764Y-4.4626
X2.9783Y-2.2146
X2.9843Y-4.0315
X2.9843Y-4.1417
X3.0138Y-2.8406
X3.0197Y-3.8917
X3.0217Y-3.6575
X3.0217Y-3.7776
X3.0335Y-2.7087
X3.0709Y-4.9606
X3.0709Y-5.1181
X3.0787Y-2.5236
X3.0807Y-4.3268
X3.0807Y-4.4626
X3.0827Y-4.7854
X3.0846Y-4.6319
X3.0866Y-2.2165
X3.0866Y-2.3268
X3.0886Y-1.9016
X3.0945Y-4.0118
X3.0945Y-4.1024
X3.0945Y-4.2008
X3.1102Y-3.2146
X3.1102Y-3.7264
X3.126Y-3.4803
X3.1319Y-2.5945
X3.1555Y-2.9272
X3.1614Y-3.0531
X3.1693Y-3.3445
X3.1811Y-4.4843
X3.1831Y-3.7106
X3.1831Y-3.8307
X3.1949Y-3.9724
X3.1949Y-4.1024
X3.1949Y-4.2008
X3.1988Y-3.5728
X3.2146Y-3.2224
X3.2323Y-1.9016
X3.2333Y-3.6575
X3.2343Y-4.378
X3.2431Y-4.2854
X3.2539Y-5.1102
X3.2579Y-4.9449
X3.2638Y-4.6575
X3.2776Y-3.3445
X3.2972Y-2.3406
X3.2972Y-3.437
X3.2992Y-2.0256
X3.2992Y-2.4528
X3.3012Y-3.8307
X3.3012Y-3.9646
X3.313Y-2.5689
X3.3189Y-2.7303
X3.3386Y-3.2224
X3.3465Y-2.9547
X3.3622Y-2.6535
X3.3681Y-4.6348
X3.374Y-2.4016
X3.4035Y-4.9508
X3.4134Y-4.1142
X3.4173Y-4.002
X3.4193Y-4.4488
X3.4409Y-1.9016
X3.4449Y-5.1378
X3.4528Y-2.2047
X3.4547Y-4.5787
X3.4567Y-2.0827
X3.4606Y-3.8228
X3.4685Y-4.6909
X3.4843Y-4.3799
X3.4921Y-2.5768
X3.4961Y-3.6654
X3.5Y-4.126
X3.5Y-4.2303
X3.5157Y-4.002
X3.5335Y-2.878
X3.5335Y-3.0039
X3.5335Y-4.9626
X3.5354Y-3.5512
X3.5413Y-3.25
X3.563Y-2.6772
X3.565Y-3.1024
X3.6024Y-3.4331
X3.6142Y-3.7441
X3.6142Y-4.0551
X3.622Y-2.0906
X3.6339Y-2.5768
X3.6358Y-1.8996
X3.6437Y-4.7323
X3.6496Y-3.2717
X3.6496Y-4.876
X3.6732Y-4.4685
X3.6811Y-3.5512
X3.7008Y-5.1319
X3.7028Y-4.998
X3.7106Y-2.7835
X3.7106Y-2.8996
X3.7106Y-3.0551
X3.7165Y-2.3307
X3.7205Y-4.0551
X3.7343Y-1.7028
X3.7421Y-4.622
X3.7598Y-2.0354
X3.7744Y-4.2744
X3.7756Y-4.3661
X3.7756Y-4.4685
X3.7874Y-2.4626
X3.7992Y-4.1575
X3.813Y-2.6811
X3.815Y-4.0551
X3.8189Y-3.5512
X3.8189Y-3.6654
X3.8425Y-1.752
X3.8504Y-4.7657
X3.8701Y-1.9724
X3.874Y-4.4055
X3.8823Y-3.4157
X3.8858Y-4.6713
X3.8898Y-2.5118
X3.9055Y-3.2323
X3.9114Y-5.
X3.9134Y-4.0551
X3.9331Y-2.7835
X3.9331Y-2.8799
X3.9331Y-2.9803
X3.937Y-1.7087
X3.937Y-1.8268
X3.9409Y-3.4882
X3.9449Y-2.315
X3.9449Y-2.4055
X3.9724Y-4.1575
X3.9724Y-4.2748
X3.9724Y-4.3661
X3.9724Y-4.4685
X4.0059Y-4.622
X4.0079Y-2.5118
X4.0079Y-3.3976
X4.0197Y-4.0551
X4.0315Y-2.0866
X4.0335Y-4.7657
X4.0354Y-2.7008
X4.0354Y-2.7815
X4.0354Y-3.5591
X4.0669Y-3.2913
X4.0713Y-2.8681
X4.0748Y-3.752
X4.0748Y-4.4055
X4.0866Y-1.8622
X4.0886Y-4.9272
X4.1024Y-2.0276
X4.1024Y-2.1535
X4.1102Y-3.4843
X4.1181Y-2.5394
X4.122Y-2.4055
X4.122Y-4.0551
X4.124Y-5.0374
X4.1634Y-4.6201
X4.1634Y-4.7343
X4.1732Y-3.5472
X4.1732Y-3.6654
X4.1732Y-4.1575
X4.1732Y-4.2748
X4.1732Y-4.3661
X4.1732Y-4.4685
X4.185Y-1.7165
X4.185Y-1.8622
X4.185Y-2.0276
X4.1969Y-2.2402
X4.2146Y-4.876
X4.2205Y-4.0551
X4.248Y-3.1535
X4.248Y-3.2559
X4.2598Y-2.9528
X4.2638Y-3.0591
X4.2657Y-5.0374
X4.2677Y-2.0472
X4.2756Y-3.752
X4.2835Y-4.6201
X4.311Y-2.5433
X4.315Y-2.689
X4.315Y-2.8346
X4.315Y-3.6654
X4.315Y-4.0551
X4.3228Y-3.3386
X4.3425Y-1.8701
X4.3425Y-2.0945
X4.3425Y-2.2441
X4.3425Y-2.3819
X4.3583Y-3.4646
X4.3583Y-3.5551
X4.374Y-4.1575
X4.374Y-4.2748
X4.374Y-4.3661
X4.3819Y-1.7461
X4.3819Y-2.9252
X4.3819Y-3.0551
X4.3819Y-3.1535
X4.3819Y-3.2559
X4.3858Y-4.813
X4.4106Y-4.7461
X4.4134Y-4.0551
X4.4134Y-4.937
X4.4291Y-4.5709
X4.4331Y-2.1457
X4.437Y-2.2402
X4.437Y-2.4055
X4.4488Y-3.6654
X4.4764Y-3.752
X4.5Y-2.5433
X4.5Y-4.4528
X4.5236Y-4.0551
X4.5394Y-2.2441
X4.5394Y-2.6929
X4.5512Y-2.3976
X4.5512Y-2.7953
X4.5512Y-4.6811
X4.5512Y-4.9587
X4.5531Y-4.876
X4.5551Y-2.0945
X4.5551Y-2.9567
X4.5551Y-4.563
X4.5591Y-3.2559
X4.5591Y-3.5748
X4.5748Y-3.6654
X4.5827Y-3.4646
X4.6079Y-3.152
X4.6142Y-4.2748
X4.6417Y-3.3622
X4.6496Y-4.6535
X4.6496Y-4.876
X4.6535Y-2.8031
X4.6535Y-2.9409
X4.6614Y-3.0945
X4.6654Y-2.1398
X4.6693Y-2.6575
X4.6772Y-1.8386
X4.6772Y-4.0591
X4.6791Y-5.0315
X4.689Y-2.315
X4.7008Y-3.7165
X4.7047Y-4.6969
X4.7087Y-3.2559
X4.7323Y-2.2205
X4.7323Y-2.3937
X4.7323Y-2.5079
X4.7441Y-3.4646
X4.752Y-4.0827
X4.7559Y-4.1811
X4.7638Y-2.7992
X4.7638Y-3.6535
X4.7654Y-3.0689
X4.7654Y-3.1583
X4.7677Y-1.748
X4.7677Y-1.9291
X4.7677Y-2.9449
X4.7795Y-2.622
X4.7874Y-4.2756
X4.7992Y-2.1181
X4.8386Y-2.2205
X4.8386Y-2.3386
X4.8386Y-2.6929
X4.8465Y-3.2559
X4.8465Y-3.374
X4.8465Y-4.0236
X4.8465Y-4.1496
X4.8465Y-4.8346
X4.8465Y-4.9488
X4.8465Y-5.0591
X4.872Y-4.5846
X4.874Y-4.2795
X4.8823Y-3.5039
X4.8858Y-3.1602
X4.9016Y-1.9803
X4.9016Y-4.7008
X4.9173Y-1.7244
X4.9291Y-4.0433
X4.9291Y-4.1496
X4.939Y-3.9843
X4.9409Y-4.2795
X4.9488Y-2.6969
X4.9528Y-2.8268
X4.9567Y-2.2835
X4.9567Y-2.3976
X4.9732Y-3.4465
X4.9783Y-3.2417
X5.0079Y-2.9094
X5.0114Y-3.8551
X5.0157Y-4.2835
X5.0157Y-4.9173
X5.0268Y-3.1591
X5.0291Y-3.6673
X5.0303Y-4.8295
X5.0315Y-1.9173
X5.0315Y-2.6417
X5.0591Y-2.2835
X5.063Y-3.0512
X5.063Y-5.1417
X5.0709Y-4.0709
X5.0827Y-4.5236
X5.0856Y-2.6821
X5.1024Y-3.4646
X5.1031Y-3.5953
X5.1031Y-3.7079
X5.1142Y-2.9291
X5.1142Y-4.7047
X5.126Y-2.3661
X5.1268Y-3.1587
X5.1268Y-3.2579
X5.1378Y-1.9921
X5.1461Y-3.924
X5.1535Y-4.3346
X5.1654Y-4.9173
X5.1654Y-5.0551
X5.1654Y-5.1378
X5.1732Y-2.0827
X5.1736Y-3.3634
X5.189Y-4.7953
X5.2087Y-4.5236
X5.2323Y-2.937
X5.248Y-2.3661
X5.248Y-4.3701
X5.2717Y-1.9961
X5.2795Y-3.0827
X5.2795Y-4.7047
X5.2913Y-1.7126
X5.2992Y-2.7205
X5.3228Y-2.8661
X5.3268Y-2.2874
X5.3268Y-2.4449
X5.3461Y-3.6177
X5.3504Y-3.8217
X5.3543Y-4.0787
X5.3575Y-3.9035
X5.3583Y-4.9134
X5.3622Y-2.9528
X5.3858Y-4.248
X5.3858Y-4.3465
X5.3858Y-4.5315
X5.3898Y-2.2244
X5.4016Y-5.0118
X5.4016Y-5.1378
X5.4055Y-3.0591
X5.4094Y-1.9134
X5.4213Y-4.7047
X5.4331Y-2.4882
X5.4409Y-2.1654
X5.4646Y-4.9094
X5.4831Y-3.5169
X5.4831Y-3.6177
X5.4831Y-3.7193
X5.4831Y-3.8217
X5.4831Y-3.9193
X5.4831Y-4.0311
X5.4831Y-4.122
X5.4831Y-4.2079
X5.4843Y-2.8071
X5.4843Y-4.3465
X5.4854Y-3.189
X5.4854Y-3.3028
X5.4862Y-3.4177
X5.4921Y-2.0394
X5.4961Y-1.7126
X5.4961Y-2.2756
X5.5157Y-2.4449
X5.5236Y-2.9528
X5.5433Y-1.9134
X5.5472Y-3.0945
X5.5472Y-4.9094
X5.5551Y-4.7047
X5.5776Y-4.0642
X5.578Y-3.4677
X5.5787Y-1.7874
X5.5787Y-4.2362
X5.5807Y-3.2295
X5.5837Y-4.5758
X5.5906Y-2.3465
X5.5906Y-2.6535
X5.6063Y-2.0394
X5.6063Y-5.0118
X5.6063Y-5.1378
X5.6496Y-2.7835
X5.6496Y-2.9488
X5.6575Y-4.9094
X5.6772Y-3.6445
X5.689Y-2.4764
X5.689Y-4.7126
X5.6953Y-3.2295
X5.6961Y-3.2996
X5.6961Y-3.4394
X5.6961Y-4.063
X5.6969Y-3.8701
X5.6969Y-4.2362
X5.6969Y-4.3839
X5.7087Y-1.9528
X5.7087Y-4.5433
X5.7244Y-1.7047
X5.7362Y-2.1181
X5.7362Y-2.2402
X5.7795Y-2.9449
X5.7795Y-3.0669
X5.7953Y-3.6417
X5.7992Y-3.7795
X5.7992Y-3.8701
X5.8024Y-3.3622
X5.8024Y-3.4488
X5.8031Y-3.2276
X5.8031Y-4.9055
X5.8039Y-3.5476
X5.8071Y-4.1969
X5.8098Y-4.1043
X5.8307Y-4.8071
X5.8386Y-4.4606
X5.8571Y-3.3075
X5.8701Y-2.4882
X5.8799Y-2.8031
X5.8858Y-2.688
X5.8976Y-2.9449
X5.9016Y-1.9843
X5.9016Y-2.0827
X5.9016Y-2.1811
X5.9055Y-2.6142
X5.9409Y-3.8976
X5.9449Y-4.1969
X5.9606Y-3.3075
X5.9685Y-4.5118
X5.9724Y-4.3661
X5.9843Y-4.8071
X6.Y-2.252
X6.0079Y-1.9843
X6.0079Y-2.0827
X6.0079Y-2.1654
X6.0079Y-2.9449
X6.0079Y-3.1024
X6.0079Y-3.2047
X6.0079Y-3.4134
X6.0079Y-3.5315
X6.0118Y-2.3583
X6.0157Y-2.4724
X6.0157Y-2.6299
X6.0157Y-2.7953
T2
X2.7165Y-4.1339
X2.7665Y-4.2339
X2.8165Y-4.1339
X2.8665Y-4.2339
X2.9079Y-3.2154
X2.9079Y-3.3154
X2.9079Y-3.4154
X2.9165Y-4.1339
X2.9665Y-4.2339
X3.0079Y-3.1654
X3.0079Y-3.2654
X3.0079Y-3.3654
X4.8622Y-2.0472
X4.9122Y-2.1472
X4.9622Y-2.0472
X5.0122Y-2.1472
X5.0622Y-2.0472
X5.1122Y-2.1472
X5.6181Y-2.5472
X5.6681Y-2.6472
X5.687Y-2.3016
X5.7181Y-2.5472
X5.737Y-2.4016
X5.7681Y-2.6472
X5.787Y-2.3016
X5.837Y-2.4016
X5.887Y-2.3016
X5.937Y-2.4016
T3
X2.4724Y-2.4646
X2.4764Y-2.0945
X2.5157Y-3.6654
X2.5157Y-3.9654
X2.5709Y-2.4646
X2.5748Y-2.0945
X2.7205Y-3.574
X2.7205Y-3.874
X2.8366Y-2.876
X2.8366Y-2.9744
X2.9134Y-3.6646
X2.9134Y-3.9646
X3.1102Y-3.5787
X3.1102Y-3.8787
X3.6142Y-2.2126
X3.6142Y-2.311
X3.6732Y-3.9646
X3.6732Y-4.1567
X3.7244Y-3.6654
X3.874Y-3.9646
X3.874Y-4.1567
X3.9165Y-3.6654
X4.0748Y-3.9646
X4.0748Y-4.1567
X4.2421Y-2.315
X4.2756Y-3.9646
X4.2756Y-4.1567
X4.4055Y-4.4528
X4.4343Y-2.315
X4.4764Y-3.9646
X4.4764Y-4.1567
X4.5976Y-4.4528
X4.6772Y-3.9646
X4.6772Y-4.1567
X5.0709Y-3.9732
X5.0709Y-4.1654
X5.3142Y-2.1654
X5.315Y-1.9134
X5.3858Y-3.1614
X5.3858Y-3.3622
X5.3858Y-3.563
X5.3858Y-3.7638
X5.3858Y-3.9646
X5.3858Y-4.1654
X5.4126Y-1.7835
X5.4134Y-2.0394
X5.578Y-3.1614
X5.578Y-3.3622
X5.578Y-3.563
X5.578Y-3.7638
X5.578Y-3.9646
X5.578Y-4.1654
X5.6142Y-2.1654
X5.615Y-1.9134
X5.7126Y-1.7835
X5.7134Y-2.0394
X5.8976Y-3.2213
X5.8976Y-3.4134
T4
X3.5512Y-3.3701
X3.6496Y-3.1732
X3.748Y-3.3701
X4.6614Y-1.7402
X4.6614Y-1.937
X4.8583Y-1.8386
X5.2087Y-2.2677
X5.2087Y-2.4646
X5.4055Y-2.3661
T5
X2.2303Y-2.1618
X2.2303Y-2.2618
X2.2303Y-2.4768
X2.2303Y-2.5768
X2.5417Y-1.7992
X2.6417Y-1.7992
X2.8547Y-1.7992
X2.9547Y-1.7992
X4.1724Y-2.9055
X4.1724Y-3.0055
X4.1724Y-3.1055
X4.1724Y-3.2055
X4.1724Y-3.3055
X4.4724Y-2.9055
X4.4724Y-3.0055
X4.4724Y-3.1055
X4.4724Y-3.2055
X4.4724Y-3.3055
X5.0197Y-1.7992
X5.1197Y-1.7992
X5.9449Y-3.6984
X5.9449Y-3.7984
X5.9449Y-4.0028
X5.9449Y-4.1028
T6
X3.8094Y-2.179
X4.0294Y-2.179
T7
X2.5298Y-2.9811
X2.5298Y-3.0811
X2.5298Y-3.1811
X2.5298Y-3.2811
X2.5298Y-3.3811
X2.5298Y-4.1228
X2.5298Y-4.2228
X2.5298Y-4.3228
X2.5298Y-4.4228
X2.5298Y-4.5228
T9
X3.1988Y-1.8031
X3.1988Y-2.
X3.3957Y-1.8031
X3.3957Y-2.
X3.5925Y-1.8031
X3.5925Y-2.
T10
X2.2835Y-1.811
X2.2835Y-5.0394
X5.9055Y-1.811
X5.9055Y-5.0394
T4
X3.1713Y-4.8287G85X3.1713Y-4.8563
G05
X3.2697Y-4.8287G85X3.2697Y-4.8563
G05
X3.3543Y-5.0394G85X3.3819Y-5.0394
G05
X3.4665Y-4.8287G85X3.4665Y-4.8563
G05
X3.565Y-4.8287G85X3.565Y-4.8563
G05
X5.311Y-4.8287G85X5.311Y-4.8563
G05
X5.4094Y-4.8287G85X5.4094Y-4.8563
G05
X5.4941Y-5.0394G85X5.5217Y-5.0394
G05
X5.6063Y-4.8287G85X5.6063Y-4.8563
G05
X5.7047Y-4.8287G85X5.7047Y-4.8563
G05
T8
X3.1713Y-5.0394G85X3.1713Y-5.0394
G05
X3.1713Y-5.1378G85X3.1713Y-5.1378
G05
X3.3681Y-4.8425G85X3.3681Y-4.8425
G05
X3.565Y-5.0394G85X3.565Y-5.0394
G05
X3.565Y-5.1378G85X3.565Y-5.1378
G05
X5.311Y-5.0394G85X5.311Y-5.0394
G05
X5.311Y-5.1378G85X5.311Y-5.1378
G05
X5.5079Y-4.8425G85X5.5079Y-4.8425
G05
X5.7047Y-5.0394G85X5.7047Y-5.0394
G05
X5.7047Y-5.1378G85X5.7047Y-5.1378
G05
T0
M30
