G04 #@! TF.FileFunction,Legend,Bot*
%FSLAX46Y46*%
G04 Gerber Fmt 4.6, Leading zero omitted, Abs format (unit mm)*
G04 Created by KiCad (PCBNEW 4.0.3+e1-6302~38~ubuntu14.04.1-stable) date Sat Aug 26 04:58:37 2017*
%MOMM*%
%LPD*%
G01*
G04 APERTURE LIST*
%ADD10C,0.100000*%
%ADD11C,0.120000*%
%ADD12C,0.150000*%
%ADD13C,0.203200*%
%ADD14C,0.152400*%
G04 APERTURE END LIST*
D10*
D11*
X45200000Y-41020000D02*
X49700000Y-41020000D01*
X43950000Y-45020000D02*
X43950000Y-43520000D01*
X49700000Y-47520000D02*
X45200000Y-47520000D01*
X50950000Y-43520000D02*
X50950000Y-45020000D01*
D12*
X127450500Y-71099120D02*
X127450500Y-80100880D01*
X130950620Y-71099120D02*
X130950620Y-80100880D01*
X130950620Y-80100880D02*
X116449760Y-80100880D01*
X116449760Y-80100880D02*
X116449760Y-71099120D01*
X116449760Y-71099120D02*
X130950620Y-71099120D01*
X130250000Y-70250000D02*
X119250000Y-70250000D01*
X130250000Y-58250000D02*
X119250000Y-58250000D01*
X130250000Y-70250000D02*
X130250000Y-58250000D01*
X130250000Y-58000000D02*
X119250000Y-58000000D01*
X130250000Y-46000000D02*
X119250000Y-46000000D01*
X130250000Y-58000000D02*
X130250000Y-46000000D01*
X56220000Y-75560000D02*
X56220000Y-70480000D01*
X56220000Y-70480000D02*
X53680000Y-70480000D01*
X53680000Y-70480000D02*
X53680000Y-75560000D01*
X53680000Y-75560000D02*
X56220000Y-75560000D01*
X54950000Y-75560000D02*
X54950000Y-76830000D01*
X54950000Y-70480000D02*
X54950000Y-69210000D01*
X37730000Y-61800000D02*
X37720000Y-71300000D01*
X37720000Y-71300000D02*
X42760000Y-71300000D01*
X42760000Y-71300000D02*
X42760000Y-60790000D01*
X42760000Y-60790000D02*
X37920000Y-60790000D01*
D11*
X35325000Y-107585000D02*
X35325000Y-101335000D01*
X30275000Y-107585000D02*
X30275000Y-101335000D01*
X80675000Y-101315000D02*
X80675000Y-107565000D01*
X85725000Y-101315000D02*
X85725000Y-107565000D01*
X102225000Y-101315000D02*
X102225000Y-107565000D01*
X107275000Y-101315000D02*
X107275000Y-107565000D01*
X129675000Y-107585000D02*
X129675000Y-101335000D01*
X124625000Y-107585000D02*
X124625000Y-101335000D01*
X40925000Y-107585000D02*
X40925000Y-101335000D01*
X35875000Y-107585000D02*
X35875000Y-101335000D01*
X41475000Y-101315000D02*
X41475000Y-107565000D01*
X46525000Y-101315000D02*
X46525000Y-107565000D01*
X52125000Y-107585000D02*
X52125000Y-101335000D01*
X47075000Y-107585000D02*
X47075000Y-101335000D01*
X52675000Y-101315000D02*
X52675000Y-107565000D01*
X57725000Y-101315000D02*
X57725000Y-107565000D01*
X63325000Y-107585000D02*
X63325000Y-101335000D01*
X58275000Y-107585000D02*
X58275000Y-101335000D01*
X63875000Y-101315000D02*
X63875000Y-107565000D01*
X68925000Y-101315000D02*
X68925000Y-107565000D01*
X74525000Y-107585000D02*
X74525000Y-101335000D01*
X69475000Y-107585000D02*
X69475000Y-101335000D01*
X75075000Y-101315000D02*
X75075000Y-107565000D01*
X80125000Y-101315000D02*
X80125000Y-107565000D01*
X96625000Y-101315000D02*
X96625000Y-107565000D01*
X101675000Y-101315000D02*
X101675000Y-107565000D01*
X112875000Y-107585000D02*
X112875000Y-101335000D01*
X107825000Y-107585000D02*
X107825000Y-101335000D01*
X113425000Y-101315000D02*
X113425000Y-107565000D01*
X118475000Y-101315000D02*
X118475000Y-107565000D01*
X124075000Y-107585000D02*
X124075000Y-101335000D01*
X119025000Y-107585000D02*
X119025000Y-101335000D01*
X51280000Y-85830000D02*
X54880000Y-85830000D01*
X50755816Y-86557205D02*
G75*
G02X51280000Y-85830000I2324184J-1122795D01*
G01*
X50723600Y-88778807D02*
G75*
G03X53080000Y-90280000I2356400J1098807D01*
G01*
X55436400Y-88778807D02*
G75*
G02X53080000Y-90280000I-2356400J1098807D01*
G01*
X55404184Y-86557205D02*
G75*
G03X54880000Y-85830000I-2324184J-1122795D01*
G01*
X123240000Y-41390000D02*
X122220000Y-41390000D01*
X122220000Y-41390000D02*
X122220000Y-42790000D01*
X126540000Y-41390000D02*
X127560000Y-41390000D01*
X127560000Y-41390000D02*
X127560000Y-42790000D01*
X124890000Y-42150000D02*
X124890000Y-42790000D01*
X124890000Y-42150000D02*
X124380000Y-42660000D01*
X124890000Y-42150000D02*
X125400000Y-42660000D01*
X126540000Y-42150000D02*
X126540000Y-40750000D01*
X126540000Y-40750000D02*
X123240000Y-40750000D01*
X123240000Y-40750000D02*
X123240000Y-42150000D01*
X123240000Y-42150000D02*
X126540000Y-42150000D01*
X61510000Y-81810000D02*
X61510000Y-80440000D01*
X61510000Y-80440000D02*
X71910000Y-80440000D01*
X71910000Y-80440000D02*
X71910000Y-85180000D01*
X71910000Y-85180000D02*
X61510000Y-85180000D01*
X61510000Y-85180000D02*
X61510000Y-83810000D01*
X61510000Y-77610000D02*
X71910000Y-77610000D01*
X71910000Y-77610000D02*
X71910000Y-88010000D01*
X71910000Y-88010000D02*
X61510000Y-88010000D01*
X61510000Y-88010000D02*
X61510000Y-77610000D01*
X61510000Y-83810000D02*
G75*
G03X61510000Y-81810000I0J1000000D01*
G01*
X97340000Y-76990000D02*
X100940000Y-76990000D01*
X96815816Y-77717205D02*
G75*
G02X97340000Y-76990000I2324184J-1122795D01*
G01*
X96783600Y-79938807D02*
G75*
G03X99140000Y-81440000I2356400J1098807D01*
G01*
X101496400Y-79938807D02*
G75*
G02X99140000Y-81440000I-2356400J1098807D01*
G01*
X101464184Y-77717205D02*
G75*
G03X100940000Y-76990000I-2324184J-1122795D01*
G01*
D12*
X65899000Y-73025000D02*
X60901000Y-73025000D01*
X65891000Y-72885000D02*
X63554000Y-72885000D01*
X63246000Y-72885000D02*
X60909000Y-72885000D01*
X65875000Y-72745000D02*
X63873000Y-72745000D01*
X62927000Y-72745000D02*
X60925000Y-72745000D01*
X65851000Y-72605000D02*
X64020000Y-72605000D01*
X62780000Y-72605000D02*
X60949000Y-72605000D01*
X65818000Y-72465000D02*
X64112000Y-72465000D01*
X62688000Y-72465000D02*
X60982000Y-72465000D01*
X65777000Y-72325000D02*
X64168000Y-72325000D01*
X62632000Y-72325000D02*
X61023000Y-72325000D01*
X65727000Y-72185000D02*
X64195000Y-72185000D01*
X62605000Y-72185000D02*
X61073000Y-72185000D01*
X65666000Y-72045000D02*
X64198000Y-72045000D01*
X62602000Y-72045000D02*
X61134000Y-72045000D01*
X65596000Y-71905000D02*
X64176000Y-71905000D01*
X62624000Y-71905000D02*
X61204000Y-71905000D01*
X65514000Y-71765000D02*
X64126000Y-71765000D01*
X62674000Y-71765000D02*
X61286000Y-71765000D01*
X65419000Y-71625000D02*
X64044000Y-71625000D01*
X62756000Y-71625000D02*
X61381000Y-71625000D01*
X65308000Y-71485000D02*
X63912000Y-71485000D01*
X62888000Y-71485000D02*
X61492000Y-71485000D01*
X65180000Y-71345000D02*
X63665000Y-71345000D01*
X63135000Y-71345000D02*
X61620000Y-71345000D01*
X65031000Y-71205000D02*
X61769000Y-71205000D01*
X64852000Y-71065000D02*
X61948000Y-71065000D01*
X64633000Y-70925000D02*
X62167000Y-70925000D01*
X64344000Y-70785000D02*
X62456000Y-70785000D01*
X63872000Y-70645000D02*
X62928000Y-70645000D01*
X64200000Y-72100000D02*
G75*
G03X64200000Y-72100000I-800000J0D01*
G01*
X65937500Y-73100000D02*
G75*
G03X65937500Y-73100000I-2537500J0D01*
G01*
X50301000Y-82875000D02*
X55299000Y-82875000D01*
X50309000Y-83015000D02*
X52646000Y-83015000D01*
X52954000Y-83015000D02*
X55291000Y-83015000D01*
X50325000Y-83155000D02*
X52327000Y-83155000D01*
X53273000Y-83155000D02*
X55275000Y-83155000D01*
X50349000Y-83295000D02*
X52180000Y-83295000D01*
X53420000Y-83295000D02*
X55251000Y-83295000D01*
X50382000Y-83435000D02*
X52088000Y-83435000D01*
X53512000Y-83435000D02*
X55218000Y-83435000D01*
X50423000Y-83575000D02*
X52032000Y-83575000D01*
X53568000Y-83575000D02*
X55177000Y-83575000D01*
X50473000Y-83715000D02*
X52005000Y-83715000D01*
X53595000Y-83715000D02*
X55127000Y-83715000D01*
X50534000Y-83855000D02*
X52002000Y-83855000D01*
X53598000Y-83855000D02*
X55066000Y-83855000D01*
X50604000Y-83995000D02*
X52024000Y-83995000D01*
X53576000Y-83995000D02*
X54996000Y-83995000D01*
X50686000Y-84135000D02*
X52074000Y-84135000D01*
X53526000Y-84135000D02*
X54914000Y-84135000D01*
X50781000Y-84275000D02*
X52156000Y-84275000D01*
X53444000Y-84275000D02*
X54819000Y-84275000D01*
X50892000Y-84415000D02*
X52288000Y-84415000D01*
X53312000Y-84415000D02*
X54708000Y-84415000D01*
X51020000Y-84555000D02*
X52535000Y-84555000D01*
X53065000Y-84555000D02*
X54580000Y-84555000D01*
X51169000Y-84695000D02*
X54431000Y-84695000D01*
X51348000Y-84835000D02*
X54252000Y-84835000D01*
X51567000Y-84975000D02*
X54033000Y-84975000D01*
X51856000Y-85115000D02*
X53744000Y-85115000D01*
X52328000Y-85255000D02*
X53272000Y-85255000D01*
X53600000Y-83800000D02*
G75*
G03X53600000Y-83800000I-800000J0D01*
G01*
X55337500Y-82800000D02*
G75*
G03X55337500Y-82800000I-2537500J0D01*
G01*
X99155000Y-87129000D02*
X99155000Y-82131000D01*
X99295000Y-87121000D02*
X99295000Y-84784000D01*
X99295000Y-84476000D02*
X99295000Y-82139000D01*
X99435000Y-87105000D02*
X99435000Y-85103000D01*
X99435000Y-84157000D02*
X99435000Y-82155000D01*
X99575000Y-87081000D02*
X99575000Y-85250000D01*
X99575000Y-84010000D02*
X99575000Y-82179000D01*
X99715000Y-87048000D02*
X99715000Y-85342000D01*
X99715000Y-83918000D02*
X99715000Y-82212000D01*
X99855000Y-87007000D02*
X99855000Y-85398000D01*
X99855000Y-83862000D02*
X99855000Y-82253000D01*
X99995000Y-86957000D02*
X99995000Y-85425000D01*
X99995000Y-83835000D02*
X99995000Y-82303000D01*
X100135000Y-86896000D02*
X100135000Y-85428000D01*
X100135000Y-83832000D02*
X100135000Y-82364000D01*
X100275000Y-86826000D02*
X100275000Y-85406000D01*
X100275000Y-83854000D02*
X100275000Y-82434000D01*
X100415000Y-86744000D02*
X100415000Y-85356000D01*
X100415000Y-83904000D02*
X100415000Y-82516000D01*
X100555000Y-86649000D02*
X100555000Y-85274000D01*
X100555000Y-83986000D02*
X100555000Y-82611000D01*
X100695000Y-86538000D02*
X100695000Y-85142000D01*
X100695000Y-84118000D02*
X100695000Y-82722000D01*
X100835000Y-86410000D02*
X100835000Y-84895000D01*
X100835000Y-84365000D02*
X100835000Y-82850000D01*
X100975000Y-86261000D02*
X100975000Y-82999000D01*
X101115000Y-86082000D02*
X101115000Y-83178000D01*
X101255000Y-85863000D02*
X101255000Y-83397000D01*
X101395000Y-85574000D02*
X101395000Y-83686000D01*
X101535000Y-85102000D02*
X101535000Y-84158000D01*
X100880000Y-84630000D02*
G75*
G03X100880000Y-84630000I-800000J0D01*
G01*
X101617500Y-84630000D02*
G75*
G03X101617500Y-84630000I-2537500J0D01*
G01*
X72370000Y-61760000D02*
X72370000Y-56680000D01*
X72370000Y-56680000D02*
X69830000Y-56680000D01*
X69830000Y-56680000D02*
X69830000Y-61760000D01*
X69830000Y-61760000D02*
X72370000Y-61760000D01*
X71100000Y-61760000D02*
X71100000Y-63030000D01*
X71100000Y-56680000D02*
X71100000Y-55410000D01*
D11*
X110210000Y-84460000D02*
X108940000Y-81920000D01*
X106400000Y-83190000D02*
X105130000Y-83190000D01*
X105130000Y-83190000D02*
X105130000Y-84460000D01*
X112750000Y-84460000D02*
X112750000Y-83190000D01*
X112750000Y-83190000D02*
X111480000Y-83190000D01*
X111480000Y-83190000D02*
X111480000Y-81920000D01*
X111480000Y-81920000D02*
X106400000Y-81920000D01*
X106400000Y-81920000D02*
X106400000Y-84460000D01*
X106400000Y-84460000D02*
X111480000Y-84460000D01*
X111480000Y-84460000D02*
X111480000Y-83190000D01*
X113840000Y-88210000D02*
X113840000Y-68010000D01*
X113840000Y-68010000D02*
X104040000Y-68010000D01*
X103980000Y-68010000D02*
X103980000Y-88210000D01*
X104040000Y-88210000D02*
X113840000Y-88210000D01*
X88065000Y-73275000D02*
X94315000Y-73275000D01*
X88065000Y-68225000D02*
X94315000Y-68225000D01*
D12*
X84250000Y-68646000D02*
X79043000Y-68646000D01*
X71169000Y-68646000D02*
X76122000Y-68646000D01*
X84250000Y-75250000D02*
X79170000Y-75250000D01*
X71169000Y-75250000D02*
X76249000Y-75250000D01*
X71169000Y-75250000D02*
X71169000Y-68646000D01*
X84250000Y-68646000D02*
X84250000Y-75250000D01*
X77575000Y-82399000D02*
X77575000Y-77401000D01*
X77715000Y-82391000D02*
X77715000Y-80054000D01*
X77715000Y-79746000D02*
X77715000Y-77409000D01*
X77855000Y-82375000D02*
X77855000Y-80373000D01*
X77855000Y-79427000D02*
X77855000Y-77425000D01*
X77995000Y-82351000D02*
X77995000Y-80520000D01*
X77995000Y-79280000D02*
X77995000Y-77449000D01*
X78135000Y-82318000D02*
X78135000Y-80612000D01*
X78135000Y-79188000D02*
X78135000Y-77482000D01*
X78275000Y-82277000D02*
X78275000Y-80668000D01*
X78275000Y-79132000D02*
X78275000Y-77523000D01*
X78415000Y-82227000D02*
X78415000Y-80695000D01*
X78415000Y-79105000D02*
X78415000Y-77573000D01*
X78555000Y-82166000D02*
X78555000Y-80698000D01*
X78555000Y-79102000D02*
X78555000Y-77634000D01*
X78695000Y-82096000D02*
X78695000Y-80676000D01*
X78695000Y-79124000D02*
X78695000Y-77704000D01*
X78835000Y-82014000D02*
X78835000Y-80626000D01*
X78835000Y-79174000D02*
X78835000Y-77786000D01*
X78975000Y-81919000D02*
X78975000Y-80544000D01*
X78975000Y-79256000D02*
X78975000Y-77881000D01*
X79115000Y-81808000D02*
X79115000Y-80412000D01*
X79115000Y-79388000D02*
X79115000Y-77992000D01*
X79255000Y-81680000D02*
X79255000Y-80165000D01*
X79255000Y-79635000D02*
X79255000Y-78120000D01*
X79395000Y-81531000D02*
X79395000Y-78269000D01*
X79535000Y-81352000D02*
X79535000Y-78448000D01*
X79675000Y-81133000D02*
X79675000Y-78667000D01*
X79815000Y-80844000D02*
X79815000Y-78956000D01*
X79955000Y-80372000D02*
X79955000Y-79428000D01*
X79300000Y-79900000D02*
G75*
G03X79300000Y-79900000I-800000J0D01*
G01*
X80037500Y-79900000D02*
G75*
G03X80037500Y-79900000I-2537500J0D01*
G01*
D11*
X71720000Y-30510000D02*
X66520000Y-30510000D01*
X71720000Y-25370000D02*
X71720000Y-30510000D01*
X66520000Y-22770000D02*
X66520000Y-30510000D01*
X71720000Y-25370000D02*
X69120000Y-25370000D01*
X69120000Y-25370000D02*
X69120000Y-22770000D01*
X69120000Y-22770000D02*
X66520000Y-22770000D01*
X71720000Y-24100000D02*
X71720000Y-22770000D01*
X71720000Y-22770000D02*
X70390000Y-22770000D01*
X98228924Y-37960187D02*
X93809506Y-42379605D01*
X101799813Y-41531076D02*
X97380395Y-45950494D01*
D13*
X61640000Y-41780000D02*
X61640000Y-35780000D01*
X66640000Y-38780000D02*
G75*
G03X66640000Y-38780000I-3500000J0D01*
G01*
X69640000Y-44780000D02*
X69640000Y-32780000D01*
X69640000Y-32780000D02*
X56640000Y-32780000D01*
X56640000Y-32780000D02*
X56640000Y-44780000D01*
X56640000Y-44780000D02*
X69640000Y-44780000D01*
D11*
X129250000Y-30150000D02*
X129250000Y-37850000D01*
X130250000Y-30150000D02*
X130250000Y-37850000D01*
X130250000Y-37850000D02*
X121050000Y-37850000D01*
X121050000Y-37850000D02*
X121050000Y-30150000D01*
X121050000Y-30150000D02*
X130250000Y-30150000D01*
D12*
X83345000Y-28410000D02*
X83345000Y-29210000D01*
X84695000Y-29210000D02*
X84695000Y-28410000D01*
D11*
X62600000Y-50000000D02*
X67100000Y-50000000D01*
X61350000Y-54000000D02*
X61350000Y-52500000D01*
X67100000Y-56500000D02*
X62600000Y-56500000D01*
X68350000Y-52500000D02*
X68350000Y-54000000D01*
X53000000Y-50000000D02*
X57500000Y-50000000D01*
X51750000Y-54000000D02*
X51750000Y-52500000D01*
X57500000Y-56500000D02*
X53000000Y-56500000D01*
X58750000Y-52500000D02*
X58750000Y-54000000D01*
X67060000Y-94825818D02*
G75*
G02X67060000Y-89114181I1180000J2855818D01*
G01*
X69420000Y-94825818D02*
G75*
G03X69420000Y-89114181I-1180000J2855818D01*
G01*
X69420000Y-94825818D02*
G75*
G02X67060000Y-94825819I-1180000J2855818D01*
G01*
X68240000Y-88520000D02*
X68240000Y-89720000D01*
X67590000Y-89120000D02*
X68890000Y-89120000D01*
X79045818Y-91540000D02*
G75*
G02X73334181Y-91540000I-2855818J1180000D01*
G01*
X79045818Y-89180000D02*
G75*
G03X73334181Y-89180000I-2855818J-1180000D01*
G01*
X79045818Y-89180000D02*
G75*
G02X79045819Y-91540000I-2855818J-1180000D01*
G01*
X72740000Y-90360000D02*
X73940000Y-90360000D01*
X73340000Y-91010000D02*
X73340000Y-89710000D01*
X50064182Y-92660000D02*
G75*
G02X55775819Y-92660000I2855818J-1180000D01*
G01*
X50064182Y-95020000D02*
G75*
G03X55775819Y-95020000I2855818J1180000D01*
G01*
X50064182Y-95020000D02*
G75*
G02X50064181Y-92660000I2855818J1180000D01*
G01*
X56370000Y-93840000D02*
X55170000Y-93840000D01*
X55770000Y-93190000D02*
X55770000Y-94490000D01*
X45520000Y-33710000D02*
X44500000Y-33710000D01*
X44500000Y-33710000D02*
X44500000Y-35110000D01*
X48820000Y-33710000D02*
X49840000Y-33710000D01*
X49840000Y-33710000D02*
X49840000Y-35110000D01*
X47170000Y-34470000D02*
X47170000Y-35110000D01*
X47170000Y-34470000D02*
X46660000Y-34980000D01*
X47170000Y-34470000D02*
X47680000Y-34980000D01*
X48820000Y-34470000D02*
X48820000Y-33070000D01*
X48820000Y-33070000D02*
X45520000Y-33070000D01*
X45520000Y-33070000D02*
X45520000Y-34470000D01*
X45520000Y-34470000D02*
X48820000Y-34470000D01*
X51350000Y-28010000D02*
X51350000Y-22810000D01*
X61570000Y-28010000D02*
X51350000Y-28010000D01*
X64170000Y-22810000D02*
X51350000Y-22810000D01*
X61570000Y-28010000D02*
X61570000Y-25410000D01*
X61570000Y-25410000D02*
X64170000Y-25410000D01*
X64170000Y-25410000D02*
X64170000Y-22810000D01*
X62840000Y-28010000D02*
X64170000Y-28010000D01*
X64170000Y-28010000D02*
X64170000Y-26680000D01*
X88010000Y-77730000D02*
X88010000Y-84850000D01*
X90630000Y-77730000D02*
X90630000Y-84850000D01*
X88010000Y-77730000D02*
X90630000Y-77730000D01*
X88010000Y-84850000D02*
X90630000Y-84850000D01*
X64060000Y-96000000D02*
G75*
G03X64060000Y-96000000I-860000J0D01*
G01*
X62340000Y-96000000D02*
X61660000Y-96000000D01*
X61760000Y-90720000D02*
G75*
G03X61760000Y-90720000I-860000J0D01*
G01*
X61760000Y-90720000D02*
X62440000Y-90720000D01*
X117610000Y-67670000D02*
X72330000Y-67670000D01*
X72330000Y-22390000D02*
X72330000Y-67670000D01*
X72330000Y-22390000D02*
X117610000Y-22390000D01*
X117610000Y-22390000D02*
X117610000Y-67670000D01*
X103100000Y-22390000D02*
X102310000Y-22390000D01*
X105360000Y-22030000D02*
X102360000Y-22030000D01*
X47160000Y-32110000D02*
X47160000Y-28790000D01*
X47160000Y-28790000D02*
X56280000Y-28790000D01*
X56280000Y-28790000D02*
X56280000Y-32110000D01*
X56280000Y-32110000D02*
X47160000Y-32110000D01*
X46350000Y-30450000D02*
X47160000Y-30450000D01*
X57090000Y-30450000D02*
X56280000Y-30450000D01*
D12*
X48793333Y-48834762D02*
X48650476Y-48882381D01*
X48412380Y-48882381D01*
X48317142Y-48834762D01*
X48269523Y-48787143D01*
X48221904Y-48691905D01*
X48221904Y-48596667D01*
X48269523Y-48501429D01*
X48317142Y-48453810D01*
X48412380Y-48406190D01*
X48602857Y-48358571D01*
X48698095Y-48310952D01*
X48745714Y-48263333D01*
X48793333Y-48168095D01*
X48793333Y-48072857D01*
X48745714Y-47977619D01*
X48698095Y-47930000D01*
X48602857Y-47882381D01*
X48364761Y-47882381D01*
X48221904Y-47930000D01*
X47888571Y-47882381D02*
X47650476Y-48882381D01*
X47459999Y-48168095D01*
X47269523Y-48882381D01*
X47031428Y-47882381D01*
X46745714Y-47882381D02*
X46126666Y-47882381D01*
X46460000Y-48263333D01*
X46317142Y-48263333D01*
X46221904Y-48310952D01*
X46174285Y-48358571D01*
X46126666Y-48453810D01*
X46126666Y-48691905D01*
X46174285Y-48787143D01*
X46221904Y-48834762D01*
X46317142Y-48882381D01*
X46602857Y-48882381D01*
X46698095Y-48834762D01*
X46745714Y-48787143D01*
X114917143Y-74375715D02*
X114964762Y-74328096D01*
X115012381Y-74185239D01*
X115012381Y-74090001D01*
X114964762Y-73947143D01*
X114869524Y-73851905D01*
X114774286Y-73804286D01*
X114583810Y-73756667D01*
X114440952Y-73756667D01*
X114250476Y-73804286D01*
X114155238Y-73851905D01*
X114060000Y-73947143D01*
X114012381Y-74090001D01*
X114012381Y-74185239D01*
X114060000Y-74328096D01*
X114107619Y-74375715D01*
X114012381Y-74994762D02*
X114012381Y-75185239D01*
X114060000Y-75280477D01*
X114155238Y-75375715D01*
X114345714Y-75423334D01*
X114679048Y-75423334D01*
X114869524Y-75375715D01*
X114964762Y-75280477D01*
X115012381Y-75185239D01*
X115012381Y-74994762D01*
X114964762Y-74899524D01*
X114869524Y-74804286D01*
X114679048Y-74756667D01*
X114345714Y-74756667D01*
X114155238Y-74804286D01*
X114060000Y-74899524D01*
X114012381Y-74994762D01*
X115012381Y-75851905D02*
X114012381Y-75851905D01*
X115012381Y-76423334D01*
X114012381Y-76423334D01*
X115012381Y-77423334D02*
X115012381Y-76851905D01*
X115012381Y-77137619D02*
X114012381Y-77137619D01*
X114155238Y-77042381D01*
X114250476Y-76947143D01*
X114298095Y-76851905D01*
X117572381Y-68916667D02*
X118286667Y-68916667D01*
X118429524Y-68869047D01*
X118524762Y-68773809D01*
X118572381Y-68630952D01*
X118572381Y-68535714D01*
X118572381Y-69916667D02*
X118572381Y-69345238D01*
X118572381Y-69630952D02*
X117572381Y-69630952D01*
X117715238Y-69535714D01*
X117810476Y-69440476D01*
X117858095Y-69345238D01*
X117812381Y-56416667D02*
X118526667Y-56416667D01*
X118669524Y-56369047D01*
X118764762Y-56273809D01*
X118812381Y-56130952D01*
X118812381Y-56035714D01*
X117907619Y-56845238D02*
X117860000Y-56892857D01*
X117812381Y-56988095D01*
X117812381Y-57226191D01*
X117860000Y-57321429D01*
X117907619Y-57369048D01*
X118002857Y-57416667D01*
X118098095Y-57416667D01*
X118240952Y-57369048D01*
X118812381Y-56797619D01*
X118812381Y-57416667D01*
X53427381Y-72333334D02*
X53427381Y-71857143D01*
X52427381Y-71857143D01*
X52427381Y-73142858D02*
X52427381Y-72666667D01*
X52903571Y-72619048D01*
X52855952Y-72666667D01*
X52808333Y-72761905D01*
X52808333Y-73000001D01*
X52855952Y-73095239D01*
X52903571Y-73142858D01*
X52998810Y-73190477D01*
X53236905Y-73190477D01*
X53332143Y-73142858D01*
X53379762Y-73095239D01*
X53427381Y-73000001D01*
X53427381Y-72761905D01*
X53379762Y-72666667D01*
X53332143Y-72619048D01*
X43072381Y-63778095D02*
X43072381Y-64349524D01*
X44072381Y-64063809D02*
X43072381Y-64063809D01*
X44072381Y-65206667D02*
X44072381Y-64635238D01*
X44072381Y-64920952D02*
X43072381Y-64920952D01*
X43215238Y-64825714D01*
X43310476Y-64730476D01*
X43358095Y-64635238D01*
X35126190Y-109923809D02*
X35602381Y-109923809D01*
X34602381Y-109590476D02*
X35126190Y-109923809D01*
X34602381Y-110257143D01*
X35602381Y-111114286D02*
X35602381Y-110542857D01*
X35602381Y-110828571D02*
X34602381Y-110828571D01*
X34745238Y-110733333D01*
X34840476Y-110638095D01*
X34888095Y-110542857D01*
X80826190Y-98023809D02*
X81302381Y-98023809D01*
X80302381Y-97690476D02*
X80826190Y-98023809D01*
X80302381Y-98357143D01*
X80397619Y-98642857D02*
X80350000Y-98690476D01*
X80302381Y-98785714D01*
X80302381Y-99023810D01*
X80350000Y-99119048D01*
X80397619Y-99166667D01*
X80492857Y-99214286D01*
X80588095Y-99214286D01*
X80730952Y-99166667D01*
X81302381Y-98595238D01*
X81302381Y-99214286D01*
X102376190Y-98023809D02*
X102852381Y-98023809D01*
X101852381Y-97690476D02*
X102376190Y-98023809D01*
X101852381Y-98357143D01*
X101852381Y-98595238D02*
X101852381Y-99214286D01*
X102233333Y-98880952D01*
X102233333Y-99023810D01*
X102280952Y-99119048D01*
X102328571Y-99166667D01*
X102423810Y-99214286D01*
X102661905Y-99214286D01*
X102757143Y-99166667D01*
X102804762Y-99119048D01*
X102852381Y-99023810D01*
X102852381Y-98738095D01*
X102804762Y-98642857D01*
X102757143Y-98595238D01*
X129476190Y-109923809D02*
X129952381Y-109923809D01*
X128952381Y-109590476D02*
X129476190Y-109923809D01*
X128952381Y-110257143D01*
X129285714Y-111019048D02*
X129952381Y-111019048D01*
X128904762Y-110780952D02*
X129619048Y-110542857D01*
X129619048Y-111161905D01*
X40726190Y-109923809D02*
X41202381Y-109923809D01*
X40202381Y-109590476D02*
X40726190Y-109923809D01*
X40202381Y-110257143D01*
X40202381Y-111066667D02*
X40202381Y-110590476D01*
X40678571Y-110542857D01*
X40630952Y-110590476D01*
X40583333Y-110685714D01*
X40583333Y-110923810D01*
X40630952Y-111019048D01*
X40678571Y-111066667D01*
X40773810Y-111114286D01*
X41011905Y-111114286D01*
X41107143Y-111066667D01*
X41154762Y-111019048D01*
X41202381Y-110923810D01*
X41202381Y-110685714D01*
X41154762Y-110590476D01*
X41107143Y-110542857D01*
X41626190Y-98023809D02*
X42102381Y-98023809D01*
X41102381Y-97690476D02*
X41626190Y-98023809D01*
X41102381Y-98357143D01*
X41102381Y-99119048D02*
X41102381Y-98928571D01*
X41150000Y-98833333D01*
X41197619Y-98785714D01*
X41340476Y-98690476D01*
X41530952Y-98642857D01*
X41911905Y-98642857D01*
X42007143Y-98690476D01*
X42054762Y-98738095D01*
X42102381Y-98833333D01*
X42102381Y-99023810D01*
X42054762Y-99119048D01*
X42007143Y-99166667D01*
X41911905Y-99214286D01*
X41673810Y-99214286D01*
X41578571Y-99166667D01*
X41530952Y-99119048D01*
X41483333Y-99023810D01*
X41483333Y-98833333D01*
X41530952Y-98738095D01*
X41578571Y-98690476D01*
X41673810Y-98642857D01*
X51926190Y-109923809D02*
X52402381Y-109923809D01*
X51402381Y-109590476D02*
X51926190Y-109923809D01*
X51402381Y-110257143D01*
X51402381Y-110495238D02*
X51402381Y-111161905D01*
X52402381Y-110733333D01*
X52826190Y-98023809D02*
X53302381Y-98023809D01*
X52302381Y-97690476D02*
X52826190Y-98023809D01*
X52302381Y-98357143D01*
X52730952Y-98833333D02*
X52683333Y-98738095D01*
X52635714Y-98690476D01*
X52540476Y-98642857D01*
X52492857Y-98642857D01*
X52397619Y-98690476D01*
X52350000Y-98738095D01*
X52302381Y-98833333D01*
X52302381Y-99023810D01*
X52350000Y-99119048D01*
X52397619Y-99166667D01*
X52492857Y-99214286D01*
X52540476Y-99214286D01*
X52635714Y-99166667D01*
X52683333Y-99119048D01*
X52730952Y-99023810D01*
X52730952Y-98833333D01*
X52778571Y-98738095D01*
X52826190Y-98690476D01*
X52921429Y-98642857D01*
X53111905Y-98642857D01*
X53207143Y-98690476D01*
X53254762Y-98738095D01*
X53302381Y-98833333D01*
X53302381Y-99023810D01*
X53254762Y-99119048D01*
X53207143Y-99166667D01*
X53111905Y-99214286D01*
X52921429Y-99214286D01*
X52826190Y-99166667D01*
X52778571Y-99119048D01*
X52730952Y-99023810D01*
X63126190Y-109923809D02*
X63602381Y-109923809D01*
X62602381Y-109590476D02*
X63126190Y-109923809D01*
X62602381Y-110257143D01*
X63602381Y-110638095D02*
X63602381Y-110828571D01*
X63554762Y-110923810D01*
X63507143Y-110971429D01*
X63364286Y-111066667D01*
X63173810Y-111114286D01*
X62792857Y-111114286D01*
X62697619Y-111066667D01*
X62650000Y-111019048D01*
X62602381Y-110923810D01*
X62602381Y-110733333D01*
X62650000Y-110638095D01*
X62697619Y-110590476D01*
X62792857Y-110542857D01*
X63030952Y-110542857D01*
X63126190Y-110590476D01*
X63173810Y-110638095D01*
X63221429Y-110733333D01*
X63221429Y-110923810D01*
X63173810Y-111019048D01*
X63126190Y-111066667D01*
X63030952Y-111114286D01*
X64026190Y-97547619D02*
X64502381Y-97547619D01*
X63502381Y-97214286D02*
X64026190Y-97547619D01*
X63502381Y-97880953D01*
X64502381Y-98738096D02*
X64502381Y-98166667D01*
X64502381Y-98452381D02*
X63502381Y-98452381D01*
X63645238Y-98357143D01*
X63740476Y-98261905D01*
X63788095Y-98166667D01*
X63502381Y-99357143D02*
X63502381Y-99452382D01*
X63550000Y-99547620D01*
X63597619Y-99595239D01*
X63692857Y-99642858D01*
X63883333Y-99690477D01*
X64121429Y-99690477D01*
X64311905Y-99642858D01*
X64407143Y-99595239D01*
X64454762Y-99547620D01*
X64502381Y-99452382D01*
X64502381Y-99357143D01*
X64454762Y-99261905D01*
X64407143Y-99214286D01*
X64311905Y-99166667D01*
X64121429Y-99119048D01*
X63883333Y-99119048D01*
X63692857Y-99166667D01*
X63597619Y-99214286D01*
X63550000Y-99261905D01*
X63502381Y-99357143D01*
X74326190Y-109447619D02*
X74802381Y-109447619D01*
X73802381Y-109114286D02*
X74326190Y-109447619D01*
X73802381Y-109780953D01*
X74802381Y-110638096D02*
X74802381Y-110066667D01*
X74802381Y-110352381D02*
X73802381Y-110352381D01*
X73945238Y-110257143D01*
X74040476Y-110161905D01*
X74088095Y-110066667D01*
X74802381Y-111590477D02*
X74802381Y-111019048D01*
X74802381Y-111304762D02*
X73802381Y-111304762D01*
X73945238Y-111209524D01*
X74040476Y-111114286D01*
X74088095Y-111019048D01*
X75226190Y-97547619D02*
X75702381Y-97547619D01*
X74702381Y-97214286D02*
X75226190Y-97547619D01*
X74702381Y-97880953D01*
X75702381Y-98738096D02*
X75702381Y-98166667D01*
X75702381Y-98452381D02*
X74702381Y-98452381D01*
X74845238Y-98357143D01*
X74940476Y-98261905D01*
X74988095Y-98166667D01*
X74797619Y-99119048D02*
X74750000Y-99166667D01*
X74702381Y-99261905D01*
X74702381Y-99500001D01*
X74750000Y-99595239D01*
X74797619Y-99642858D01*
X74892857Y-99690477D01*
X74988095Y-99690477D01*
X75130952Y-99642858D01*
X75702381Y-99071429D01*
X75702381Y-99690477D01*
X96776190Y-97547619D02*
X97252381Y-97547619D01*
X96252381Y-97214286D02*
X96776190Y-97547619D01*
X96252381Y-97880953D01*
X97252381Y-98738096D02*
X97252381Y-98166667D01*
X97252381Y-98452381D02*
X96252381Y-98452381D01*
X96395238Y-98357143D01*
X96490476Y-98261905D01*
X96538095Y-98166667D01*
X96252381Y-99071429D02*
X96252381Y-99690477D01*
X96633333Y-99357143D01*
X96633333Y-99500001D01*
X96680952Y-99595239D01*
X96728571Y-99642858D01*
X96823810Y-99690477D01*
X97061905Y-99690477D01*
X97157143Y-99642858D01*
X97204762Y-99595239D01*
X97252381Y-99500001D01*
X97252381Y-99214286D01*
X97204762Y-99119048D01*
X97157143Y-99071429D01*
X112676190Y-109447619D02*
X113152381Y-109447619D01*
X112152381Y-109114286D02*
X112676190Y-109447619D01*
X112152381Y-109780953D01*
X113152381Y-110638096D02*
X113152381Y-110066667D01*
X113152381Y-110352381D02*
X112152381Y-110352381D01*
X112295238Y-110257143D01*
X112390476Y-110161905D01*
X112438095Y-110066667D01*
X112485714Y-111495239D02*
X113152381Y-111495239D01*
X112104762Y-111257143D02*
X112819048Y-111019048D01*
X112819048Y-111638096D01*
X113576190Y-97547619D02*
X114052381Y-97547619D01*
X113052381Y-97214286D02*
X113576190Y-97547619D01*
X113052381Y-97880953D01*
X114052381Y-98738096D02*
X114052381Y-98166667D01*
X114052381Y-98452381D02*
X113052381Y-98452381D01*
X113195238Y-98357143D01*
X113290476Y-98261905D01*
X113338095Y-98166667D01*
X113052381Y-99642858D02*
X113052381Y-99166667D01*
X113528571Y-99119048D01*
X113480952Y-99166667D01*
X113433333Y-99261905D01*
X113433333Y-99500001D01*
X113480952Y-99595239D01*
X113528571Y-99642858D01*
X113623810Y-99690477D01*
X113861905Y-99690477D01*
X113957143Y-99642858D01*
X114004762Y-99595239D01*
X114052381Y-99500001D01*
X114052381Y-99261905D01*
X114004762Y-99166667D01*
X113957143Y-99119048D01*
X123876190Y-109447619D02*
X124352381Y-109447619D01*
X123352381Y-109114286D02*
X123876190Y-109447619D01*
X123352381Y-109780953D01*
X124352381Y-110638096D02*
X124352381Y-110066667D01*
X124352381Y-110352381D02*
X123352381Y-110352381D01*
X123495238Y-110257143D01*
X123590476Y-110161905D01*
X123638095Y-110066667D01*
X123352381Y-111495239D02*
X123352381Y-111304762D01*
X123400000Y-111209524D01*
X123447619Y-111161905D01*
X123590476Y-111066667D01*
X123780952Y-111019048D01*
X124161905Y-111019048D01*
X124257143Y-111066667D01*
X124304762Y-111114286D01*
X124352381Y-111209524D01*
X124352381Y-111400001D01*
X124304762Y-111495239D01*
X124257143Y-111542858D01*
X124161905Y-111590477D01*
X123923810Y-111590477D01*
X123828571Y-111542858D01*
X123780952Y-111495239D01*
X123733333Y-111400001D01*
X123733333Y-111209524D01*
X123780952Y-111114286D01*
X123828571Y-111066667D01*
X123923810Y-111019048D01*
X51058095Y-89772381D02*
X51058095Y-90581905D01*
X51010476Y-90677143D01*
X50962857Y-90724762D01*
X50867619Y-90772381D01*
X50677142Y-90772381D01*
X50581904Y-90724762D01*
X50534285Y-90677143D01*
X50486666Y-90581905D01*
X50486666Y-89772381D01*
X49486666Y-90772381D02*
X50058095Y-90772381D01*
X49772381Y-90772381D02*
X49772381Y-89772381D01*
X49867619Y-89915238D01*
X49962857Y-90010476D01*
X50058095Y-90058095D01*
X48867619Y-89772381D02*
X48772380Y-89772381D01*
X48677142Y-89820000D01*
X48629523Y-89867619D01*
X48581904Y-89962857D01*
X48534285Y-90153333D01*
X48534285Y-90391429D01*
X48581904Y-90581905D01*
X48629523Y-90677143D01*
X48677142Y-90724762D01*
X48772380Y-90772381D01*
X48867619Y-90772381D01*
X48962857Y-90724762D01*
X49010476Y-90677143D01*
X49058095Y-90581905D01*
X49105714Y-90391429D01*
X49105714Y-90153333D01*
X49058095Y-89962857D01*
X49010476Y-89867619D01*
X48962857Y-89820000D01*
X48867619Y-89772381D01*
X120482381Y-42614762D02*
X120006190Y-42281428D01*
X120482381Y-42043333D02*
X119482381Y-42043333D01*
X119482381Y-42424286D01*
X119530000Y-42519524D01*
X119577619Y-42567143D01*
X119672857Y-42614762D01*
X119815714Y-42614762D01*
X119910952Y-42567143D01*
X119958571Y-42519524D01*
X120006190Y-42424286D01*
X120006190Y-42043333D01*
X119482381Y-42900476D02*
X120482381Y-43233809D01*
X119482381Y-43567143D01*
X120482381Y-44424286D02*
X120482381Y-43852857D01*
X120482381Y-44138571D02*
X119482381Y-44138571D01*
X119625238Y-44043333D01*
X119720476Y-43948095D01*
X119768095Y-43852857D01*
X59962381Y-82048095D02*
X60771905Y-82048095D01*
X60867143Y-82095714D01*
X60914762Y-82143333D01*
X60962381Y-82238571D01*
X60962381Y-82429048D01*
X60914762Y-82524286D01*
X60867143Y-82571905D01*
X60771905Y-82619524D01*
X59962381Y-82619524D01*
X59962381Y-83000476D02*
X59962381Y-83619524D01*
X60343333Y-83286190D01*
X60343333Y-83429048D01*
X60390952Y-83524286D01*
X60438571Y-83571905D01*
X60533810Y-83619524D01*
X60771905Y-83619524D01*
X60867143Y-83571905D01*
X60914762Y-83524286D01*
X60962381Y-83429048D01*
X60962381Y-83143333D01*
X60914762Y-83048095D01*
X60867143Y-83000476D01*
X96851905Y-80832381D02*
X96851905Y-81641905D01*
X96804286Y-81737143D01*
X96756667Y-81784762D01*
X96661429Y-81832381D01*
X96470952Y-81832381D01*
X96375714Y-81784762D01*
X96328095Y-81737143D01*
X96280476Y-81641905D01*
X96280476Y-80832381D01*
X95756667Y-81832381D02*
X95566191Y-81832381D01*
X95470952Y-81784762D01*
X95423333Y-81737143D01*
X95328095Y-81594286D01*
X95280476Y-81403810D01*
X95280476Y-81022857D01*
X95328095Y-80927619D01*
X95375714Y-80880000D01*
X95470952Y-80832381D01*
X95661429Y-80832381D01*
X95756667Y-80880000D01*
X95804286Y-80927619D01*
X95851905Y-81022857D01*
X95851905Y-81260952D01*
X95804286Y-81356190D01*
X95756667Y-81403810D01*
X95661429Y-81451429D01*
X95470952Y-81451429D01*
X95375714Y-81403810D01*
X95328095Y-81356190D01*
X95280476Y-81260952D01*
X64157143Y-68082143D02*
X64204762Y-68034524D01*
X64252381Y-67891667D01*
X64252381Y-67796429D01*
X64204762Y-67653571D01*
X64109524Y-67558333D01*
X64014286Y-67510714D01*
X63823810Y-67463095D01*
X63680952Y-67463095D01*
X63490476Y-67510714D01*
X63395238Y-67558333D01*
X63300000Y-67653571D01*
X63252381Y-67796429D01*
X63252381Y-67891667D01*
X63300000Y-68034524D01*
X63347619Y-68082143D01*
X63252381Y-68415476D02*
X63252381Y-69034524D01*
X63633333Y-68701190D01*
X63633333Y-68844048D01*
X63680952Y-68939286D01*
X63728571Y-68986905D01*
X63823810Y-69034524D01*
X64061905Y-69034524D01*
X64157143Y-68986905D01*
X64204762Y-68939286D01*
X64252381Y-68844048D01*
X64252381Y-68558333D01*
X64204762Y-68463095D01*
X64157143Y-68415476D01*
X64252381Y-69510714D02*
X64252381Y-69701190D01*
X64204762Y-69796429D01*
X64157143Y-69844048D01*
X64014286Y-69939286D01*
X63823810Y-69986905D01*
X63442857Y-69986905D01*
X63347619Y-69939286D01*
X63300000Y-69891667D01*
X63252381Y-69796429D01*
X63252381Y-69605952D01*
X63300000Y-69510714D01*
X63347619Y-69463095D01*
X63442857Y-69415476D01*
X63680952Y-69415476D01*
X63776190Y-69463095D01*
X63823810Y-69510714D01*
X63871429Y-69605952D01*
X63871429Y-69796429D01*
X63823810Y-69891667D01*
X63776190Y-69939286D01*
X63680952Y-69986905D01*
X49657143Y-81057143D02*
X49704762Y-81009524D01*
X49752381Y-80866667D01*
X49752381Y-80771429D01*
X49704762Y-80628571D01*
X49609524Y-80533333D01*
X49514286Y-80485714D01*
X49323810Y-80438095D01*
X49180952Y-80438095D01*
X48990476Y-80485714D01*
X48895238Y-80533333D01*
X48800000Y-80628571D01*
X48752381Y-80771429D01*
X48752381Y-80866667D01*
X48800000Y-81009524D01*
X48847619Y-81057143D01*
X48752381Y-81961905D02*
X48752381Y-81485714D01*
X49228571Y-81438095D01*
X49180952Y-81485714D01*
X49133333Y-81580952D01*
X49133333Y-81819048D01*
X49180952Y-81914286D01*
X49228571Y-81961905D01*
X49323810Y-82009524D01*
X49561905Y-82009524D01*
X49657143Y-81961905D01*
X49704762Y-81914286D01*
X49752381Y-81819048D01*
X49752381Y-81580952D01*
X49704762Y-81485714D01*
X49657143Y-81438095D01*
X49180952Y-82580952D02*
X49133333Y-82485714D01*
X49085714Y-82438095D01*
X48990476Y-82390476D01*
X48942857Y-82390476D01*
X48847619Y-82438095D01*
X48800000Y-82485714D01*
X48752381Y-82580952D01*
X48752381Y-82771429D01*
X48800000Y-82866667D01*
X48847619Y-82914286D01*
X48942857Y-82961905D01*
X48990476Y-82961905D01*
X49085714Y-82914286D01*
X49133333Y-82866667D01*
X49180952Y-82771429D01*
X49180952Y-82580952D01*
X49228571Y-82485714D01*
X49276190Y-82438095D01*
X49371429Y-82390476D01*
X49561905Y-82390476D01*
X49657143Y-82438095D01*
X49704762Y-82485714D01*
X49752381Y-82580952D01*
X49752381Y-82771429D01*
X49704762Y-82866667D01*
X49657143Y-82914286D01*
X49561905Y-82961905D01*
X49371429Y-82961905D01*
X49276190Y-82914286D01*
X49228571Y-82866667D01*
X49180952Y-82771429D01*
X99622857Y-88827143D02*
X99670476Y-88874762D01*
X99813333Y-88922381D01*
X99908571Y-88922381D01*
X100051429Y-88874762D01*
X100146667Y-88779524D01*
X100194286Y-88684286D01*
X100241905Y-88493810D01*
X100241905Y-88350952D01*
X100194286Y-88160476D01*
X100146667Y-88065238D01*
X100051429Y-87970000D01*
X99908571Y-87922381D01*
X99813333Y-87922381D01*
X99670476Y-87970000D01*
X99622857Y-88017619D01*
X98718095Y-87922381D02*
X99194286Y-87922381D01*
X99241905Y-88398571D01*
X99194286Y-88350952D01*
X99099048Y-88303333D01*
X98860952Y-88303333D01*
X98765714Y-88350952D01*
X98718095Y-88398571D01*
X98670476Y-88493810D01*
X98670476Y-88731905D01*
X98718095Y-88827143D01*
X98765714Y-88874762D01*
X98860952Y-88922381D01*
X99099048Y-88922381D01*
X99194286Y-88874762D01*
X99241905Y-88827143D01*
X97813333Y-88255714D02*
X97813333Y-88922381D01*
X98051429Y-87874762D02*
X98289524Y-88589048D01*
X97670476Y-88589048D01*
X69452381Y-58357143D02*
X69452381Y-57880952D01*
X68452381Y-57880952D01*
X68547619Y-58642857D02*
X68500000Y-58690476D01*
X68452381Y-58785714D01*
X68452381Y-59023810D01*
X68500000Y-59119048D01*
X68547619Y-59166667D01*
X68642857Y-59214286D01*
X68738095Y-59214286D01*
X68880952Y-59166667D01*
X69452381Y-58595238D01*
X69452381Y-59214286D01*
X68452381Y-59547619D02*
X68452381Y-60166667D01*
X68833333Y-59833333D01*
X68833333Y-59976191D01*
X68880952Y-60071429D01*
X68928571Y-60119048D01*
X69023810Y-60166667D01*
X69261905Y-60166667D01*
X69357143Y-60119048D01*
X69404762Y-60071429D01*
X69452381Y-59976191D01*
X69452381Y-59690476D01*
X69404762Y-59595238D01*
X69357143Y-59547619D01*
X115267381Y-86126905D02*
X114267381Y-86126905D01*
X115267381Y-86698334D02*
X114695952Y-86269762D01*
X114267381Y-86698334D02*
X114838810Y-86126905D01*
X115267381Y-87650715D02*
X115267381Y-87079286D01*
X115267381Y-87365000D02*
X114267381Y-87365000D01*
X114410238Y-87269762D01*
X114505476Y-87174524D01*
X114553095Y-87079286D01*
X90952381Y-74226190D02*
X90952381Y-74702381D01*
X91285714Y-73702381D02*
X90952381Y-74226190D01*
X90619047Y-73702381D01*
X89761904Y-74702381D02*
X90333333Y-74702381D01*
X90047619Y-74702381D02*
X90047619Y-73702381D01*
X90142857Y-73845238D01*
X90238095Y-73940476D01*
X90333333Y-73988095D01*
X89190476Y-74130952D02*
X89285714Y-74083333D01*
X89333333Y-74035714D01*
X89380952Y-73940476D01*
X89380952Y-73892857D01*
X89333333Y-73797619D01*
X89285714Y-73750000D01*
X89190476Y-73702381D01*
X88999999Y-73702381D01*
X88904761Y-73750000D01*
X88857142Y-73797619D01*
X88809523Y-73892857D01*
X88809523Y-73940476D01*
X88857142Y-74035714D01*
X88904761Y-74083333D01*
X88999999Y-74130952D01*
X89190476Y-74130952D01*
X89285714Y-74178571D01*
X89333333Y-74226190D01*
X89380952Y-74321429D01*
X89380952Y-74511905D01*
X89333333Y-74607143D01*
X89285714Y-74654762D01*
X89190476Y-74702381D01*
X88999999Y-74702381D01*
X88904761Y-74654762D01*
X88857142Y-74607143D01*
X88809523Y-74511905D01*
X88809523Y-74321429D01*
X88857142Y-74226190D01*
X88904761Y-74178571D01*
X88999999Y-74130952D01*
X74142857Y-76552381D02*
X74619048Y-76552381D01*
X74619048Y-75552381D01*
X73857143Y-75647619D02*
X73809524Y-75600000D01*
X73714286Y-75552381D01*
X73476190Y-75552381D01*
X73380952Y-75600000D01*
X73333333Y-75647619D01*
X73285714Y-75742857D01*
X73285714Y-75838095D01*
X73333333Y-75980952D01*
X73904762Y-76552381D01*
X73285714Y-76552381D01*
X72428571Y-75885714D02*
X72428571Y-76552381D01*
X72666667Y-75504762D02*
X72904762Y-76219048D01*
X72285714Y-76219048D01*
X76342857Y-83557143D02*
X76390476Y-83604762D01*
X76533333Y-83652381D01*
X76628571Y-83652381D01*
X76771429Y-83604762D01*
X76866667Y-83509524D01*
X76914286Y-83414286D01*
X76961905Y-83223810D01*
X76961905Y-83080952D01*
X76914286Y-82890476D01*
X76866667Y-82795238D01*
X76771429Y-82700000D01*
X76628571Y-82652381D01*
X76533333Y-82652381D01*
X76390476Y-82700000D01*
X76342857Y-82747619D01*
X75485714Y-82985714D02*
X75485714Y-83652381D01*
X75723810Y-82604762D02*
X75961905Y-83319048D01*
X75342857Y-83319048D01*
X75009524Y-82747619D02*
X74961905Y-82700000D01*
X74866667Y-82652381D01*
X74628571Y-82652381D01*
X74533333Y-82700000D01*
X74485714Y-82747619D01*
X74438095Y-82842857D01*
X74438095Y-82938095D01*
X74485714Y-83080952D01*
X75057143Y-83652381D01*
X74438095Y-83652381D01*
X70058095Y-31892381D02*
X70058095Y-30892381D01*
X69677142Y-30892381D01*
X69581904Y-30940000D01*
X69534285Y-30987619D01*
X69486666Y-31082857D01*
X69486666Y-31225714D01*
X69534285Y-31320952D01*
X69581904Y-31368571D01*
X69677142Y-31416190D01*
X70058095Y-31416190D01*
X68534285Y-31892381D02*
X69105714Y-31892381D01*
X68820000Y-31892381D02*
X68820000Y-30892381D01*
X68915238Y-31035238D01*
X69010476Y-31130476D01*
X69105714Y-31178095D01*
X100999772Y-35403154D02*
X101336490Y-35739872D01*
X100865085Y-34797063D02*
X100999772Y-35403154D01*
X100393680Y-35268468D01*
X100494695Y-36581666D02*
X100898757Y-36177605D01*
X100696726Y-36379635D02*
X99989620Y-35672528D01*
X100157978Y-35706200D01*
X100292665Y-35706200D01*
X100393680Y-35672528D01*
X100157978Y-36918383D02*
X100023291Y-37053070D01*
X99922275Y-37086742D01*
X99854932Y-37086742D01*
X99686573Y-37053071D01*
X99518215Y-36952056D01*
X99248840Y-36682681D01*
X99215169Y-36581666D01*
X99215169Y-36514323D01*
X99248840Y-36413307D01*
X99383528Y-36278620D01*
X99484543Y-36244948D01*
X99551887Y-36244948D01*
X99652902Y-36278620D01*
X99821260Y-36446978D01*
X99854932Y-36547994D01*
X99854933Y-36615338D01*
X99821261Y-36716353D01*
X99686573Y-36851040D01*
X99585558Y-36884712D01*
X99518214Y-36884711D01*
X99417199Y-36851040D01*
D14*
X67456428Y-46474714D02*
X67710428Y-46111857D01*
X67891856Y-46474714D02*
X67891856Y-45712714D01*
X67601571Y-45712714D01*
X67528999Y-45749000D01*
X67492714Y-45785286D01*
X67456428Y-45857857D01*
X67456428Y-45966714D01*
X67492714Y-46039286D01*
X67528999Y-46075571D01*
X67601571Y-46111857D01*
X67891856Y-46111857D01*
X66984714Y-45712714D02*
X66839571Y-45712714D01*
X66766999Y-45749000D01*
X66694428Y-45821571D01*
X66658142Y-45966714D01*
X66658142Y-46220714D01*
X66694428Y-46365857D01*
X66766999Y-46438429D01*
X66839571Y-46474714D01*
X66984714Y-46474714D01*
X67057285Y-46438429D01*
X67129856Y-46365857D01*
X67166142Y-46220714D01*
X67166142Y-45966714D01*
X67129856Y-45821571D01*
X67057285Y-45749000D01*
X66984714Y-45712714D01*
X66440428Y-45712714D02*
X66004999Y-45712714D01*
X66222713Y-46474714D02*
X66222713Y-45712714D01*
X65351857Y-46474714D02*
X65787285Y-46474714D01*
X65569571Y-46474714D02*
X65569571Y-45712714D01*
X65642142Y-45821571D01*
X65714714Y-45894143D01*
X65787285Y-45930429D01*
D12*
X120452381Y-33261905D02*
X119452381Y-33261905D01*
X119452381Y-33642858D01*
X119500000Y-33738096D01*
X119547619Y-33785715D01*
X119642857Y-33833334D01*
X119785714Y-33833334D01*
X119880952Y-33785715D01*
X119928571Y-33738096D01*
X119976190Y-33642858D01*
X119976190Y-33261905D01*
X119452381Y-34166667D02*
X119452381Y-34785715D01*
X119833333Y-34452381D01*
X119833333Y-34595239D01*
X119880952Y-34690477D01*
X119928571Y-34738096D01*
X120023810Y-34785715D01*
X120261905Y-34785715D01*
X120357143Y-34738096D01*
X120404762Y-34690477D01*
X120452381Y-34595239D01*
X120452381Y-34309524D01*
X120404762Y-34214286D01*
X120357143Y-34166667D01*
X86372381Y-28167143D02*
X85896190Y-27833809D01*
X86372381Y-27595714D02*
X85372381Y-27595714D01*
X85372381Y-27976667D01*
X85420000Y-28071905D01*
X85467619Y-28119524D01*
X85562857Y-28167143D01*
X85705714Y-28167143D01*
X85800952Y-28119524D01*
X85848571Y-28071905D01*
X85896190Y-27976667D01*
X85896190Y-27595714D01*
X85372381Y-29071905D02*
X85372381Y-28595714D01*
X85848571Y-28548095D01*
X85800952Y-28595714D01*
X85753333Y-28690952D01*
X85753333Y-28929048D01*
X85800952Y-29024286D01*
X85848571Y-29071905D01*
X85943810Y-29119524D01*
X86181905Y-29119524D01*
X86277143Y-29071905D01*
X86324762Y-29024286D01*
X86372381Y-28929048D01*
X86372381Y-28690952D01*
X86324762Y-28595714D01*
X86277143Y-28548095D01*
X85372381Y-29452857D02*
X85372381Y-30071905D01*
X85753333Y-29738571D01*
X85753333Y-29881429D01*
X85800952Y-29976667D01*
X85848571Y-30024286D01*
X85943810Y-30071905D01*
X86181905Y-30071905D01*
X86277143Y-30024286D01*
X86324762Y-29976667D01*
X86372381Y-29881429D01*
X86372381Y-29595714D01*
X86324762Y-29500476D01*
X86277143Y-29452857D01*
X66133333Y-57784762D02*
X65990476Y-57832381D01*
X65752380Y-57832381D01*
X65657142Y-57784762D01*
X65609523Y-57737143D01*
X65561904Y-57641905D01*
X65561904Y-57546667D01*
X65609523Y-57451429D01*
X65657142Y-57403810D01*
X65752380Y-57356190D01*
X65942857Y-57308571D01*
X66038095Y-57260952D01*
X66085714Y-57213333D01*
X66133333Y-57118095D01*
X66133333Y-57022857D01*
X66085714Y-56927619D01*
X66038095Y-56880000D01*
X65942857Y-56832381D01*
X65704761Y-56832381D01*
X65561904Y-56880000D01*
X65228571Y-56832381D02*
X64990476Y-57832381D01*
X64799999Y-57118095D01*
X64609523Y-57832381D01*
X64371428Y-56832381D01*
X63466666Y-57832381D02*
X64038095Y-57832381D01*
X63752381Y-57832381D02*
X63752381Y-56832381D01*
X63847619Y-56975238D01*
X63942857Y-57070476D01*
X64038095Y-57118095D01*
X56563333Y-57844762D02*
X56420476Y-57892381D01*
X56182380Y-57892381D01*
X56087142Y-57844762D01*
X56039523Y-57797143D01*
X55991904Y-57701905D01*
X55991904Y-57606667D01*
X56039523Y-57511429D01*
X56087142Y-57463810D01*
X56182380Y-57416190D01*
X56372857Y-57368571D01*
X56468095Y-57320952D01*
X56515714Y-57273333D01*
X56563333Y-57178095D01*
X56563333Y-57082857D01*
X56515714Y-56987619D01*
X56468095Y-56940000D01*
X56372857Y-56892381D01*
X56134761Y-56892381D01*
X55991904Y-56940000D01*
X55658571Y-56892381D02*
X55420476Y-57892381D01*
X55229999Y-57178095D01*
X55039523Y-57892381D01*
X54801428Y-56892381D01*
X54468095Y-56987619D02*
X54420476Y-56940000D01*
X54325238Y-56892381D01*
X54087142Y-56892381D01*
X53991904Y-56940000D01*
X53944285Y-56987619D01*
X53896666Y-57082857D01*
X53896666Y-57178095D01*
X53944285Y-57320952D01*
X54515714Y-57892381D01*
X53896666Y-57892381D01*
X72437143Y-91307143D02*
X72484762Y-91259524D01*
X72532381Y-91116667D01*
X72532381Y-91021429D01*
X72484762Y-90878571D01*
X72389524Y-90783333D01*
X72294286Y-90735714D01*
X72103810Y-90688095D01*
X71960952Y-90688095D01*
X71770476Y-90735714D01*
X71675238Y-90783333D01*
X71580000Y-90878571D01*
X71532381Y-91021429D01*
X71532381Y-91116667D01*
X71580000Y-91259524D01*
X71627619Y-91307143D01*
X71627619Y-91688095D02*
X71580000Y-91735714D01*
X71532381Y-91830952D01*
X71532381Y-92069048D01*
X71580000Y-92164286D01*
X71627619Y-92211905D01*
X71722857Y-92259524D01*
X71818095Y-92259524D01*
X71960952Y-92211905D01*
X72532381Y-91640476D01*
X72532381Y-92259524D01*
X71532381Y-92878571D02*
X71532381Y-92973810D01*
X71580000Y-93069048D01*
X71627619Y-93116667D01*
X71722857Y-93164286D01*
X71913333Y-93211905D01*
X72151429Y-93211905D01*
X72341905Y-93164286D01*
X72437143Y-93116667D01*
X72484762Y-93069048D01*
X72532381Y-92973810D01*
X72532381Y-92878571D01*
X72484762Y-92783333D01*
X72437143Y-92735714D01*
X72341905Y-92688095D01*
X72151429Y-92640476D01*
X71913333Y-92640476D01*
X71722857Y-92688095D01*
X71627619Y-92735714D01*
X71580000Y-92783333D01*
X71532381Y-92878571D01*
X76832857Y-95027143D02*
X76880476Y-95074762D01*
X77023333Y-95122381D01*
X77118571Y-95122381D01*
X77261429Y-95074762D01*
X77356667Y-94979524D01*
X77404286Y-94884286D01*
X77451905Y-94693810D01*
X77451905Y-94550952D01*
X77404286Y-94360476D01*
X77356667Y-94265238D01*
X77261429Y-94170000D01*
X77118571Y-94122381D01*
X77023333Y-94122381D01*
X76880476Y-94170000D01*
X76832857Y-94217619D01*
X76499524Y-94122381D02*
X75880476Y-94122381D01*
X76213810Y-94503333D01*
X76070952Y-94503333D01*
X75975714Y-94550952D01*
X75928095Y-94598571D01*
X75880476Y-94693810D01*
X75880476Y-94931905D01*
X75928095Y-95027143D01*
X75975714Y-95074762D01*
X76070952Y-95122381D01*
X76356667Y-95122381D01*
X76451905Y-95074762D01*
X76499524Y-95027143D01*
X75023333Y-94455714D02*
X75023333Y-95122381D01*
X75261429Y-94074762D02*
X75499524Y-94789048D01*
X74880476Y-94789048D01*
X50022857Y-97157143D02*
X50070476Y-97204762D01*
X50213333Y-97252381D01*
X50308571Y-97252381D01*
X50451429Y-97204762D01*
X50546667Y-97109524D01*
X50594286Y-97014286D01*
X50641905Y-96823810D01*
X50641905Y-96680952D01*
X50594286Y-96490476D01*
X50546667Y-96395238D01*
X50451429Y-96300000D01*
X50308571Y-96252381D01*
X50213333Y-96252381D01*
X50070476Y-96300000D01*
X50022857Y-96347619D01*
X49118095Y-96252381D02*
X49594286Y-96252381D01*
X49641905Y-96728571D01*
X49594286Y-96680952D01*
X49499048Y-96633333D01*
X49260952Y-96633333D01*
X49165714Y-96680952D01*
X49118095Y-96728571D01*
X49070476Y-96823810D01*
X49070476Y-97061905D01*
X49118095Y-97157143D01*
X49165714Y-97204762D01*
X49260952Y-97252381D01*
X49499048Y-97252381D01*
X49594286Y-97204762D01*
X49641905Y-97157143D01*
X48737143Y-96252381D02*
X48070476Y-96252381D01*
X48499048Y-97252381D01*
X47745238Y-39192381D02*
X48078572Y-38716190D01*
X48316667Y-39192381D02*
X48316667Y-38192381D01*
X47935714Y-38192381D01*
X47840476Y-38240000D01*
X47792857Y-38287619D01*
X47745238Y-38382857D01*
X47745238Y-38525714D01*
X47792857Y-38620952D01*
X47840476Y-38668571D01*
X47935714Y-38716190D01*
X48316667Y-38716190D01*
X47459524Y-38192381D02*
X47126191Y-39192381D01*
X46792857Y-38192381D01*
X46507143Y-38287619D02*
X46459524Y-38240000D01*
X46364286Y-38192381D01*
X46126190Y-38192381D01*
X46030952Y-38240000D01*
X45983333Y-38287619D01*
X45935714Y-38382857D01*
X45935714Y-38478095D01*
X45983333Y-38620952D01*
X46554762Y-39192381D01*
X45935714Y-39192381D01*
X65622381Y-24671905D02*
X64622381Y-24671905D01*
X64622381Y-25052858D01*
X64670000Y-25148096D01*
X64717619Y-25195715D01*
X64812857Y-25243334D01*
X64955714Y-25243334D01*
X65050952Y-25195715D01*
X65098571Y-25148096D01*
X65146190Y-25052858D01*
X65146190Y-24671905D01*
X64622381Y-26148096D02*
X64622381Y-25671905D01*
X65098571Y-25624286D01*
X65050952Y-25671905D01*
X65003333Y-25767143D01*
X65003333Y-26005239D01*
X65050952Y-26100477D01*
X65098571Y-26148096D01*
X65193810Y-26195715D01*
X65431905Y-26195715D01*
X65527143Y-26148096D01*
X65574762Y-26100477D01*
X65622381Y-26005239D01*
X65622381Y-25767143D01*
X65574762Y-25671905D01*
X65527143Y-25624286D01*
X87117143Y-80647143D02*
X87164762Y-80599524D01*
X87212381Y-80456667D01*
X87212381Y-80361429D01*
X87164762Y-80218571D01*
X87069524Y-80123333D01*
X86974286Y-80075714D01*
X86783810Y-80028095D01*
X86640952Y-80028095D01*
X86450476Y-80075714D01*
X86355238Y-80123333D01*
X86260000Y-80218571D01*
X86212381Y-80361429D01*
X86212381Y-80456667D01*
X86260000Y-80599524D01*
X86307619Y-80647143D01*
X86212381Y-81551905D02*
X86212381Y-81075714D01*
X86688571Y-81028095D01*
X86640952Y-81075714D01*
X86593333Y-81170952D01*
X86593333Y-81409048D01*
X86640952Y-81504286D01*
X86688571Y-81551905D01*
X86783810Y-81599524D01*
X87021905Y-81599524D01*
X87117143Y-81551905D01*
X87164762Y-81504286D01*
X87212381Y-81409048D01*
X87212381Y-81170952D01*
X87164762Y-81075714D01*
X87117143Y-81028095D01*
X87212381Y-82551905D02*
X87212381Y-81980476D01*
X87212381Y-82266190D02*
X86212381Y-82266190D01*
X86355238Y-82170952D01*
X86450476Y-82075714D01*
X86498095Y-81980476D01*
X58702857Y-96512381D02*
X59036191Y-96036190D01*
X59274286Y-96512381D02*
X59274286Y-95512381D01*
X58893333Y-95512381D01*
X58798095Y-95560000D01*
X58750476Y-95607619D01*
X58702857Y-95702857D01*
X58702857Y-95845714D01*
X58750476Y-95940952D01*
X58798095Y-95988571D01*
X58893333Y-96036190D01*
X59274286Y-96036190D01*
X58369524Y-95512381D02*
X57750476Y-95512381D01*
X58083810Y-95893333D01*
X57940952Y-95893333D01*
X57845714Y-95940952D01*
X57798095Y-95988571D01*
X57750476Y-96083810D01*
X57750476Y-96321905D01*
X57798095Y-96417143D01*
X57845714Y-96464762D01*
X57940952Y-96512381D01*
X58226667Y-96512381D01*
X58321905Y-96464762D01*
X58369524Y-96417143D01*
X57369524Y-95607619D02*
X57321905Y-95560000D01*
X57226667Y-95512381D01*
X56988571Y-95512381D01*
X56893333Y-95560000D01*
X56845714Y-95607619D01*
X56798095Y-95702857D01*
X56798095Y-95798095D01*
X56845714Y-95940952D01*
X57417143Y-96512381D01*
X56798095Y-96512381D01*
X58842857Y-91142381D02*
X59176191Y-90666190D01*
X59414286Y-91142381D02*
X59414286Y-90142381D01*
X59033333Y-90142381D01*
X58938095Y-90190000D01*
X58890476Y-90237619D01*
X58842857Y-90332857D01*
X58842857Y-90475714D01*
X58890476Y-90570952D01*
X58938095Y-90618571D01*
X59033333Y-90666190D01*
X59414286Y-90666190D01*
X57890476Y-91142381D02*
X58461905Y-91142381D01*
X58176191Y-91142381D02*
X58176191Y-90142381D01*
X58271429Y-90285238D01*
X58366667Y-90380476D01*
X58461905Y-90428095D01*
X57033333Y-90142381D02*
X57223810Y-90142381D01*
X57319048Y-90190000D01*
X57366667Y-90237619D01*
X57461905Y-90380476D01*
X57509524Y-90570952D01*
X57509524Y-90951905D01*
X57461905Y-91047143D01*
X57414286Y-91094762D01*
X57319048Y-91142381D01*
X57128571Y-91142381D01*
X57033333Y-91094762D01*
X56985714Y-91047143D01*
X56938095Y-90951905D01*
X56938095Y-90713810D01*
X56985714Y-90618571D01*
X57033333Y-90570952D01*
X57128571Y-90523333D01*
X57319048Y-90523333D01*
X57414286Y-90570952D01*
X57461905Y-90618571D01*
X57509524Y-90713810D01*
X101551905Y-20672381D02*
X101551905Y-21481905D01*
X101504286Y-21577143D01*
X101456667Y-21624762D01*
X101361429Y-21672381D01*
X101170952Y-21672381D01*
X101075714Y-21624762D01*
X101028095Y-21577143D01*
X100980476Y-21481905D01*
X100980476Y-20672381D01*
X100361429Y-21100952D02*
X100456667Y-21053333D01*
X100504286Y-21005714D01*
X100551905Y-20910476D01*
X100551905Y-20862857D01*
X100504286Y-20767619D01*
X100456667Y-20720000D01*
X100361429Y-20672381D01*
X100170952Y-20672381D01*
X100075714Y-20720000D01*
X100028095Y-20767619D01*
X99980476Y-20862857D01*
X99980476Y-20910476D01*
X100028095Y-21005714D01*
X100075714Y-21053333D01*
X100170952Y-21100952D01*
X100361429Y-21100952D01*
X100456667Y-21148571D01*
X100504286Y-21196190D01*
X100551905Y-21291429D01*
X100551905Y-21481905D01*
X100504286Y-21577143D01*
X100456667Y-21624762D01*
X100361429Y-21672381D01*
X100170952Y-21672381D01*
X100075714Y-21624762D01*
X100028095Y-21577143D01*
X99980476Y-21481905D01*
X99980476Y-21291429D01*
X100028095Y-21196190D01*
X100075714Y-21148571D01*
X100170952Y-21100952D01*
X49412857Y-28332381D02*
X49746191Y-27856190D01*
X49984286Y-28332381D02*
X49984286Y-27332381D01*
X49603333Y-27332381D01*
X49508095Y-27380000D01*
X49460476Y-27427619D01*
X49412857Y-27522857D01*
X49412857Y-27665714D01*
X49460476Y-27760952D01*
X49508095Y-27808571D01*
X49603333Y-27856190D01*
X49984286Y-27856190D01*
X48508095Y-27332381D02*
X48984286Y-27332381D01*
X49031905Y-27808571D01*
X48984286Y-27760952D01*
X48889048Y-27713333D01*
X48650952Y-27713333D01*
X48555714Y-27760952D01*
X48508095Y-27808571D01*
X48460476Y-27903810D01*
X48460476Y-28141905D01*
X48508095Y-28237143D01*
X48555714Y-28284762D01*
X48650952Y-28332381D01*
X48889048Y-28332381D01*
X48984286Y-28284762D01*
X49031905Y-28237143D01*
X48127143Y-27332381D02*
X47460476Y-27332381D01*
X47889048Y-28332381D01*
M02*
